<?xml version="1.0" encoding="UTF-8" standalone="no" ?>
<!DOCTYPE svg PUBLIC "-//W3C//DTD SVG 1.1//EN" "http://www.w3.org/Graphics/SVG/1.1/DTD/svg11.dtd">
<svg xmlns="http://www.w3.org/2000/svg" xmlns:xlink="http://www.w3.org/1999/xlink" version="1.1" width="1003.9370078859376" height="649.6062992203126" viewBox="0 0 588 380.4705882353" xml:space="preserve">
<desc>Created with Fabric.js 3.4.0 and NBDesigner 2.7</desc>
<defs>
</defs>
<g transform="matrix(0.3202614379 0 0 0.3202411168 294 190.2352941176)"  >
	<image style="stroke: none; stroke-width: 0; stroke-dasharray: none; stroke-linecap: butt; stroke-dashoffset: 0; stroke-linejoin: miter; stroke-miterlimit: 4; fill: rgb(255,0,0); fill-rule: nonzero; opacity: 1;"  xlink:href="https://transparentcard.de/wp-content/uploads/nbdesigner/temp/2024/02/15/17080128027648557e.png" x="-918" y="-591" width="1836" height="1182"></image>
</g>
<g transform="matrix(2.9410051782 0 0 2.9410051782 511.8939407298 218.9204692343)"  >
<path style="stroke: none; stroke-width: 1; stroke-dasharray: none; stroke-linecap: butt; stroke-dashoffset: 0; stroke-linejoin: miter; stroke-miterlimit: 4; fill: rgb(255,255,255); fill-rule: nonzero; opacity: 1;"  transform=" translate(-216.8, -74.5)" d="M 216.8 70.6 c -2.1 0 -3.9 1.7 -3.9 3.9 s 1.7 3.9 3.9 3.9 s 3.9 -1.7 3.9 -3.9 S 219 70.6 216.8 70.6 z M 214.6 72.1 l 0.4 -0.4 c 0 0 0.1 0 0.1 0 l 1.3 1.3 c 0 0 0 0.1 0 0.1 l -0.4 0.4 c 0 0 -0.1 0 -0.1 0 l -1.3 -1.3 C 214.6 72.2 214.5 72.2 214.6 72.1 z M 217.9 77.1 c -0.6 -0.1 -1.6 -0.8 -2.3 -1.5 c -0.7 -0.6 -1.3 -1.7 -1.4 -2.3 c -0.1 -0.6 0.4 -1.1 0.4 -1.1 l 1.2 1.2 c 0 0 -0.5 0.7 0.4 1.6 c 0.9 0.9 1.6 0.4 1.6 0.4 l 1.2 1.2 C 218.7 76.9 218.5 77.2 217.9 77.1 L 217.9 77.1 z M 219.5 76.3 l -0.4 0.4 c 0 0 -0.1 0 -0.1 0 l -1.3 -1.3 c 0 0 0 -0.1 0 -0.1 l 0.4 -0.4 c 0 0 0.1 0 0.1 0 l 1.3 1.3 C 219.5 76.2 219.6 76.3 219.5 76.3 L 219.5 76.3 z" stroke-linecap="round" />
</g>
<g transform="matrix(0.6979323675 0 0 0.6979323675 87.1829382384 258.1925913893)"  >
<g style="opacity: 0.8;"   >
		<g transform="matrix(3.3325874134 0 0 3.3325874134 -43.490265745 29.9932867204)"  >
<polygon style="stroke: none; stroke-width: 1; stroke-dasharray: none; stroke-linecap: butt; stroke-dashoffset: 0; stroke-linejoin: miter; stroke-miterlimit: 4; fill: rgb(255,255,255); fill-rule: nonzero; opacity: 0.7;"  points="-24.9,-31.75 24.9,1.05 -24.9,31.75 " />
</g>
		<g transform="matrix(3.3325874134 0 0 3.3325874134 84.9809790417 -22.9948531526)"  >
<polygon style="stroke: none; stroke-width: 1; stroke-dasharray: none; stroke-linecap: butt; stroke-dashoffset: 0; stroke-linejoin: miter; stroke-miterlimit: 4; fill: rgb(255,255,255); fill-rule: nonzero; opacity: 0.7;"  points="-12.45,-15.85 12.45,0.55 -12.45,15.85 " />
</g>
		<g transform="matrix(3.3325874134 0 0 3.3325874134 102.9769510742 15.3299021016)"  >
<polygon style="stroke: none; stroke-width: 1; stroke-dasharray: none; stroke-linecap: butt; stroke-dashoffset: 0; stroke-linejoin: miter; stroke-miterlimit: 4; fill: rgb(255,255,255); fill-rule: nonzero; opacity: 0.7;"  points="7.05,9.05 -7.05,-0.35 7.05,-9.05 " />
</g>
		<g transform="matrix(3.3325874134 0 0 3.3325874134 -43.490265745 29.9932867204)"  >
<polygon style="stroke: none; stroke-width: 1; stroke-dasharray: none; stroke-linecap: butt; stroke-dashoffset: 0; stroke-linejoin: miter; stroke-miterlimit: 4; fill: rgb(0,136,164); fill-rule: nonzero; opacity: 1;"  points="24.9,31.75 -24.9,-1.05 24.9,-31.75 " />
</g>
		<g transform="matrix(3.3325874134 0 0 3.3325874134 -86.1473846366 -84.3144615593)"  >
<polygon style="stroke: none; stroke-width: 1; stroke-dasharray: none; stroke-linecap: butt; stroke-dashoffset: 0; stroke-linejoin: miter; stroke-miterlimit: 4; fill: rgb(0,136,164); fill-rule: nonzero; opacity: 1;"  points="12.1,15.45 -12.1,-0.55 12.1,-15.45 " />
</g>
		<g transform="matrix(3.3325874134 0 0 3.3325874134 -16.9961958084 -87.9803077139)"  >
<polygon style="stroke: none; stroke-width: 1; stroke-dasharray: none; stroke-linecap: butt; stroke-dashoffset: 0; stroke-linejoin: miter; stroke-miterlimit: 4; fill: rgb(255,255,255); fill-rule: nonzero; opacity: 0.7;"  points="-6.05,-7.75 6.05,0.25 -6.05,7.75 " />
</g>
</g>
</g>
<g transform="matrix(0.8857854914 0 0 0.8857854914 557.3584240156 54.3299954417)"  >
<g style="opacity: 0.8;"   >
		<g transform="matrix(3.3325874134 0 0 3.3325874134 -7.6649510509 -19.6622657392)"  >
<polygon style="stroke: none; stroke-width: 1; stroke-dasharray: none; stroke-linecap: butt; stroke-dashoffset: 0; stroke-linejoin: miter; stroke-miterlimit: 4; fill: rgb(255,255,255); fill-rule: nonzero; opacity: 0.7;"  points="14.35,-11.25 -0.55,11.25 -14.35,-11.25 " />
</g>
		<g transform="matrix(3.3325874134 0 0 3.3325874134 16.163048955 38.4913846248)"  >
<polygon style="stroke: none; stroke-width: 1; stroke-dasharray: none; stroke-linecap: butt; stroke-dashoffset: 0; stroke-linejoin: miter; stroke-miterlimit: 4; fill: rgb(255,255,255); fill-rule: nonzero; opacity: 0.7;"  points="7.2,-5.6 -0.2,5.6 -7.2,-5.6 " />
</g>
		<g transform="matrix(3.3325874134 0 0 3.3325874134 -0.999776224 46.489594417)"  >
<polygon style="stroke: none; stroke-width: 1; stroke-dasharray: none; stroke-linecap: butt; stroke-dashoffset: 0; stroke-linejoin: miter; stroke-miterlimit: 4; fill: rgb(255,255,255); fill-rule: nonzero; opacity: 0.7;"  points="-4.05,3.2 0.15,-3.2 4.05,3.2 " />
</g>
		<g transform="matrix(3.3325874134 0 0 3.3325874134 -7.6649510509 -19.6622657392)"  >
<polygon style="stroke: none; stroke-width: 1; stroke-dasharray: none; stroke-linecap: butt; stroke-dashoffset: 0; stroke-linejoin: miter; stroke-miterlimit: 4; fill: rgb(0,136,164); fill-rule: nonzero; opacity: 1;"  points="-14.35,11.25 0.45,-11.25 14.35,11.25 " />
</g>
		<g transform="matrix(3.3325874134 0 0 3.3325874134 37.9914965128 -34.3256503581)"  >
<polygon style="stroke: none; stroke-width: 1; stroke-dasharray: none; stroke-linecap: butt; stroke-dashoffset: 0; stroke-linejoin: miter; stroke-miterlimit: 4; fill: rgb(0,136,164); fill-rule: nonzero; opacity: 1;"  points="-5.25,4.05 0.25,-4.05 5.25,4.05 " />
</g>
</g>
</g>
<g transform="matrix(0.8824990355 0 0 0.8824990355 427.6301847017 218.9204692337)" style=""  >
		<text xml:space="preserve" font-family="Roboto" font-size="18.85757575757576" font-style="normal" font-weight="normal" style="stroke: none; stroke-width: 0; stroke-dasharray: none; stroke-linecap: butt; stroke-dashoffset: 0; stroke-linejoin: miter; stroke-miterlimit: 4; fill: rgb(255,255,255); fill-rule: nonzero; opacity: 1; white-space: pre;" ><tspan x="-65.2925145005" y="5.9239188485" >+1 355 545 563</tspan></text>
</g>
<g transform="matrix(0.8824990355 0 0 0.8824990355 398.0479360186 251.1244759348)" style=""  >
		<text xml:space="preserve" font-family="Roboto" font-size="18.85757575757576" font-style="normal" font-weight="normal" style="stroke: none; stroke-width: 0; stroke-dasharray: none; stroke-linecap: butt; stroke-dashoffset: 0; stroke-linejoin: miter; stroke-miterlimit: 4; fill: rgb(255,255,255); fill-rule: nonzero; opacity: 1; white-space: pre;" ><tspan x="-98.8135128137" y="5.9239188485" >INFO@YOURMAIL.COM</tspan></text>
</g>
<g transform="matrix(0.8824990355 0 0 0.8824990355 406.7548113004 283.3284826357)" style=""  >
		<text xml:space="preserve" font-family="Roboto" font-size="18.85757575757576" font-style="normal" font-weight="normal" style="stroke: none; stroke-width: 0; stroke-dasharray: none; stroke-linecap: butt; stroke-dashoffset: 0; stroke-linejoin: miter; stroke-miterlimit: 4; fill: rgb(255,255,255); fill-rule: nonzero; opacity: 1; white-space: pre;" ><tspan x="-88.9473544034" y="5.9239188485" >WWW.WEBSITE.COM</tspan></text>
</g>
<g transform="matrix(0.6979323675 0 0 0.6979323675 511.8939407298 251.1244759354)"  >
<g style=""   >
		<g transform="matrix(4.2138827704 0 0 4.2138827704 0 0)"  >
<path style="stroke: none; stroke-width: 1; stroke-dasharray: none; stroke-linecap: butt; stroke-dashoffset: 0; stroke-linejoin: miter; stroke-miterlimit: 4; fill: rgb(255,255,255); fill-rule: nonzero; opacity: 1;"  transform=" translate(-216.8, -86.1)" d="M 216.8 82.2 c -2.1 0 -3.9 1.7 -3.9 3.9 s 1.7 3.9 3.9 3.9 s 3.9 -1.7 3.9 -3.9 S 219 82.2 216.8 82.2 z M 219 86.6 c -0.2 0.4 -0.5 0.6 -0.8 0.8 c -0.2 0.1 -0.5 0.1 -0.7 0 c -0.2 -0.1 -0.3 -0.2 -0.4 -0.4 l -0.2 0.2 c -0.1 0.1 -0.2 0.1 -0.3 0.2 c -0.2 0.1 -0.4 0.1 -0.6 0 c -0.2 -0.1 -0.4 -0.3 -0.5 -0.6 c -0.1 -0.2 -0.1 -0.4 0 -0.7 c 0.1 -0.4 0.3 -0.7 0.6 -1 c 0.2 -0.2 0.5 -0.2 0.8 -0.2 c 0.1 0 0.3 0.1 0.4 0.1 c 0.1 0.1 0.2 0.2 0.3 0.4 l 0.1 -0.4 h 0.5 l -0.5 1.7 c 0 0.1 0 0.2 0 0.3 s 0.1 0.1 0.3 0.1 c 0.3 -0.1 0.6 -0.2 0.7 -0.5 c 0.1 -0.3 0.2 -0.5 0.2 -0.8 v -0.1 c 0 0 0 -0.1 0 -0.1 c -0.1 -0.3 -0.2 -0.7 -0.4 -0.9 c -0.2 -0.2 -0.4 -0.3 -0.7 -0.4 c -0.3 -0.1 -0.6 -0.2 -0.8 -0.2 c -0.5 0 -0.9 0.2 -1.3 0.5 s -0.6 0.7 -0.8 1.1 c -0.1 0.2 -0.1 0.3 -0.1 0.6 c 0 0.3 0.1 0.6 0.2 0.8 c 0.2 0.4 0.6 0.7 1.1 0.9 c 0.2 0.1 0.5 0.1 0.7 0.1 c 0.3 0 0.7 -0.1 1.1 -0.2 l 0.2 0.4 c -0.4 0.2 -0.8 0.2 -1.3 0.2 c -0.3 0 -0.6 -0.1 -0.9 -0.1 c -0.2 -0.1 -0.4 -0.2 -0.7 -0.4 c -0.4 -0.2 -0.6 -0.5 -0.7 -0.8 c -0.2 -0.3 -0.2 -0.6 -0.2 -1 c 0 -0.2 0 -0.4 0.1 -0.6 c 0.2 -0.7 0.5 -1.2 1 -1.5 c 0.5 -0.4 1.1 -0.6 1.8 -0.5 c 0.3 0 0.6 0.1 0.9 0.2 c 0.4 0.1 0.6 0.3 0.9 0.6 c 0.3 0.3 0.5 0.7 0.5 1.1 C 219.3 85.9 219.2 86.3 219 86.6 L 219 86.6 z" stroke-linecap="round" />
</g>
		<g transform="matrix(4.2138827704 0 0 4.2138827704 -0.6320824156 -2e-10)"  >
<path style="stroke: none; stroke-width: 1; stroke-dasharray: none; stroke-linecap: butt; stroke-dashoffset: 0; stroke-linejoin: miter; stroke-miterlimit: 4; fill: rgb(255,255,255); fill-rule: nonzero; opacity: 1;"  transform=" translate(-216.65, -86.0292893219)" d="M 217 85.2 c -0.2 -0.1 -0.4 0 -0.5 0.1 c -0.2 0.1 -0.4 0.3 -0.4 0.6 c -0.1 0.2 -0.1 0.3 -0.1 0.4 c 0 0.2 0.1 0.3 0.1 0.4 c 0.1 0.2 0.3 0.2 0.5 0.2 c 0.2 0 0.3 -0.2 0.4 -0.3 c 0.1 -0.1 0.1 -0.3 0.2 -0.5 c 0.1 -0.2 0.1 -0.4 0.1 -0.5 C 217.3 85.4 217.2 85.3 217 85.2 z" stroke-linecap="round" />
</g>
</g>
</g>
<g transform="matrix(0.6979323675 0 0 0.6979323675 511.8939407298 283.3284826363)"  >
<g style=""   >
		<g transform="matrix(4.2138827704 0 0 4.2138827704 1.7901030193 -1e-10)"  >
<path style="stroke: none; stroke-width: 1; stroke-dasharray: none; stroke-linecap: butt; stroke-dashoffset: 0; stroke-linejoin: miter; stroke-miterlimit: 4; fill: rgb(255,255,255); fill-rule: nonzero; opacity: 1;"  transform=" translate(-216.9875, -96.1667893219)" d="M 217.2 95.4 l -1.4 -0.8 c -0.1 -0.1 -0.2 0 -0.2 0.1 l 0.3 1.5 l 0.3 1.5 c 0 0.1 0.2 0.1 0.2 0 l 0.6 -1.1 c 0 0 0 -0.1 0.1 -0.1 l 1.2 -0.3 c 0.1 0 0.1 -0.2 0 -0.2 L 217.2 95.4 L 217.2 95.4 z" stroke-linecap="round" />
</g>
		<g transform="matrix(4.2138827704 0 0 4.2138827704 0 0)"  >
<path style="stroke: none; stroke-width: 1; stroke-dasharray: none; stroke-linecap: butt; stroke-dashoffset: 0; stroke-linejoin: miter; stroke-miterlimit: 4; fill: rgb(255,255,255); fill-rule: nonzero; opacity: 1;"  transform=" translate(-216.8, -96.4)" d="M 216.8 92.5 c -2.1 0 -3.9 1.7 -3.9 3.9 s 1.7 3.9 3.9 3.9 s 3.9 -1.7 3.9 -3.9 S 219 92.5 216.8 92.5 z M 219.5 96.6 l -1.9 0.4 c 0 0 -0.1 0 -0.1 0.1 l -1 1.7 c -0.1 0.1 -0.3 0.1 -0.3 -0.1 l -0.5 -2.2 l -0.5 -2.3 c 0 -0.2 0.1 -0.3 0.3 -0.2 l 2.1 1.2 l 2 1.1 C 219.7 96.3 219.7 96.6 219.5 96.6 L 219.5 96.6 z" stroke-linecap="round" />
</g>
</g>
</g>
<g transform="matrix(0.6979323675 0 0 0.6979323675 451.2101251595 148.8291362722)" style=""  >
		<text xml:space="preserve" font-family="Roboto" font-size="18.85757575757576" font-style="normal" font-weight="normal" style="stroke: none; stroke-width: 0; stroke-dasharray: none; stroke-linecap: butt; stroke-dashoffset: 0; stroke-linejoin: miter; stroke-miterlimit: 4; fill: rgb(255,255,255); fill-rule: nonzero; opacity: 0.8; white-space: pre;" ><tspan x="-105.1862316525" y="5.9239188485" >G</tspan><tspan x="-89.7955770005" y="5.9239188485" >R</tspan><tspan x="-75.6387676373" y="5.9239188485" >A</tspan><tspan x="-60.7913732244" y="5.9239188485" >P</tspan><tspan x="-46.3491220407" y="5.9239188485" >H</tspan><tspan x="-30.3599603456" y="5.9239188485" >I</tspan><tspan x="-22.6854426491" y="5.9239188485" >C</tspan><tspan x="-7.8656716383" y="5.9239188485" style="white-space: pre; "> </tspan><tspan x="-0.6515439749" y="5.9239188485" >D</tspan><tspan x="14.2603050426" y="5.9239188485" >E</tspan><tspan x="27.5239577415" y="5.9239188485" >S</tspan><tspan x="41.2572082741" y="5.9239188485" >I</tspan><tspan x="48.9317259706" y="5.9239188485" >G</tspan><tspan x="64.3223806226" y="5.9239188485" >N</tspan><tspan x="80.3115423177" y="5.9239188485" >E</tspan><tspan x="93.5751950166" y="5.9239188485" >R</tspan></text>
</g>
<g transform="matrix(0.6979323675 0 0 0.6979323675 394.2682392554 119.3343605398)" style=""  >
		<text xml:space="preserve" font-family="Roboto" font-size="45.25818181818182" font-style="normal" font-weight="bold" style="stroke: none; stroke-width: 0; stroke-dasharray: none; stroke-linecap: butt; stroke-dashoffset: 0; stroke-linejoin: miter; stroke-miterlimit: 4; fill: rgb(255,255,255); fill-rule: nonzero; opacity: 0.8; white-space: pre;" ><tspan x="-191.3277638891" y="14.2174052364" >T</tspan><tspan x="-159.6627709062" y="14.2174052364" >H</tspan><tspan x="-124.0200080369" y="14.2174052364" >O</tspan><tspan x="-89.1065029801" y="14.2174052364" >M</tspan><tspan x="-45.3977067301" y="14.2174052364" >A</tspan><tspan x="-11.2797556505" y="14.2174052364" >S</tspan><tspan x="20.2084475597" y="14.2174052364" style="white-space: pre; "> </tspan><tspan x="35.1447082984" y="14.2174052364" >S</tspan><tspan x="66.6329115086" y="14.2174052364" >M</tspan><tspan x="109.9439307699" y="14.2174052364" >I</tspan><tspan x="126.1619173609" y="14.2174052364" >T</tspan><tspan x="157.8269103438" y="14.2174052364" >H</tspan></text>
</g>
</svg>