<?xml version="1.0" encoding="UTF-8" standalone="no" ?>
<!DOCTYPE svg PUBLIC "-//W3C//DTD SVG 1.1//EN" "http://www.w3.org/Graphics/SVG/1.1/DTD/svg11.dtd">
<svg xmlns="http://www.w3.org/2000/svg" xmlns:xlink="http://www.w3.org/1999/xlink" version="1.1" width="1003.9370078859374" height="649.6062992203125" viewBox="0 0 556 359.7647058824" xml:space="preserve">
<desc>Created with Fabric.js 3.4.0 and NBDesigner 2.7</desc>
<defs>
</defs>
<g transform="matrix(0.3043694635 0 0 0.3043694635 279.4111675127 179.8823529412)"  >
	<image style="stroke: none; stroke-width: 0; stroke-dasharray: none; stroke-linecap: butt; stroke-dashoffset: 0; stroke-linejoin: miter; stroke-miterlimit: 4; fill: rgb(255,255,255); fill-rule: nonzero; opacity: 1;"  xlink:href="https://transparentcard.de/wp-content/themes/astra-child/assets/img/transparent_glass_85x55-mm.png" x="-918" y="-591" width="1836" height="1182"></image>
</g>
<g transform="matrix(2.1945911098 0 0 2.1945911098 152.5505056239 190.7816953185)"  >
<path style="stroke: none; stroke-width: 1; stroke-dasharray: none; stroke-linecap: butt; stroke-dashoffset: 0; stroke-linejoin: miter; stroke-miterlimit: 4; fill: rgb(255,255,255); fill-rule: nonzero; opacity: 1;"  transform=" translate(-73.69, -70.725)" d="M 73.58 70.56 a 1.46 1.46 0 0 0 0.22 0.33 Z" stroke-linecap="round" />
</g>
<g transform="matrix(2.1945911098 0 0 2.1945911098 291.085924709 331.8468143439)"  >
<rect style="stroke: none; stroke-width: 1; stroke-dasharray: none; stroke-linecap: butt; stroke-dashoffset: 0; stroke-linejoin: miter; stroke-miterlimit: 4; fill: rgb(0,0,0); fill-rule: nonzero; opacity: 1;"  x="-0.475" y="-11.755" rx="0" ry="0" width="0.95" height="23.51" />
</g>
<g transform="matrix(2.1945911098 0 0 2.1945911098 291.085924709 27.9178915416)"  >
<rect style="stroke: none; stroke-width: 1; stroke-dasharray: none; stroke-linecap: butt; stroke-dashoffset: 0; stroke-linejoin: miter; stroke-miterlimit: 4; fill: rgb(0,0,0); fill-rule: nonzero; opacity: 1;"  x="-0.475" y="-11.755" rx="0" ry="0" width="0.95" height="23.51" />
</g>
<g transform="matrix(0.9455782313 0 0 0.9455782313 419.276435092 274.3425257047)" style=""  >
		<text xml:space="preserve" font-family="Roboto" font-size="15.798820350465034" font-style="normal" font-weight="normal" style="stroke: none; stroke-width: 0; stroke-dasharray: none; stroke-linecap: butt; stroke-dashoffset: 0; stroke-linejoin: miter; stroke-miterlimit: 4; fill: rgb(0,0,0); fill-rule: nonzero; opacity: 1; white-space: pre;" ><tspan x="-101.0066095618" y="4.9630414249" >Dorfen, Bayern/Deutschland</tspan></text>
</g>
<g transform="matrix(0.7349328368 0 0 0.7349328368 402.4428022951 237.4097856263)" style=""  >
		<text xml:space="preserve" font-family="Roboto" font-size="20.327055555555557" font-style="normal" font-weight="normal" style="stroke: none; stroke-width: 0; stroke-dasharray: none; stroke-linecap: butt; stroke-dashoffset: 0; stroke-linejoin: miter; stroke-miterlimit: 4; fill: rgb(0,0,0); fill-rule: nonzero; opacity: 1; white-space: pre;" ><tspan x="-107.0519841851" y="6.3855412322" >www.yourwebsite.com</tspan></text>
</g>
<g transform="matrix(0.7349328368 0 0 0.7349328368 397.1118704516 199.7421127113)" style=""  >
		<text xml:space="preserve" font-family="Roboto" font-size="20.327055555555557" font-style="normal" font-weight="normal" style="stroke: none; stroke-width: 0; stroke-dasharray: none; stroke-linecap: butt; stroke-dashoffset: 0; stroke-linejoin: miter; stroke-miterlimit: 4; fill: rgb(0,0,0); fill-rule: nonzero; opacity: 1; white-space: pre;" ><tspan x="-99.7983528646" y="6.3855412322" >yourmail@email.com</tspan></text>
</g>
<g transform="matrix(0.7349328368 0 0 0.7349328368 395.6854352503 162.8093726332)" style=""  >
		<text xml:space="preserve" font-family="Roboto" font-size="20.327055555555557" font-style="normal" font-weight="normal" style="stroke: none; stroke-width: 0; stroke-dasharray: none; stroke-linecap: butt; stroke-dashoffset: 0; stroke-linejoin: miter; stroke-miterlimit: 4; fill: rgb(0,0,0); fill-rule: nonzero; opacity: 1; white-space: pre;" ><tspan x="-97.8574473425" y="6.3855412322" >+ 584 635 485 9955</tspan></text>
</g>
<g transform="matrix(0.7349328368 0 0 0.7349328368 366.4159611303 109.3792907297)" style=""  >
		<text xml:space="preserve" font-family="Roboto" font-size="21.36965016438987" font-style="normal" font-weight="normal" style="stroke: none; stroke-width: 0; stroke-dasharray: none; stroke-linecap: butt; stroke-dashoffset: 0; stroke-linejoin: miter; stroke-miterlimit: 4; fill: rgb(0,0,0); fill-rule: nonzero; opacity: 1; white-space: pre;" ><tspan x="-97.8574473425" y="6.7130619026" >GRAPHIC DESIGNER</tspan></text>
</g>
<g transform="matrix(0.7349328368 0 0 0.7349328368 365.815579777 84.7282467803)" style=""  >
		<text xml:space="preserve" font-family="Roboto" font-size="34.394110947057584" font-style="normal" font-weight="normal" style="stroke: none; stroke-width: 0; stroke-dasharray: none; stroke-linecap: butt; stroke-dashoffset: 0; stroke-linejoin: miter; stroke-miterlimit: 4; fill: rgb(0,0,0); fill-rule: nonzero; opacity: 1; white-space: pre;" ><tspan x="-97.0405273149" y="10.8045660129" >YOUR NAME</tspan></text>
</g>
<g transform="matrix(0.7349328368 0 0 0.7349328368 152.5505056251 232.1172405999)" style=""  >
		<text xml:space="preserve" font-family="Roboto" font-size="21.99380711241168" font-style="normal" font-weight="normal" style="stroke: none; stroke-width: 0; stroke-dasharray: none; stroke-linecap: butt; stroke-dashoffset: 0; stroke-linejoin: miter; stroke-miterlimit: 4; fill: rgb(0,0,0); fill-rule: nonzero; opacity: 1; white-space: pre;" ><tspan x="-105.6822099215" y="6.9091345663" >TAGLINE GOES HERE</tspan></text>
</g>
<g transform="matrix(0.7349328368 0 0 0.7349328368 155.5118433085 207.6128476809)" style=""  >
		<text xml:space="preserve" font-family="Roboto" font-size="36.16588905294997" font-style="normal" font-weight="normal" style="stroke: none; stroke-width: 0; stroke-dasharray: none; stroke-linecap: butt; stroke-dashoffset: 0; stroke-linejoin: miter; stroke-miterlimit: 4; fill: rgb(0,0,0); fill-rule: nonzero; opacity: 1; white-space: pre;" ><tspan x="-63.2991354054" y="11.3611523871" >BRAND</tspan></text>
</g>
<g transform="matrix(0.7349328368 0 0 0.7349328368 152.5505056244 154.2495287809)"  >
<g style=""   >
		<g transform="matrix(2.9861111111 0 0 2.9861111111 0 0)"  >
<circle style="stroke: none; stroke-width: 1; stroke-dasharray: none; stroke-linecap: butt; stroke-dashoffset: 0; stroke-linejoin: miter; stroke-miterlimit: 4; fill: rgb(0,0,0); fill-rule: nonzero; opacity: 1;"  cx="0" cy="0" r="15.32" />
</g>
		<g transform="matrix(1 0 0 1 -0.0133463363 6.3453130926)"  >
<g style=""   >
		<g transform="matrix(2.9861111111 0 0 2.9861111111 -12.7902553554 0)"  >
<path style="stroke: none; stroke-width: 1; stroke-dasharray: none; stroke-linecap: butt; stroke-dashoffset: 0; stroke-linejoin: miter; stroke-miterlimit: 4; fill: rgb(255,255,255); fill-rule: nonzero; opacity: 1;"  transform=" translate(-68.7222822242, -71.4449420589)" d="M 67.23 66.25 h 1.93 A 1.26 1.26 0 0 0 70.41 65 V 64 a 1.26 1.26 0 0 0 -1.25 -1.26 H 63.89 A 1.27 1.27 0 0 0 62.63 64 v 1.14 a 1.37 1.37 0 0 0 0.16 0.63 l 0.23 0.44 l 8.6 13.16 a 1.7 1.7 0 0 0 2.19 0.6 a 2.09 2.09 0 0 0 1 -1.67 a 0.93 0.93 0 0 0 -0.14 -0.59 Z" stroke-linecap="round" />
</g>
		<g transform="matrix(2.9861111111 0 0 2.9861111111 17.5624025466 -5.353863968)"  >
<path style="stroke: none; stroke-width: 1; stroke-dasharray: none; stroke-linecap: butt; stroke-dashoffset: 0; stroke-linejoin: miter; stroke-miterlimit: 4; fill: rgb(255,255,255); fill-rule: nonzero; opacity: 1;"  transform=" translate(-78.8868932425, -69.6520201719)" d="M 82.2 62.75 H 76.61 a 1.14 1.14 0 0 0 -1.13 1.13 V 65.2 a 1.28 1.28 0 0 0 1.28 1.27 H 78.4 l -3.8 6.1 a 1.29 1.29 0 0 0 -0.08 1.26 l 0.21 0.33 h 0 L 76.2 76.4 a 0.35 0.35 0 0 0 0.58 0 l 6.35 -10.53 a 1.76 1.76 0 0 0 0.25 -0.89 v -1 A 1.18 1.18 0 0 0 82.2 62.75 Z" stroke-linecap="round" />
</g>
</g>
</g>
</g>
</g>
<g transform="matrix(0.9455782313 0 0 0.9455782313 304.4839034345 162.4572995311)"  >
<g style=""   >
		<g transform="matrix(2.3208985118 0 0 2.3208985118 -3e-10 -3e-10)"  >
<circle style="stroke: none; stroke-width: 1; stroke-dasharray: none; stroke-linecap: butt; stroke-dashoffset: 0; stroke-linejoin: miter; stroke-miterlimit: 4; fill: rgb(0,0,0); fill-rule: nonzero; opacity: 1;"  cx="0" cy="0" r="5.44" />
</g>
		<g transform="matrix(2.3208985118 0 0 2.3208985118 0.1597098777 0.313321299)"  >
<path style="stroke: none; stroke-width: 1; stroke-dasharray: none; stroke-linecap: butt; stroke-dashoffset: 0; stroke-linejoin: miter; stroke-miterlimit: 4; fill: rgb(255,255,255); fill-rule: nonzero; opacity: 1;"  transform=" translate(-145.2988138137, -73.195)" d="M 147.63 74.16 a 3.21 3.21 0 0 1 -1 -0.17 a 0.41 0.41 0 0 0 -0.45 0.1 l -0.64 0.52 a 3.68 3.68 0 0 1 -1.61 -1.72 l 0.47 -0.67 a 0.53 0.53 0 0 0 0.11 -0.5 a 3.64 3.64 0 0 1 -0.16 -1.09 a 0.46 0.46 0 0 0 -0.45 -0.48 h -1 a 0.46 0.46 0 0 0 -0.45 0.48 a 5.44 5.44 0 0 0 5.25 5.61 a 0.46 0.46 0 0 0 0.45 -0.48 V 74.64 a 0.47 0.47 0 0 0 -0.45 -0.48 Z" stroke-linecap="round" />
</g>
</g>
</g>
<g transform="matrix(0.9455782313 0 0 0.9455782313 304.4839034345 274.3156083999)"  >
<g style=""   >
		<g transform="matrix(2.3208985118 0 0 2.3208985118 -3e-10 -3e-10)"  >
<circle style="stroke: none; stroke-width: 1; stroke-dasharray: none; stroke-linecap: butt; stroke-dashoffset: 0; stroke-linejoin: miter; stroke-miterlimit: 4; fill: rgb(0,0,0); fill-rule: nonzero; opacity: 1;"  cx="0" cy="0" r="5.44" />
</g>
		<g transform="matrix(2.3208985118 0 0 2.3208985118 0.0091936411 0.5110326182)"  >
<path style="stroke: none; stroke-width: 1; stroke-dasharray: none; stroke-linecap: butt; stroke-dashoffset: 0; stroke-linejoin: miter; stroke-miterlimit: 4; fill: rgb(255,255,255); fill-rule: nonzero; opacity: 1;"  transform=" translate(-145.2339612422, -124.250187404)" d="M 145.23 124.25 a 1.21 1.21 0 1 1 1.21 -1.21 a 1.21 1.21 0 0 1 -1.21 1.21 Z m 0 -3.62 a 2.41 2.41 0 0 0 -2.12 3.56 l 2 3.6 a 0.14 0.14 0 0 0 0.13 0.08 a 0.13 0.13 0 0 0 0.13 -0.08 l 2 -3.6 a 2.54 2.54 0 0 0 0.28 -1.15 a 2.41 2.41 0 0 0 -2.41 -2.41 Z" stroke-linecap="round" />
</g>
</g>
</g>
<g transform="matrix(0.9455782313 0 0 0.9455782313 304.4839034345 237.534261399)"  >
<g style=""   >
		<g transform="matrix(2.3208985118 0 0 2.3208985118 -3e-10 -3e-10)"  >
<circle style="stroke: none; stroke-width: 1; stroke-dasharray: none; stroke-linecap: butt; stroke-dashoffset: 0; stroke-linejoin: miter; stroke-miterlimit: 4; fill: rgb(0,0,0); fill-rule: nonzero; opacity: 1;"  cx="0" cy="0" r="5.44" />
</g>
		<g transform="matrix(2.3208985118 0 0 2.3208985118 -0.0464179704 -0.2785078217)"  >
<path style="stroke: none; stroke-width: 1; stroke-dasharray: none; stroke-linecap: butt; stroke-dashoffset: 0; stroke-linejoin: miter; stroke-miterlimit: 4; fill: rgb(255,255,255); fill-rule: nonzero; opacity: 1;"  transform=" translate(-145.21, -107.15)" d="M 146.05 110.42 a 3.33 3.33 0 0 0 0.89 -1.51 a 3.55 3.55 0 0 1 0.71 0.57 a 3.36 3.36 0 0 1 -1.6 0.94 Z m -3.29 -0.94 a 3.92 3.92 0 0 1 0.72 -0.57 a 3.25 3.25 0 0 0 0.89 1.52 a 3.49 3.49 0 0 1 -1.61 -1 Z m -0.93 -2.21 h 1.4 a 5.72 5.72 0 0 0 0.19 1.41 a 3.53 3.53 0 0 0 -0.81 0.63 a 3.4 3.4 0 0 1 -0.78 -2 Z m 2.54 -3.39 a 3.2 3.2 0 0 0 -0.89 1.52 a 3.92 3.92 0 0 1 -0.72 -0.57 a 3.41 3.41 0 0 1 1.61 -1 Z m 3.28 0.94 a 3 3 0 0 1 -0.71 0.57 a 3.39 3.39 0 0 0 -0.89 -1.51 a 3.44 3.44 0 0 1 1.6 0.94 Z m -0.46 2.22 a 6.16 6.16 0 0 0 -0.19 -1.41 a 3.53 3.53 0 0 0 0.81 -0.63 a 3.36 3.36 0 0 1 0.77 2 Z m -1.87 1.17 v -0.94 H 147 a 5.93 5.93 0 0 1 -0.16 1.3 a 3.5 3.5 0 0 0 -1.47 -0.36 Z m 0 2.31 v -2.08 a 3.24 3.24 0 0 1 1.41 0.36 c -0.28 1 -0.8 1.65 -1.41 1.72 Z m -0.23 -2.08 v 2.08 c -0.6 -0.07 -1.13 -0.75 -1.41 -1.72 a 3.46 3.46 0 0 1 1.41 -0.36 Z m 0 -1.17 v 0.94 a 3.58 3.58 0 0 0 -1.47 0.36 a 6.6 6.6 0 0 1 -0.16 -1.3 Z m 0 -3.48 v 2.08 a 3.46 3.46 0 0 1 -1.41 -0.36 c 0.28 -1 0.81 -1.65 1.41 -1.72 Z m 0.23 2.08 v -2.08 c 0.61 0.07 1.13 0.75 1.41 1.72 a 3.38 3.38 0 0 1 -1.41 0.36 Z m 0 0.23 a 3.66 3.66 0 0 0 1.47 -0.36 A 5.78 5.78 0 0 1 147 107 h -1.63 v -0.94 Z m -1.7 -0.36 a 3.74 3.74 0 0 0 1.47 0.36 V 107 h -1.63 a 6.42 6.42 0 0 1 0.16 -1.3 Z m -1.79 1.3 a 3.37 3.37 0 0 1 0.78 -2 a 3.53 3.53 0 0 0 0.81 0.63 a 5.72 5.72 0 0 0 -0.19 1.41 Z m 5.17 1.64 a 6.24 6.24 0 0 0 0.19 -1.41 h 1.39 a 3.38 3.38 0 0 1 -0.77 2 a 3.53 3.53 0 0 0 -0.81 -0.63 Z m -1.79 -5.14 h 0 a 3.61 3.61 0 0 0 0 7.22 h 0 a 3.61 3.61 0 0 0 0 -7.22 Z" stroke-linecap="round" />
</g>
</g>
</g>
<g transform="matrix(0.9455782313 0 0 0.9455782313 304.4839034343 200.2262125313)"  >
<g style=""   >
		<g transform="matrix(2.3208985118 0 0 2.3208985118 0 0)"  >
<circle style="stroke: none; stroke-width: 1; stroke-dasharray: none; stroke-linecap: butt; stroke-dashoffset: 0; stroke-linejoin: miter; stroke-miterlimit: 4; fill: rgb(0,0,0); fill-rule: nonzero; opacity: 1;"  cx="0" cy="0" r="5.44" />
</g>
		<g transform="matrix(0.7772311296 0 0 0.7772311296 -0.005683038 -0.2512101274)"  >
<g style=""   >
		<g transform="matrix(2.9861111111 0 0 2.9861111111 6.6663396811 0.1440449476)"  >
<path style="stroke: none; stroke-width: 1; stroke-dasharray: none; stroke-linecap: butt; stroke-dashoffset: 0; stroke-linejoin: miter; stroke-miterlimit: 4; fill: rgb(255,255,255); fill-rule: nonzero; opacity: 1;"  transform=" translate(-147.46, -90.21)" d="M 148.46 88.34 v 0 l -2 1.9 l 2 1.84 V 88.34 Z" stroke-linecap="round" />
</g>
		<g transform="matrix(2.9861111111 0 0 2.9861111111 0.081964681 3.9416666666)"  >
<path style="stroke: none; stroke-width: 1; stroke-dasharray: none; stroke-linecap: butt; stroke-dashoffset: 0; stroke-linejoin: miter; stroke-miterlimit: 4; fill: rgb(255,255,255); fill-rule: nonzero; opacity: 1;"  transform=" translate(-145.255, -91.4817616919)" d="M 146.19 90.51 l -0.81 0.77 a 0.2 0.2 0 0 1 -0.14 0.06 a 0.22 0.22 0 0 1 -0.15 -0.06 l -0.8 -0.74 l -2 1.91 a 0.8 0.8 0 0 0 0.15 0 H 148 a 0.51 0.51 0 0 0 0.22 -0.06 Z" stroke-linecap="round" />
</g>
		<g transform="matrix(2.9861111111 0 0 2.9861111111 -0.1121325412 -2.4090800524)"  >
<path style="stroke: none; stroke-width: 1; stroke-dasharray: none; stroke-linecap: butt; stroke-dashoffset: 0; stroke-linejoin: miter; stroke-miterlimit: 4; fill: rgb(255,255,255); fill-rule: nonzero; opacity: 1;"  transform=" translate(-145.19, -89.355)" d="M 145.23 90.84 l 3 -2.9 a 0.48 0.48 0 0 0 -0.24 -0.07 h -5.55 a 0.44 0.44 0 0 0 -0.29 0.11 Z" stroke-linecap="round" />
</g>
		<g transform="matrix(2.9861111111 0 0 2.9861111111 -6.6590277777 0.3082810587)"  >
<path style="stroke: none; stroke-width: 1; stroke-dasharray: none; stroke-linecap: butt; stroke-dashoffset: 0; stroke-linejoin: miter; stroke-miterlimit: 4; fill: rgb(255,255,255); fill-rule: nonzero; opacity: 1;"  transform=" translate(-142.9975513626, -90.265)" d="M 142 88.41 V 92 a 0.37 0.37 0 0 0 0 0.12 l 2 -1.88 Z" stroke-linecap="round" />
</g>
</g>
</g>
</g>
</g>
</svg>