<?xml version="1.0" encoding="UTF-8" standalone="no" ?>
<!DOCTYPE svg PUBLIC "-//W3C//DTD SVG 1.1//EN" "http://www.w3.org/Graphics/SVG/1.1/DTD/svg11.dtd">
<svg xmlns="http://www.w3.org/2000/svg" xmlns:xlink="http://www.w3.org/1999/xlink" version="1.1" width="767.7165354421875" height="767.7165354421875" viewBox="0 0 425.1764705882 425.1764705882" xml:space="preserve">
<desc>Created with Fabric.js 3.4.0 and NBDesigner 2.7</desc>
<defs>
</defs>
<g transform="matrix(0.3069866214 0 0 0.3069866214 214.2766617116 212.5882352941)"  >
	<image style="stroke: none; stroke-width: 0; stroke-dasharray: none; stroke-linecap: butt; stroke-dashoffset: 0; stroke-linejoin: miter; stroke-miterlimit: 4; fill: rgb(255,255,255); fill-rule: nonzero; opacity: 1;"  xlink:href="https://transparentcard.de/wp-content/themes/astra-child/assets/img/transparent_glass_65x65-mm.png" x="-698" y="-692.5" width="1396" height="1385"></image>
</g>
<g transform="matrix(0.3114814624 0 0 0.3114814624 194.461149044 99.9314238908)"  >
<g style=""   >
		<g transform="matrix(1 0 0 1 -53.035 -3.34)"  >
<path style="stroke: none; stroke-width: 1; stroke-dasharray: none; stroke-linecap: butt; stroke-dashoffset: 0; stroke-linejoin: miter; stroke-miterlimit: 4; fill: rgb(49,54,56); fill-rule: nonzero; opacity: 1;"  transform=" translate(-327.66, -60.73)" d="M 312.57 29.31 h 20.57 c 10.24 0 16.97 2.06 21.55 6.64 c 3.32 3.32 4.94 7.63 4.94 12.84 c 0 15.62 -12.66 25.32 -31.25 25.32 h -10.33 l -4.85 18.05 h -17.51 l 16.88 -62.86 Z m 15.63 31.25 c 8.62 0 13.56 -3.86 13.56 -9.79 c 0 -1.71 -0.63 -3.23 -1.8 -4.4 c -1.71 -1.71 -4.22 -2.43 -7.45 -2.43 h -6.46 l -4.4 16.61 h 6.56 Z" stroke-linecap="round" />
</g>
		<g transform="matrix(1 0 0 1 0.12 -3.555)"  >
<path style="stroke: none; stroke-width: 1; stroke-dasharray: none; stroke-linecap: butt; stroke-dashoffset: 0; stroke-linejoin: miter; stroke-miterlimit: 4; fill: rgb(49,54,56); fill-rule: nonzero; opacity: 1;"  transform=" translate(-380.815, -60.515)" d="M 389.26 28.86 h 17.06 l 9.79 63.31 h -18.32 l -1.53 -11.22 h -24.25 l -7.54 11.22 h -18.95 l 43.74 -63.31 Z m 5.57 38.53 l -2.24 -18.05 l -11.76 18.05 h 14.01 Z" stroke-linecap="round" />
</g>
		<g transform="matrix(1 0 0 1 78.06 -3.33)"  >
<path style="stroke: none; stroke-width: 1; stroke-dasharray: none; stroke-linecap: butt; stroke-dashoffset: 0; stroke-linejoin: miter; stroke-miterlimit: 4; fill: rgb(49,54,56); fill-rule: nonzero; opacity: 1;"  transform=" translate(-458.755, -60.74)" d="M 437.57 29.31 h 16.25 l 16.25 34.93 l 9.43 -34.93 h 17.33 l -16.88 62.86 h -15.27 l -16.97 -36.19 l -9.7 36.19 h -17.33 l 16.88 -62.86 Z" stroke-linecap="round" />
</g>
		<g transform="matrix(1 0 0 1 144.445 -3.33)"  >
<path style="stroke: none; stroke-width: 1; stroke-dasharray: none; stroke-linecap: butt; stroke-dashoffset: 0; stroke-linejoin: miter; stroke-miterlimit: 4; fill: rgb(49,54,56); fill-rule: nonzero; opacity: 1;"  transform=" translate(-525.14, -60.74)" d="M 507.71 29.31 h 20.3 c 12.21 0 19.85 3.32 24.61 8.08 c 4.67 4.67 6.83 10.78 6.83 18.41 c 0 9.43 -3.59 18.05 -10.33 24.79 c -7.54 7.54 -18.41 11.58 -32.96 11.58 h -25.33 l 16.88 -62.86 Z m 10.5 47.42 c 7.28 0 13.83 -2.25 17.96 -6.38 c 3.32 -3.32 5.39 -8.17 5.39 -13.11 c 0 -3.86 -1.17 -6.64 -3.14 -8.62 c -2.33 -2.42 -6.2 -3.86 -12.3 -3.86 h -5.03 l -8.62 31.97 h 5.75 Z" stroke-linecap="round" />
</g>
		<g transform="matrix(1 0 0 1 217.935 -3.33)"  >
<path style="stroke: none; stroke-width: 1; stroke-dasharray: none; stroke-linecap: butt; stroke-dashoffset: 0; stroke-linejoin: miter; stroke-miterlimit: 4; fill: rgb(49,54,56); fill-rule: nonzero; opacity: 1;"  transform=" translate(-598.63, -60.74)" d="M 564.91 65.14 c 0 -19.13 15.63 -37 37.45 -37 c 17.87 0 29.99 12.21 29.99 28.2 c 0 19.13 -15.62 37 -37.45 37 c -17.87 0 -29.99 -12.21 -29.99 -28.2 Z m 49.66 -7.45 c 0 -7.99 -4.85 -13.92 -13.74 -13.92 c -10.96 0 -18.14 10.69 -18.14 20.03 c 0 7.99 4.85 13.92 13.74 13.92 c 11.05 0 18.14 -10.69 18.14 -20.03 Z" stroke-linecap="round" />
</g>
		<g transform="matrix(1 0 0 1 285.015 -3.34)"  >
<path style="stroke: none; stroke-width: 1; stroke-dasharray: none; stroke-linecap: butt; stroke-dashoffset: 0; stroke-linejoin: miter; stroke-miterlimit: 4; fill: rgb(49,54,56); fill-rule: nonzero; opacity: 1;"  transform=" translate(-665.71, -60.73)" d="M 649.05 29.31 h 23.71 c 10.51 0 17.42 2.33 21.64 6.55 c 3.32 3.32 4.85 7.81 4.85 12.84 c 0 10.51 -6.02 18.77 -18.86 22.27 l 9.7 21.19 h -19.22 l -8.35 -19.04 h -7.72 l -5.12 19.04 h -17.51 l 16.88 -62.86 Z m 19.31 30.17 c 7.81 0 12.93 -3.32 12.93 -8.71 c 0 -1.71 -0.54 -3.05 -1.62 -4.22 c -1.44 -1.44 -4.04 -2.16 -7.72 -2.16 h -9.43 l -4.13 15.09 h 9.97 Z" stroke-linecap="round" />
</g>
		<g transform="matrix(1 0 0 1 345.4 -3.555)"  >
<path style="stroke: none; stroke-width: 1; stroke-dasharray: none; stroke-linecap: butt; stroke-dashoffset: 0; stroke-linejoin: miter; stroke-miterlimit: 4; fill: rgb(49,54,56); fill-rule: nonzero; opacity: 1;"  transform=" translate(-726.095, -60.515)" d="M 734.54 28.86 h 17.06 l 9.79 63.31 h -18.32 l -1.53 -11.22 h -24.25 l -7.54 11.22 h -18.95 l 43.74 -63.31 Z m 5.57 38.53 l -2.24 -18.05 l -11.76 18.05 h 14.01 Z" stroke-linecap="round" />
</g>
		<g transform="matrix(1 0 0 1 -223.362427678 0)"  >
<path style="stroke: none; stroke-width: 1; stroke-dasharray: none; stroke-linecap: butt; stroke-dashoffset: 0; stroke-linejoin: miter; stroke-miterlimit: 4; fill: rgb(53,183,41); fill-rule: nonzero; opacity: 1;"  transform=" translate(-157.332572322, -64.07)" d="M 253.59 15.62 c 0.15 -3.13 -0.37 -5.84 -1.59 -8.12 c -1.21 -2.28 -3.06 -4.09 -5.54 -5.46 c -2.48 -1.37 -5.49 -2.04 -9.02 -2.04 H 81.09 l -20.04 25.52 H 199.68 c 2.39 0 4.01 0.83 4.88 2.49 c 0.87 1.66 0.69 3.69 -0.52 6.09 l -12.36 25.73 c -1.21 2.4 -3.04 4.43 -5.47 6.08 c -2.44 1.66 -4.85 2.48 -7.24 2.48 H 93.64 l -28.76 59.75 h 42.71 l 16.42 -34.16 h 68.42 c 3.53 0 7.19 -0.7 10.98 -2.07 c 3.78 -1.37 7.38 -3.2 10.78 -5.48 c 3.4 -2.28 6.52 -4.99 9.35 -8.12 c 2.83 -3.13 5.06 -6.46 6.7 -10 l 20.67 -42.71 c 1.63 -3.53 2.52 -6.86 2.68 -9.99 Z" stroke-linecap="round" />
</g>
		<g transform="matrix(1 0 0 1 -298.03 -17.475)"  >
<polygon style="stroke: none; stroke-width: 1; stroke-dasharray: none; stroke-linecap: butt; stroke-dashoffset: 0; stroke-linejoin: miter; stroke-miterlimit: 4; fill: rgb(53,183,41); fill-rule: nonzero; opacity: 1;"  points="62.515,12.595 -82.665,12.595 -62.515,-12.595 82.665,-12.595 62.515,12.595 " />
</g>
</g>
</g>
<g transform="matrix(1.1132801429 0 0 1.1132801429 212.4537395533 171.089889669)" style=""  >
		<text xml:space="preserve" font-family="Roboto" font-size="18.062575109615842" font-style="normal" font-weight="normal" style="stroke: none; stroke-width: 0; stroke-dasharray: none; stroke-linecap: butt; stroke-dashoffset: 0; stroke-linejoin: miter; stroke-miterlimit: 4; fill: rgb(34,31,32); fill-rule: nonzero; opacity: 1; white-space: pre;" ><tspan x="-64.5164843434" y="5.6741773449" >M</tspan><tspan x="-42.3024803498" y="5.6741773449" >A</tspan><tspan x="-24.23369623" y="5.6741773449" >N</tspan><tspan x="-4.9125265313" y="5.6741773449" >A</tspan><tspan x="13.0592418042" y="5.6741773449" >G</tspan><tspan x="31.6483833125" y="5.6741773449" >E</tspan><tspan x="48.2001933508" y="5.6741773449" >R</tspan></text>
</g>
<g transform="matrix(1.1132801429 0 0 1.1132801429 212.4537395535 139.9180456687)" style=""  >
		<text xml:space="preserve" font-family="Roboto" font-size="29.728966958136667" font-style="normal" font-weight="bold" style="stroke: none; stroke-width: 0; stroke-dasharray: none; stroke-linecap: butt; stroke-dashoffset: 0; stroke-linejoin: miter; stroke-miterlimit: 4; fill: rgb(34,31,32); fill-rule: nonzero; opacity: 1; white-space: pre;" ><tspan x="-74.6763336687" y="9.3390576802" >JHON DOE</tspan></text>
</g>
<g transform="matrix(1.2159018159 0 0 0.9126928425 264.72604524 226.9332086323)"  >
<rect style="stroke: none; stroke-width: 1; stroke-dasharray: none; stroke-linecap: butt; stroke-dashoffset: 0; stroke-linejoin: miter; stroke-miterlimit: 4; fill: rgb(53,183,41); fill-rule: nonzero; opacity: 0.8;"  x="-132.065" y="-29.665" rx="0" ry="0" width="264.13" height="59.33" />
</g>
<g transform="matrix(1.2000838824 0 0 0.9126928425 268.1316786742 343.9313041176)"  >
<rect style="stroke: none; stroke-width: 1; stroke-dasharray: none; stroke-linecap: butt; stroke-dashoffset: 0; stroke-linejoin: miter; stroke-miterlimit: 4; fill: rgb(53,183,41); fill-rule: nonzero; opacity: 0.8;"  x="-132.065" y="-29.665" rx="0" ry="0" width="264.13" height="59.33" />
</g>
<g transform="matrix(1.2000838824 0 0 0.9126928425 268.1316786742 285.4368198391)"  >
<rect style="stroke: none; stroke-width: 1; stroke-dasharray: none; stroke-linecap: butt; stroke-dashoffset: 0; stroke-linejoin: miter; stroke-miterlimit: 4; fill: rgb(53,183,41); fill-rule: nonzero; opacity: 0.8;"  x="-132.065" y="-29.665" rx="0" ry="0" width="264.13" height="59.33" />
</g>
<g transform="matrix(0.9126928425 0 0 0.9126928425 112.2660676715 226.9332086323)"  >
<rect style="stroke: none; stroke-width: 1; stroke-dasharray: none; stroke-linecap: butt; stroke-dashoffset: 0; stroke-linejoin: miter; stroke-miterlimit: 4; fill: rgb(14,16,19); fill-rule: nonzero; opacity: 1;"  x="-22.535" y="-29.665" rx="0" ry="0" width="45.07" height="59.33" />
</g>
<g transform="matrix(0.9126928425 0 0 0.9126928425 112.2660676715 343.9313041176)"  >
<rect style="stroke: none; stroke-width: 1; stroke-dasharray: none; stroke-linecap: butt; stroke-dashoffset: 0; stroke-linejoin: miter; stroke-miterlimit: 4; fill: rgb(14,16,19); fill-rule: nonzero; opacity: 1;"  x="-22.535" y="-29.665" rx="0" ry="0" width="45.07" height="59.33" />
</g>
<g transform="matrix(0.9126928425 0 0 0.9126928425 112.2660676715 285.4368198391)"  >
<rect style="stroke: none; stroke-width: 1; stroke-dasharray: none; stroke-linecap: butt; stroke-dashoffset: 0; stroke-linejoin: miter; stroke-miterlimit: 4; fill: rgb(14,16,19); fill-rule: nonzero; opacity: 1;"  x="-22.535" y="-29.665" rx="0" ry="0" width="45.07" height="59.33" />
</g>
<g transform="matrix(0.9126928426 0 0 0.9126928426 112.877412309 285.4687640954)"  >
<path style="stroke: none; stroke-width: 1; stroke-dasharray: none; stroke-linecap: butt; stroke-dashoffset: 0; stroke-linejoin: miter; stroke-miterlimit: 4; fill: rgb(254,254,254); fill-rule: evenodd; opacity: 1;"  transform=" translate(-258.0448251663, -142.63)" d="M 267.9 151.32 a 13.1 13.1 0 0 0 3.36 -8.76 a 13.33 13.33 0 0 0 -3.59 -9 h 0 a 13.22 13.22 0 0 0 -9.2 -4.15 h -0.9 a 13.09 13.09 0 0 0 -9.15 4.15 h 0 a 13.21 13.21 0 0 0 -0.28 17.8 v 0.05 h 0.05 a 13.4 13.4 0 0 0 9.38 4.44 h 0.9 a 13.52 13.52 0 0 0 9.43 -4.44 h 0 v -0.05 Z M 245.72 143 h 5.45 a 17.34 17.34 0 0 0 1.12 5.61 a 16.25 16.25 0 0 0 -3.7 1.86 a 12.43 12.43 0 0 1 -2.87 -7.47 Z m 3.15 -8.64 a 16.49 16.49 0 0 0 3.59 1.79 a 16.4 16.4 0 0 0 -1.29 6 h -5.45 a 12.35 12.35 0 0 1 3.15 -7.74 Z m 21.44 7.74 h -5.45 a 16.19 16.19 0 0 0 -1.29 -6 a 16.49 16.49 0 0 0 3.59 -1.79 a 12.24 12.24 0 0 1 3.15 7.74 Z m -12.74 -6 a 14.61 14.61 0 0 1 -3.88 -0.56 a 16.93 16.93 0 0 1 3.88 -5 Z m 0 1 v 5 h -5.45 a 16.37 16.37 0 0 1 1.18 -5.67 a 18.12 18.12 0 0 0 4.27 0.68 Z m 0.9 0 a 18 18 0 0 0 4.26 -0.68 a 16.37 16.37 0 0 1 1.18 5.67 h -5.44 Z m 0 -1 v -5.61 a 16.12 16.12 0 0 1 3.87 5 a 14.59 14.59 0 0 1 -3.87 0.56 Z m 4.77 -0.84 a 17.65 17.65 0 0 0 -3.59 -4.94 a 12.5 12.5 0 0 1 6.9 3.31 a 16.12 16.12 0 0 1 -3.31 1.63 Z m -10.44 0 a 16 16 0 0 1 -3.32 -1.63 a 12.53 12.53 0 0 1 6.91 -3.31 a 17.27 17.27 0 0 0 -3.59 4.94 Z m -0.68 7.69 h 5.45 v 4.6 a 18.54 18.54 0 0 0 -4.38 0.68 a 15.2 15.2 0 0 1 -1.07 -5.28 Z m 5.45 5.5 v 6.06 a 15.49 15.49 0 0 1 -4 -5.38 a 15.82 15.82 0 0 1 4 -0.68 Z m 0.9 6.06 v -6.06 a 15.89 15.89 0 0 1 4 0.68 a 15.74 15.74 0 0 1 -4 5.38 Z m 0 -7 V 143 h 5.44 a 16.4 16.4 0 0 1 -1 5.28 a 19.55 19.55 0 0 0 -4.43 -0.68 Z m 6.39 -4.6 h 5.45 a 12.37 12.37 0 0 1 -2.87 7.47 a 16 16 0 0 0 -3.7 -1.86 a 17.08 17.08 0 0 0 1.12 -5.61 Z m -15.66 8.14 a 16.81 16.81 0 0 1 3.43 -1.69 a 18.42 18.42 0 0 0 3.76 5.34 a 12.57 12.57 0 0 1 -7.19 -3.65 Z m 10.45 3.65 a 18.19 18.19 0 0 0 3.75 -5.34 a 16.81 16.81 0 0 1 3.43 1.69 a 12.39 12.39 0 0 1 -7.18 3.65 Z" stroke-linecap="round" />
</g>
<g transform="matrix(0.9126928426 0 0 0.9126928426 112.8730084141 343.930257741)"  >
<path style="stroke: none; stroke-width: 1; stroke-dasharray: none; stroke-linecap: butt; stroke-dashoffset: 0; stroke-linejoin: miter; stroke-miterlimit: 4; fill: rgb(254,254,254); fill-rule: evenodd; opacity: 1;"  transform=" translate(-258.04, -206.6846819862)" d="M 250.55 193.47 a 2.32 2.32 0 0 0 -1.79 0.78 a 2.48 2.48 0 0 0 -0.62 1.86 h -0.06 v 21.55 a 2.25 2.25 0 0 0 2.25 2.24 H 268 V 193.47 Z M 249 217.66 V 197.85 a 2.28 2.28 0 0 0 1.35 0.45 V 219 a 1.37 1.37 0 0 1 -1.35 -1.35 Z M 267.05 219 H 251.17 V 198.3 h 1.35 v 11.11 a 0.6 0.6 0 0 0 0.5 0.62 a 0.23 0.23 0 0 0 0.17 0.05 h 0 s 0.06 0 0.06 -0.05 h 0.22 c 0 -0.06 0.06 -0.06 0.11 -0.12 h 0 l 0.17 -0.16 l 1.85 -3.09 l 1.86 3.09 a 0.65 0.65 0 0 0 0.67 0.28 h 0.06 a 0.66 0.66 0 0 0 0.5 -0.62 V 198.3 h 8.36 V 219 Z m -9.2 -21.39 h 0 l -0.06 0.11 v 0.06 l -0.05 0.11 l 0.05 0.06 v 10.66 l -2.19 -3.7 l -2.19 3.7 V 198 l 0.68 -1.4 h 4.32 Z m 1.12 -0.22 l 0.84 -1.74 h -6.23 l -0.9 1.74 h -2.07 a 1.59 1.59 0 0 1 -1.63 -1.35 a 1.67 1.67 0 0 1 0.39 -1.18 a 1.57 1.57 0 0 1 1.18 -0.56 h 16.5 v 0.45 h -2.19 a 0.44 0.44 0 0 0 -0.45 0.45 a 0.45 0.45 0 0 0 0.45 0.45 h 2.19 v 0.45 h -1.74 a 0.41 0.41 0 0 0 -0.45 0.45 a 0.45 0.45 0 0 0 0.45 0.45 h 1.74 v 0.39 Z" stroke-linecap="round" />
</g>
<g transform="matrix(0.6137507126 0 0 0.6137507126 112.8500694088 226.9195182319)"  >
<g style=""   >
		<g transform="matrix(1.4870741879 0 0 1.4870741879 0 0)"  >
<path style="stroke: none; stroke-width: 1; stroke-dasharray: none; stroke-linecap: butt; stroke-dashoffset: 0; stroke-linejoin: miter; stroke-miterlimit: 4; fill: rgb(254,254,254); fill-rule: evenodd; opacity: 1;"  transform=" translate(-258.0148666765, -78.4799999895)" d="M 264.86 65.28 H 251.17 A 1.69 1.69 0 0 0 249.48 67 V 90 a 1.73 1.73 0 0 0 1.69 1.68 h 13.69 A 1.73 1.73 0 0 0 266.55 90 V 67 a 1.69 1.69 0 0 0 -1.69 -1.68 Z m -14.53 4.2 h 15.38 V 86.94 H 250.33 Z m 0.84 -3.36 h 13.69 a 0.83 0.83 0 0 1 0.85 0.84 v 2 H 250.33 V 67 a 0.82 0.82 0 0 1 0.84 -0.84 Z m 13.69 24.75 H 251.17 a 0.86 0.86 0 0 1 -0.84 -0.84 V 87.5 h 15.38 V 90 a 0.87 0.87 0 0 1 -0.85 0.84 Z" stroke-linecap="round" />
</g>
		<g transform="matrix(1.4870741879 0 0 1.4870741879 0.152425505 16.0380951321)"  >
<path style="stroke: none; stroke-width: 1; stroke-dasharray: none; stroke-linecap: butt; stroke-dashoffset: 0; stroke-linejoin: miter; stroke-miterlimit: 4; fill: rgb(254,254,254); fill-rule: evenodd; opacity: 1;"  transform=" translate(-258.1173669459, -89.265)" d="M 258 87.89 a 1.38 1.38 0 0 0 0 2.75 a 1.38 1.38 0 1 0 0 -2.75 Z m 0 2.19 a 0.82 0.82 0 0 1 -0.79 -0.84 a 0.76 0.76 0 0 1 0.79 -0.78 a 0.81 0.81 0 0 1 0.84 0.78 a 0.86 0.86 0 0 1 -0.84 0.84 Z" stroke-linecap="round" />
</g>
		<g transform="matrix(1.4870741879 0 0 1.4870741879 0.0001620943 -16.1341324078)"  >
<path style="stroke: none; stroke-width: 1; stroke-dasharray: none; stroke-linecap: butt; stroke-dashoffset: 0; stroke-linejoin: miter; stroke-miterlimit: 4; fill: rgb(254,254,254); fill-rule: evenodd; opacity: 1;"  transform=" translate(-258.0149756786, -67.6304186175)" d="M 256.11 67.91 h 3.82 a 0.26 0.26 0 0 0 0.27 -0.28 a 0.3 0.3 0 0 0 -0.27 -0.28 h -3.82 a 0.3 0.3 0 0 0 -0.28 0.28 a 0.26 0.26 0 0 0 0.28 0.28 Z" stroke-linecap="round" />
</g>
		<g transform="matrix(1.4870741879 0 0 1.4870741879 -4.333772727 -16.0854711303)"  >
<path style="stroke: none; stroke-width: 1; stroke-dasharray: none; stroke-linecap: butt; stroke-dashoffset: 0; stroke-linejoin: miter; stroke-miterlimit: 4; fill: rgb(254,254,254); fill-rule: evenodd; opacity: 1;"  transform=" translate(-255.1005717729, -67.6631414486)" d="M 255.1 67.91 c 0.11 0 0.17 0 0.22 0 s 0.06 -0.12 0.06 -0.23 a 0.21 0.21 0 0 0 -0.06 -0.17 a 0.29 0.29 0 0 0 -0.22 -0.11 c -0.06 0 -0.11 0.06 -0.17 0.11 s -0.11 0.12 -0.11 0.17 a 0.3 0.3 0 0 0 0.11 0.23 a 0.23 0.23 0 0 0 0.17 0 Z" stroke-linecap="round" />
</g>
</g>
</g>
<g transform="matrix(0.8137366857 0 0 0.8137366857 197.5514958848 227.0233766301)" style=""  >
		<text xml:space="preserve" font-family="Roboto" font-size="17.082745098039215" font-style="normal" font-weight="normal" style="stroke: none; stroke-width: 0; stroke-dasharray: none; stroke-linecap: butt; stroke-dashoffset: 0; stroke-linejoin: miter; stroke-miterlimit: 4; fill: rgb(254,254,254); fill-rule: nonzero; opacity: 1; white-space: pre;" ><tspan x="-57.0328464882" y="-5.8296575922" >+256 352 3333</tspan><tspan x="-57.0328464882" y="16.5624046824" >+532 455 1145</tspan></text>
</g>
<g transform="matrix(0.8137366857 0 0 0.8137366857 216.9264932155 285.5726224923)" style=""  >
		<text xml:space="preserve" font-family="Roboto" font-size="17.082745098039215" font-style="normal" font-weight="normal" style="stroke: none; stroke-width: 0; stroke-dasharray: none; stroke-linecap: butt; stroke-dashoffset: 0; stroke-linejoin: miter; stroke-miterlimit: 4; fill: rgb(254,254,254); fill-rule: nonzero; opacity: 1; white-space: pre;" ><tspan x="-80.842756587" y="-5.8296575922" >yourwebsite.com</tspan><tspan x="-80.842756587" y="16.5624046824" >yourname@mail.com</tspan></text>
</g>
<g transform="matrix(0.8137366857 0 0 0.8137366857 210.597123795 344.0341161382)" style=""  >
		<text xml:space="preserve" font-family="Roboto" font-size="17.082745098039215" font-style="normal" font-weight="normal" style="stroke: none; stroke-width: 0; stroke-dasharray: none; stroke-linecap: butt; stroke-dashoffset: 0; stroke-linejoin: miter; stroke-miterlimit: 4; fill: rgb(254,254,254); fill-rule: nonzero; opacity: 1; white-space: pre;" ><tspan x="-73.0646023859" y="-5.8296575922" >street address here</tspan><tspan x="-73.0646023859" y="16.5624046824" >city, Dhaka, 3655</tspan></text>
</g>
</svg>