<?xml version="1.0" encoding="UTF-8" standalone="no" ?>
<!DOCTYPE svg PUBLIC "-//W3C//DTD SVG 1.1//EN" "http://www.w3.org/Graphics/SVG/1.1/DTD/svg11.dtd">
<svg xmlns="http://www.w3.org/2000/svg" xmlns:xlink="http://www.w3.org/1999/xlink" version="1.1" width="649.6062992203126" height="1003.9370078859376" viewBox="0 0 305.8 472.6" xml:space="preserve">
<desc>Created with Fabric.js 3.4.0 and NBDesigner 2.7</desc>
<defs>
</defs>
<g transform="matrix(0.258714044 0 0 0.258714044 152.9 237.4994923858)"  >
	<image style="stroke: none; stroke-width: 0; stroke-dasharray: none; stroke-linecap: butt; stroke-dashoffset: 0; stroke-linejoin: miter; stroke-miterlimit: 4; fill: rgb(255,255,255); fill-rule: nonzero; opacity: 1;"  xlink:href="https://transparentcard.de/wp-content/themes/astra-child/assets/img/transparent_glass_55x85-mm.png" x="-591" y="-918" width="1182" height="1836"></image>
</g>
<g transform="matrix(2.9871074554 0 0 3.4346334067 122.8723371342 217.3210212864)"  >
<rect style="stroke: none; stroke-width: 1; stroke-dasharray: none; stroke-linecap: butt; stroke-dashoffset: 0; stroke-linejoin: miter; stroke-miterlimit: 4; fill: rgb(153,226,101); fill-rule: nonzero; opacity: 1;"  x="-40.57" y="-9.215" rx="0" ry="0" width="81.14" height="18.43" />
</g>
<g transform="matrix(0.9455782313 0 0 0.9455782313 122.0346164313 208.0571407473)" style=""  >
		<text xml:space="preserve" font-family="Roboto" font-size="22.20460394229135" font-style="normal" font-weight="bold" style="stroke: none; stroke-width: 1; stroke-dasharray: none; stroke-linecap: butt; stroke-dashoffset: 0; stroke-linejoin: miter; stroke-miterlimit: 10; fill: rgb(255,255,255); fill-rule: nonzero; opacity: 1; white-space: pre;" ><tspan x="-83.6033696284" y="6.9753542824" >THOMAS SMITH</tspan></text>
</g>
<g transform="matrix(2.9940901701 0 0 2.4673821733 183.2144429591 284.702145081)"  >
<rect style="stroke: none; stroke-width: 1; stroke-dasharray: none; stroke-linecap: butt; stroke-dashoffset: 0; stroke-linejoin: miter; stroke-miterlimit: 4; fill: rgb(153,226,101); fill-rule: nonzero; opacity: 1;"  x="-40.57" y="-9.215" rx="0" ry="0" width="81.14" height="18.43" />
</g>
<g transform="matrix(0.4479758567 0 0 0.4479758567 136.839980638 285.8235871641)" style=""  >
		<text xml:space="preserve" font-family="Hind Siliguri" font-size="31.198383838383837" font-style="normal" font-weight="normal" style="stroke: none; stroke-width: 0; stroke-dasharray: none; stroke-linecap: butt; stroke-dashoffset: 0; stroke-linejoin: miter; stroke-miterlimit: 4; fill: rgb(255,255,255); fill-rule: nonzero; opacity: 1; white-space: pre;" ><tspan x="-123.3333333333" y="-6.2399887515" >1213 Your Address</tspan><tspan x="-123.3333333333" y="25.8413093495" >New York, USA</tspan></text>
</g>
<g transform="matrix(0.5950032359 0 0 0.5950032359 173.9681626067 339.8998487845)" style=""  >
		<text xml:space="preserve" font-family="Hind Siliguri" font-size="31.198383838383837" font-style="normal" font-weight="normal" style="stroke: none; stroke-width: 0; stroke-dasharray: none; stroke-linecap: butt; stroke-dashoffset: 0; stroke-linejoin: miter; stroke-miterlimit: 4; fill: rgb(255,255,255); fill-rule: nonzero; opacity: 1; white-space: pre;" ><tspan x="-123.3333333333" y="9.800660299" >+1 234 4565 2343</tspan></text>
</g>
<g transform="matrix(0.5950032359 0 0 0.5950032359 176.2810275426 380.3723400128)" style=""  >
		<text xml:space="preserve" font-family="Hind Siliguri" font-size="31.198383838383837" font-style="normal" font-weight="normal" style="stroke: none; stroke-width: 0; stroke-dasharray: none; stroke-linecap: butt; stroke-dashoffset: 0; stroke-linejoin: miter; stroke-miterlimit: 4; fill: rgb(255,255,255); fill-rule: nonzero; opacity: 1; white-space: pre;" ><tspan x="-129.2081083329" y="9.800660299" >info@yourmail.com</tspan></text>
</g>
<g transform="matrix(0.5950032359 0 0 0.5950032359 177.4759415296 418.1321403867)" style=""  >
		<text xml:space="preserve" font-family="Hind Siliguri" font-size="31.198383838383837" font-style="normal" font-weight="normal" style="stroke: none; stroke-width: 0; stroke-dasharray: none; stroke-linecap: butt; stroke-dashoffset: 0; stroke-linejoin: miter; stroke-miterlimit: 4; fill: rgb(255,255,255); fill-rule: nonzero; opacity: 1; white-space: pre;" ><tspan x="-129.2081083329" y="9.800660299" >www.website.com</tspan></text>
</g>
<g transform="matrix(0.5390267976 0 0 0.5390267976 71.4404473289 339.8998487866)"  >
<g style=""   >
		<g transform="matrix(1 0 0 1 3.2592396068 -3.2180402372)"  >
<path style="stroke: none; stroke-width: 1; stroke-dasharray: none; stroke-linecap: butt; stroke-dashoffset: 0; stroke-linejoin: miter; stroke-miterlimit: 4; fill: rgb(255,255,255); fill-rule: nonzero; opacity: 1;"  transform=" translate(-22.5892396068, -15.6419597628)" d="M 26.6 20.18 a 0.9 0.9 0 0 0 1.8 0.15 a 1.76 1.76 0 0 1 0 -0.42 V 19.5 a 9.93 9.93 0 0 0 -0.53 -3.16 a 9.41 9.41 0 0 0 -2.17 -3.45 a 9.63 9.63 0 0 0 -4.21 -2.45 a 10.4 10.4 0 0 0 -2.37 -0.3 a 6.05 6.05 0 0 0 -0.83 0 l -0.78 0.11 a 0.87 0.87 0 0 0 -0.72 1 a 0.85 0.85 0 0 0 1 0.71 a 4.5 4.5 0 0 1 0.63 -0.07 h 0.12 c 0.19 0 0.37 0 0.56 0 a 7.45 7.45 0 0 1 5.34 2.22 a 7.53 7.53 0 0 1 2.21 5.26 v 0.41 A 1.31 1.31 0 0 0 26.6 20.18 Z" stroke-linecap="round" />
</g>
		<g transform="matrix(1 0 0 1 5.3733245361 -5.4917470526)"  >
<path style="stroke: none; stroke-width: 1; stroke-dasharray: none; stroke-linecap: butt; stroke-dashoffset: 0; stroke-linejoin: miter; stroke-miterlimit: 4; fill: rgb(255,255,255); fill-rule: nonzero; opacity: 1;"  transform=" translate(-24.7033245361, -13.3682529474)" d="M 31.67 20.63 a 0.91 0.91 0 0 0 1.81 0.15 c 0 -0.42 0 -0.83 0 -1.24 a 17.3 17.3 0 0 0 -0.18 -2.41 a 14.44 14.44 0 0 0 -13 -11.95 c -0.38 0 -0.79 0 -1.17 0 s -0.82 0 -1.24 0 s -0.82 0.08 -1.24 0.16 a 0.86 0.86 0 0 0 -0.71 1 a 0.84 0.84 0 0 0 1 0.71 L 17.7 7 c 0.11 0 0.22 0 0.33 0 c 0.38 0 0.76 0 1.09 0 a 12.93 12.93 0 0 1 3.65 0.52 a 12.47 12.47 0 0 1 5.3 3.16 a 13 13 0 0 1 2.81 4.24 a 12.59 12.59 0 0 1 0.9 4.66 v 0.38 A 3.26 3.26 0 0 0 31.67 20.63 Z" stroke-linecap="round" />
</g>
		<g transform="matrix(1 0 0 1 7.5083245361 -7.8767790643)"  >
<path style="stroke: none; stroke-width: 1; stroke-dasharray: none; stroke-linecap: butt; stroke-dashoffset: 0; stroke-linejoin: miter; stroke-miterlimit: 4; fill: rgb(255,255,255); fill-rule: nonzero; opacity: 1;"  transform=" translate(-26.8383245361, -10.9832209357)" d="M 19.09 0 c -0.57 0 -1.13 0 -1.7 0.08 A 12.42 12.42 0 0 0 15.7 0.3 a 0.86 0.86 0 0 0 -0.71 1 A 0.86 0.86 0 0 0 16 2 l 0.76 -0.11 a 5.16 5.16 0 0 1 0.79 -0.08 c 0.52 0 1 -0.07 1.54 -0.07 A 17.7 17.7 0 0 1 36.82 19.5 v 0.83 c 0 0.22 0 0.45 0 0.71 a 0.91 0.91 0 0 0 1.81 0.15 c 0 -0.56 0.07 -1.13 0.07 -1.65 A 19.56 19.56 0 0 0 19.09 0 Z" stroke-linecap="round" />
</g>
		<g transform="matrix(1 0 0 1 -0.2638186947 0.6713462266)"  >
<path style="stroke: none; stroke-width: 1; stroke-dasharray: none; stroke-linecap: butt; stroke-dashoffset: 0; stroke-linejoin: miter; stroke-miterlimit: 4; fill: rgb(255,255,255); fill-rule: nonzero; opacity: 1;"  transform=" translate(-19.0661813053, -19.5313462266)" d="M 37.27 28.52 L 30.62 25 C 28.4 23.74 28.33 24.53 26 27 c -0.56 0.6 -1.62 2.18 -2.86 1.88 c -2.59 -0.64 -7.44 -4.43 -9 -6.16 c -0.76 -0.83 -4 -4.77 -4 -6.05 c -0.08 -1.95 4.2 -2.93 2.81 -6.65 L 10 3.38 C 7.18 -3 -0.6 7.21 0 12 C 1.69 23.74 22.32 42.76 33.81 36.48 C 36.37 35.05 39.82 30.06 37.27 28.52 Z" stroke-linecap="round" />
</g>
</g>
</g>
<g transform="matrix(0.5390267976 0 0 0.5390267976 71.5725088943 380.3723400143)"  >
<g style=""   >
		<g transform="matrix(1 0 0 1 0.0076831721 -6.9587011808)"  >
<path style="stroke: none; stroke-width: 1; stroke-dasharray: none; stroke-linecap: butt; stroke-dashoffset: 0; stroke-linejoin: miter; stroke-miterlimit: 4; fill: rgb(255,255,255); fill-rule: nonzero; opacity: 1;"  transform=" translate(-19.582683172, -6.7462988192)" d="M 3.1 1.62 L 17.2 12.79 a 3.63 3.63 0 0 0 2.37 0.69 A 3.58 3.58 0 0 0 22 12.79 L 36.06 1.62 C 37.18 0.73 36.93 0 35.5 0 H 3.66 C 2.22 0 2 0.73 3.1 1.62 Z m 0 0" stroke-linecap="round" />
</g>
		<g transform="matrix(1 0 0 1 0 2.0647499347)"  >
<path style="stroke: none; stroke-width: 1; stroke-dasharray: none; stroke-linecap: butt; stroke-dashoffset: 0; stroke-linejoin: miter; stroke-miterlimit: 4; fill: rgb(255,255,255); fill-rule: nonzero; opacity: 1;"  transform=" translate(-19.575, -15.7697499347)" d="M 37.07 4.56 L 21.66 16.27 a 3.77 3.77 0 0 1 -4.17 0 L 2.08 4.56 C 0.93 3.7 0 4.17 0 5.6 V 24.8 a 2.62 2.62 0 0 0 2.61 2.61 H 36.55 a 2.62 2.62 0 0 0 2.6 -2.61 V 5.6 c 0 -1.43 -0.93 -1.9 -2.08 -1 Z m 0 0" stroke-linecap="round" />
</g>
</g>
</g>
<g transform="matrix(0.5390267976 0 0 0.5390267976 71.5051305446 418.132140389)"  >
<g style=""   >
		<g transform="matrix(1 0 0 1 4.305 14.93)"  >
<path style="stroke: none; stroke-width: 1; stroke-dasharray: none; stroke-linecap: butt; stroke-dashoffset: 0; stroke-linejoin: miter; stroke-miterlimit: 4; fill: rgb(255,255,255); fill-rule: nonzero; opacity: 1;"  transform=" translate(-23.755, -34.34)" d="M 20.14 38.82 c 3 -0.43 5.58 -3.53 7.23 -8.11 a 34.57 34.57 0 0 0 -7.23 -0.85 Z m 0 0" stroke-linecap="round" />
</g>
		<g transform="matrix(1 0 0 1 9.44 15.245)"  >
<path style="stroke: none; stroke-width: 1; stroke-dasharray: none; stroke-linecap: butt; stroke-dashoffset: 0; stroke-linejoin: miter; stroke-miterlimit: 4; fill: rgb(255,255,255); fill-rule: nonzero; opacity: 1;"  transform=" translate(-28.89, -34.655)" d="M 24.89 38.09 l 0.53 -0.16 l 0.44 -0.15 l 0.51 -0.18 l 0.43 -0.18 l 0.49 -0.2 l 0.43 -0.2 l 0.48 -0.23 c 0.14 -0.07 0.28 -0.14 0.41 -0.22 l 0.47 -0.25 l 0.41 -0.24 l 0.45 -0.28 l 0.4 -0.26 l 0.43 -0.31 l 0.38 -0.27 l 0.43 -0.33 l 0.37 -0.3 l 0.4 -0.36 l 0.35 -0.31 l 0.4 -0.38 l 0.33 -0.34 l 0.06 -0.06 a 23.07 23.07 0 0 0 -4.76 -1.83 a 17.38 17.38 0 0 1 -4.44 7.21 l 0.16 0 l 0.44 -0.13 Z m 0 0" stroke-linecap="round" />
</g>
		<g transform="matrix(1 0 0 1 14.58 6.55)"  >
<path style="stroke: none; stroke-width: 1; stroke-dasharray: none; stroke-linecap: butt; stroke-dashoffset: 0; stroke-linejoin: miter; stroke-miterlimit: 4; fill: rgb(255,255,255); fill-rule: nonzero; opacity: 1;"  transform=" translate(-34.03, -25.96)" d="M 38.9 20.1 H 30.56 a 36 36 0 0 1 -1.4 9.62 a 24.46 24.46 0 0 1 5.27 2.1 A 19.47 19.47 0 0 0 38.9 20.1 Z m 0 0" stroke-linecap="round" />
</g>
		<g transform="matrix(1 0 0 1 5.19 -5.335)"  >
<path style="stroke: none; stroke-width: 1; stroke-dasharray: none; stroke-linecap: butt; stroke-dashoffset: 0; stroke-linejoin: miter; stroke-miterlimit: 4; fill: rgb(255,255,255); fill-rule: nonzero; opacity: 1;"  transform=" translate(-24.64, -14.075)" d="M 20.14 18.71 h 9 A 34.6 34.6 0 0 0 27.8 9.44 a 36.53 36.53 0 0 1 -7.66 0.91 Z m 0 0" stroke-linecap="round" />
</g>
		<g transform="matrix(1 0 0 1 4.305 -14.91)"  >
<path style="stroke: none; stroke-width: 1; stroke-dasharray: none; stroke-linecap: butt; stroke-dashoffset: 0; stroke-linejoin: miter; stroke-miterlimit: 4; fill: rgb(255,255,255); fill-rule: nonzero; opacity: 1;"  transform=" translate(-23.755, -4.5)" d="M 20.14 0 V 9 a 35.25 35.25 0 0 0 7.23 -0.85 C 25.72 3.53 23.12 0.42 20.14 0 Z m 0 0" stroke-linecap="round" />
</g>
		<g transform="matrix(1 0 0 1 5.205 5.33)"  >
<path style="stroke: none; stroke-width: 1; stroke-dasharray: none; stroke-linecap: butt; stroke-dashoffset: 0; stroke-linejoin: miter; stroke-miterlimit: 4; fill: rgb(255,255,255); fill-rule: nonzero; opacity: 1;"  transform=" translate(-24.655, -24.74)" d="M 20.14 28.47 a 36.53 36.53 0 0 1 7.66 0.91 a 34.73 34.73 0 0 0 1.37 -9.28 h -9 Z m 0 0" stroke-linecap="round" />
</g>
		<g transform="matrix(1 0 0 1 14.58 -6.555)"  >
<path style="stroke: none; stroke-width: 1; stroke-dasharray: none; stroke-linecap: butt; stroke-dashoffset: 0; stroke-linejoin: miter; stroke-miterlimit: 4; fill: rgb(255,255,255); fill-rule: nonzero; opacity: 1;"  transform=" translate(-34.03, -12.855)" d="M 34.43 7 a 24.46 24.46 0 0 1 -5.27 2.1 a 35.9 35.9 0 0 1 1.4 9.61 H 38.9 A 19.47 19.47 0 0 0 34.43 7 Z m 0 0" stroke-linecap="round" />
</g>
		<g transform="matrix(1 0 0 1 9.435 -15.2)"  >
<path style="stroke: none; stroke-width: 1; stroke-dasharray: none; stroke-linecap: butt; stroke-dashoffset: 0; stroke-linejoin: miter; stroke-miterlimit: 4; fill: rgb(255,255,255); fill-rule: nonzero; opacity: 1;"  transform=" translate(-28.885, -4.21)" d="M 33.49 5.94 l -0.06 -0.06 l -0.33 -0.33 l -0.39 -0.38 l -0.36 -0.32 L 32 4.49 l -0.37 -0.29 c -0.14 -0.11 -0.28 -0.23 -0.42 -0.33 l -0.38 -0.28 l -0.44 -0.31 L 29.94 3 l -0.45 -0.28 l -0.41 -0.24 l -0.47 -0.26 L 28.2 2 l -0.49 -0.24 l -0.42 -0.19 l -0.5 -0.21 l -0.43 -0.17 L 25.85 1 L 25.41 0.89 L 24.89 0.73 L 24.45 0.6 l -0.17 0 a 17.27 17.27 0 0 1 4.45 7.22 a 23.1 23.1 0 0 0 4.76 -1.84 Z m 0 0" stroke-linecap="round" />
</g>
		<g transform="matrix(1 0 0 1 -14.58 -6.555)"  >
<path style="stroke: none; stroke-width: 1; stroke-dasharray: none; stroke-linecap: butt; stroke-dashoffset: 0; stroke-linejoin: miter; stroke-miterlimit: 4; fill: rgb(255,255,255); fill-rule: nonzero; opacity: 1;"  transform=" translate(-4.87, -12.855)" d="M 0 18.71 H 8.33 A 36.32 36.32 0 0 1 9.74 9.1 A 24.33 24.33 0 0 1 4.46 7 A 19.4 19.4 0 0 0 0 18.71 Z m 0 0" stroke-linecap="round" />
</g>
		<g transform="matrix(1 0 0 1 -4.31 14.91)"  >
<path style="stroke: none; stroke-width: 1; stroke-dasharray: none; stroke-linecap: butt; stroke-dashoffset: 0; stroke-linejoin: miter; stroke-miterlimit: 4; fill: rgb(255,255,255); fill-rule: nonzero; opacity: 1;"  transform=" translate(-15.14, -34.32)" d="M 18.75 38.82 v -9 a 34.4 34.4 0 0 0 -7.22 0.85 c 1.64 4.58 4.25 7.68 7.22 8.11 Z m 0 0" stroke-linecap="round" />
</g>
		<g transform="matrix(1 0 0 1 -5.19 5.33)"  >
<path style="stroke: none; stroke-width: 1; stroke-dasharray: none; stroke-linecap: butt; stroke-dashoffset: 0; stroke-linejoin: miter; stroke-miterlimit: 4; fill: rgb(255,255,255); fill-rule: nonzero; opacity: 1;"  transform=" translate(-14.26, -24.74)" d="M 18.75 20.1 h -9 a 34.72 34.72 0 0 0 1.36 9.28 a 36.61 36.61 0 0 1 7.66 -0.91 Z m 0 0" stroke-linecap="round" />
</g>
		<g transform="matrix(1 0 0 1 -4.31 -14.91)"  >
<path style="stroke: none; stroke-width: 1; stroke-dasharray: none; stroke-linecap: butt; stroke-dashoffset: 0; stroke-linejoin: miter; stroke-miterlimit: 4; fill: rgb(255,255,255); fill-rule: nonzero; opacity: 1;"  transform=" translate(-15.14, -4.5)" d="M 18.75 0 c -3 0.42 -5.58 3.53 -7.22 8.11 A 35.08 35.08 0 0 0 18.75 9 Z m 0 0" stroke-linecap="round" />
</g>
		<g transform="matrix(1 0 0 1 -5.21 -5.335)"  >
<path style="stroke: none; stroke-width: 1; stroke-dasharray: none; stroke-linecap: butt; stroke-dashoffset: 0; stroke-linejoin: miter; stroke-miterlimit: 4; fill: rgb(255,255,255); fill-rule: nonzero; opacity: 1;"  transform=" translate(-14.24, -14.075)" d="M 18.75 10.35 a 36.61 36.61 0 0 1 -7.66 -0.91 a 34.58 34.58 0 0 0 -1.36 9.27 h 9 Z m 0 0" stroke-linecap="round" />
</g>
		<g transform="matrix(1 0 0 1 -9.42 -15.245)"  >
<path style="stroke: none; stroke-width: 1; stroke-dasharray: none; stroke-linecap: butt; stroke-dashoffset: 0; stroke-linejoin: miter; stroke-miterlimit: 4; fill: rgb(255,255,255); fill-rule: nonzero; opacity: 1;"  transform=" translate(-10.03, -4.165)" d="M 14.61 0.56 l -0.17 0 L 14 0.73 l -0.52 0.16 c -0.15 0 -0.3 0.1 -0.44 0.15 l -0.51 0.18 l -0.43 0.17 l -0.5 0.21 l -0.42 0.2 L 10.7 2 l -0.42 0.22 l -0.46 0.25 l -0.41 0.24 L 9 3 c -0.14 0.08 -0.27 0.17 -0.4 0.26 l -0.44 0.3 c -0.12 0.1 -0.25 0.19 -0.38 0.28 l -0.42 0.33 L 7 4.49 l -0.41 0.35 l -0.35 0.32 l -0.39 0.38 l -0.34 0.33 l -0.06 0.07 a 23.37 23.37 0 0 0 4.77 1.83 A 17.18 17.18 0 0 1 14.61 0.56 Z m 0 0" stroke-linecap="round" />
</g>
		<g transform="matrix(1 0 0 1 -9.415 15.195)"  >
<path style="stroke: none; stroke-width: 1; stroke-dasharray: none; stroke-linecap: butt; stroke-dashoffset: 0; stroke-linejoin: miter; stroke-miterlimit: 4; fill: rgb(255,255,255); fill-rule: nonzero; opacity: 1;"  transform=" translate(-10.035, -34.605)" d="M 5.8 33.27 l 0.39 0.38 l 0.35 0.32 l 0.41 0.35 l 0.36 0.3 l 0.43 0.33 c 0.12 0.1 0.25 0.19 0.38 0.28 l 0.44 0.31 L 9 35.8 l 0.46 0.28 l 0.4 0.24 l 0.47 0.25 l 0.42 0.22 l 0.48 0.23 l 0.43 0.2 l 0.49 0.21 l 0.43 0.17 l 0.52 0.18 l 0.43 0.15 l 0.53 0.16 l 0.43 0.12 l 0.17 0 A 17.35 17.35 0 0 1 10.17 31 a 23.1 23.1 0 0 0 -4.76 1.84 l 0.06 0.06 l 0.33 0.33 Z m 0 0" stroke-linecap="round" />
</g>
		<g transform="matrix(1 0 0 1 -14.58 6.55)"  >
<path style="stroke: none; stroke-width: 1; stroke-dasharray: none; stroke-linecap: butt; stroke-dashoffset: 0; stroke-linejoin: miter; stroke-miterlimit: 4; fill: rgb(255,255,255); fill-rule: nonzero; opacity: 1;"  transform=" translate(-4.87, -25.96)" d="M 4.46 31.82 a 24.33 24.33 0 0 1 5.28 -2.1 A 36.39 36.39 0 0 1 8.33 20.1 H 0 A 19.42 19.42 0 0 0 4.46 31.82 Z m 0 0" stroke-linecap="round" />
</g>
</g>
</g>
<g transform="matrix(0.9455782313 0 0 0.9455782313 144.2725501966 232.4641168265)" style=""  >
		<text xml:space="preserve" font-family="Hind Siliguri" font-size="16.59466666666667" font-style="normal" font-weight="normal" style="stroke: none; stroke-width: 0; stroke-dasharray: none; stroke-linecap: butt; stroke-dashoffset: 0; stroke-linejoin: miter; stroke-miterlimit: 4; fill: rgb(255,255,255); fill-rule: nonzero; opacity: 1; white-space: pre;" ><tspan x="-60.5855547828" y="5.2130485867" >Graphic Designer</tspan></text>
</g>
<g transform="matrix(0.3743068062 0 0 0.3743068062 152.8999999956 100.9023934384)"  >
<g style="opacity: 0.8;"   >
		<g transform="matrix(1 0 0 1 90.3838683417 -81.0279011055)"  >
<path style="stroke: none; stroke-width: 1; stroke-dasharray: none; stroke-linecap: butt; stroke-dashoffset: 0; stroke-linejoin: miter; stroke-miterlimit: 4; fill: rgb(153,226,101); fill-rule: nonzero; opacity: 1;"  transform=" translate(-342.2388683417, -71.0470988945)" d="M 350.79 78.96 c 0.86 3.73 0.57 5.92 -0.87 6.52 c -2.44 0.31 -5.26 0.4 -8.45 0.26 c -1.97 -0.48 -3.16 -2.51 -3.76 -6.39 c -0.66 -6.11 -1.91 -12.01 -3.74 -17.58 c -1.3 -4.38 -0.69 -5.14 -0.02 -5.32 c 1.94 0.09 3.66 0.04 5.14 -0.16 c 0.67 0.13 2.17 0.97 4.64 5.18 c 3.02 5.54 5.38 11.4 7.05 17.48" stroke-linecap="round" />
</g>
		<g transform="matrix(1 0 0 1 98.9705505641 -83.0726423218)"  >
<path style="stroke: none; stroke-width: 1; stroke-dasharray: none; stroke-linecap: butt; stroke-dashoffset: 0; stroke-linejoin: miter; stroke-miterlimit: 4; fill: rgb(153,226,101); fill-rule: nonzero; opacity: 1;"  transform=" translate(-350.8255505642, -69.0023576782)" d="M 357.93 74.46 c 1.58 4.37 1.57 6.21 1.28 6.99 c -0.84 1.12 -2.14 2.03 -3.86 2.72 c -1.13 0.04 -2.17 -1.66 -3.38 -5.49 c -1.76 -6.06 -4.21 -11.9 -7.35 -17.41 c -2.43 -4.42 -2.5 -5.38 -2.21 -5.77 c 1.05 -0.42 1.84 -0.98 2.35 -1.66 c 0.23 -0.05 1.21 0.12 4.32 4.28 c 3.67 5.13 6.64 10.61 8.85 16.34" stroke-linecap="round" />
</g>
		<g transform="matrix(1 0 0 1 92.2273622707 -44.7858890532)"  >
<path style="stroke: none; stroke-width: 1; stroke-dasharray: none; stroke-linecap: butt; stroke-dashoffset: 0; stroke-linejoin: miter; stroke-miterlimit: 4; fill: rgb(153,226,101); fill-rule: nonzero; opacity: 1;"  transform=" translate(-344.0823622707, -107.2891109468)" d="M 352.44 116.24 c -0.9 4.02 -2.33 6.3 -4.37 6.97 c -3.16 0.4 -6.83 0.52 -10.97 0.33 c -2.41 -0.52 -3.19 -2.74 -2.39 -6.77 c 1.69 -6.5 2.77 -13.01 3.25 -19.42 c 0.5 -3.89 1.7 -5.84 3.77 -6.13 c 3.37 0.15 6.36 0.06 8.93 -0.27 c 1.62 0.18 2.62 2.18 2.99 5.93 c 0.32 6.39 -0.07 12.88 -1.21 19.36" stroke-linecap="round" />
</g>
		<g transform="matrix(1 0 0 1 106.4088356087 -48.031217192)"  >
<path style="stroke: none; stroke-width: 1; stroke-dasharray: none; stroke-linecap: butt; stroke-dashoffset: 0; stroke-linejoin: miter; stroke-miterlimit: 4; fill: rgb(153,226,101); fill-rule: nonzero; opacity: 1;"  transform=" translate(-358.2638356087, -104.043782808)" d="M 362.11 110.14 c -0.57 3.87 -1.24 6.51 -1.99 7.83 c -1.09 1.45 -2.77 2.63 -5.01 3.54 c -1.29 0.14 -1.63 -1.66 -1.08 -5.65 c 1.09 -6.47 1.42 -12.95 1.03 -19.32 c -0.14 -3.95 0.29 -6.17 1.33 -6.97 c 1.82 -0.73 3.19 -1.7 4.08 -2.88 c 0.06 -0.04 0.14 -0.08 0.19 -0.12 c 0.89 0.5 1.35 3.59 1.54 4.91 c 0.76 6.11 0.74 12.37 -0.1 18.66" stroke-linecap="round" />
</g>
		<g transform="matrix(1 0 0 1 80.2445835986 -7.6201876221)"  >
<path style="stroke: none; stroke-width: 1; stroke-dasharray: none; stroke-linecap: butt; stroke-dashoffset: 0; stroke-linejoin: miter; stroke-miterlimit: 4; fill: rgb(153,226,101); fill-rule: nonzero; opacity: 1;"  transform=" translate(-332.0995835985, -144.4548123779)" d="M 337.08 153.35 c -2.67 3.61 -5.09 5.66 -7.4 6.29 c -3.33 0.43 -7.19 0.54 -11.55 0.35 c -2.44 -0.48 -2.55 -2.41 -0.34 -6.06 c 0.5 -0.73 0.98 -1.47 1.47 -2.21 c 3.46 -5.34 6.44 -10.84 8.95 -16.44 c 2.01 -3.9 4.24 -5.84 7.01 -6.11 c 4.22 0.19 7.96 0.07 11.18 -0.34 c 1.84 0.13 2.08 2.06 0.72 5.88 c -2.26 5.59 -5.12 11.09 -8.57 16.43 c -0.48 0.74 -0.98 1.48 -1.48 2.21" stroke-linecap="round" />
</g>
		<g transform="matrix(1 0 0 1 95.8502343343 -11.465)"  >
<path style="stroke: none; stroke-width: 1; stroke-dasharray: none; stroke-linecap: butt; stroke-dashoffset: 0; stroke-linejoin: miter; stroke-miterlimit: 4; fill: rgb(153,226,101); fill-rule: nonzero; opacity: 1;"  transform=" translate(-347.7052343343, -140.61)" d="M 356.61 130.29 l -0.41 0.95 c -4.38 9.11 -4.55 9.47 -7.75 14.45 c -1.84 2.62 -4.28 6.12 -6.27 8.66 c -1.15 1.42 -2.86 2.59 -5.09 3.49 c -0.12 0.02 -0.27 0.05 -0.39 0.07 c -0.55 -0.43 0.06 -1.88 2.12 -4.99 c 0.5 -0.73 0.99 -1.46 1.48 -2.21 c 3.46 -5.34 6.3 -10.84 8.54 -16.42 c 1.71 -3.98 3.22 -6.27 4.75 -7.2 c 2.28 -0.92 4 -2.12 5.11 -3.61 c 0.05 -0.05 0.12 -0.12 0.18 -0.17 c 0.06 0.45 0.11 0.83 -1.42 4.88 c -0.27 0.7 -0.55 1.4 -0.84 2.1" stroke-linecap="round" />
</g>
		<g transform="matrix(1 0 0 1 31.2470070686 19.5552098043)"  >
<path style="stroke: none; stroke-width: 1; stroke-dasharray: none; stroke-linecap: butt; stroke-dashoffset: 0; stroke-linejoin: miter; stroke-miterlimit: 4; fill: rgb(153,226,101); fill-rule: nonzero; opacity: 1;"  transform=" translate(-283.1020070687, -171.6302098043)" d="M 288.3 181.3 c -3.32 2.22 -6.44 3.2 -9.53 3.01 c -4.53 -0.67 -9.45 -1.63 -14.72 -2.89 c -2.97 -1 -3.35 -2.68 -1.16 -5.12 c 4.22 -3.97 8.44 -8.5 12.6 -13.56 c 2.94 -3.03 6.28 -4.24 10.22 -3.68 c 5.99 1.43 11.58 2.52 16.73 3.29 c 2.86 0.78 3.02 2.68 0.48 5.8 c -4.62 4.97 -9.53 9.36 -14.62 13.16" stroke-linecap="round" />
</g>
		<g transform="matrix(1 0 0 1 56.3261067369 22.3223560655)"  >
<path style="stroke: none; stroke-width: 1; stroke-dasharray: none; stroke-linecap: butt; stroke-dashoffset: 0; stroke-linejoin: miter; stroke-miterlimit: 4; fill: rgb(153,226,101); fill-rule: nonzero; opacity: 1;"  transform=" translate(-308.1811067368, -174.3973560655)" d="M 308.7 181.08 c -3.61 2.26 -6.43 3.59 -8.64 4.06 c -2.91 0.37 -6.29 0.48 -10.09 0.3 c -2.01 -0.32 -1.59 -1.54 1.31 -3.84 c 5.19 -3.79 10.18 -8.18 14.86 -13.14 c 3.16 -3.06 6.12 -4.64 9.04 -4.84 c 4.33 0.2 8.17 0.07 11.47 -0.35 c 1.74 0.06 1.18 1.57 -1.71 4.62 c -4.99 4.97 -10.45 9.37 -16.24 13.18" stroke-linecap="round" />
</g>
		<g transform="matrix(1 0 0 1 23.72 40.8524193181)"  >
<path style="stroke: none; stroke-width: 1; stroke-dasharray: none; stroke-linecap: butt; stroke-dashoffset: 0; stroke-linejoin: miter; stroke-miterlimit: 4; fill: rgb(153,226,101); fill-rule: nonzero; opacity: 1;"  transform=" translate(-275.575, -192.9274193181)" d="M 273.61 195.86 c -3.13 0.59 -7.31 1.36 -10.45 1.81 c -1.98 0.25 -4.29 0.33 -6.89 0.21 c -0.18 -0.02 -0.42 -0.05 -0.57 -0.12 c 0.46 -0.33 0.59 -0.43 3.49 -1.13 c 5.62 -1.29 11.23 -3.26 16.72 -5.86 c 3.76 -1.67 6.69 -2.48 9.24 -2.55 c 3.66 0.17 6.91 0.06 9.71 -0.3 c 0.18 0 0.45 0 0.59 0.08 c -0.33 0.56 -1.72 1.24 -4.19 2.3 c -5.73 2.38 -11.65 4.23 -17.66 5.55" stroke-linecap="round" />
</g>
		<g transform="matrix(1 0 0 1 51.517847894 -87.8572139518)"  >
<path style="stroke: none; stroke-width: 1; stroke-dasharray: none; stroke-linecap: butt; stroke-dashoffset: 0; stroke-linejoin: miter; stroke-miterlimit: 4; fill: rgb(153,226,101); fill-rule: nonzero; opacity: 1;"  transform=" translate(-303.372847894, -64.2177860483)" d="M 313.42 74.56 c -1.05 3.5 -3.02 4.95 -6.02 4.43 c -4.69 -1.44 -9.37 -3.04 -14 -4.78 c -2.63 -1.39 -3.17 -3.7 -1.63 -7.04 c 2.89 -5.17 5.54 -10.04 7.89 -14.5 c 2.33 -3.8 4.37 -3.38 5.04 -3.24 c 2.82 1.06 5.67 2.04 8.52 2.91 c 1.75 0.84 2.63 2.81 2.61 5.84 c -0.38 5.14 -1.19 10.63 -2.41 16.37" stroke-linecap="round" />
</g>
		<g transform="matrix(1 0 0 1 74.0483340495 -82.4825974187)"  >
<path style="stroke: none; stroke-width: 1; stroke-dasharray: none; stroke-linecap: butt; stroke-dashoffset: 0; stroke-linejoin: miter; stroke-miterlimit: 4; fill: rgb(153,226,101); fill-rule: nonzero; opacity: 1;"  transform=" translate(-325.9033340495, -69.5924025813)" d="M 335.48 79.13 c 0.07 3.76 -1.04 5.62 -3.39 5.66 c -3.8 -0.57 -7.92 -1.37 -12.33 -2.42 c -2.63 -1.02 -3.73 -3.3 -3.37 -7 c 0.99 -5.8 1.55 -11.37 1.66 -16.58 c 0.31 -4.05 1.69 -4.45 2.69 -4.39 c 2.68 0.64 5.19 1.13 7.5 1.47 c 1.55 0.54 2.95 2.53 4.06 5.73 c 1.63 5.55 2.69 11.43 3.17 17.53" stroke-linecap="round" />
</g>
		<g transform="matrix(1 0 0 1 38.4364657816 -55.1849611147)"  >
<path style="stroke: none; stroke-width: 1; stroke-dasharray: none; stroke-linecap: butt; stroke-dashoffset: 0; stroke-linejoin: miter; stroke-miterlimit: 4; fill: rgb(153,226,101); fill-rule: nonzero; opacity: 1;"  transform=" translate(-290.2914657815, -96.8900388853)" d="M 301.79 110.27 c -2.06 3.78 -4.97 5.26 -8.89 4.51 c -6.08 -1.87 -12.16 -3.95 -18.16 -6.2 c -3.43 -1.76 -4.18 -4.48 -2.29 -8.32 c 3.63 -5.99 7.12 -11.86 10.43 -17.52 c 2.28 -3.27 4.93 -4.48 8.09 -3.7 c 4.89 1.84 9.84 3.53 14.79 5.05 c 2.94 1.3 3.95 3.76 3.09 7.51 c -1.97 6.12 -4.33 12.38 -7.05 18.67" stroke-linecap="round" />
</g>
		<g transform="matrix(1 0 0 1 68.4411567438 -47.1185308766)"  >
<path style="stroke: none; stroke-width: 1; stroke-dasharray: none; stroke-linecap: butt; stroke-dashoffset: 0; stroke-linejoin: miter; stroke-miterlimit: 4; fill: rgb(153,226,101); fill-rule: nonzero; opacity: 1;"  transform=" translate(-320.2961567438, -104.9564691233)" d="M 331.68 116.46 c -1.41 3.97 -3.61 5.88 -6.75 5.84 c -4.92 -0.73 -10.27 -1.78 -15.99 -3.14 c -3.35 -1.24 -4.37 -3.79 -3.12 -7.8 c 2.59 -6.33 4.79 -12.64 6.58 -18.8 c 1.37 -3.62 3.46 -5.22 6.4 -4.91 c 4.66 1.11 9.01 1.96 13.02 2.56 c 2.44 0.75 3.57 2.99 3.46 6.86 c -0.62 6.4 -1.82 12.9 -3.6 19.39" stroke-linecap="round" />
</g>
		<g transform="matrix(1 0 0 1 19.5348789287 -19.801566286)"  >
<path style="stroke: none; stroke-width: 1; stroke-dasharray: none; stroke-linecap: butt; stroke-dashoffset: 0; stroke-linejoin: miter; stroke-miterlimit: 4; fill: rgb(153,226,101); fill-rule: nonzero; opacity: 1;"  transform=" translate(-271.3898789287, -132.273433714)" d="M 281.95 146.85 c -2.79 3.48 -6.19 4.76 -10.37 3.91 c -6.4 -1.96 -12.81 -4.15 -19.12 -6.53 c -3.66 -1.83 -4.44 -4.46 -2.44 -8.28 c 0.48 -0.73 0.96 -1.47 1.44 -2.22 c 3.46 -5.34 6.89 -10.72 10.26 -16.09 c 2.73 -3.6 5.87 -4.79 9.88 -3.74 c 6.12 2.3 12.33 4.43 18.53 6.33 c 3.61 1.55 4.57 4.2 2.93 8.1 c -2.96 5.51 -6.18 10.96 -9.64 16.3 c -0.48 0.75 -0.97 1.48 -1.45 2.21" stroke-linecap="round" />
</g>
		<g transform="matrix(1 0 0 1 53.5956376431 -10.3995265792)"  >
<path style="stroke: none; stroke-width: 1; stroke-dasharray: none; stroke-linecap: butt; stroke-dashoffset: 0; stroke-linejoin: miter; stroke-miterlimit: 4; fill: rgb(153,226,101); fill-rule: nonzero; opacity: 1;"  transform=" translate(-305.450637643, -141.6754734208)" d="M 314.49 153.6 c -2.76 3.54 -5.76 5.21 -9.18 5.1 c -5.19 -0.77 -10.82 -1.87 -16.84 -3.31 c -3.46 -1.24 -4.16 -3.64 -2.13 -7.33 c 0.49 -0.73 0.97 -1.47 1.46 -2.21 c 3.46 -5.34 6.65 -10.8 9.56 -16.32 c 2.36 -3.71 5.35 -5.28 9.13 -4.8 c 5.83 1.39 11.29 2.46 16.31 3.2 c 2.9 0.84 3.61 3.14 2.17 7.04 c -2.55 5.59 -5.55 11.1 -9.01 16.43 c -0.48 0.74 -0.97 1.48 -1.47 2.21" stroke-linecap="round" />
</g>
		<g transform="matrix(1 0 0 1 -1.002969246 10.5428543026)"  >
<path style="stroke: none; stroke-width: 1; stroke-dasharray: none; stroke-linecap: butt; stroke-dashoffset: 0; stroke-linejoin: miter; stroke-miterlimit: 4; fill: rgb(153,226,101); fill-rule: nonzero; opacity: 1;"  transform=" translate(-250.852030754, -162.6178543026)" d="M 258.92 175.21 c -2.79 2.28 -5.95 2.99 -9.64 2.17 c -5.59 -1.71 -11.19 -3.63 -16.71 -5.71 c -3.22 -1.54 -4.01 -3.54 -2.49 -6.3 c 3.09 -4.34 6.43 -9.17 9.98 -14.43 c 2.58 -3.11 5.8 -4.08 9.85 -2.97 c 6.28 2.36 12.64 4.54 19 6.49 c 3.66 1.52 4.41 3.85 2.28 7.11 c -4.08 5.08 -8.2 9.64 -12.28 13.64" stroke-linecap="round" />
</g>
		<g transform="matrix(1 0 0 1 -20.1132549888 31.5469671444)"  >
<path style="stroke: none; stroke-width: 1; stroke-dasharray: none; stroke-linecap: butt; stroke-dashoffset: 0; stroke-linejoin: miter; stroke-miterlimit: 4; fill: rgb(153,226,101); fill-rule: nonzero; opacity: 1;"  transform=" translate(-231.7417450112, -183.6219671444)" d="M 235.91 192.03 c -2.36 0.88 -4.79 0.99 -7.42 0.34 c -3.82 -1.17 -7.64 -2.48 -11.41 -3.9 c -1.39 -0.62 -3.09 -1.67 -1.91 -3.52 c 1.95 -2.27 4.23 -5.12 6.79 -8.49 c 1.94 -2.01 4.53 -2.5 7.94 -1.5 c 5.32 2 10.71 3.84 16.09 5.5 c 3.08 1.22 3.54 2.75 1.4 4.68 c -3.95 2.91 -7.8 5.22 -11.47 6.9" stroke-linecap="round" />
</g>
		<g transform="matrix(1 0 0 1 4.6575603252 38.5998196431)"  >
<path style="stroke: none; stroke-width: 1; stroke-dasharray: none; stroke-linecap: butt; stroke-dashoffset: 0; stroke-linejoin: miter; stroke-miterlimit: 4; fill: rgb(153,226,101); fill-rule: nonzero; opacity: 1;"  transform=" translate(-256.5125603252, -190.6748196431)" d="M 257.04 196.41 c -3.24 0.7 -6.07 0.93 -8.42 0.7 c -3.1 -0.46 -6.46 -1.12 -10.05 -1.97 c -1.97 -0.61 -1.91 -1.39 0.19 -2.32 c 3.91 -1.62 7.98 -3.87 12.12 -6.72 c 2.91 -1.72 5.96 -2.29 9.32 -1.75 c 5.07 1.21 9.8 2.13 14.17 2.78 c 2.34 0.57 1.97 1.71 -1.08 3.38 c -5.36 2.61 -10.8 4.6 -16.24 5.91" stroke-linecap="round" />
</g>
		<g transform="matrix(1 0 0 1 30.7106586186 -96.056112133)"  >
<path style="stroke: none; stroke-width: 1; stroke-dasharray: none; stroke-linecap: butt; stroke-dashoffset: 0; stroke-linejoin: miter; stroke-miterlimit: 4; fill: rgb(153,226,101); fill-rule: nonzero; opacity: 1;"  transform=" translate(-282.5656586187, -56.0188878669)" d="M 288.85 65.99 c -2.22 3.06 -4.72 4.12 -7.67 3.26 c -4.46 -1.95 -8.79 -4 -12.93 -6.11 c -2.26 -1.59 -2.06 -3.74 0.6 -6.59 c 4.66 -4.35 9.25 -8.31 13.69 -11.81 c 2.75 -1.94 5.05 -2.62 6.85 -2.04 c 2.52 1.29 5.16 2.53 7.87 3.72 c 0.55 0.36 2.23 1.44 0.21 5.37 c -2.62 4.36 -5.51 9.12 -8.63 14.2" stroke-linecap="round" />
</g>
		<g transform="matrix(1 0 0 1 -15.0043334954 -33.7505501922)"  >
<path style="stroke: none; stroke-width: 1; stroke-dasharray: none; stroke-linecap: butt; stroke-dashoffset: 0; stroke-linejoin: miter; stroke-miterlimit: 4; fill: rgb(153,226,101); fill-rule: nonzero; opacity: 1;"  transform=" translate(-236.8506665046, -118.3244498079)" d="M 245.71 134.21 c -2.72 3.45 -5.98 4.51 -9.94 3.25 c -6.09 -2.66 -12.01 -5.46 -17.67 -8.34 c -3.23 -2.13 -3.85 -5.02 -1.89 -8.83 c 0.47 -0.74 0.95 -1.48 1.43 -2.22 c 3.46 -5.34 7.12 -10.62 10.92 -15.79 c 2.95 -3.38 6.15 -4.37 9.76 -3.02 c 5.48 2.79 11.22 5.51 17.11 8.08 c 3.38 1.95 4.05 4.76 2.07 8.59 c -3.42 5.35 -6.89 10.72 -10.35 16.06 c -0.48 0.75 -0.96 1.48 -1.44 2.22" stroke-linecap="round" />
</g>
		<g transform="matrix(1 0 0 1 -42.4283599782 -55.1748687892)"  >
<path style="stroke: none; stroke-width: 1; stroke-dasharray: none; stroke-linecap: butt; stroke-dashoffset: 0; stroke-linejoin: miter; stroke-miterlimit: 4; fill: rgb(153,226,101); fill-rule: nonzero; opacity: 1;"  transform=" translate(-209.4266400218, -96.9001312108)" d="M 215 113.15 c -2.66 3.5 -5.48 4.44 -8.88 2.96 c -5.13 -3 -9.92 -6.04 -14.27 -9.07 c -2.45 -2.23 -2.67 -5.19 -0.66 -9.03 c 0.46 -0.74 0.93 -1.48 1.42 -2.23 c 3.46 -5.34 7.3 -10.5 11.44 -15.46 c 3.11 -3.22 6.03 -4.08 8.9 -2.61 c 4.22 2.94 8.85 5.88 13.83 8.79 c 2.76 2.12 2.97 4.96 0.64 8.68 c -3.84 5.15 -7.52 10.41 -10.98 15.75 c -0.48 0.74 -0.96 1.49 -1.43 2.22" stroke-linecap="round" />
</g>
		<g transform="matrix(1 0 0 1 13.3343321238 -105.6343420075)"  >
<path style="stroke: none; stroke-width: 1; stroke-dasharray: none; stroke-linecap: butt; stroke-dashoffset: 0; stroke-linejoin: miter; stroke-miterlimit: 4; fill: rgb(153,226,101); fill-rule: nonzero; opacity: 1;"  transform=" translate(-265.1893321238, -46.4406579925)" d="M 266.62 55.33 c -3.29 2.57 -6.04 3.27 -8.67 2.2 c -3.76 -2.19 -7.26 -4.42 -10.45 -6.64 c -1.6 -1.62 -0.63 -3.52 2.97 -5.82 c 6.08 -3.46 12.23 -6.45 18.34 -8.91 c 3.69 -1.32 6.36 -1.63 7.95 -0.92 c 1.94 1.35 4.07 2.7 6.36 4.04 c 0.69 0.62 1.21 1.77 -2.25 4.54 c -4.64 3.39 -9.42 7.25 -14.26 11.5" stroke-linecap="round" />
</g>
		<g transform="matrix(1 0 0 1 8.2038226619 -67.3292314994)"  >
<path style="stroke: none; stroke-width: 1; stroke-dasharray: none; stroke-linecap: butt; stroke-dashoffset: 0; stroke-linejoin: miter; stroke-miterlimit: 4; fill: rgb(153,226,101); fill-rule: nonzero; opacity: 1;"  transform=" translate(-260.0588226619, -84.7457685006)" d="M 268.49 98.65 c -2.68 3.52 -5.82 4.66 -9.6 3.49 c -5.78 -2.53 -11.41 -5.18 -16.78 -7.92 c -3 -2.03 -3.24 -4.77 -0.72 -8.36 c 4.6 -5.54 9.29 -10.85 14.01 -15.86 c 3.1 -2.85 6.04 -3.72 9 -2.65 c 4.38 2.23 8.95 4.39 13.66 6.45 c 2.67 1.59 3.1 4.05 1.32 7.52 c -3.48 5.59 -7.13 11.4 -10.88 17.34" stroke-linecap="round" />
</g>
		<g transform="matrix(1 0 0 1 -33.8431481211 -2.7571427329)"  >
<path style="stroke: none; stroke-width: 1; stroke-dasharray: none; stroke-linecap: butt; stroke-dashoffset: 0; stroke-linejoin: miter; stroke-miterlimit: 4; fill: rgb(153,226,101); fill-rule: nonzero; opacity: 1;"  transform=" translate(-218.0118518789, -149.3178572672)" d="M 226.2 163.8 c -2.1 2.48 -4.78 3.12 -8.21 1.95 c -5.32 -2.33 -10.5 -4.77 -15.44 -7.29 c -2.91 -1.83 -3.89 -4.2 -2.98 -7.23 c 2.04 -4.83 4.56 -10.04 7.55 -15.55 c 2.2 -3.23 5.03 -4.12 8.67 -2.72 c 5.62 2.87 11.5 5.65 17.55 8.29 c 3.48 1.96 4.31 4.57 2.54 8.01 c -3.48 5.29 -6.72 10.15 -9.67 14.55" stroke-linecap="round" />
</g>
		<g transform="matrix(1 0 0 1 -68.8727055824 9.3979188279)"  >
<path style="stroke: none; stroke-width: 1; stroke-dasharray: none; stroke-linecap: butt; stroke-dashoffset: 0; stroke-linejoin: miter; stroke-miterlimit: 4; fill: rgb(153,226,101); fill-rule: nonzero; opacity: 1;"  transform=" translate(-182.9822944176, -161.4729188279)" d="M 191.07 173.61 c -0.19 2.29 -1.64 1.88 -2.89 1.27 c -3.06 -1.79 -5.92 -3.6 -8.52 -5.41 c -1.78 -1.42 -3.11 -3.28 -4.06 -5.69 c -1.35 -4.04 -2.07 -8.49 -2.13 -13.27 c 0.19 -2.81 1.43 -3.6 3.68 -2.34 c 3.66 2.55 7.69 5.11 12.01 7.63 c 2.55 1.8 3.62 4.01 3.27 6.77 c -0.97 4.13 -1.42 7.84 -1.36 11.05" stroke-linecap="round" />
</g>
		<g transform="matrix(1 0 0 1 -45.7311209701 21.206019355)"  >
<path style="stroke: none; stroke-width: 1; stroke-dasharray: none; stroke-linecap: butt; stroke-dashoffset: 0; stroke-linejoin: miter; stroke-miterlimit: 4; fill: rgb(153,226,101); fill-rule: nonzero; opacity: 1;"  transform=" translate(-206.1238790299, -173.2810193551)" d="M 212.37 183.82 c -1.62 1.67 -3.77 1.15 -5.25 0.61 c -3.63 -1.59 -7.17 -3.26 -10.54 -4.98 c -2.14 -1.27 -3.21 -2.75 -3.37 -4.68 c 0.12 -3.12 0.73 -6.74 1.84 -10.79 c 0.99 -2.4 2.94 -2.97 5.94 -1.75 c 4.76 2.43 9.74 4.78 14.86 7.02 c 2.99 1.6 3.86 3.5 2.68 5.81 c -2.38 3.45 -4.45 6.38 -6.17 8.75" stroke-linecap="round" />
</g>
		<g transform="matrix(1 0 0 1 -0.3400815533 -118.0140216643)"  >
<path style="stroke: none; stroke-width: 1; stroke-dasharray: none; stroke-linecap: butt; stroke-dashoffset: 0; stroke-linejoin: miter; stroke-miterlimit: 4; fill: rgb(153,226,101); fill-rule: nonzero; opacity: 1;"  transform=" translate(-251.5149184467, -34.0609783357)" d="M 247.46 41.33 c -4.09 2.01 -6.91 2.42 -8.86 1.32 c -2.56 -2.18 -4.74 -4.32 -6.47 -6.39 c -0.63 -1.47 1.17 -3.08 5.34 -4.8 c 6.99 -2.59 14.15 -4.62 21.34 -6.05 c 5.31 -0.91 7.36 -0.49 8.15 0.02 c 1.05 1.26 2.38 2.56 3.94 3.89 c 0.37 0.6 0.18 1.54 -4.63 3.46 c -6.28 2.32 -12.59 5.19 -18.81 8.55" stroke-linecap="round" />
</g>
		<g transform="matrix(1 0 0 1 -66.2160163241 -25.7191149001)"  >
<path style="stroke: none; stroke-width: 1; stroke-dasharray: none; stroke-linecap: butt; stroke-dashoffset: 0; stroke-linejoin: miter; stroke-miterlimit: 4; fill: rgb(153,226,101); fill-rule: nonzero; opacity: 1;"  transform=" translate(-185.6389836759, -126.3558850999)" d="M 192.41 141.94 c -1.45 2.79 -3.46 3.48 -6.34 2.15 c -4.48 -2.62 -8.67 -5.28 -12.47 -7.93 c -2.28 -1.96 -3.16 -4.54 -2.7 -7.9 c 1.2 -5.36 3.06 -10.97 5.6 -16.77 c 1.84 -3.4 4.11 -4.32 6.94 -2.84 c 4.33 3.01 9.08 6.03 14.18 9.01 c 2.92 2.17 3.61 4.97 2.1 8.59 c -2.94 5.55 -5.38 10.8 -7.32 15.68" stroke-linecap="round" />
</g>
		<g transform="matrix(1 0 0 1 -7.8484659878 -134.9928341815)"  >
<path style="stroke: none; stroke-width: 1; stroke-dasharray: none; stroke-linecap: butt; stroke-dashoffset: 0; stroke-linejoin: miter; stroke-miterlimit: 4; fill: rgb(153,226,101); fill-rule: nonzero; opacity: 1;"  transform=" translate(-244.0065340121, -17.0821658185)" d="M 234.97 21.83 c -4.24 1.39 -6.63 1.63 -7.52 0.76 c -0.78 -1.7 -1.07 -3.21 -0.9 -4.53 c 0.55 -0.98 2.91 -2.07 7 -3.25 c 6.75 -1.8 13.67 -3.02 20.64 -3.61 c 5.57 -0.38 6.59 0.14 6.77 0.38 c -0.1 0.8 0.07 1.72 0.55 2.76 c -0.08 0.45 -0.89 1.06 -6.26 2.1 c -6.84 1.23 -13.64 3.04 -20.28 5.39" stroke-linecap="round" />
</g>
		<g transform="matrix(1 0 0 1 -44.4755249099 -115.7576330579)"  >
<path style="stroke: none; stroke-width: 1; stroke-dasharray: none; stroke-linecap: butt; stroke-dashoffset: 0; stroke-linejoin: miter; stroke-miterlimit: 4; fill: rgb(153,226,101); fill-rule: nonzero; opacity: 1;"  transform=" translate(-207.37947509, -36.3173669421)" d="M 205.72 48.65 c -3.57 2.92 -6.46 3.66 -8.81 2.26 c -3.32 -2.83 -6.15 -5.61 -8.4 -8.29 c -1.02 -1.96 0.18 -4.36 3.67 -7.36 c 5.87 -4.58 12.16 -8.7 18.73 -12.31 c 4.05 -2.01 6.77 -2.43 8.31 -1.28 c 1.83 2.18 4.13 4.45 6.84 6.75 c 1.29 1.64 0.28 3.67 -3.17 6.38 c -5.95 4.22 -11.71 8.86 -17.16 13.85" stroke-linecap="round" />
</g>
		<g transform="matrix(1 0 0 1 -103.5216680683 -112.9674121125)"  >
<path style="stroke: none; stroke-width: 1; stroke-dasharray: none; stroke-linecap: butt; stroke-dashoffset: 0; stroke-linejoin: miter; stroke-miterlimit: 4; fill: rgb(153,226,101); fill-rule: nonzero; opacity: 1;"  transform=" translate(-148.3333319317, -39.1075878875)" d="M 145.25 48.76 c -1.43 2.53 -2.42 3.37 -3.1 2.63 c -0.88 -1.62 -1.27 -3.09 -1.19 -4.4 c 0.19 -1.1 0.93 -2.92 2.27 -5.58 c 0.28 -0.53 0.56 -1.06 0.85 -1.59 c 2.1 -3.78 4.57 -7.33 7.34 -10.63 c 1.17 -1.34 2.44 -2.7 3.02 -2.62 c 0.01 0.05 0.03 0.12 0.05 0.18 c -0.08 1.27 0.3 2.69 1.15 4.26 c 0.33 1.19 -0.4 2.95 -2.24 5.39 c -2.75 3.4 -5.2 7 -7.3 10.78 c -0.29 0.53 -0.58 1.05 -0.85 1.58" stroke-linecap="round" />
</g>
		<g transform="matrix(1 0 0 1 -65.2492153045 -78.2623926878)"  >
<path style="stroke: none; stroke-width: 1; stroke-dasharray: none; stroke-linecap: butt; stroke-dashoffset: 0; stroke-linejoin: miter; stroke-miterlimit: 4; fill: rgb(153,226,101); fill-rule: nonzero; opacity: 1;"  transform=" translate(-186.6057846956, -73.8126073122)" d="M 187.29 89.54 c -2.52 3.53 -4.8 4.49 -7.18 3.03 c -3.5 -2.98 -6.48 -5.9 -8.84 -8.73 c -1.24 -2.11 -0.81 -5.02 1.29 -8.87 c 0.46 -0.75 0.93 -1.49 1.41 -2.24 c 3.46 -5.34 7.41 -10.39 11.78 -15.14 c 3.14 -3.09 5.51 -3.92 7.23 -2.56 c 2.29 2.73 5.18 5.57 8.57 8.46 c 1.79 2.11 1.37 4.78 -1.34 8.4 c -4.18 4.93 -8.03 10.08 -11.49 15.42 c -0.48 0.74 -0.96 1.49 -1.42 2.23" stroke-linecap="round" />
</g>
		<g transform="matrix(1 0 0 1 -92.4189502571 -7.3370898755)"  >
<path style="stroke: none; stroke-width: 1; stroke-dasharray: none; stroke-linecap: butt; stroke-dashoffset: 0; stroke-linejoin: miter; stroke-miterlimit: 4; fill: rgb(153,226,101); fill-rule: nonzero; opacity: 1;"  transform=" translate(-159.4360497429, -144.7379101245)" d="M 166.4 157.89 c 0.51 1.55 0.59 2.09 0.38 2.54 c -0.28 0.09 -0.39 0.02 -0.86 -0.32 c -2.09 -1.78 -3.87 -3.53 -5.28 -5.21 c -0.83 -1.07 -2.16 -3.06 -3.82 -6.47 c -2.3 -4.94 -3.87 -10.21 -4.69 -15.71 c -0.25 -2.21 -0.24 -3.39 0.52 -3.71 c 0.26 0.09 0.54 0.31 0.73 0.48 c 1.99 2.37 4.5 4.84 7.44 7.34 c 1.79 1.83 2.75 4.21 3.04 7.49 c 0.18 4.88 1.03 9.43 2.53 13.58" stroke-linecap="round" />
</g>
		<g transform="matrix(1 0 0 1 -55.4393734167 -141.0622960486)"  >
<path style="stroke: none; stroke-width: 1; stroke-dasharray: none; stroke-linecap: butt; stroke-dashoffset: 0; stroke-linejoin: miter; stroke-miterlimit: 4; fill: rgb(153,226,101); fill-rule: nonzero; opacity: 1;"  transform=" translate(-196.4156265832, -11.0127039514)" d="M 189.48 19.65 c -3.2 2.29 -5.19 2.92 -6.08 1.94 c -0.93 -2.01 -1.27 -3.81 -1.07 -5.38 c 0.46 -1.21 2.22 -2.94 5.38 -5.26 c 5.14 -3.62 10.66 -6.77 16.43 -9.42 c 1.38 -0.6 4.26 -1.85 5.46 -1.47 l 0.08 0.21 c -0.16 1.28 0.12 2.74 0.87 4.38 c 0.12 1.17 -1.42 2.62 -4.85 4.58 c -5.7 3.04 -11.14 6.53 -16.23 10.42" stroke-linecap="round" />
</g>
		<g transform="matrix(1 0 0 1 -105.4380241935 -63.025)"  >
<path style="stroke: none; stroke-width: 1; stroke-dasharray: none; stroke-linecap: butt; stroke-dashoffset: 0; stroke-linejoin: miter; stroke-miterlimit: 4; fill: rgb(153,226,101); fill-rule: nonzero; opacity: 1;"  transform=" translate(-146.4169758065, -89.05)" d="M 144.97 103.78 c -0.29 2.33 -0.54 3.59 -1.13 4.03 c -0.17 -0.06 -0.33 -0.25 -0.42 -0.38 c -0.81 -1.75 -1.2 -3.35 -1.2 -4.78 c 0.17 -4.07 0.63 -9.51 1.15 -13.59 c 1.99 -9.23 2.07 -9.59 3.94 -14.81 l 0.43 -1.17 c 0.69 -1.81 0.95 -2.35 1.24 -2.79 c 0.03 0.07 0.06 0.17 0.09 0.24 c -0.25 1.91 0.17 4.09 1.3 6.54 c 0.55 1.88 0.17 4.7 -1.14 8.63 c -2.24 6.1 -3.64 12.17 -4.26 18.1" stroke-linecap="round" />
</g>
		<g transform="matrix(1 0 0 1 -89.8785091271 -47.1174132461)"  >
<path style="stroke: none; stroke-width: 1; stroke-dasharray: none; stroke-linecap: butt; stroke-dashoffset: 0; stroke-linejoin: miter; stroke-miterlimit: 4; fill: rgb(153,226,101); fill-rule: nonzero; opacity: 1;"  transform=" translate(-161.9764908728, -104.957586754)" d="M 165.54 120.82 c -0.86 3.12 -2.16 3.98 -4.08 2.71 c -3.06 -2.6 -5.66 -5.16 -7.73 -7.63 c -1.26 -1.9 -1.75 -4.59 -1.49 -8.24 c 0.65 -5.87 2.09 -11.89 4.35 -17.97 c 1.54 -3.57 3.07 -4.66 4.67 -3.31 c 2.35 2.8 5.31 5.71 8.79 8.67 c 1.95 2.16 2.25 5.05 0.91 8.84 c -2.5 5.83 -4.3 11.5 -5.41 16.92" stroke-linecap="round" />
</g>
		<g transform="matrix(1 0 0 1 -81.0556416742 -105.6578992092)"  >
<path style="stroke: none; stroke-width: 1; stroke-dasharray: none; stroke-linecap: butt; stroke-dashoffset: 0; stroke-linejoin: miter; stroke-miterlimit: 4; fill: rgb(153,226,101); fill-rule: nonzero; opacity: 1;"  transform=" translate(-170.7993583258, -46.4171007908)" d="M 171.29 57.68 c -1.81 2.53 -3.44 3.22 -5.14 2.17 c -2.51 -2.13 -4.64 -4.23 -6.34 -6.25 c -0.89 -1.52 -0.58 -3.59 0.93 -6.36 c 0.33 -0.53 0.66 -1.07 1.01 -1.6 c 2.48 -3.82 5.31 -7.45 8.44 -10.84 c 2.25 -2.21 3.95 -2.81 5.18 -1.84 c 1.64 1.96 3.71 3.99 6.14 6.06 c 1.28 1.52 0.98 3.43 -0.96 6.02 c -2.99 3.53 -5.75 7.22 -8.23 11.04 c -0.35 0.53 -0.68 1.07 -1.01 1.6" stroke-linecap="round" />
</g>
		<g transform="matrix(1 0 0 1 -225.545 113.51)"  >
<path style="stroke: none; stroke-width: 1; stroke-dasharray: none; stroke-linecap: butt; stroke-dashoffset: 0; stroke-linejoin: miter; stroke-miterlimit: 4; fill: rgb(255,255,255); fill-rule: nonzero; opacity: 1;"  transform=" translate(-26.31, -265.585)" d="M 0 239.27 H 12.48 l 13.83 22.26 l 13.83 -22.26 h 12.48 v 52.63 h -11.5 v -34.36 l -14.81 22.48 h -0.3 l -14.66 -22.26 v 34.14 H 0 v -52.63 Z" stroke-linecap="round" />
</g>
		<g transform="matrix(1 0 0 1 -169.99 119.74)"  >
<path style="stroke: none; stroke-width: 1; stroke-dasharray: none; stroke-linecap: butt; stroke-dashoffset: 0; stroke-linejoin: miter; stroke-miterlimit: 4; fill: rgb(255,255,255); fill-rule: nonzero; opacity: 1;"  transform=" translate(-81.865, -271.815)" d="M 62.1 271.97 v -0.15 c 0 -11.5 8.2 -20.98 19.92 -20.98 c 13.46 0 19.62 10.45 19.62 21.88 c 0 0.9 -0.08 1.96 -0.15 3.01 h -28.04 c 1.13 5.19 4.74 7.89 9.85 7.89 c 3.83 0 6.62 -1.2 9.77 -4.14 l 6.54 5.79 c -3.76 4.66 -9.17 7.52 -16.47 7.52 c -12.11 0 -21.05 -8.5 -21.05 -20.83 Z m 28.42 -3.38 c -0.68 -5.11 -3.68 -8.57 -8.5 -8.57 s -7.82 3.38 -8.72 8.57 h 17.22 Z" stroke-linecap="round" />
</g>
		<g transform="matrix(1 0 0 1 -122.355 112.755)"  >
<path style="stroke: none; stroke-width: 1; stroke-dasharray: none; stroke-linecap: butt; stroke-dashoffset: 0; stroke-linejoin: miter; stroke-miterlimit: 4; fill: rgb(255,255,255); fill-rule: nonzero; opacity: 1;"  transform=" translate(-129.5, -264.83)" d="M 108.33 271.82 v -0.15 c 0 -13.46 8.8 -20.83 18.35 -20.83 c 6.09 0 9.85 2.78 12.56 6.02 v -19.85 h 11.43 v 54.89 h -11.43 v -5.79 c -2.78 3.76 -6.62 6.54 -12.56 6.54 c -9.4 0 -18.35 -7.37 -18.35 -20.83 Z m 31.05 0 v -0.15 c 0 -6.69 -4.44 -11.13 -9.77 -11.13 s -9.85 4.36 -9.85 11.13 v 0.15 c 0 6.69 4.51 11.13 9.85 11.13 s 9.77 -4.44 9.77 -11.13 Z" stroke-linecap="round" />
</g>
		<g transform="matrix(1 0 0 1 -84.73 112.38)"  >
<path style="stroke: none; stroke-width: 1; stroke-dasharray: none; stroke-linecap: butt; stroke-dashoffset: 0; stroke-linejoin: miter; stroke-miterlimit: 4; fill: rgb(255,255,255); fill-rule: nonzero; opacity: 1;"  transform=" translate(-167.125, -264.455)" d="M 161.11 237.01 h 12.03 v 10.15 h -12.03 v -10.15 Z m 0.3 14.59 h 11.43 v 40.3 h -11.43 v -40.3 Z" stroke-linecap="round" />
</g>
		<g transform="matrix(1 0 0 1 -52.145 119.815)"  >
<path style="stroke: none; stroke-width: 1; stroke-dasharray: none; stroke-linecap: butt; stroke-dashoffset: 0; stroke-linejoin: miter; stroke-miterlimit: 4; fill: rgb(255,255,255); fill-rule: nonzero; opacity: 1;"  transform=" translate(-199.71, -271.89)" d="M 181.18 280.32 v -0.15 c 0 -8.79 6.69 -12.86 16.24 -12.86 c 4.06 0 6.99 0.68 9.85 1.65 v -0.68 c 0 -4.74 -2.93 -7.37 -8.65 -7.37 c -4.36 0 -7.44 0.83 -11.13 2.18 l -2.86 -8.72 c 4.44 -1.96 8.8 -3.23 15.64 -3.23 c 6.24 0 10.75 1.65 13.61 4.51 c 3.01 3.01 4.36 7.44 4.36 12.86 v 23.38 h -11.05 v -4.36 c -2.78 3.08 -6.62 5.11 -12.18 5.11 c -7.59 0 -13.83 -4.36 -13.83 -12.33 Z m 26.24 -2.63 v -2.03 c -1.96 -0.9 -4.51 -1.5 -7.29 -1.5 c -4.89 0 -7.89 1.96 -7.89 5.56 v 0.15 c 0 3.08 2.56 4.89 6.24 4.89 c 5.34 0 8.95 -2.93 8.95 -7.07 Z" stroke-linecap="round" />
</g>
		<g transform="matrix(1 0 0 1 0.825 113.32)"  >
<path style="stroke: none; stroke-width: 1; stroke-dasharray: none; stroke-linecap: butt; stroke-dashoffset: 0; stroke-linejoin: miter; stroke-miterlimit: 4; fill: rgb(255,255,255); fill-rule: nonzero; opacity: 1;"  transform=" translate(-252.68, -265.395)" d="M 250.8 238.89 h 3.76 l 24.51 53.01 h -4.29 l -6.69 -14.74 h -31.05 l -6.69 14.74 h -4.06 l 24.51 -53.01 Z m 15.64 34.74 l -13.83 -30.45 l -13.91 30.45 h 27.74 Z" stroke-linecap="round" />
</g>
		<g transform="matrix(1 0 0 1 52.205 126.285)"  >
<path style="stroke: none; stroke-width: 1; stroke-dasharray: none; stroke-linecap: butt; stroke-dashoffset: 0; stroke-linejoin: miter; stroke-miterlimit: 4; fill: rgb(255,255,255); fill-rule: nonzero; opacity: 1;"  transform=" translate(-304.06, -278.36)" d="M 286.73 298.21 l 2.18 -3.01 c 4.59 3.53 9.85 5.41 15.49 5.41 c 8.8 0 15.04 -5.04 15.04 -14.89 v -5.56 c -3.31 4.74 -8.42 8.87 -16.02 8.87 c -9.25 0 -18.42 -7.07 -18.42 -18.04 v -0.15 c 0 -11.05 9.17 -18.19 18.42 -18.19 c 7.67 0 12.86 4.06 16.02 8.57 v -7.67 h 3.68 v 32.4 c 0 5.56 -1.8 9.93 -4.89 13.01 c -3.31 3.31 -8.27 5.11 -13.91 5.11 c -6.39 0 -12.33 -1.95 -17.59 -5.87 Z m 32.93 -27.29 v -0.15 c 0 -8.87 -7.89 -14.59 -15.86 -14.59 s -14.81 5.56 -14.81 14.51 v 0.15 c 0 8.65 6.92 14.66 14.81 14.66 s 15.86 -5.87 15.86 -14.59 Z" stroke-linecap="round" />
</g>
		<g transform="matrix(1 0 0 1 100.51 120.645)"  >
<path style="stroke: none; stroke-width: 1; stroke-dasharray: none; stroke-linecap: butt; stroke-dashoffset: 0; stroke-linejoin: miter; stroke-miterlimit: 4; fill: rgb(255,255,255); fill-rule: nonzero; opacity: 1;"  transform=" translate(-352.365, -272.72)" d="M 334.47 272.8 v -0.15 c 0 -11.13 7.82 -20 18.2 -20 s 17.59 8.72 17.59 20.07 c 0 0.68 0 0.9 -0.08 1.5 h -31.8 c 0.68 9.55 7.52 15.11 15.04 15.11 c 5.94 0 10 -2.63 13.16 -6.02 l 2.56 2.26 c -3.91 4.21 -8.5 7.22 -15.86 7.22 c -10.08 0 -18.8 -8.05 -18.8 -20 Z m 31.8 -1.88 c -0.53 -7.74 -4.96 -14.89 -13.76 -14.89 c -7.59 0 -13.46 6.39 -14.14 14.89 h 27.89 Z" stroke-linecap="round" />
</g>
		<g transform="matrix(1 0 0 1 145.58 120.2)"  >
<path style="stroke: none; stroke-width: 1; stroke-dasharray: none; stroke-linecap: butt; stroke-dashoffset: 0; stroke-linejoin: miter; stroke-miterlimit: 4; fill: rgb(255,255,255); fill-rule: nonzero; opacity: 1;"  transform=" translate(-397.435, -272.275)" d="M 381.01 253.55 h 3.68 v 7.14 c 2.55 -4.51 6.84 -8.04 13.83 -8.04 c 9.7 0 15.34 6.62 15.34 15.79 v 23.46 h -3.68 v -22.78 c 0 -7.89 -4.43 -13.08 -12.18 -13.08 s -13.31 5.71 -13.31 13.68 v 22.18 h -3.68 v -38.35 Z" stroke-linecap="round" />
</g>
		<g transform="matrix(1 0 0 1 190.205 120.67)"  >
<path style="stroke: none; stroke-width: 1; stroke-dasharray: none; stroke-linecap: butt; stroke-dashoffset: 0; stroke-linejoin: miter; stroke-miterlimit: 4; fill: rgb(255,255,255); fill-rule: nonzero; opacity: 1;"  transform=" translate(-442.06, -272.745)" d="M 424.46 272.88 v -0.15 c 0 -10.75 8.57 -20.07 19.55 -20.07 c 7.22 0 11.73 3.31 15.34 7.07 l -2.63 2.71 c -3.31 -3.38 -7.07 -6.31 -12.78 -6.31 c -8.72 0 -15.49 7.29 -15.49 16.46 v 0.15 c 0 9.25 6.99 16.62 15.79 16.62 c 5.41 0 9.62 -2.78 12.86 -6.39 l 2.56 2.26 c -3.91 4.44 -8.57 7.6 -15.64 7.6 c -11.05 0 -19.55 -9.17 -19.55 -19.93 Z" stroke-linecap="round" />
</g>
		<g transform="matrix(1 0 0 1 232.785 126.785)"  >
<path style="stroke: none; stroke-width: 1; stroke-dasharray: none; stroke-linecap: butt; stroke-dashoffset: 0; stroke-linejoin: miter; stroke-miterlimit: 4; fill: rgb(255,255,255); fill-rule: nonzero; opacity: 1;"  transform=" translate(-484.64, -278.86)" d="M 466.71 302.5 l 1.28 -3.23 c 2.03 0.98 3.68 1.43 6.54 1.43 c 3.99 0 6.62 -2.33 9.47 -9.02 l -18.42 -38.12 h 4.29 l 15.94 34.29 l 13.83 -34.29 h 4.06 l -16.62 39.7 c -3.38 8.04 -7.29 10.9 -12.78 10.9 c -2.93 0 -5.04 -0.53 -7.59 -1.65 Z" stroke-linecap="round" />
</g>
</g>
</g>
</svg>