<?xml version="1.0" encoding="UTF-8" standalone="no" ?>
<!DOCTYPE svg PUBLIC "-//W3C//DTD SVG 1.1//EN" "http://www.w3.org/Graphics/SVG/1.1/DTD/svg11.dtd">
<svg xmlns="http://www.w3.org/2000/svg" xmlns:xlink="http://www.w3.org/1999/xlink" version="1.1" width="1051.1811023746875" height="602.3622047315625" viewBox="0 0 521 298.5505617978" xml:space="preserve">
<desc>Created with Fabric.js 3.4.0 and NBDesigner 2.7</desc>
<defs>
</defs>
<g transform="matrix(0.2714955706 0 0 0.2714955706 260.5 152.9877540386)"  >
	<image style="stroke: none; stroke-width: 0; stroke-dasharray: none; stroke-linecap: butt; stroke-dashoffset: 0; stroke-linejoin: miter; stroke-miterlimit: 4; fill: rgb(255,255,255); fill-rule: nonzero; opacity: 1;"  xlink:href="https://transparentcard.de/wp-content/themes/astra-child/assets/img/transparent_glass_89x51-mm.png" x="-959.5" y="-563.5" width="1919" height="1127"></image>
</g>
<g transform="matrix(0.7420607336 0 0 0.7420607336 125.8154764429 190.4923659157)" style=""  >
		<text xml:space="preserve" font-family="Roboto" font-size="17.916897942944217" font-style="normal" font-weight="normal" style="stroke: none; stroke-width: 0; stroke-dasharray: none; stroke-linecap: butt; stroke-dashoffset: 0; stroke-linejoin: miter; stroke-miterlimit: 4; fill: rgb(35,35,35); fill-rule: nonzero; opacity: 1; white-space: pre;" ><tspan x="-100.1439115004" y="-6.0130901186" >+212 2555 365</tspan><tspan x="-100.1439115004" y="17.2699187582" >Your Street Address Here</tspan></text>
</g>
<g transform="matrix(0.7420607336 0 0 0.7420607336 110.4588694002 246.8889816736)" style=""  >
		<text xml:space="preserve" font-family="Roboto" font-size="17.916897942944217" font-style="normal" font-weight="normal" style="stroke: none; stroke-width: 0; stroke-dasharray: none; stroke-linecap: butt; stroke-dashoffset: 0; stroke-linejoin: miter; stroke-miterlimit: 4; fill: rgb(35,35,35); fill-rule: nonzero; opacity: 1; white-space: pre;" ><tspan x="-79.4493694672" y="-6.0130901186" >yourmail@mail.com</tspan><tspan x="-79.4493694672" y="17.2699187582" >www.yoursite.com</tspan></text>
</g>
<g transform="matrix(0.61860934 0 0 0.61860934 116.8770183873 59.8408016003)"  >
<g style=""   >
		<g transform="matrix(2.5480769231 0 0 2.5480769231 -103.1843750009 0)"  >
<rect style="stroke: none; stroke-width: 1; stroke-dasharray: none; stroke-linecap: butt; stroke-dashoffset: 0; stroke-linejoin: miter; stroke-miterlimit: 4; fill: rgb(16,28,67); fill-rule: nonzero; opacity: 1;"  x="-0.81" y="-5.76" rx="0" ry="0" width="1.62" height="11.52" />
</g>
		<g transform="matrix(2.5480769231 0 0 2.5480769231 -92.8646634623 0)"  >
<rect style="stroke: none; stroke-width: 1; stroke-dasharray: none; stroke-linecap: butt; stroke-dashoffset: 0; stroke-linejoin: miter; stroke-miterlimit: 4; fill: rgb(16,28,67); fill-rule: nonzero; opacity: 1;"  x="-0.81" y="-5.76" rx="0" ry="0" width="1.62" height="11.52" />
</g>
		<g transform="matrix(2.5480769231 0 0 2.5480769231 -82.5449519238 0)"  >
<rect style="stroke: none; stroke-width: 1; stroke-dasharray: none; stroke-linecap: butt; stroke-dashoffset: 0; stroke-linejoin: miter; stroke-miterlimit: 4; fill: rgb(16,28,67); fill-rule: nonzero; opacity: 1;"  x="-0.81" y="-5.76" rx="0" ry="0" width="1.62" height="11.52" />
</g>
		<g transform="matrix(2.5480769231 0 0 2.5480769231 -72.2252403852 0)"  >
<rect style="stroke: none; stroke-width: 1; stroke-dasharray: none; stroke-linecap: butt; stroke-dashoffset: 0; stroke-linejoin: miter; stroke-miterlimit: 4; fill: rgb(16,28,67); fill-rule: nonzero; opacity: 1;"  x="-0.81" y="-5.76" rx="0" ry="0" width="1.62" height="11.52" />
</g>
		<g transform="matrix(2.5480769231 0 0 2.5480769231 -61.9055288467 0)"  >
<rect style="stroke: none; stroke-width: 1; stroke-dasharray: none; stroke-linecap: butt; stroke-dashoffset: 0; stroke-linejoin: miter; stroke-miterlimit: 4; fill: rgb(16,28,67); fill-rule: nonzero; opacity: 1;"  x="-0.81" y="-5.76" rx="0" ry="0" width="1.62" height="11.52" />
</g>
		<g transform="matrix(2.5480769231 0 0 2.5480769231 -51.5858173081 0)"  >
<rect style="stroke: none; stroke-width: 1; stroke-dasharray: none; stroke-linecap: butt; stroke-dashoffset: 0; stroke-linejoin: miter; stroke-miterlimit: 4; fill: rgb(16,28,67); fill-rule: nonzero; opacity: 1;"  x="-0.81" y="-5.76" rx="0" ry="0" width="1.62" height="11.52" />
</g>
		<g transform="matrix(2.5480769231 0 0 2.5480769231 -41.2661057696 0)"  >
<rect style="stroke: none; stroke-width: 1; stroke-dasharray: none; stroke-linecap: butt; stroke-dashoffset: 0; stroke-linejoin: miter; stroke-miterlimit: 4; fill: rgb(16,28,67); fill-rule: nonzero; opacity: 1;"  x="-0.81" y="-5.76" rx="0" ry="0" width="1.62" height="11.52" />
</g>
		<g transform="matrix(2.5480769231 0 0 2.5480769231 -30.946394231 0)"  >
<rect style="stroke: none; stroke-width: 1; stroke-dasharray: none; stroke-linecap: butt; stroke-dashoffset: 0; stroke-linejoin: miter; stroke-miterlimit: 4; fill: rgb(16,28,67); fill-rule: nonzero; opacity: 1;"  x="-0.81" y="-5.76" rx="0" ry="0" width="1.62" height="11.52" />
</g>
		<g transform="matrix(2.5480769231 0 0 2.5480769231 -20.6521634617 0)"  >
<rect style="stroke: none; stroke-width: 1; stroke-dasharray: none; stroke-linecap: butt; stroke-dashoffset: 0; stroke-linejoin: miter; stroke-miterlimit: 4; fill: rgb(16,28,67); fill-rule: nonzero; opacity: 1;"  x="-0.81" y="-5.76" rx="0" ry="0" width="1.62" height="11.52" />
</g>
		<g transform="matrix(2.5480769231 0 0 2.5480769231 -10.3324519231 0)"  >
<rect style="stroke: none; stroke-width: 1; stroke-dasharray: none; stroke-linecap: butt; stroke-dashoffset: 0; stroke-linejoin: miter; stroke-miterlimit: 4; fill: rgb(16,28,67); fill-rule: nonzero; opacity: 1;"  x="-0.81" y="-5.76" rx="0" ry="0" width="1.62" height="11.52" />
</g>
		<g transform="matrix(2.5480769231 0 0 2.5480769231 -0.0127403846 0)"  >
<rect style="stroke: none; stroke-width: 1; stroke-dasharray: none; stroke-linecap: butt; stroke-dashoffset: 0; stroke-linejoin: miter; stroke-miterlimit: 4; fill: rgb(16,28,67); fill-rule: nonzero; opacity: 1;"  x="-0.81" y="-5.76" rx="0" ry="0" width="1.62" height="11.52" />
</g>
		<g transform="matrix(2.5480769231 0 0 2.5480769231 10.306971154 0)"  >
<rect style="stroke: none; stroke-width: 1; stroke-dasharray: none; stroke-linecap: butt; stroke-dashoffset: 0; stroke-linejoin: miter; stroke-miterlimit: 4; fill: rgb(16,28,67); fill-rule: nonzero; opacity: 1;"  x="-0.81" y="-5.76" rx="0" ry="0" width="1.62" height="11.52" />
</g>
		<g transform="matrix(2.5480769231 0 0 2.5480769231 20.6266826925 0)"  >
<rect style="stroke: none; stroke-width: 1; stroke-dasharray: none; stroke-linecap: butt; stroke-dashoffset: 0; stroke-linejoin: miter; stroke-miterlimit: 4; fill: rgb(16,28,67); fill-rule: nonzero; opacity: 1;"  x="-0.81" y="-5.76" rx="0" ry="0" width="1.62" height="11.52" />
</g>
		<g transform="matrix(2.5480769231 0 0 2.5480769231 30.9463942311 0)"  >
<rect style="stroke: none; stroke-width: 1; stroke-dasharray: none; stroke-linecap: butt; stroke-dashoffset: 0; stroke-linejoin: miter; stroke-miterlimit: 4; fill: rgb(16,28,67); fill-rule: nonzero; opacity: 1;"  x="-0.81" y="-5.76" rx="0" ry="0" width="1.62" height="11.52" />
</g>
		<g transform="matrix(2.5480769231 0 0 2.5480769231 41.2661057696 0)"  >
<rect style="stroke: none; stroke-width: 1; stroke-dasharray: none; stroke-linecap: butt; stroke-dashoffset: 0; stroke-linejoin: miter; stroke-miterlimit: 4; fill: rgb(16,28,67); fill-rule: nonzero; opacity: 1;"  x="-0.81" y="-5.76" rx="0" ry="0" width="1.62" height="11.52" />
</g>
		<g transform="matrix(2.5480769231 0 0 2.5480769231 51.5858173082 0)"  >
<rect style="stroke: none; stroke-width: 1; stroke-dasharray: none; stroke-linecap: butt; stroke-dashoffset: 0; stroke-linejoin: miter; stroke-miterlimit: 4; fill: rgb(16,28,67); fill-rule: nonzero; opacity: 1;"  x="-0.81" y="-5.76" rx="0" ry="0" width="1.62" height="11.52" />
</g>
		<g transform="matrix(2.5480769231 0 0 2.5480769231 61.9055288468 0)"  >
<rect style="stroke: none; stroke-width: 1; stroke-dasharray: none; stroke-linecap: butt; stroke-dashoffset: 0; stroke-linejoin: miter; stroke-miterlimit: 4; fill: rgb(16,28,67); fill-rule: nonzero; opacity: 1;"  x="-0.81" y="-5.76" rx="0" ry="0" width="1.62" height="11.52" />
</g>
		<g transform="matrix(2.5480769231 0 0 2.5480769231 72.2252403853 0)"  >
<rect style="stroke: none; stroke-width: 1; stroke-dasharray: none; stroke-linecap: butt; stroke-dashoffset: 0; stroke-linejoin: miter; stroke-miterlimit: 4; fill: rgb(16,28,67); fill-rule: nonzero; opacity: 1;"  x="-0.81" y="-5.76" rx="0" ry="0" width="1.62" height="11.52" />
</g>
		<g transform="matrix(2.5480769231 0 0 2.5480769231 82.5449519239 0)"  >
<rect style="stroke: none; stroke-width: 1; stroke-dasharray: none; stroke-linecap: butt; stroke-dashoffset: 0; stroke-linejoin: miter; stroke-miterlimit: 4; fill: rgb(16,28,67); fill-rule: nonzero; opacity: 1;"  x="-0.81" y="-5.76" rx="0" ry="0" width="1.62" height="11.52" />
</g>
		<g transform="matrix(2.5480769231 0 0 2.5480769231 92.8646634624 0)"  >
<rect style="stroke: none; stroke-width: 1; stroke-dasharray: none; stroke-linecap: butt; stroke-dashoffset: 0; stroke-linejoin: miter; stroke-miterlimit: 4; fill: rgb(16,28,67); fill-rule: nonzero; opacity: 1;"  x="-0.81" y="-5.76" rx="0" ry="0" width="1.62" height="11.52" />
</g>
		<g transform="matrix(2.5480769231 0 0 2.5480769231 103.184375001 0)"  >
<rect style="stroke: none; stroke-width: 1; stroke-dasharray: none; stroke-linecap: butt; stroke-dashoffset: 0; stroke-linejoin: miter; stroke-miterlimit: 4; fill: rgb(16,28,67); fill-rule: nonzero; opacity: 1;"  x="-0.81" y="-5.76" rx="0" ry="0" width="1.62" height="11.52" />
</g>
</g>
</g>
<g transform="matrix(0.61860934 0 0 0.61860934 427.9801546991 253.059265227)"  >
<g style=""   >
		<g transform="matrix(2.5480769231 0 0 2.5480769231 -103.1843750009 0)"  >
<rect style="stroke: none; stroke-width: 1; stroke-dasharray: none; stroke-linecap: butt; stroke-dashoffset: 0; stroke-linejoin: miter; stroke-miterlimit: 4; fill: rgb(16,28,67); fill-rule: nonzero; opacity: 1;"  x="-0.81" y="-5.76" rx="0" ry="0" width="1.62" height="11.52" />
</g>
		<g transform="matrix(2.5480769231 0 0 2.5480769231 -92.8646634623 0)"  >
<rect style="stroke: none; stroke-width: 1; stroke-dasharray: none; stroke-linecap: butt; stroke-dashoffset: 0; stroke-linejoin: miter; stroke-miterlimit: 4; fill: rgb(16,28,67); fill-rule: nonzero; opacity: 1;"  x="-0.81" y="-5.76" rx="0" ry="0" width="1.62" height="11.52" />
</g>
		<g transform="matrix(2.5480769231 0 0 2.5480769231 -82.5449519238 0)"  >
<rect style="stroke: none; stroke-width: 1; stroke-dasharray: none; stroke-linecap: butt; stroke-dashoffset: 0; stroke-linejoin: miter; stroke-miterlimit: 4; fill: rgb(16,28,67); fill-rule: nonzero; opacity: 1;"  x="-0.81" y="-5.76" rx="0" ry="0" width="1.62" height="11.52" />
</g>
		<g transform="matrix(2.5480769231 0 0 2.5480769231 -72.2252403852 0)"  >
<rect style="stroke: none; stroke-width: 1; stroke-dasharray: none; stroke-linecap: butt; stroke-dashoffset: 0; stroke-linejoin: miter; stroke-miterlimit: 4; fill: rgb(16,28,67); fill-rule: nonzero; opacity: 1;"  x="-0.81" y="-5.76" rx="0" ry="0" width="1.62" height="11.52" />
</g>
		<g transform="matrix(2.5480769231 0 0 2.5480769231 -61.9055288467 0)"  >
<rect style="stroke: none; stroke-width: 1; stroke-dasharray: none; stroke-linecap: butt; stroke-dashoffset: 0; stroke-linejoin: miter; stroke-miterlimit: 4; fill: rgb(16,28,67); fill-rule: nonzero; opacity: 1;"  x="-0.81" y="-5.76" rx="0" ry="0" width="1.62" height="11.52" />
</g>
		<g transform="matrix(2.5480769231 0 0 2.5480769231 -51.5858173081 0)"  >
<rect style="stroke: none; stroke-width: 1; stroke-dasharray: none; stroke-linecap: butt; stroke-dashoffset: 0; stroke-linejoin: miter; stroke-miterlimit: 4; fill: rgb(16,28,67); fill-rule: nonzero; opacity: 1;"  x="-0.81" y="-5.76" rx="0" ry="0" width="1.62" height="11.52" />
</g>
		<g transform="matrix(2.5480769231 0 0 2.5480769231 -41.2661057696 0)"  >
<rect style="stroke: none; stroke-width: 1; stroke-dasharray: none; stroke-linecap: butt; stroke-dashoffset: 0; stroke-linejoin: miter; stroke-miterlimit: 4; fill: rgb(16,28,67); fill-rule: nonzero; opacity: 1;"  x="-0.81" y="-5.76" rx="0" ry="0" width="1.62" height="11.52" />
</g>
		<g transform="matrix(2.5480769231 0 0 2.5480769231 -30.946394231 0)"  >
<rect style="stroke: none; stroke-width: 1; stroke-dasharray: none; stroke-linecap: butt; stroke-dashoffset: 0; stroke-linejoin: miter; stroke-miterlimit: 4; fill: rgb(16,28,67); fill-rule: nonzero; opacity: 1;"  x="-0.81" y="-5.76" rx="0" ry="0" width="1.62" height="11.52" />
</g>
		<g transform="matrix(2.5480769231 0 0 2.5480769231 -20.6266826925 0)"  >
<rect style="stroke: none; stroke-width: 1; stroke-dasharray: none; stroke-linecap: butt; stroke-dashoffset: 0; stroke-linejoin: miter; stroke-miterlimit: 4; fill: rgb(16,28,67); fill-rule: nonzero; opacity: 1;"  x="-0.81" y="-5.76" rx="0" ry="0" width="1.62" height="11.52" />
</g>
		<g transform="matrix(2.5480769231 0 0 2.5480769231 -10.3069711539 0)"  >
<rect style="stroke: none; stroke-width: 1; stroke-dasharray: none; stroke-linecap: butt; stroke-dashoffset: 0; stroke-linejoin: miter; stroke-miterlimit: 4; fill: rgb(16,28,67); fill-rule: nonzero; opacity: 1;"  x="-0.81" y="-5.76" rx="0" ry="0" width="1.62" height="11.52" />
</g>
		<g transform="matrix(2.5480769231 0 0 2.5480769231 0.0127403847 0)"  >
<rect style="stroke: none; stroke-width: 1; stroke-dasharray: none; stroke-linecap: butt; stroke-dashoffset: 0; stroke-linejoin: miter; stroke-miterlimit: 4; fill: rgb(16,28,67); fill-rule: nonzero; opacity: 1;"  x="-0.81" y="-5.76" rx="0" ry="0" width="1.62" height="11.52" />
</g>
		<g transform="matrix(2.5480769231 0 0 2.5480769231 10.3324519232 0)"  >
<rect style="stroke: none; stroke-width: 1; stroke-dasharray: none; stroke-linecap: butt; stroke-dashoffset: 0; stroke-linejoin: miter; stroke-miterlimit: 4; fill: rgb(16,28,67); fill-rule: nonzero; opacity: 1;"  x="-0.81" y="-5.76" rx="0" ry="0" width="1.62" height="11.52" />
</g>
		<g transform="matrix(2.5480769231 0 0 2.5480769231 20.6521634618 0)"  >
<rect style="stroke: none; stroke-width: 1; stroke-dasharray: none; stroke-linecap: butt; stroke-dashoffset: 0; stroke-linejoin: miter; stroke-miterlimit: 4; fill: rgb(16,28,67); fill-rule: nonzero; opacity: 1;"  x="-0.81" y="-5.76" rx="0" ry="0" width="1.62" height="11.52" />
</g>
		<g transform="matrix(2.5480769231 0 0 2.5480769231 30.9718750003 0)"  >
<rect style="stroke: none; stroke-width: 1; stroke-dasharray: none; stroke-linecap: butt; stroke-dashoffset: 0; stroke-linejoin: miter; stroke-miterlimit: 4; fill: rgb(16,28,67); fill-rule: nonzero; opacity: 1;"  x="-0.81" y="-5.76" rx="0" ry="0" width="1.62" height="11.52" />
</g>
		<g transform="matrix(2.5480769231 0 0 2.5480769231 41.2661057696 0)"  >
<rect style="stroke: none; stroke-width: 1; stroke-dasharray: none; stroke-linecap: butt; stroke-dashoffset: 0; stroke-linejoin: miter; stroke-miterlimit: 4; fill: rgb(16,28,67); fill-rule: nonzero; opacity: 1;"  x="-0.81" y="-5.76" rx="0" ry="0" width="1.62" height="11.52" />
</g>
		<g transform="matrix(2.5480769231 0 0 2.5480769231 51.5858173082 0)"  >
<rect style="stroke: none; stroke-width: 1; stroke-dasharray: none; stroke-linecap: butt; stroke-dashoffset: 0; stroke-linejoin: miter; stroke-miterlimit: 4; fill: rgb(16,28,67); fill-rule: nonzero; opacity: 1;"  x="-0.81" y="-5.76" rx="0" ry="0" width="1.62" height="11.52" />
</g>
		<g transform="matrix(2.5480769231 0 0 2.5480769231 61.9055288468 0)"  >
<rect style="stroke: none; stroke-width: 1; stroke-dasharray: none; stroke-linecap: butt; stroke-dashoffset: 0; stroke-linejoin: miter; stroke-miterlimit: 4; fill: rgb(16,28,67); fill-rule: nonzero; opacity: 1;"  x="-0.81" y="-5.76" rx="0" ry="0" width="1.62" height="11.52" />
</g>
		<g transform="matrix(2.5480769231 0 0 2.5480769231 72.2252403853 0)"  >
<rect style="stroke: none; stroke-width: 1; stroke-dasharray: none; stroke-linecap: butt; stroke-dashoffset: 0; stroke-linejoin: miter; stroke-miterlimit: 4; fill: rgb(16,28,67); fill-rule: nonzero; opacity: 1;"  x="-0.81" y="-5.76" rx="0" ry="0" width="1.62" height="11.52" />
</g>
		<g transform="matrix(2.5480769231 0 0 2.5480769231 82.5449519239 0)"  >
<rect style="stroke: none; stroke-width: 1; stroke-dasharray: none; stroke-linecap: butt; stroke-dashoffset: 0; stroke-linejoin: miter; stroke-miterlimit: 4; fill: rgb(16,28,67); fill-rule: nonzero; opacity: 1;"  x="-0.81" y="-5.76" rx="0" ry="0" width="1.62" height="11.52" />
</g>
		<g transform="matrix(2.5480769231 0 0 2.5480769231 92.8646634624 0)"  >
<rect style="stroke: none; stroke-width: 1; stroke-dasharray: none; stroke-linecap: butt; stroke-dashoffset: 0; stroke-linejoin: miter; stroke-miterlimit: 4; fill: rgb(16,28,67); fill-rule: nonzero; opacity: 1;"  x="-0.81" y="-5.76" rx="0" ry="0" width="1.62" height="11.52" />
</g>
		<g transform="matrix(2.5480769231 0 0 2.5480769231 103.184375001 0)"  >
<rect style="stroke: none; stroke-width: 1; stroke-dasharray: none; stroke-linecap: butt; stroke-dashoffset: 0; stroke-linejoin: miter; stroke-miterlimit: 4; fill: rgb(16,28,67); fill-rule: nonzero; opacity: 1;"  x="-0.81" y="-5.76" rx="0" ry="0" width="1.62" height="11.52" />
</g>
</g>
</g>
<g transform="matrix(0.6561527006 0 0 0.6561527006 90.3796372965 136.9600423897)" style=""  >
		<text xml:space="preserve" font-family="Roboto" font-size="26.011560693641616" font-style="normal" font-weight="normal" style="stroke: none; stroke-width: 0; stroke-dasharray: none; stroke-linecap: butt; stroke-dashoffset: 0; stroke-linejoin: miter; stroke-miterlimit: 4; fill: rgb(16,28,67); fill-rule: nonzero; opacity: 1; white-space: pre;" ><tspan x="-59.2499661308" y="8.1712716763" >POSITION</tspan></text>
</g>
<g transform="matrix(0.8860544218 0 0 0.8860544218 136.1755532846 113.6842064118)" style=""  >
		<text xml:space="preserve" font-family="Roboto" font-size="24.32722933573743" font-style="normal" font-weight="bold" style="stroke: none; stroke-width: 0; stroke-dasharray: none; stroke-linecap: butt; stroke-dashoffset: 0; stroke-linejoin: miter; stroke-miterlimit: 4; fill: rgb(16,28,67); fill-rule: nonzero; opacity: 1; white-space: pre;" ><tspan x="-95.5617840079" y="7.6421558235" >NAME SURNAME</tspan></text>
</g>
<g transform="matrix(0.9398290069 0 0 0.9398290069 178.0502442146 136.5062560149)"  >
<g style=""   >
		<g transform="matrix(1.7789699424 0 0 1.7789699424 -35.8818237371 0)"  >
<polygon style="stroke: none; stroke-width: 1; stroke-dasharray: none; stroke-linecap: butt; stroke-dashoffset: 0; stroke-linejoin: miter; stroke-miterlimit: 4; fill: rgb(255,255,255); fill-rule: nonzero; opacity: 1;"  points="-3.98,-5.065 -3.98,5.065 3.98,0.005 -3.98,-5.065 " />
</g>
		<g transform="matrix(1.7789699424 0 0 1.7789699424 -11.9546780126 0)"  >
<polygon style="stroke: none; stroke-width: 1; stroke-dasharray: none; stroke-linecap: butt; stroke-dashoffset: 0; stroke-linejoin: miter; stroke-miterlimit: 4; fill: rgb(255,255,255); fill-rule: nonzero; opacity: 1;"  points="-3.98,-5.065 -3.98,5.065 3.98,0.005 -3.98,-5.065 " />
</g>
		<g transform="matrix(1.7789699424 0 0 1.7789699424 11.9635728622 0)"  >
<polygon style="stroke: none; stroke-width: 1; stroke-dasharray: none; stroke-linecap: butt; stroke-dashoffset: 0; stroke-linejoin: miter; stroke-miterlimit: 4; fill: rgb(255,255,255); fill-rule: nonzero; opacity: 1;"  points="-3.975,-5.065 -3.975,5.065 3.975,0.005 -3.975,-5.065 " />
</g>
		<g transform="matrix(1.7789699424 0 0 1.7789699424 35.8818237371 0)"  >
<polygon style="stroke: none; stroke-width: 1; stroke-dasharray: none; stroke-linecap: butt; stroke-dashoffset: 0; stroke-linejoin: miter; stroke-miterlimit: 4; fill: rgb(255,255,255); fill-rule: nonzero; opacity: 1;"  points="-3.98,-5.065 -3.98,5.065 3.98,0.005 -3.98,-5.065 " />
</g>
</g>
</g>
<g transform="matrix(0.8860544218 0 0 0.8860544218 417.6713783862 114.0574828628)"  >
<g style=""   >
		<g transform="matrix(1.7789699424 0 0 1.7789699424 -59.0662282904 45.0596323922)"  >
<path style="stroke: none; stroke-width: 1; stroke-dasharray: none; stroke-linecap: butt; stroke-dashoffset: 0; stroke-linejoin: miter; stroke-miterlimit: 4; fill: rgb(255,255,255); fill-rule: nonzero; opacity: 1;"  transform=" translate(-175.1382096168, -70.8947126556)" d="M 190.12 70 c -0.09 -0.29 -0.38 -0.41 -0.65 -0.51 a 6.89 6.89 0 0 0 -1.56 -0.27 L 186 69 a 9 9 0 0 0 -1.35 -3.73 h 0 L 186 64 c 0.28 -0.27 0.81 -0.6 0.92 -1 a 2 2 0 0 0 -0.28 -1.12 a 5.62 5.62 0 0 0 -0.62 -1.16 c -0.4 -0.59 -0.86 -1.22 -1.63 -0.87 a 10.34 10.34 0 0 0 -1.46 1 l -1.53 1.05 a 0.16 0.16 0 0 0 0 0.23 a 10 10 0 0 0 -3.29 -1.85 c 0 -0.63 0 -1.26 0 -1.88 a 7 7 0 0 0 -0.15 -1.65 c -0.09 -0.3 -0.23 -0.38 -0.52 -0.47 a 16.53 16.53 0 0 0 -1.7 -0.35 c -0.77 -0.16 -1.34 -0.31 -1.63 0.54 c -0.4 1.14 -0.63 2.36 -0.93 3.52 a 0.09 0.09 0 0 0 0 0.05 a 9.71 9.71 0 0 0 -3.5 1.2 a 11 11 0 0 0 -2.2 -2.36 c -0.82 -0.59 -1.49 0.08 -2.13 0.62 s -1.41 1 -1.08 1.75 a 16.36 16.36 0 0 0 1.9 3.16 a 0.16 0.16 0 0 0 0.21 0 a 14.28 14.28 0 0 0 -2 3.67 a 27 27 0 0 0 -3.48 0 c -0.74 0.08 -0.7 1.3 -0.76 1.86 s -0.24 1.81 0.5 2.17 a 5.38 5.38 0 0 0 1.6 0.28 l 1.89 0.28 a 16.33 16.33 0 0 0 1.18 3.47 h 0 a 29.25 29.25 0 0 0 -2.15 2.7 c -0.44 0.7 0.38 1.48 0.82 2 s 1.18 1.52 2 1.21 a 5.08 5.08 0 0 0 1.33 -0.89 q 0.58 -0.45 1.14 -0.93 a 6.74 6.74 0 0 0 3.51 1.65 c 0.12 1.06 0.23 2.14 0.4 3.19 s 1.14 0.79 1.92 0.84 a 8.82 8.82 0 0 0 1.62 0.06 a 0.55 0.55 0 0 0 0.51 -0.39 a 7.81 7.81 0 0 0 0.1 -1.75 c 0 -0.63 0.07 -1.27 0.1 -1.9 a 7.55 7.55 0 0 0 3.73 -1.41 a 26.15 26.15 0 0 0 2.59 2.24 c 0.78 0.54 1.58 -0.26 2.18 -0.75 s 1.38 -1.06 1 -1.91 a 11.83 11.83 0 0 0 -1.86 -2.72 a 6.88 6.88 0 0 0 1.64 -3.72 c 1.08 -0.07 2.17 -0.12 3.25 -0.24 s 0.93 -0.91 1 -1.76 A 5 5 0 0 0 190.12 70 Z m -6.91 -2 a 5.18 5.18 0 0 1 -1.11 0.54 a 7.88 7.88 0 0 0 -1.2 -2.32 a 4.29 4.29 0 0 0 1 -0.89 A 8.62 8.62 0 0 1 183.21 68 Z M 180 63.58 A 7.9 7.9 0 0 1 181.53 65 a 3.43 3.43 0 0 1 -1 0.9 l -0.13 -0.16 a 7 7 0 0 0 -1.5 -1.23 a 4.49 4.49 0 0 1 0.53 -1.23 A 6.37 6.37 0 0 1 180 63.58 Z m -3.82 -1.47 A 8.8 8.8 0 0 1 179 63 a 4.93 4.93 0 0 0 -0.54 1.22 a 7.6 7.6 0 0 0 -2.37 -0.74 Z m -0.52 0 l -0.09 1.35 a 7.87 7.87 0 0 0 -2.51 0.22 a 3.84 3.84 0 0 0 -0.33 -1.29 A 9.33 9.33 0 0 1 175.68 62.06 Z M 170 63.59 a 9.14 9.14 0 0 1 2.29 -1.11 a 3.25 3.25 0 0 1 0.33 1.31 l -0.39 0.13 a 7.74 7.74 0 0 0 -1.65 0.91 L 169.44 64 Z m -0.91 0.72 l 1.08 0.85 a 7.37 7.37 0 0 0 -1.79 2.29 l -1.14 -0.75 A 8.81 8.81 0 0 1 169 64.31 Z M 167 67.17 l 1.15 0.75 a 7.8 7.8 0 0 0 -0.57 2.4 a 10.75 10.75 0 0 0 -1.39 0 A 9.11 9.11 0 0 1 167 67.17 Z m -0.58 5.94 a 9 9 0 0 1 -0.26 -2.3 a 11.06 11.06 0 0 1 1.41 0 s 0 0.06 0 0.09 a 8 8 0 0 0 0.31 2.1 l -1.29 0.64 C 166.48 73.48 166.43 73.3 166.38 73.11 Z m 0.34 1 l 1.28 -0.64 a 6.88 6.88 0 0 0 0.7 1.38 c -0.3 0.39 -0.62 0.77 -0.94 1.15 A 8.91 8.91 0 0 1 166.72 74.16 Z m 1.37 2.31 c 0.31 -0.37 0.62 -0.74 0.91 -1.12 a 7.74 7.74 0 0 0 1.62 1.56 c -0.27 0.39 -0.54 0.79 -0.8 1.19 A 9.24 9.24 0 0 1 168.09 76.47 Z m 4.72 3.06 a 9.26 9.26 0 0 1 -2.57 -1.14 l 0.81 -1.2 a 7.9 7.9 0 0 0 2 0.86 Z m 0.65 0.19 s 0 0 -0.09 -0.06 h -0.05 l 0.21 -1.48 l 0.59 0.1 a 0.53 0.53 0 0 0 0.26 0.08 a 7.63 7.63 0 0 0 1.07 0 c 0.14 0.44 0.25 0.89 0.35 1.35 A 9.64 9.64 0 0 1 173.46 79.72 Z m 1 -2.4 a 0.48 0.48 0 0 0 -0.22 -0.07 a 6.45 6.45 0 1 1 2 -12.73 a 6.57 6.57 0 0 1 5.17 7.06 A 6.65 6.65 0 0 1 174.49 77.32 Z m 1.82 2.28 c -0.09 -0.44 -0.2 -0.89 -0.33 -1.32 a 8.18 8.18 0 0 0 1.89 -0.54 a 5.84 5.84 0 0 0 0.55 1.22 A 10.47 10.47 0 0 1 176.31 79.6 Z m 2.58 -0.86 a 5.22 5.22 0 0 1 -0.54 -1.23 a 7.69 7.69 0 0 0 1.93 -1.37 c 0.26 0.38 0.54 0.75 0.83 1.11 A 9.29 9.29 0 0 1 178.89 78.74 Z m 2.59 -1.85 c -0.29 -0.37 -0.57 -0.74 -0.83 -1.13 a 7.44 7.44 0 0 0 1 -1.38 a 10.6 10.6 0 0 1 1.19 0.78 A 8.65 8.65 0 0 1 181.48 76.89 Z m 1.68 -2.4 l -0.1 0.21 a 13.8 13.8 0 0 0 -1.2 -0.79 a 6.92 6.92 0 0 0 0.59 -2.27 l 1.32 0.18 A 7 7 0 0 1 183.16 74.49 Z m -0.68 -3.37 a 7.8 7.8 0 0 0 -0.24 -2 a 5.7 5.7 0 0 0 1.12 -0.52 a 11.41 11.41 0 0 1 0.41 2.74 Z" stroke-linecap="round" />
</g>
		<g transform="matrix(1.7789699424 0 0 1.7789699424 22.5866159173 -8.6650969312)"  >
<path style="stroke: none; stroke-width: 1; stroke-dasharray: none; stroke-linecap: butt; stroke-dashoffset: 0; stroke-linejoin: miter; stroke-miterlimit: 4; fill: rgb(255,255,255); fill-rule: nonzero; opacity: 1;"  transform=" translate(-220.471244566, -41.4526548593)" d="M 220.91 40.4 a 0.94 0.94 0 0 0 -0.44 0 a 0.31 0.31 0 0 0 -0.34 -0.07 a 1.16 1.16 0 1 0 1.5 1.16 A 1.1 1.1 0 0 0 220.91 40.4 Z m -0.49 1 c 0 -0.08 0.1 -0.19 0.17 -0.11 a 0.1 0.1 0 0 1 -0.1 0.16 A 0.18 0.18 0 0 1 220.42 41.37 Z" stroke-linecap="round" />
</g>
		<g transform="matrix(1.7789699424 0 0 1.7789699424 22.5866159181 -8.6650969303)"  >
<path style="stroke: none; stroke-width: 1; stroke-dasharray: none; stroke-linecap: butt; stroke-dashoffset: 0; stroke-linejoin: miter; stroke-miterlimit: 4; fill: rgb(255,255,255); fill-rule: nonzero; opacity: 1;"  transform=" translate(-221.4296078216, -42.1565720865)" d="M 256.86 40.18 c -0.22 -0.68 -0.9 -1 -1.53 -1.2 a 15.7 15.7 0 0 0 -3.67 -0.65 l -4.5 -0.51 A 21.25 21.25 0 0 0 244 29 l 0 0 L 247.2 26 c 0.66 -0.64 1.92 -1.42 2.16 -2.37 a 4.9 4.9 0 0 0 -0.64 -2.62 a 14.46 14.46 0 0 0 -1.47 -2.74 c -0.95 -1.39 -2 -2.87 -3.84 -2 A 23.86 23.86 0 0 0 240 18.49 L 236.38 21 a 0.39 0.39 0 0 0 -0.09 0.54 a 23.71 23.71 0 0 0 -7.75 -4.36 c 0 -1.47 0 -2.95 -0.11 -4.42 a 16.69 16.69 0 0 0 -0.35 -3.88 c -0.22 -0.71 -0.54 -0.9 -1.23 -1.12 c -1.28 -0.4 -2.69 -0.55 -4 -0.82 C 221 6.52 219.7 6.15 219 8.17 c -0.93 2.67 -1.47 5.55 -2.19 8.28 a 0.45 0.45 0 0 0 0 0.11 a 23.43 23.43 0 0 0 -8.26 2.83 a 26.47 26.47 0 0 0 -5.17 -5.55 c -1.93 -1.38 -3.51 0.18 -5 1.46 c -1.24 1.06 -3.32 2.3 -2.55 4.12 a 38 38 0 0 0 4.47 7.44 a 0.38 0.38 0 0 0 0.5 0.11 A 34 34 0 0 0 196 35.6 a 67.92 67.92 0 0 0 -8.19 -0.09 c -1.74 0.18 -1.66 3.08 -1.79 4.39 c -0.15 1.53 -0.58 4.26 1.16 5.12 a 13.62 13.62 0 0 0 3.78 0.65 l 4.45 0.66 a 38.69 38.69 0 0 0 2.78 8.18 h 0 a 69.93 69.93 0 0 0 -5.08 6.35 c -1 1.67 0.9 3.5 1.93 4.69 s 2.79 3.56 4.8 2.84 A 12.55 12.55 0 0 0 203 66.31 c 0.92 -0.7 1.81 -1.44 2.7 -2.2 A 15.7 15.7 0 0 0 214 68 c 0.27 2.52 0.53 5 0.93 7.53 c 0.36 2.23 2.69 1.84 4.52 2 a 20.6 20.6 0 0 0 3.84 0.14 a 1.25 1.25 0 0 0 1.18 -0.92 a 17.59 17.59 0 0 0 0.24 -4.11 l 0.24 -4.5 a 17.72 17.72 0 0 0 8.79 -3.3 a 58.55 58.55 0 0 0 6.1 5.26 c 1.82 1.29 3.71 -0.6 5.12 -1.75 s 3.26 -2.51 2.42 -4.5 a 28.17 28.17 0 0 0 -4.4 -6.42 a 16 16 0 0 0 3.86 -8.76 c 2.56 -0.17 5.14 -0.28 7.68 -0.56 c 2.35 -0.26 2.17 -2.14 2.3 -4.14 A 11.55 11.55 0 0 0 256.86 40.18 Z m -15 2.13 c -0.48 0 -1.06 0 -1.21 0 l -1.35 0.05 a 21.53 21.53 0 0 0 -0.53 -4.31 l 0.05 0 l 2.25 -0.72 A 27.93 27.93 0 0 1 241.87 42.31 Z M 240.74 36 c 0.06 0.19 0.11 0.38 0.16 0.56 l -2.26 0.74 h 0 a 19.71 19.71 0 0 0 -1.78 -4.45 h 0 L 239 31.71 A 21.08 21.08 0 0 1 240.74 36 Z m -2.11 -4.94 l -2.12 1.16 l 0 0 a 17.29 17.29 0 0 0 -2.43 -3.18 l 1.86 -1.61 A 19.09 19.09 0 0 1 238.63 31.08 Z M 233.08 25 A 19 19 0 0 1 235.41 27 l -1.87 1.62 q -0.45 -0.43 -0.93 -0.84 A 17 17 0 0 0 231 26.56 c 0.37 -0.72 0.76 -1.42 1.18 -2.11 C 232.5 24.63 232.79 24.82 233.08 25 Z m -5.91 -2.81 a 20.25 20.25 0 0 1 4.41 1.86 c -0.42 0.69 -0.81 1.39 -1.18 2.1 a 17 17 0 0 0 -4.19 -1.76 C 226.55 23.69 226.87 23 227.17 22.21 Z m -5.42 -0.8 a 20.93 20.93 0 0 1 4.72 0.62 c -0.31 0.74 -0.63 1.48 -1 2.2 a 17.83 17.83 0 0 0 -3.86 -0.42 Z m -0.73 0 l -0.12 2.41 a 18.36 18.36 0 0 0 -3.74 0.55 c -0.1 -0.83 -0.19 -1.66 -0.29 -2.49 A 21.54 21.54 0 0 1 221 21.41 Z m 5.09 4.43 a 16.56 16.56 0 0 1 3.71 1.65 c 6 3.73 8.77 10.88 7.92 17.77 a 19.64 19.64 0 0 1 -1.35 5.27 a 16.36 16.36 0 0 1 -4.8 5.36 c -3.76 2 -8 3.57 -12.26 3.59 h -0.1 a 17.22 17.22 0 0 1 -8.61 -30.19 A 17 17 0 0 1 226.11 25.84 Z M 216.17 22 l 0.28 2.52 a 18.36 18.36 0 0 0 -3.79 1.59 l -1.3 -2.28 A 22.07 22.07 0 0 1 216.17 22 Z m -6.82 3 c 0.45 -0.3 0.91 -0.58 1.37 -0.84 l 1.32 2.3 h 0 A 18.67 18.67 0 0 0 208.79 29 c -0.65 -0.64 -1.28 -1.32 -1.89 -2 A 20.23 20.23 0 0 1 209.35 25.06 Z m -3 2.47 c 0.61 0.69 1.23 1.37 1.89 2 a 18.29 18.29 0 0 0 -2.56 3.39 a 18 18 0 0 1 -2.28 -1.61 A 20.81 20.81 0 0 1 206.39 27.53 Z M 203.07 32 a 17.27 17.27 0 0 0 2.3 1.61 a 18.87 18.87 0 0 0 -1.2 2.72 a 12.19 12.19 0 0 1 -2.6 -1 A 22.37 22.37 0 0 1 203.07 32 Z m -1.73 4 A 12.62 12.62 0 0 0 204 37 a 18.31 18.31 0 0 0 -0.73 3.68 c -0.93 -0.09 -1.85 -0.21 -2.77 -0.37 A 21.81 21.81 0 0 1 201.34 36 Z m -1 5 c 0.92 0.15 1.85 0.27 2.78 0.37 a 18.81 18.81 0 0 0 0.19 4.16 c 0 0.14 0.05 0.29 0.08 0.43 h -2.81 A 21.12 21.12 0 0 1 200.38 41 Z m 2.48 11.3 a 19.56 19.56 0 0 1 -1.92 -4.84 c -0.07 -0.25 -0.12 -0.5 -0.18 -0.75 l 0.43 0 h 2.39 A 17.49 17.49 0 0 0 205.16 51 A 21.82 21.82 0 0 0 202.86 52.31 Z m 0.36 0.63 a 20.89 20.89 0 0 1 2.29 -1.32 a 18.66 18.66 0 0 0 2.71 3.6 a 0.18 0.18 0 0 0 -0.07 0.05 L 206.39 57 A 21.33 21.33 0 0 1 203.22 52.94 Z m 3.69 4.53 l 1.75 -1.69 a 0.18 0.18 0 0 0 0.05 -0.07 a 19.41 19.41 0 0 0 3.21 2.51 c -0.59 0.59 -1.2 1.16 -1.84 1.72 A 22.28 22.28 0 0 1 206.91 57.47 Z m 5.56 1.22 a 0.36 0.36 0 0 0 0.23 0 A 19.48 19.48 0 0 0 215 59.76 a 23.45 23.45 0 0 0 -1.14 2.09 a 21.6 21.6 0 0 1 -3.09 -1.52 C 211.33 59.81 211.91 59.26 212.47 58.69 Z m 7.24 4.49 c -0.7 0 -1.39 0 -2.08 -0.12 a 0.31 0.31 0 0 0 -0.22 -0.15 a 19.75 19.75 0 0 1 -2.92 -0.81 c 0.36 -0.71 0.74 -1.4 1.16 -2.08 a 18.94 18.94 0 0 0 4 1 A 16.06 16.06 0 0 1 219.71 63.18 Z m 0.72 0 a 15.21 15.21 0 0 0 -0.1 -2.24 s 0 0 0 -0.06 a 22 22 0 0 0 3.52 -0.51 c 0.26 0.78 0.53 1.56 0.8 2.34 A 23.91 23.91 0 0 1 220.43 63.19 Z m 4.92 -0.62 l -0.81 -2.36 A 31.5 31.5 0 0 0 228.28 59 c 0.34 0.73 0.67 1.45 1 2.17 a 0.86 0.86 0 0 0 0.07 0.1 A 24.48 24.48 0 0 1 225.35 62.57 Z M 230 61 a 0.36 0.36 0 0 0 0 -0.2 l -1 -2.07 c 0.9 -0.37 1.79 -0.78 2.66 -1.2 c 0.58 -0.28 1.13 -0.58 1.67 -0.9 L 234.75 58 A 22.84 22.84 0 0 1 230 61 Z m 5.36 -3.46 l -1.42 -1.32 a 9.46 9.46 0 0 0 2.09 -2 a 11.8 11.8 0 0 0 1 -1.61 l 1.79 1 A 20.9 20.9 0 0 1 235.31 57.51 Z m 5.17 -6.77 a 19.24 19.24 0 0 1 -1.29 2.31 L 237.33 52 a 19.19 19.19 0 0 0 1.13 -3.07 c 0.09 -0.3 0.17 -0.61 0.24 -0.91 l 2.5 0.83 A 13.94 13.94 0 0 1 240.48 50.74 Z m 0.92 -2.62 l -2.54 -0.84 a 21.35 21.35 0 0 0 0.45 -4.21 l 2.48 -0.1 h 0.11 A 18.51 18.51 0 0 1 241.4 48.12 Z" stroke-linecap="round" />
</g>
</g>
</g>
</svg>