<?xml version="1.0" encoding="UTF-8" standalone="no" ?>
<!DOCTYPE svg PUBLIC "-//W3C//DTD SVG 1.1//EN" "http://www.w3.org/Graphics/SVG/1.1/DTD/svg11.dtd">
<svg xmlns="http://www.w3.org/2000/svg" xmlns:xlink="http://www.w3.org/1999/xlink" version="1.1" width="767.7165354421876" height="767.7165354421876" viewBox="0 0 398.4117647059 398.4117647059" xml:space="preserve">
<desc>Created with Fabric.js 3.4.0 and NBDesigner 2.7</desc>
<defs>
</defs>
<g transform="matrix(0.287661924 0 0 0.287661924 200.7880229348 199.2058823529)"  >
	<image style="stroke: none; stroke-width: 0; stroke-dasharray: none; stroke-linecap: butt; stroke-dashoffset: 0; stroke-linejoin: miter; stroke-miterlimit: 4; fill: rgb(255,255,255); fill-rule: nonzero; opacity: 1;"  xlink:href="https://transparentcard.de/wp-content/themes/astra-child/assets/img/transparent_glass_65x65-mm.png" x="-698" y="-692.5" width="1396" height="1385"></image>
</g>
<g transform="matrix(0.2159391633 0 0 0.3375517763 199.2058823529 199.2058823529)"  >
	<image style="stroke: none; stroke-width: 0; stroke-dasharray: none; stroke-linecap: butt; stroke-dashoffset: 0; stroke-linejoin: miter; stroke-miterlimit: 4; fill: rgb(255,0,0); fill-rule: nonzero; opacity: 1;"  xlink:href="https://transparentcard.de/wp-content/uploads/nbdesigner/temp/2024/02/15/17079983925c376f6d.png" x="-918" y="-591" width="1836" height="1182"></image>
</g>
<g transform="matrix(0.4567858623 0 0 0.4567858623 -19.8400756616 17.2803446821)" style=""  >
		<text xml:space="preserve" font-family="Times New Roman" font-size="16" font-style="normal" font-weight="normal" style="stroke: none; stroke-width: 1; stroke-dasharray: none; stroke-linecap: butt; stroke-dashoffset: 0; stroke-linejoin: miter; stroke-miterlimit: 4; fill: rgb(48,142,167); fill-rule: nonzero; opacity: 1; white-space: pre;" ></text>
</g>
<g transform="matrix(0.8860544218 0 0 0.8860544218 236.4071768207 111.4181621646)" style=""  >
		<text xml:space="preserve" font-family="Roboto" font-size="42.517975053040864" font-style="normal" font-weight="normal" style="stroke: none; stroke-width: 0; stroke-dasharray: none; stroke-linecap: butt; stroke-dashoffset: 0; stroke-linejoin: miter; stroke-miterlimit: 4; fill: rgb(3,201,136); fill-rule: nonzero; opacity: 1; white-space: pre;" ><tspan x="-95.5032085356" y="13.3565966832" >Full Name</tspan></text>
</g>
<g transform="matrix(0.8860544218 0 0 0.8860544218 254.0667188771 142.3165062366)" style=""  >
		<text xml:space="preserve" font-family="Roboto" font-size="19.52313725490196" font-style="normal" font-weight="normal" style="stroke: none; stroke-width: 0; stroke-dasharray: none; stroke-linecap: butt; stroke-dashoffset: 0; stroke-linejoin: miter; stroke-miterlimit: 4; fill: rgb(51,51,51); fill-rule: nonzero; opacity: 1; white-space: pre;" ><tspan x="-73.6058336622" y="6.1329983373" >Designation Here</tspan></text>
</g>
<g transform="matrix(0.6945903982 0 0 0.6945903982 106.1245226039 317.0405055822)"  >
<g style=""   >
		<g transform="matrix(0.6576334247 0 0 0.6576334247 2.8179592248 9.8151788636)"  >
<path style="stroke: none; stroke-width: 1; stroke-dasharray: none; stroke-linecap: butt; stroke-dashoffset: 0; stroke-linejoin: miter; stroke-miterlimit: 4; fill: rgb(3,201,136); fill-rule: nonzero; opacity: 1;"  transform=" translate(-510.615, -505.9)" d="M 507 510.38 c 3 -0.42 5.58 -3.52 7.23 -8.11 a 35.25 35.25 0 0 0 -7.23 -0.85 Z" stroke-linecap="round" />
</g>
		<g transform="matrix(0.6576334247 0 0 0.6576334247 6.2080595292 10.0256215595)"  >
<path style="stroke: none; stroke-width: 1; stroke-dasharray: none; stroke-linecap: butt; stroke-dashoffset: 0; stroke-linejoin: miter; stroke-miterlimit: 4; fill: rgb(3,201,136); fill-rule: nonzero; opacity: 1;"  transform=" translate(-515.77, -506.22)" d="M 511.77 509.65 l 0.53 -0.15 l 0.44 -0.15 l 0.51 -0.19 l 0.43 -0.17 l 0.49 -0.21 l 0.43 -0.19 l 0.48 -0.24 l 0.42 -0.21 l 0.46 -0.26 l 0.41 -0.24 l 0.45 -0.28 l 0.4 -0.26 l 0.43 -0.3 l 0.39 -0.28 l 0.42 -0.33 l 0.37 -0.3 l 0.4 -0.35 l 0.35 -0.32 c 0.14 -0.12 0.27 -0.25 0.4 -0.38 l 0.33 -0.33 l 0.06 -0.07 a 23.65 23.65 0 0 0 -4.76 -1.83 a 17.35 17.35 0 0 1 -4.44 7.22 l 0.17 -0.05 l 0.43 -0.13 Z" stroke-linecap="round" />
</g>
		<g transform="matrix(0.6576334247 0 0 0.6576334247 9.5882953321 4.3107870988)"  >
<path style="stroke: none; stroke-width: 1; stroke-dasharray: none; stroke-linecap: butt; stroke-dashoffset: 0; stroke-linejoin: miter; stroke-miterlimit: 4; fill: rgb(3,201,136); fill-rule: nonzero; opacity: 1;"  transform=" translate(-520.91, -497.53)" d="M 525.78 491.67 h -8.34 a 36 36 0 0 1 -1.4 9.62 a 24 24 0 0 1 5.27 2.1 a 19.52 19.52 0 0 0 4.47 -11.72 Z" stroke-linecap="round" />
</g>
		<g transform="matrix(0.6576334247 0 0 0.6576334247 3.3901003044 -3.5084743208)"  >
<path style="stroke: none; stroke-width: 1; stroke-dasharray: none; stroke-linecap: butt; stroke-dashoffset: 0; stroke-linejoin: miter; stroke-miterlimit: 4; fill: rgb(3,201,136); fill-rule: nonzero; opacity: 1;"  transform=" translate(-511.485, -485.64)" d="M 507 490.28 h 9 a 34.73 34.73 0 0 0 -1.37 -9.28 a 36.54 36.54 0 0 1 -7.66 0.92 Z" stroke-linecap="round" />
</g>
		<g transform="matrix(0.6576334247 0 0 0.6576334247 2.8179592248 -9.8020261952)"  >
<path style="stroke: none; stroke-width: 1; stroke-dasharray: none; stroke-linecap: butt; stroke-dashoffset: 0; stroke-linejoin: miter; stroke-miterlimit: 4; fill: rgb(3,201,136); fill-rule: nonzero; opacity: 1;"  transform=" translate(-510.615, -476.07)" d="M 507 471.57 v 9 a 36 36 0 0 0 7.23 -0.85 c -1.65 -4.59 -4.25 -7.69 -7.23 -8.11 Z" stroke-linecap="round" />
</g>
		<g transform="matrix(0.6576334247 0 0 0.6576334247 3.4098293071 3.4854571508)"  >
<path style="stroke: none; stroke-width: 1; stroke-dasharray: none; stroke-linecap: butt; stroke-dashoffset: 0; stroke-linejoin: miter; stroke-miterlimit: 4; fill: rgb(3,201,136); fill-rule: nonzero; opacity: 1;"  transform=" translate(-511.515, -496.275)" d="M 507 500 a 37.2 37.2 0 0 1 7.66 0.91 a 34.6 34.6 0 0 0 1.37 -9.27 h -9 Z" stroke-linecap="round" />
</g>
		<g transform="matrix(0.6576334247 0 0 0.6576334247 9.5882953321 -4.310787099)"  >
<path style="stroke: none; stroke-width: 1; stroke-dasharray: none; stroke-linecap: butt; stroke-dashoffset: 0; stroke-linejoin: miter; stroke-miterlimit: 4; fill: rgb(3,201,136); fill-rule: nonzero; opacity: 1;"  transform=" translate(-520.91, -484.42)" d="M 521.31 478.56 a 24 24 0 0 1 -5.27 2.1 a 36 36 0 0 1 1.4 9.62 h 8.34 a 19.52 19.52 0 0 0 -4.47 -11.72 Z" stroke-linecap="round" />
</g>
		<g transform="matrix(0.6576334247 0 0 0.6576334247 6.2047713621 -9.9960280555)"  >
<path style="stroke: none; stroke-width: 1; stroke-dasharray: none; stroke-linecap: butt; stroke-dashoffset: 0; stroke-linejoin: miter; stroke-miterlimit: 4; fill: rgb(3,201,136); fill-rule: nonzero; opacity: 1;"  transform=" translate(-515.765, -475.775)" d="M 520.37 477.51 l -0.06 -0.07 l -0.33 -0.33 l -0.39 -0.38 l -0.36 -0.31 l -0.4 -0.36 l -0.37 -0.3 l -0.42 -0.33 c -0.13 -0.09 -0.26 -0.18 -0.38 -0.28 l -0.44 -0.3 l -0.4 -0.26 l -0.45 -0.28 l -0.41 -0.24 l -0.46 -0.26 l -0.42 -0.22 l -0.49 -0.23 l -0.42 -0.19 l -0.5 -0.21 l -0.43 -0.17 l -0.51 -0.19 l -0.44 -0.15 l -0.52 -0.16 l -0.44 -0.12 l -0.17 0 a 17.3 17.3 0 0 1 4.45 7.21 a 23.07 23.07 0 0 0 4.76 -1.83 Z" stroke-linecap="round" />
</g>
		<g transform="matrix(0.6576334247 0 0 0.6576334247 -9.5882953321 -4.310787099)"  >
<path style="stroke: none; stroke-width: 1; stroke-dasharray: none; stroke-linecap: butt; stroke-dashoffset: 0; stroke-linejoin: miter; stroke-miterlimit: 4; fill: rgb(3,201,136); fill-rule: nonzero; opacity: 1;"  transform=" translate(-491.75, -484.42)" d="M 486.88 490.28 h 8.34 a 36 36 0 0 1 1.4 -9.62 a 23.84 23.84 0 0 1 -5.28 -2.1 a 19.45 19.45 0 0 0 -4.46 11.72 Z" stroke-linecap="round" />
</g>
		<g transform="matrix(0.6576334247 0 0 0.6576334247 -2.8344000604 9.8020261951)"  >
<path style="stroke: none; stroke-width: 1; stroke-dasharray: none; stroke-linecap: butt; stroke-dashoffset: 0; stroke-linejoin: miter; stroke-miterlimit: 4; fill: rgb(3,201,136); fill-rule: nonzero; opacity: 1;"  transform=" translate(-502.02, -505.88)" d="M 505.63 510.38 v -9 a 35.78 35.78 0 0 0 -7.22 0.85 c 1.64 4.59 4.25 7.69 7.22 8.11 Z" stroke-linecap="round" />
</g>
		<g transform="matrix(0.6576334247 0 0 0.6576334247 -3.4131174742 3.5051861535)"  >
<path style="stroke: none; stroke-width: 1; stroke-dasharray: none; stroke-linecap: butt; stroke-dashoffset: 0; stroke-linejoin: miter; stroke-miterlimit: 4; fill: rgb(3,201,136); fill-rule: nonzero; opacity: 1;"  transform=" translate(-501.14, -496.305)" d="M 505.63 491.67 h -9 a 34.58 34.58 0 0 0 1.36 9.27 a 36.61 36.61 0 0 1 7.66 -0.91 Z" stroke-linecap="round" />
</g>
		<g transform="matrix(0.6576334247 0 0 0.6576334247 -2.8344000604 -9.8151788637)"  >
<path style="stroke: none; stroke-width: 1; stroke-dasharray: none; stroke-linecap: butt; stroke-dashoffset: 0; stroke-linejoin: miter; stroke-miterlimit: 4; fill: rgb(3,201,136); fill-rule: nonzero; opacity: 1;"  transform=" translate(-502.02, -476.05)" d="M 505.63 471.57 c -3 0.42 -5.58 3.52 -7.22 8.11 a 35.78 35.78 0 0 0 7.22 0.85 Z" stroke-linecap="round" />
</g>
		<g transform="matrix(0.6576334247 0 0 0.6576334247 -3.4131174741 -3.5084743208)"  >
<path style="stroke: none; stroke-width: 1; stroke-dasharray: none; stroke-linecap: butt; stroke-dashoffset: 0; stroke-linejoin: miter; stroke-miterlimit: 4; fill: rgb(3,201,136); fill-rule: nonzero; opacity: 1;"  transform=" translate(-501.14, -485.64)" d="M 505.63 481.92 A 36.7 36.7 0 0 1 498 481 a 34.72 34.72 0 0 0 -1.36 9.28 h 9 Z" stroke-linecap="round" />
</g>
		<g transform="matrix(0.6576334247 0 0 0.6576334247 -6.1981950277 -10.009180724)"  >
<path style="stroke: none; stroke-width: 1; stroke-dasharray: none; stroke-linecap: butt; stroke-dashoffset: 0; stroke-linejoin: miter; stroke-miterlimit: 4; fill: rgb(3,201,136); fill-rule: nonzero; opacity: 1;"  transform=" translate(-496.905, -475.755)" d="M 501.49 472.13 l -0.17 0 l -0.44 0.12 l -0.52 0.16 l -0.44 0.15 l -0.51 0.19 L 499 473 l -0.5 0.21 l -0.42 0.19 l -0.48 0.23 l -0.42 0.22 c -0.16 0.08 -0.31 0.17 -0.46 0.26 l -0.41 0.24 l -0.45 0.27 l -0.4 0.27 c -0.15 0.09 -0.29 0.2 -0.44 0.3 l -0.38 0.28 l -0.42 0.33 c -0.12 0.1 -0.25 0.19 -0.37 0.3 s -0.27 0.23 -0.4 0.35 l -0.36 0.32 l -0.39 0.38 l -0.34 0.33 a 0.34 0.34 0 0 1 -0.06 0.06 a 23.41 23.41 0 0 0 4.77 1.84 a 17.15 17.15 0 0 1 4.44 -7.21 Z" stroke-linecap="round" />
</g>
		<g transform="matrix(0.6576334247 0 0 0.6576334247 -6.2080595291 9.9960280554)"  >
<path style="stroke: none; stroke-width: 1; stroke-dasharray: none; stroke-linecap: butt; stroke-dashoffset: 0; stroke-linejoin: miter; stroke-miterlimit: 4; fill: rgb(3,201,136); fill-rule: nonzero; opacity: 1;"  transform=" translate(-496.89, -506.175)" d="M 492.68 504.84 l 0.39 0.38 l 0.35 0.31 l 0.41 0.36 l 0.36 0.29 l 0.43 0.34 l 0.38 0.28 l 0.44 0.3 l 0.39 0.26 l 0.46 0.28 l 0.4 0.24 l 0.47 0.26 l 0.42 0.22 l 0.48 0.23 l 0.43 0.19 c 0.16 0.08 0.33 0.14 0.49 0.21 l 0.44 0.17 c 0.16 0.07 0.33 0.13 0.51 0.19 l 0.43 0.15 l 0.53 0.15 l 0.43 0.13 l 0.17 0 a 17.38 17.38 0 0 1 -4.44 -7.21 a 23.07 23.07 0 0 0 -4.76 1.83 l 0.06 0.07 q 0.15 0.17 0.33 0.33 Z" stroke-linecap="round" />
</g>
		<g transform="matrix(0.6576334247 0 0 0.6576334247 -9.5882953321 4.3107870988)"  >
<path style="stroke: none; stroke-width: 1; stroke-dasharray: none; stroke-linecap: butt; stroke-dashoffset: 0; stroke-linejoin: miter; stroke-miterlimit: 4; fill: rgb(3,201,136); fill-rule: nonzero; opacity: 1;"  transform=" translate(-491.75, -497.53)" d="M 491.34 503.39 a 23.84 23.84 0 0 1 5.28 -2.1 a 36 36 0 0 1 -1.4 -9.62 h -8.34 a 19.45 19.45 0 0 0 4.46 11.72 Z" stroke-linecap="round" />
</g>
</g>
</g>
<g transform="matrix(0.6945903982 0 0 0.6945903982 106.1245226039 253.5029062921)"  >
<g style=""   >
		<g transform="matrix(0.6576334247 0 0 0.6576334247 2.1160615639 -2.1384009166)"  >
<path style="stroke: none; stroke-width: 1; stroke-dasharray: none; stroke-linecap: butt; stroke-dashoffset: 0; stroke-linejoin: miter; stroke-miterlimit: 4; fill: rgb(3,201,136); fill-rule: nonzero; opacity: 1;"  transform=" translate(-508.7290406828, -367.6869597628)" d="M 512.74 372.22 a 0.9 0.9 0 1 0 1.8 0.15 a 1.73 1.73 0 0 1 0 -0.41 v -0.41 a 9.93 9.93 0 0 0 -0.53 -3.16 a 9.37 9.37 0 0 0 -6.38 -5.9 a 9.87 9.87 0 0 0 -2.37 -0.3 a 6.05 6.05 0 0 0 -0.83 0 l -0.79 0.11 a 0.87 0.87 0 0 0 -0.71 1 a 0.86 0.86 0 0 0 1 0.71 a 3.58 3.58 0 0 1 0.64 -0.07 h 0.12 c 0.18 0 0.37 0 0.56 0 a 7.41 7.41 0 0 1 5.33 2.21 a 7.58 7.58 0 0 1 2.22 5.26 v 0.42 A 1.24 1.24 0 0 0 512.74 372.22 Z" stroke-linecap="round" />
</g>
		<g transform="matrix(0.6576334247 0 0 0.6576334247 3.5163497965 -3.6062782711)"  >
<path style="stroke: none; stroke-width: 1; stroke-dasharray: none; stroke-linecap: butt; stroke-dashoffset: 0; stroke-linejoin: miter; stroke-miterlimit: 4; fill: rgb(3,201,136); fill-rule: nonzero; opacity: 1;"  transform=" translate(-510.8583245361, -365.454899622)" d="M 517.81 372.67 a 0.92 0.92 0 0 0 0.83 1 a 0.91 0.91 0 0 0 1 -0.83 c 0 -0.41 0 -0.82 0 -1.24 a 15.86 15.86 0 0 0 -0.19 -2.4 a 14.41 14.41 0 0 0 -13 -11.95 a 11.43 11.43 0 0 0 -1.17 0 c -0.41 0 -0.82 0 -1.24 0 s -0.82 0.08 -1.24 0.15 a 0.86 0.86 0 0 0 -0.71 1 a 0.85 0.85 0 0 0 1 0.71 l 0.75 -0.11 c 0.12 0 0.23 0 0.34 0 a 10.3 10.3 0 0 1 1.09 0 a 12.94 12.94 0 0 1 3.65 0.53 a 12.37 12.37 0 0 1 5.29 3.16 a 12.75 12.75 0 0 1 2.82 4.24 a 12.59 12.59 0 0 1 0.9 4.66 v 0.38 A 3.25 3.25 0 0 0 517.81 372.67 Z" stroke-linecap="round" />
</g>
		<g transform="matrix(0.6576334247 0 0 0.6576334247 4.9411009902 -5.1818495618)"  >
<path style="stroke: none; stroke-width: 1; stroke-dasharray: none; stroke-linecap: butt; stroke-dashoffset: 0; stroke-linejoin: miter; stroke-miterlimit: 4; fill: rgb(3,201,136); fill-rule: nonzero; opacity: 1;"  transform=" translate(-513.0248068653, -363.0590796536)" d="M 505.22 352.05 c -0.56 0 -1.12 0 -1.69 0.07 a 14.27 14.27 0 0 0 -1.69 0.23 a 0.88 0.88 0 0 0 0.3 1.73 l 0.76 -0.12 a 6.85 6.85 0 0 1 0.78 -0.07 c 0.53 0 1 -0.08 1.54 -0.08 A 17.72 17.72 0 0 1 523 371.55 v 0.82 c 0 0.23 0 0.45 0 0.72 a 0.9 0.9 0 0 0 1.8 0.15 c 0 -0.57 0.08 -1.13 0.08 -1.66 a 19.56 19.56 0 0 0 -19.58 -19.53 Z" stroke-linecap="round" />
</g>
		<g transform="matrix(0.6576334247 0 0 0.6576334247 -0.1834614198 0.4597054412)"  >
<path style="stroke: none; stroke-width: 1; stroke-dasharray: none; stroke-linecap: butt; stroke-dashoffset: 0; stroke-linejoin: miter; stroke-miterlimit: 4; fill: rgb(3,201,136); fill-rule: nonzero; opacity: 1;"  transform=" translate(-505.2323768922, -371.6376506189)" d="M 523.41 380.56 L 516.76 377 c -2.22 -1.2 -2.29 -0.41 -4.62 2.07 c -0.57 0.6 -1.62 2.18 -2.86 1.88 c -2.59 -0.64 -7.44 -4.43 -9 -6.16 c -0.76 -0.83 -4 -4.77 -4 -6 c -0.08 -2 4.2 -2.93 2.81 -6.65 l -3 -6.65 c -2.78 -6.39 -10.55 3.83 -9.91 8.6 c 1.65 11.76 22.28 30.77 33.77 24.5 C 522.51 387.1 526 382.1 523.41 380.56 Z" stroke-linecap="round" />
</g>
</g>
</g>
<g transform="matrix(0.6945903982 0 0 0.6945903982 203.3605991657 253.502906292)" style=""  >
		<text xml:space="preserve" font-family="Roboto" font-size="27.17630588154343" font-style="normal" font-weight="normal" style="stroke: none; stroke-width: 0; stroke-dasharray: none; stroke-linecap: butt; stroke-dashoffset: 0; stroke-linejoin: miter; stroke-miterlimit: 4; fill: rgb(51,51,51); fill-rule: nonzero; opacity: 1; white-space: pre;" ><tspan x="-103.9640050465" y="8.5371647296" >000 222 555 888</tspan></text>
</g>
<g transform="matrix(0.6945903982 0 0 0.6945903982 225.7744554289 285.1661574878)" style=""  >
		<text xml:space="preserve" font-family="Roboto" font-size="27.17630588154343" font-style="normal" font-weight="normal" style="stroke: none; stroke-width: 0; stroke-dasharray: none; stroke-linecap: butt; stroke-dashoffset: 0; stroke-linejoin: miter; stroke-miterlimit: 4; fill: rgb(51,51,51); fill-rule: nonzero; opacity: 1; white-space: pre;" ><tspan x="-136.2331759438" y="8.5371647296" >yourname@gmail.com</tspan></text>
</g>
<g transform="matrix(0.6945903982 0 0 0.6945903982 203.5459325932 317.0405055822)" style=""  >
		<text xml:space="preserve" font-family="Roboto" font-size="27.17630588154343" font-style="normal" font-weight="normal" style="stroke: none; stroke-width: 0; stroke-dasharray: none; stroke-linecap: butt; stroke-dashoffset: 0; stroke-linejoin: miter; stroke-miterlimit: 4; fill: rgb(51,51,51); fill-rule: nonzero; opacity: 1; white-space: pre;" ><tspan x="-104.2308291028" y="8.5371647296" >yourwebsite.com</tspan></text>
</g>
<g transform="matrix(0.6945903982 0 0 0.6945903982 106.1245226038 349.1308231633)"  >
<g style=""   >
		<g transform="matrix(0.6576334247 0 0 0.6576334247 -0.0097065464 0.7757367861)"  >
<path style="stroke: none; stroke-width: 1; stroke-dasharray: none; stroke-linecap: butt; stroke-dashoffset: 0; stroke-linejoin: miter; stroke-miterlimit: 4; fill: rgb(3,201,136); fill-rule: nonzero; opacity: 1;"  transform=" translate(-506.975, -556.5498286276)" d="M 507 546 a 8.25 8.25 0 0 0 -6.89 3.6 a 8.4 8.4 0 0 0 -1 7.73 a 6.32 6.32 0 0 0 1.16 1.9 l 6.71 7.87 l 6.7 -7.87 h 0 a 6.32 6.32 0 0 0 1.16 -1.9 a 8.4 8.4 0 0 0 -1 -7.73 A 8.25 8.25 0 0 0 507 546 Z m 0 13.27 a 4.91 4.91 0 1 1 4.91 -4.91 A 4.92 4.92 0 0 1 507 559.23 Z" stroke-linecap="round" />
</g>
		<g transform="matrix(0.6576334247 0 0 0.6576334247 0.0001279458 -0.6906527552)"  >
<path style="stroke: none; stroke-width: 1; stroke-dasharray: none; stroke-linecap: butt; stroke-dashoffset: 0; stroke-linejoin: miter; stroke-miterlimit: 4; fill: rgb(3,201,136); fill-rule: nonzero; opacity: 1;"  transform=" translate(-506.989954368, -554.3200308614)" d="M 507 551.16 a 3.16 3.16 0 1 0 3.15 3.16 A 3.16 3.16 0 0 0 507 551.16 Z" stroke-linecap="round" />
</g>
		<g transform="matrix(0.6576334247 0 0 0.6576334247 0 0)"  >
<path style="stroke: none; stroke-width: 1; stroke-dasharray: none; stroke-linecap: butt; stroke-dashoffset: 0; stroke-linejoin: miter; stroke-miterlimit: 4; fill: rgb(3,201,136); fill-rule: nonzero; opacity: 1;"  transform=" translate(-506.9897598131, -555.3702401869)" d="M 507 538.73 a 16.64 16.64 0 1 0 16.63 16.63 A 16.64 16.64 0 0 0 507 538.73 Z m 9.44 19.18 a 7.94 7.94 0 0 1 -1.47 2.42 L 507.62 569 a 0.87 0.87 0 0 1 -1.33 0 l -7.37 -8.65 a 8.06 8.06 0 0 1 -1.47 -2.43 a 10.1 10.1 0 0 1 1.18 -9.33 a 10.11 10.11 0 0 1 16.65 0 A 10.12 10.12 0 0 1 516.46 557.91 Z" stroke-linecap="round" />
</g>
</g>
</g>
<g transform="matrix(0.6945903982 0 0 0.6945903982 244.0241010468 349.1308231633)" style=""  >
		<text xml:space="preserve" font-family="Roboto" font-size="27.17630588154343" font-style="normal" font-weight="normal" style="stroke: none; stroke-width: 0; stroke-dasharray: none; stroke-linecap: butt; stroke-dashoffset: 0; stroke-linejoin: miter; stroke-miterlimit: 4; fill: rgb(51,51,51); fill-rule: nonzero; opacity: 1; white-space: pre;" ><tspan x="-162.5071435441" y="8.5371647296" >02_GulshanBD,Dhaka-1250</tspan></text>
</g>
<g transform="matrix(0.8860544218 0 0 0.8860544218 106.1245226038 285.1661574877)"  >
<g style=""   >
		<g transform="matrix(0.5155279981 0 0 0.5155279981 0.0007937232 -3.578121743)"  >
<path style="stroke: none; stroke-width: 1; stroke-dasharray: none; stroke-linecap: butt; stroke-dashoffset: 0; stroke-linejoin: miter; stroke-miterlimit: 4; fill: rgb(3,201,136); fill-rule: nonzero; opacity: 1;"  transform=" translate(-505.7315396313, -420.7343066601)" d="M 489.25 415.61 l 14.1 11.17 a 3.65 3.65 0 0 0 2.38 0.69 a 3.6 3.6 0 0 0 2.38 -0.69 l 14.1 -11.17 c 1.13 -0.89 0.88 -1.62 -0.56 -1.62 H 489.81 c -1.43 0 -1.69 0.73 -0.56 1.62 Z" stroke-linecap="round" />
</g>
		<g transform="matrix(0.5155279981 0 0 0.5155279981 0 1.057051285)"  >
<path style="stroke: none; stroke-width: 1; stroke-dasharray: none; stroke-linecap: butt; stroke-dashoffset: 0; stroke-linejoin: miter; stroke-miterlimit: 4; fill: rgb(3,201,136); fill-rule: nonzero; opacity: 1;"  transform=" translate(-505.73, -429.7254245916)" d="M 523.23 418.55 l -15.42 11.71 a 3.75 3.75 0 0 1 -4.16 0 l -15.42 -11.71 c -1.14 -0.86 -2.08 -0.39 -2.08 1 v 19.2 a 2.62 2.62 0 0 0 2.61 2.61 H 522.7 a 2.62 2.62 0 0 0 2.61 -2.61 v -19.2 c 0 -1.43 -0.94 -1.9 -2.08 -1 Z" stroke-linecap="round" />
</g>
</g>
</g>
<g transform="matrix(1 0 0 1 82.519912426 104.8199263459)"  >
<g style=""   >
		<g transform="matrix(0 0.4254946067 -0.3275120931 0 0 0)" clip-path="url(#CLIPPATH_2)"  >
<clipPath id="CLIPPATH_2" >
	<rect transform="matrix(0 -1 1 0 91.25 -375.595)" x="-618.785" y="-353.59" rx="0" ry="0" width="1237.57" height="707.18" />
</clipPath>
<rect style="stroke: none; stroke-width: 1; stroke-dasharray: none; stroke-linecap: butt; stroke-dashoffset: 0; stroke-linejoin: miter; stroke-miterlimit: 4; fill: rgb(3,201,136); fill-rule: nonzero; opacity: 1;"  x="-306.54" y="-103.86" rx="5.03" ry="5.03" width="613.08" height="207.72" />
</g>
		<g transform="matrix(0.8177661742 0 0 0.8177661742 0.370565325 23.3649638657)"  >
<g style=""   >
		<g transform="matrix(0.4567858623 0 0 0.4567858623 0.0225464044 75.9949790877)"  >
<path style="stroke: none; stroke-width: 1; stroke-dasharray: none; stroke-linecap: butt; stroke-dashoffset: 0; stroke-linejoin: miter; stroke-miterlimit: 4; fill: rgb(255,255,255); fill-rule: nonzero; opacity: 1;"  transform=" translate(-242.53, -442.9449989429)" d="M 231.91 434.89 a 30.44 30.44 0 0 0 -6.95 3.62 c -0.4 0.28 -0.8 0.57 -1.18 0.86 a 31.12 31.12 0 0 0 -5.77 5.81 c -0.28 0.37 -0.55 0.75 -0.82 1.14 a 31.22 31.22 0 0 0 -3.45 6.57 h 57.58 a 30.76 30.76 0 0 0 -3.45 -6.57 c -0.39 -0.56 -0.8 -1.12 -1.22 -1.65 a 31 31 0 0 0 -5.37 -5.3 c -0.52 -0.39 -1 -0.77 -1.58 -1.13 a 30.32 30.32 0 0 0 -13.89 -5.06 a 29.77 29.77 0 0 0 -3.28 -0.18 a 32.13 32.13 0 0 0 -3.67 0.22 A 30.12 30.12 0 0 0 231.91 434.89 Z" stroke-linecap="round" />
</g>
		<g transform="matrix(0.4567858623 0 0 0.4567858623 0.0316821217 75.9355974085)"  >
<path style="stroke: none; stroke-width: 1; stroke-dasharray: none; stroke-linecap: butt; stroke-dashoffset: 0; stroke-linejoin: miter; stroke-miterlimit: 4; fill: rgb(255,255,255); fill-rule: nonzero; opacity: 1;"  transform=" translate(-242.55, -442.815)" d="M 238.8 425.32 h 0 a 38.27 38.27 0 0 0 -14.13 4.19 a 39.93 39.93 0 0 0 -4 2.39 c -1.06 0.73 -2.1 1.53 -3.09 2.36 a 39.29 39.29 0 0 0 -4.68 4.71 a 38.79 38.79 0 0 0 -2.38 3.15 a 39.51 39.51 0 0 0 -2.33 3.91 a 38.56 38.56 0 0 0 -4.14 14.13 l 0 0.31 h 77 l 0 -0.31 a 38.24 38.24 0 0 0 -1.33 -7.06 a 37.74 37.74 0 0 0 -2.81 -7.07 a 38.24 38.24 0 0 0 -2.73 -4.5 c -0.63 -0.88 -1.29 -1.75 -2 -2.56 a 39.09 39.09 0 0 0 -5.08 -5.05 c -0.86 -0.7 -1.77 -1.38 -2.69 -2 a 39.43 39.43 0 0 0 -4.38 -2.6 a 38.63 38.63 0 0 0 -7.06 -2.74 a 39.43 39.43 0 0 0 -7.07 -1.28 c -1.09 -0.09 -2.22 -0.14 -3.33 -0.14 S 240 425.2 238.8 425.32 Z m 7 0.25 a 38.22 38.22 0 0 1 18.37 6.57 c 0.92 0.63 1.81 1.3 2.67 2 a 39.18 39.18 0 0 1 5.05 5 c 0.69 0.82 1.34 1.67 2 2.55 a 38.15 38.15 0 0 1 6.82 18.49 H 204.35 a 38.69 38.69 0 0 1 1.32 -7 a 38.08 38.08 0 0 1 2.79 -7 a 39.68 39.68 0 0 1 2.31 -3.88 a 38.94 38.94 0 0 1 7 -7.8 q 1.47 -1.25 3.06 -2.34 a 39.4 39.4 0 0 1 4 -2.38 a 37.9 37.9 0 0 1 7 -2.82 a 38.61 38.61 0 0 1 7 -1.34 c 1.22 -0.12 2.46 -0.18 3.71 -0.18 S 244.75 425.47 245.84 425.57 Z" stroke-linecap="round" />
</g>
		<g transform="matrix(0.4567858623 0 0 0.4567858623 0.027114263 75.993292161)"  >
<path style="stroke: none; stroke-width: 1; stroke-dasharray: none; stroke-linecap: butt; stroke-dashoffset: 0; stroke-linejoin: miter; stroke-miterlimit: 4; fill: rgb(255,255,255); fill-rule: nonzero; opacity: 1;"  transform=" translate(-242.54, -442.9413059067)" d="M 231.81 434.62 a 31 31 0 0 0 -7 3.66 c -0.4 0.28 -0.8 0.57 -1.19 0.87 a 31.35 31.35 0 0 0 -5.82 5.86 c -0.29 0.38 -0.57 0.76 -0.84 1.15 a 31.41 31.41 0 0 0 -3.61 7 h 58.38 a 31 31 0 0 0 -3.61 -7 c -0.39 -0.57 -0.8 -1.12 -1.23 -1.66 a 31.24 31.24 0 0 0 -5.43 -5.35 c -0.52 -0.4 -1.05 -0.78 -1.59 -1.15 a 31.11 31.11 0 0 0 -7 -3.52 a 31.2 31.2 0 0 0 -14 -1.54 A 30.92 30.92 0 0 0 231.81 434.62 Z m 14 -1.44 a 30.32 30.32 0 0 1 13.89 5.06 c 0.54 0.36 1.06 0.74 1.58 1.13 a 31 31 0 0 1 5.37 5.3 c 0.42 0.53 0.83 1.09 1.22 1.65 a 30.76 30.76 0 0 1 3.45 6.57 H 213.74 a 31.22 31.22 0 0 1 3.45 -6.57 c 0.27 -0.39 0.54 -0.77 0.82 -1.14 a 31.12 31.12 0 0 1 5.77 -5.81 c 0.38 -0.29 0.78 -0.58 1.18 -0.86 a 30.44 30.44 0 0 1 6.95 -3.62 a 30.12 30.12 0 0 1 7 -1.67 a 32.13 32.13 0 0 1 3.67 -0.22 A 29.77 29.77 0 0 1 245.81 433.18 Z" stroke-linecap="round" />
</g>
		<g transform="matrix(0.4567858623 0 0 0.4567858623 0.0134106873 75.9173259739)"  >
<path style="stroke: none; stroke-width: 1; stroke-dasharray: none; stroke-linecap: butt; stroke-dashoffset: 0; stroke-linejoin: miter; stroke-miterlimit: 4; fill: rgb(255,255,255); fill-rule: nonzero; opacity: 1;"  transform=" translate(-242.51, -442.775)" d="M 231.81 426.94 a 37.9 37.9 0 0 0 -7 2.82 a 39.4 39.4 0 0 0 -4 2.38 q -1.59 1.1 -3.06 2.34 a 38.94 38.94 0 0 0 -7 7.8 a 39.68 39.68 0 0 0 -2.31 3.88 a 38.08 38.08 0 0 0 -2.79 7 a 38.69 38.69 0 0 0 -1.32 7 h 76.36 a 38.18 38.18 0 0 0 -6.82 -18.49 c -0.62 -0.88 -1.27 -1.73 -2 -2.55 a 39.18 39.18 0 0 0 -5.05 -5 c -0.86 -0.7 -1.75 -1.37 -2.67 -2 a 38 38 0 0 0 -4.35 -2.58 a 37.9 37.9 0 0 0 -14 -4 c -1.09 -0.1 -2.19 -0.15 -3.31 -0.15 s -2.49 0.06 -3.71 0.18 A 38.61 38.61 0 0 0 231.81 426.94 Z m 14 -1.09 a 37.61 37.61 0 0 1 13.92 4 a 36.89 36.89 0 0 1 4.32 2.56 c 0.91 0.62 1.8 1.29 2.65 2 a 38.56 38.56 0 0 1 5 5 c 0.68 0.81 1.33 1.66 2 2.53 a 38.43 38.43 0 0 1 2.69 4.43 a 38 38 0 0 1 2.77 7 a 38.48 38.48 0 0 1 1.28 6.65 H 204.67 a 37.36 37.36 0 0 1 1.27 -6.65 a 38 38 0 0 1 2.77 -7 a 38.36 38.36 0 0 1 2.3 -3.85 a 35.58 35.58 0 0 1 2.34 -3.11 a 38.2 38.2 0 0 1 4.62 -4.64 c 1 -0.82 2 -1.6 3 -2.32 a 38.79 38.79 0 0 1 3.92 -2.36 a 38.07 38.07 0 0 1 7 -2.8 a 38.89 38.89 0 0 1 7 -1.33 h 0 c 1.21 -0.11 2.45 -0.17 3.68 -0.17 S 244.73 425.75 245.81 425.85 Z" stroke-linecap="round" />
</g>
		<g transform="matrix(0.4567858623 0 0 0.4567858623 0.0248303337 75.9972563638)"  >
<path style="stroke: none; stroke-width: 1; stroke-dasharray: none; stroke-linecap: butt; stroke-dashoffset: 0; stroke-linejoin: miter; stroke-miterlimit: 4; fill: rgb(255,255,255); fill-rule: nonzero; opacity: 1;"  transform=" translate(-242.535, -442.9499843778)" d="M 231.71 434.35 a 31.56 31.56 0 0 0 -7.07 3.7 c -0.41 0.28 -0.82 0.58 -1.2 0.88 a 31.64 31.64 0 0 0 -5.88 5.91 c -0.28 0.37 -0.57 0.77 -0.84 1.16 a 31.66 31.66 0 0 0 -3.65 7.08 l -0.13 0.38 h 59.19 l -0.14 -0.38 a 31.25 31.25 0 0 0 -3.65 -7.08 c -0.4 -0.58 -0.81 -1.14 -1.24 -1.68 a 31.41 31.41 0 0 0 -5.48 -5.39 c -0.52 -0.41 -1.06 -0.8 -1.6 -1.16 a 31.25 31.25 0 0 0 -14.15 -5.16 c -1.1 -0.11 -2.22 -0.17 -3.34 -0.17 a 31.15 31.15 0 0 0 -3.74 0.22 A 31.77 31.77 0 0 0 231.71 434.35 Z m 14.13 -1.45 a 30.26 30.26 0 0 1 7 1.58 a 31.11 31.11 0 0 1 7 3.52 c 0.54 0.37 1.07 0.75 1.59 1.15 a 31.24 31.24 0 0 1 5.43 5.35 c 0.43 0.54 0.84 1.09 1.23 1.66 a 31 31 0 0 1 3.61 7 H 213.34 a 31.41 31.41 0 0 1 3.61 -7 c 0.27 -0.39 0.55 -0.77 0.84 -1.15 a 31.35 31.35 0 0 1 5.82 -5.86 c 0.39 -0.3 0.79 -0.59 1.19 -0.87 a 30.81 30.81 0 0 1 14 -5.34 a 31 31 0 0 1 7 0 Z" stroke-linecap="round" />
</g>
		<g transform="matrix(0.4567858623 0 0 0.4567858623 0 85.5124059003)"  >
<path style="stroke: none; stroke-width: 1; stroke-dasharray: none; stroke-linecap: butt; stroke-dashoffset: 0; stroke-linejoin: miter; stroke-miterlimit: 4; fill: rgb(255,255,255); fill-rule: nonzero; opacity: 1;"  transform=" translate(-242.4806411946, -463.7806411946)" d="M 198.53 463.77 a 43.95 43.95 0 1 0 43.94 -43.94 A 43.94 43.94 0 0 0 198.53 463.77 Z m 33.56 3.15 v 7.58 h -18.4 a 30.56 30.56 0 0 0 3.4 6.57 c 0.28 0.42 0.6 0.85 0.92 1.28 A 30.94 30.94 0 0 0 223.6 488 c 0.44 0.34 0.9 0.68 1.36 1 a 30.42 30.42 0 0 0 13.58 5.25 V 466.92 H 281 l 0 0.31 a 38.66 38.66 0 0 1 -4.07 14.13 a 39.23 39.23 0 0 1 -2.81 4.64 c -0.58 0.82 -1.2 1.63 -1.85 2.42 a 39.31 39.31 0 0 1 -5.21 5.19 c -0.8 0.65 -1.63 1.28 -2.48 1.87 a 38.16 38.16 0 0 1 -4.59 2.75 l -0.41 0.21 v -9.06 l 0.12 -0.08 c 0.61 -0.41 1.2 -0.84 1.76 -1.28 a 30.9 30.9 0 0 0 5.19 -5.16 c 0.46 -0.58 0.91 -1.18 1.32 -1.79 a 30.56 30.56 0 0 0 3.4 -6.57 H 246.12 v 27.73 l -0.26 0 c -1.09 0.09 -2.22 0.14 -3.33 0.14 s -2.5 -0.06 -3.73 -0.18 a 38.38 38.38 0 0 1 -7.07 -1.35 a 37.76 37.76 0 0 1 -7.06 -2.84 a 37.38 37.38 0 0 1 -4.19 -2.54 a 36 36 0 0 1 -2.88 -2.21 a 39.27 39.27 0 0 1 -4.8 -4.85 c -0.8 -1 -1.56 -2 -2.26 -3 a 41.68 41.68 0 0 1 -2.41 -4.06 a 38.66 38.66 0 0 1 -4.07 -14.13 l 0 -0.31 Z m 20.84 -40.36 A 38.63 38.63 0 0 1 260 429.3 a 39.43 39.43 0 0 1 4.38 2.6 c 0.92 0.64 1.83 1.32 2.69 2 a 39.09 39.09 0 0 1 5.08 5.05 c 0.69 0.81 1.35 1.68 2 2.56 a 38.24 38.24 0 0 1 2.73 4.5 a 37.74 37.74 0 0 1 2.81 7.07 a 38.24 38.24 0 0 1 1.33 7.06 l 0 0.31 H 204 l 0 -0.31 A 38.56 38.56 0 0 1 208.21 446 a 39.51 39.51 0 0 1 2.33 -3.91 a 38.79 38.79 0 0 1 2.38 -3.15 a 39.29 39.29 0 0 1 4.68 -4.71 c 1 -0.83 2 -1.63 3.09 -2.36 a 39.93 39.93 0 0 1 4 -2.39 a 38.27 38.27 0 0 1 14.13 -4.19 h 0 c 1.23 -0.12 2.48 -0.18 3.73 -0.18 s 2.24 0.05 3.33 0.14 A 39.43 39.43 0 0 1 252.93 426.56 Z" stroke-linecap="round" />
</g>
		<g transform="matrix(0.4567858623 0 0 0.4567858623 0.0088428286 95.0429500283)"  >
<path style="stroke: none; stroke-width: 1; stroke-dasharray: none; stroke-linecap: butt; stroke-dashoffset: 0; stroke-linejoin: miter; stroke-miterlimit: 4; fill: rgb(255,255,255); fill-rule: nonzero; opacity: 1;"  transform=" translate(-242.5, -484.645)" d="M 205.36 474.29 a 38.56 38.56 0 0 0 2.77 7.07 a 41.68 41.68 0 0 0 2.41 4.06 c 0.7 1 1.46 2 2.26 3 a 39.27 39.27 0 0 0 4.8 4.85 a 36 36 0 0 0 2.88 2.21 a 37.38 37.38 0 0 0 4.19 2.54 a 37.76 37.76 0 0 0 7.06 2.84 a 38.38 38.38 0 0 0 7.07 1.35 c 1.23 0.12 2.48 0.18 3.73 0.18 s 2.24 -0.05 3.33 -0.14 l 0.26 0 V 474.5 h 25.25 a 30.56 30.56 0 0 1 -3.4 6.57 c -0.41 0.61 -0.86 1.21 -1.32 1.79 a 30.9 30.9 0 0 1 -5.19 5.16 c -0.56 0.44 -1.15 0.87 -1.76 1.28 l -0.12 0.08 v 9.06 l 0.41 -0.21 a 38.16 38.16 0 0 0 4.59 -2.75 c 0.85 -0.59 1.68 -1.22 2.48 -1.87 a 39.31 39.31 0 0 0 5.21 -5.19 c 0.65 -0.79 1.27 -1.6 1.85 -2.42 a 39.23 39.23 0 0 0 2.81 -4.64 A 38.66 38.66 0 0 0 281 467.23 l 0 -0.31 H 238.54 v 27.35 A 30.42 30.42 0 0 1 225 489 c -0.46 -0.32 -0.92 -0.66 -1.36 -1 a 30.94 30.94 0 0 1 -5.59 -5.67 c -0.32 -0.43 -0.64 -0.86 -0.92 -1.28 a 30.56 30.56 0 0 1 -3.4 -6.57 h 18.4 v -7.58 H 204 l 0 0.31 A 38.34 38.34 0 0 0 205.36 474.29 Z m 26.45 -7.09 v 7 H 213.29 a 30.33 30.33 0 0 0 3.57 7 q 0.44 0.66 0.93 1.29 a 31.12 31.12 0 0 0 5.63 5.72 c 0.45 0.35 0.91 0.69 1.38 1 a 30.81 30.81 0 0 0 14 5.34 V 467.2 h 41.9 a 37.71 37.71 0 0 1 -1.29 7 a 38.48 38.48 0 0 1 -2.75 7 a 40.64 40.64 0 0 1 -2.79 4.61 c -0.58 0.82 -1.2 1.62 -1.84 2.4 a 38.71 38.71 0 0 1 -5.17 5.15 q -1.2 1 -2.46 1.86 a 38.71 38.71 0 0 1 -4.56 2.73 v -8.45 c 0.61 -0.41 1.2 -0.84 1.78 -1.29 a 31.5 31.5 0 0 0 5.24 -5.21 c 0.46 -0.58 0.91 -1.18 1.33 -1.8 a 31.13 31.13 0 0 0 3.57 -7 H 245.84 V 502 c -1.09 0.09 -2.19 0.14 -3.31 0.14 s -2.49 -0.06 -3.71 -0.18 a 38.22 38.22 0 0 1 -18.18 -6.68 c -1 -0.68 -1.94 -1.42 -2.85 -2.19 a 39.57 39.57 0 0 1 -4.78 -4.82 c -0.79 -1 -1.54 -1.95 -2.24 -3 a 38.75 38.75 0 0 1 -2.38 -4 a 38.14 38.14 0 0 1 -4 -14 Z" stroke-linecap="round" />
</g>
		<g transform="matrix(0.4567858623 0 0 0.4567858623 0.0179785458 95.0566536041)"  >
<path style="stroke: none; stroke-width: 1; stroke-dasharray: none; stroke-linecap: butt; stroke-dashoffset: 0; stroke-linejoin: miter; stroke-miterlimit: 4; fill: rgb(255,255,255); fill-rule: nonzero; opacity: 1;"  transform=" translate(-242.52, -484.675)" d="M 208.39 481.23 a 38.75 38.75 0 0 0 2.38 4 c 0.7 1 1.45 2 2.24 3 a 39.57 39.57 0 0 0 4.78 4.82 c 0.91 0.77 1.87 1.51 2.85 2.19 a 37.42 37.42 0 0 0 4.16 2.52 a 38 38 0 0 0 14 4.16 c 1.22 0.12 2.46 0.18 3.71 0.18 s 2.22 -0.05 3.31 -0.14 V 474.21 h 25.94 a 31.13 31.13 0 0 1 -3.57 7 c -0.42 0.62 -0.87 1.22 -1.33 1.8 a 31.5 31.5 0 0 1 -5.24 5.21 c -0.58 0.45 -1.17 0.88 -1.78 1.29 V 498 a 38.71 38.71 0 0 0 4.56 -2.73 q 1.26 -0.88 2.46 -1.86 a 38.71 38.71 0 0 0 5.17 -5.15 c 0.64 -0.78 1.26 -1.58 1.84 -2.4 a 40.64 40.64 0 0 0 2.79 -4.61 a 38.48 38.48 0 0 0 2.75 -7 a 37.71 37.71 0 0 0 1.29 -7 h -41.9 v 27.39 a 30.81 30.81 0 0 1 -14 -5.34 c -0.47 -0.32 -0.93 -0.66 -1.38 -1 a 31.12 31.12 0 0 1 -5.63 -5.72 q -0.49 -0.63 -0.93 -1.29 a 30.33 30.33 0 0 1 -3.57 -7 h 18.52 v -7 H 204.34 a 38.14 38.14 0 0 0 4 14 Z m -3.74 -13.75 h 26.88 v 6.45 H 212.88 l 0.14 0.38 a 30.79 30.79 0 0 0 3.6 7.07 c 0.29 0.43 0.61 0.87 0.94 1.31 a 31.4 31.4 0 0 0 5.69 5.77 c 0.45 0.35 0.91 0.7 1.39 1 a 31.17 31.17 0 0 0 14.15 5.39 l 0.32 0 V 467.48 h 41.3 a 37.65 37.65 0 0 1 -6.75 18.19 c -0.57 0.81 -1.19 1.61 -1.83 2.39 a 38.11 38.11 0 0 1 -5.13 5.11 c -0.79 0.65 -1.61 1.27 -2.44 1.85 a 38.41 38.41 0 0 1 -4.11 2.49 v -7.83 c 0.57 -0.39 1.13 -0.8 1.66 -1.22 a 31.66 31.66 0 0 0 5.29 -5.25 c 0.46 -0.58 0.91 -1.2 1.34 -1.82 a 31.06 31.06 0 0 0 3.6 -7.08 l 0.14 -0.38 H 245.55 v 27.78 c -1 0.08 -2 0.12 -3 0.12 c -1.23 0 -2.47 -0.06 -3.68 -0.18 a 37.72 37.72 0 0 1 -13.92 -4.13 a 38.77 38.77 0 0 1 -4.13 -2.5 c -1 -0.68 -1.92 -1.41 -2.83 -2.18 a 38.91 38.91 0 0 1 -4.74 -4.78 a 36.82 36.82 0 0 1 -2.22 -3 a 37.54 37.54 0 0 1 -2.37 -4 a 38.13 38.13 0 0 1 -2.74 -7 A 38.53 38.53 0 0 1 204.65 467.48 Z" stroke-linecap="round" />
</g>
		<g transform="matrix(0 -0.4567858623 0.4567858623 0 0.5553983795 -21.4783643956)" style=""  >
		<text xml:space="preserve" font-family="MyriadPro-Regular, Myriad Pro" font-size="51.98" font-style="normal" font-weight="normal" style="stroke: none; stroke-width: 1; stroke-dasharray: none; stroke-linecap: butt; stroke-dashoffset: 0; stroke-linejoin: miter; stroke-miterlimit: 4; fill: rgb(255,255,255); fill-rule: nonzero; opacity: 1; white-space: pre;" ><tspan x="-184.1345814453" y="16.3289972" >B</tspan><tspan x="-145.3059275391" y="16.3289972" >R</tspan><tspan x="-106.4772736328" y="16.3289972" >A</tspan><tspan x="-64.7805826172" y="16.3289972" >N</tspan><tspan x="-23.0838916016" y="16.3289972" >D</tspan><tspan x="18.6127994141" y="16.3289972" >N</tspan><tspan x="60.3094904297" y="16.3289972" >A</tspan><tspan x="102.0061814453" y="16.3289972" >M</tspan><tspan x="152.3831263672" y="16.3289972" >E</tspan></text>
</g>
</g>
</g>
</g>
</g>
</svg>