<svg xmlns="http://www.w3.org/2000/svg" height="512" viewBox="0 0 64 64" width="512"><g id="_x34_9_3D_Printer"><g><path d="m58 56h-52c-1.104 0-2 .896-2 2v4c0 1.104.896 2 2 2h52c1.104 0 2-.896 2-2v-4c0-1.104-.896-2-2-2z"></path><path d="m24 48h16v4h-16z"></path><circle cx="32" cy="42" r="2"></circle><path d="m54 52v-30h-16v4c0 .758-.428 1.45-1.105 1.789l-4 2c-.282.141-.588.211-.895.211s-.613-.07-.895-.211l-4-2c-.677-.339-1.105-1.031-1.105-1.789v-4h-16v30h10v-6c0-1.104.896-2 2-2h4.35c-.222-.627-.35-1.298-.35-2 0-3.309 2.691-6 6-6s6 2.691 6 6c0 .702-.128 1.373-.35 2h4.35c1.104 0 2 .896 2 2v6z"></path><path d="m34 24.764v-2.764h-4v2.764l2 1z"></path><path d="m54 2c0-1.104-.896-2-2-2h-40c-1.104 0-2 .896-2 2v4h44z"></path><path d="m40 10h-16c-1.104 0-2 .896-2 2v4c0 1.104.896 2 2 2h16c1.104 0 2-.896 2-2v-4c0-1.104-.896-2-2-2z"></path><path d="m6 18h12v-8h-8-2-2c-1.104 0-2 .896-2 2v4c0 1.104.896 2 2 2z"></path><path d="m58 10h-4-8v8h12c1.104 0 2-.896 2-2v-4c0-1.104-.896-2-2-2z"></path></g></g></svg>