<svg xmlns="http://www.w3.org/2000/svg" clip-rule="evenodd" fill-rule="evenodd" height="512" stroke-linejoin="round" stroke-miterlimit="2" viewBox="0 0 32 32" width="512"><g transform="translate(0 -288)"><path d="m27 294v12c0 1.326-.527 2.598-1.464 3.536-.938.937-2.21 1.464-3.536 1.464-4.363 0-10 0-10 0-.552 0-1 .448-1 1s.448 1 1 1h8.649s4.726 3.781 4.726 3.781c.3.24.712.287 1.058.12.347-.166.567-.517.567-.901v-3h1c.796 0 1.559-.316 2.121-.879.563-.562.879-1.325.879-2.121 0-3.463 0-10.537 0-14 0-.796-.316-1.559-.879-2.121-.562-.563-1.325-.879-2.121-.879-.552 0-1 .448-1 1zm-22 15v3c0 .384.22.735.567.901.346.167.758.12 1.058-.12l4.726-3.781h10.649c.796 0 1.559-.316 2.121-.879.563-.562.879-1.325.879-2.121 0-3.463 0-10.537 0-14 0-.796-.316-1.559-.879-2.121-.562-.563-1.325-.879-2.121-.879-4.184 0-13.816 0-18 0-.796 0-1.559.316-2.121.879-.563.562-.879 1.325-.879 2.121v14c0 .796.316 1.559.879 2.121.562.563 1.325.879 2.121.879zm3.994-8h-.993c-.552 0-1 .448-1 1s.448 1 1 1h.993c.552 0 1-.448 1-1s-.448-1-1-1zm9.007 0h-5.001c-.552 0-1 .448-1 1s.448 1 1 1h5.001c.552 0 1-.448 1-1s-.448-1-1-1zm-.993-4h.992c.552 0 1-.448 1-1s-.448-1-1-1h-.992c-.552 0-1 .448-1 1s.448 1 1 1zm-9.008 0h5.001c.552 0 1-.448 1-1s-.448-1-1-1h-5.001c-.552 0-1 .448-1 1s.448 1 1 1z"></path></g></svg>