<svg xmlns="http://www.w3.org/2000/svg" id="Layer_1" height="512" viewBox="0 0 459.046 459.046" width="512"><g><path d="m370.034 242.637c2.278-6.033 4.144-11.742 4.166-12.761 0-1.08.562-2.015 1.503-2.487 1.877-.948 3.462.227 7.698 3.37 3.787 2.812 8.954 6.646 12.608 7.49.34.08.766.095 1.387-.4 3.795-3.019 6.345-16.539 6.345-27.272v-11.27c-3.068-2.369-12.331-9.513-16.043-12.295-1.644-1.233-2.032-2.652-2.07-3.625-.104-2.745 2.231-4.794 4.703-6.962 2.081-1.827 3.147-2.949 3.185-3.348 0-1.301-3.531-5.328-5.039-7.048-3.081-3.512-4.624-5.271-3.923-7.373.449-1.348 1.676-2.009 3.373-2.925 1.646-.888 4.396-2.372 4.564-3.835.11-.953-.865-2.42-2.677-4.021-8.828-7.81-25.45-11.606-27.511-18.313-.424-1.376-.259-2.794.477-4.102 1.821-3.238 2.436-13.236 1.438-22.678-53.361 61.689-119.558 97.36-190.964 110.063-40.588 7.223-78.859 5.636-99.404 2.068-3.032 2.013-12.135 8.804-13.569 18.56-1.635 11.109 9.551 14.611 18.434 21.948 1.447 1.195 3.353 3.064 3.192 5.489-.41 6.23-13.298 6.427-17.157 19.491-2.118 7.167-.123 8.072 3.853 9.876 3.182 1.443 7.99 3.623 7.99 10.625 0 10.51 7.65 27.284 21.484 30.122 14.977 3.073 29.683 12.602 36.725 14.011 7.637 1.527 18.511-.906 19.384-.78 3.501.697 22.324 4.092 49.056 2.295 36.257-2.434 70.682-13.566 99.591-32.205-2.11-4.335-.004-7.464 1.547-9.768 2.264-3.357 4.051-6.009-7.058-14.779-3.878-3.061-5.49-6.072-4.93-9.208 1.292-7.223 14.084-11.382 31.79-17.138 16.517-5.369 35.224-11.451 45.852-20.815z"></path><path d="m88.335 178.017c1.857 2.306 6.293 4.087 6.338 7.169.014.969-.405 1.857-1.179 2.502-1.741 1.451-8.898 2.73-16.07 4.157-12.525 2.477-19.958 4.331-22.119 5.519 1.122 2.106 8.991 7.637 18.837 12.523 4.737.866 44.772 7.576 98.403-1.994 51.79-9.242 126.891-36.108 190.688-111.625-.719-3.54-1.648-6.424-2.766-8.576-1.782-3.438-3.252-3.796-5.286-4.291-4.009-.975-7.241-2.495-9.331-12.243-3.067-14.323-23.524-11.066-28.146-19.382-3.321-5.979-17.922-15.969-29.181-13.904-12.079 2.196-22.765 11.041-23.342 15.651-.406 3.255-2.393 4.271-3.541 4.589-4.154 1.135-9.835-3.536-12.195-6.225-1.628.775-5.65 4.693-9.361 9.643-1.245 1.657-3.834 1.162-4.402-.807-.225-.776-5.178-19.182 22.847-33.594 3.44-1.77 5.165-3.01 6.025-3.781-6.635-1.207-27.443 3.232-35.15 12.523-.742.896-2.03 1.158-3.068.628-.562-.29-13.756-7.324-15.361-27.782-.276-3.521-1.982-6.009-5.074-7.394-10.684-4.787-35.357 4.537-42.524 9.989-1.714 1.303-1.655 1.83-1.652 1.852.471 3.109 20.25 7.116 24.078 9.027 1.372.687 2.297 1.778 2.675 3.159 1.714 6.277-9.907 16.948-11.171 24.848-.89 5.563 22.016 3.89 33.006 14.88 5.685 5.685 7.196 8.714 5.576 11.178-1.897 2.89-6.226 2.905-25.688-4.813-14.729-5.844-24.257-4.09-28.178-2.799 3.135 4.559 9.155 14.649 6.425 21.476-2.644 6.609-13.019 13.255-17.899 11.468-.699-.257-4.095-1.807-2.322-7.127 1.252-3.754.873-8.891-2.272-11.446-4.164-3.385-12.426-1.768-23.258 4.55-14.194 8.28-12.093 12.163-8.277 19.211 2.72 5.022 6.104 11.273 3.34 19.916-5.642 17.626-11.485 18.899-20.241 19.1 3.423 3.584 10.633 8.957 12.521 12.728 4.125 8.255-16.04 15.724-21.705 19.497z"></path><path d="m356.16 357.457c7.124-20.422-38.882-29.337-50.257-39.146-34.089 22.087-74.876 33.76-117.979 33.76-14.634 0-25.491-1.378-30.984-2.271.029 3.724-1.308 10.184-9.497 15.67-.501.339-1.11.48-1.708.404-.024-.007-2.698-.299-5.423 1.946-3.313 2.729-5.378 8.141-5.971 15.652-1.755 22.239-8.306 22.604 7.048 32.953 3.728 2.514 6.968 4.763 9.57 6.569 16.819 11.672 17.732 11.484 26.463 9.714 4.014-.818 8.187-1.655 12.33-1.655 7.371 0 12.382 2.696 15.317 8.242 1.993 3.788 10.218 19.907 14.51 19.748 3.927-.126 6.788-19.747 17.284-21.125 4.881-.655 10.219 2.779 16.788 10.811 2.798 3.419 5.414 5.081 7.996 5.081 9.065 0 18.628-19.576 29.97-28.734 4.698-3.795 7.825-5.045 10.454-4.188 6.392 2.099 3.903 14.151 11.757 23.244 1.755 2.032 2.886 1.779 3.262 1.695 4.736-1.055 10.313-14.197 12.986-22.984-3.607-2.903-14.24-12.307-17.707-24.69-4.868-17.392 35.504-16.939 43.791-40.696z"></path></g></svg>