<svg xmlns="http://www.w3.org/2000/svg" id="Capa_1" height="512" viewBox="0 0 512 512" width="512"><g><path d="m310.246 147.625 40.111 32.089 34.046-6.809 7.739-30.957c1.346-5.384 5.555-9.585 10.941-10.921l66.401-16.468c-20.355-30.642-47.13-56.644-78.41-76.094l-88.639 54.493z"></path><path d="m445.141 308.691c-4.479 2.986-10.214 3.343-15.029.936l-32.802-16.401-33.137 19.882 15.663 52.039 88.758 33.735c26.071-38.713 41.832-84.938 43.379-134.746z"></path><path d="m221.28 429.694-8.45-42.241-42.665-17.065c-9.164-3.666-12.351-15.031-6.429-22.927l27.125-36.167v-45.208c0-3.978 1.58-7.793 4.393-10.606l30.674-30.674-28.165-35.206-21.237 44.708c-7.527 15.848-23.103 25.692-40.647 25.692s-33.119-9.844-40.647-25.691l-12.197-25.679c-3.731 2.242-8.255 2.779-12.411 1.409l-61.883-20.4c-5.672 21.18-8.714 43.435-8.714 66.404 0 139.168 111.031 252.403 249.343 255.957l10.06-56.757-30.149-15.075c-4.141-2.07-7.093-5.935-8.001-10.474z"></path><path d="m40.992 120.119c-.279-.587-.539-1.18-.807-1.77-8.607 13.468-15.994 27.791-21.994 42.819l50.151 16.532z"></path><path d="m353.238 380.867-21.157-70.292c-1.979-6.574.759-13.653 6.646-17.186l50.208-30.125c4.398-2.639 9.839-2.848 14.426-.554l32.381 16.19 74.943-49.962c-3.275-31.121-12.13-60.574-25.538-87.355l-66.088 16.39-7.854 31.417c-1.406 5.624-5.926 9.934-11.61 11.071l-50.208 10.042c-4.345.869-8.852-.228-12.312-2.996l-50.209-40.167c-2.98-2.384-4.939-5.814-5.479-9.592l-10.041-70.292c-.845-5.916 1.902-11.77 6.993-14.9l82.009-50.417c-31.853-14.222-67.139-22.139-104.278-22.139-14.701 0-29.109 1.248-43.132 3.627 4.316 4.677 8.254 9.782 11.738 15.293 19.362 30.634 21.639 68.464 6.091 101.198l-19.721 41.518c2.557.942 4.817 2.564 6.529 4.704l40.167 50.208c4.775 5.968 4.298 14.573-1.107 19.977l-35.774 35.773v43.995c0 3.246-1.053 6.404-3 9l-18.381 24.509 32.036 12.814c4.706 1.883 8.143 6.015 9.138 10.985l8.604 43.015 33.604 16.802c5.941 2.97 9.221 9.494 8.061 16.034l-10.903 61.51c67.553-6.268 127.498-38.762 169.536-87.223l-87.284-33.175c-4.353-1.654-7.691-5.237-9.034-9.697z"></path><path d="m122.33 221.436c5.424 11.419 21.674 11.419 27.098 0l54.24-114.189c11.108-23.386 9.481-50.413-4.352-72.297-13.832-21.885-37.547-34.95-63.437-34.95s-49.605 13.065-63.438 34.95-15.459 48.911-4.351 72.297zm13.549-161.436c8.284 0 15 6.716 15 15s-6.716 15-15 15-15-6.716-15-15 6.716-15 15-15z"></path></g></svg>