<svg xmlns="http://www.w3.org/2000/svg" id="Layer_1" height="512" viewBox="0 0 512 512" width="512"><path clip-rule="evenodd" d="m108.127 333.275c1.006 3.354-12.913 13.416-3.354 20.627 6.373 4.696-7.379 4.193 14.422 18.448 12.746 8.385 5.366.503 17.106 3.69 4.864 1.173.839 4.696 6.876 1.006 6.205-3.857 7.882 7.211 26.832 6.54 13.752-.503-12.913 15.261-13.416 24.82-.168 2.012-.839 2.85-1.174 4.528-3.522 3.186-8.05 16.602-7.211 21.466.168 1.006-.503 6.373-2.348 5.87-1.006.671-7.882 28.677.838 28.174 3.186-.167 21.969-1.006 23.311-1.845 7.882-5.366 10.062 6.373 11.069-3.69.503-5.366 7.714-10.23 13.248-2.012 5.534 8.385 10.397-6.373 12.913-6.373 12.41 0-1.342 6.708 20.124 9.056 23.143 2.515 11.739 22.64 19.454 22.807 19.621.503 0-14.422 19.286-16.938.336 0 .839-.335 1.342-.503 0 0 4.025 2.683 7.547 6.876.503.336 21.13 4.696 25.323-1.174 10.733-14.757 15.428-6.205 26.832-18.279 9.727-10.062 13.752 5.702 14.925 5.702 10.398.336 9.056-11.571 15.932 6.205 2.012 5.702 24.149 1.341 0-24.82-14.423-15.429 26.162-26.665 26.162-35.721 0-7.547 24.317-10.566-12.746-26.162-2.515-1.006-3.019-2.013-4.528-3.019-1.677-.839-2.683-9.727-11.739-15.597-9.224-5.869-23.982-11.404-16.603-28.845.168-.335.336-.671.336-.838v-.168c4.192-13.919-30.522-18.112-15.261-28.342 8.553-5.702.167 9.224 15.093-6.372 1.677-1.677 8.888-.336 16.435-3.354 7.714-3.186 17.776-13.919 30.858-16.938 2.18-.503 5.199-4.36 8.553-4.864 1.006-4.528 21.634 1.342 1.845-14.255-2.683-2.013 6.205-12.578 18.783 7.044 4.025 6.204 11.404 3.522 11.404-10.062 0-13.752-11.572-11.739-7.715-26.833 3.187-12.41 8.721.671-9.056-18.447-11.571-12.243 11.739-17.106 3.354-34.379v-.168c-1.51-3.187-4.193-6.708-8.217-10.733l-.336-.671c-10.23-8.385-27.168-7.715-7.547-26.162 5.031-4.695-7.714-19.789-.167-38.572 4.695-11.404-25.156 3.019-24.82-7.379.503-19.622 10.733-13.92-5.869-14.423-12.746-.335 14.087-24.988-17.274-21.969-.336.168-15.429 8.218-19.118 9.224-12.41 3.522-14.59 7.379-32.534 10.397-10.062 1.845 12.242 27.839-28.677 14.758-18.28-5.702 23.478-26.162 9.727-25.491-6.54.503-8.553 10.565-18.95.671-.168 0-4.696-1.677-5.031-1.845-5.702-10.397-23.311 7.547-14.422-16.435 3.019-8.72-13.248-2.012-32.535-17.441-17.776-14.423-50.814 9.056-10.397 28.174 11.739 5.534-13.248 5.031 12.075 22.137 18.447 12.578-32.032 6.708-19.622 25.155 4.864 7.043-3.522 4.36-5.869 12.913l-1.342 6.876c-27.503-7.714 8.385-11.236-12.41-18.448-1.174-.335-25.659.168-29.181 3.187-16.602 14.926 9.392 9.727-.335 27-3.857 6.708 5.366 35.386-12.243 29.013-5.366-2.013-2.348 3.187-4.192 9.895v.336c-.168.168-.168.335-.168.503-1.845 5.702 15.429 3.354 9.056 14.255-1.845 2.851-15.261 3.018-7.882 14.59 7.211 11.572-25.994 1.845-28.51 9.559-.503 1.341.503 9.391 2.348 9.056-4.36 4.863 3.522 6.708.838 16.602-1.51 5.031 2.851 12.578-8.217 13.92-.838.168-10.901 8.888-2.851 11.739 4.36 1.677-4.528 5.031 5.366 11.739.168 0 19.286 21.969 10.23 24.82-4.528 1.342-8.72 6.038-8.72 10.901-4.193 3.522 2.851 18.112 9.559 18.112 1.845 0 2.851.336 3.019.839.166.169.166.169.166.337z" fill="#141515" fill-rule="evenodd"></path></svg>