<svg xmlns="http://www.w3.org/2000/svg" data-name="02" viewBox="0 0 34 50.012499999999996" x="0px" y="0px"><defs><style>      .cls-1 {        fill-rule: evenodd;      }    </style></defs><path class="cls-1" d="m16.19,2.81c-.06-.1-.12-.19-.17-.25-.2-.25-.44-.42-.71-.51-.31-.1-.74-.12-1.19-.07-.21.02-.43.05-.63.06-.03,0-.06,0-.08,0-.08-.12-.21-.32-.3-.43-.23-.29-.52-.49-.87-.58-.53-.13-1.88-.58-2.73-.48-.78.09-1.31.49-1.48,1.21-.07.27-.09.68-.06,1.17.06.87.3,2.11.54,3.33.18.91.36,1.82.46,2.54l-.09-.06c-.44-.29-.89-.55-1.25-.66-.3-.09-.58-.1-.83-.05-.67.13-1.58.62-2.15,1.26-.5.56-.75,1.23-.64,1.89.05.31.25.71.6,1.12.48.56,1.32,1.23,1.96,1.87.12.12.25.28.35.42-.03.02-.06.03-.08.04-.32.14-.72.26-1.15.37-1.55.4-3.44.73-4.18,1.16-.84.48-1.5,1.42-1.5,2.87,0,.54.36,1.12,1.11,1.52.42.23.99.43,1.49.66.13.06.29.15.4.22-.02.05-.04.1-.06.14-.12.23-.27.46-.4.7-.35.61-.59,1.25-.53,1.87.18,1.77,1.26,6.01,2.15,7.43.38.61,1.14.88,2.02.92.25,0,.65.03.87.05,0,.09-.03.2-.04.31-.09.56-.28,1.24-.47,1.93-.25.91-.49,1.81-.56,2.49-.04.42-.02.78.06,1.05.21.72.77,1.21,1.54,1.47.75.25,1.73.26,2.42.26.63,0,1.38-.33,2.12-.82.42-.27.84-.58,1.25-.83.28-.17.53-.33.77-.37.15-.02.3.03.45.09.28.11.56.27.83.41.56.3,1.11.51,1.58.51.52,0,1.01-.26,1.45-.62.12-.1.31-.25.42-.34.09.06.21.15.3.22.3.25.61.57.93.84.63.54,1.3.9,1.9.9.55,0,1.2-.37,1.75-1.1.47-.62.93-1.52,1.36-2.28.22-.38.41-.73.6-.91.39-.39,1-.6,1.51-.73.04,0,.32.06.46.1.3.08.59.14.84.15.58.01,1.03-.2,1.34-.71.33-.56.94-1.84,1.2-3.15.2-1,.2-2.01-.15-2.77-.19-.42-.53-.83-.99-1.21-.53-.43-1.22-.84-1.92-1.25-.51-.29-1.02-.59-1.44-.89-.29-.21-.54-.41-.65-.65-.52-1.17-.14-2.95.79-3.89.27-.28.82-.4,1.43-.54,1.27-.29,2.81-.45,3.87-.76.63-.18,1.13-.42,1.43-.7.37-.34.55-.75.55-1.21,0-2.08-2.1-7.46-3.17-9.05-.38-.58-1.07-.87-1.86-.98-.3-.04-.61-.06-.89-.09-.06,0-.13-.02-.19-.03,0-.04.01-.09.02-.13.05-.26.13-.53.18-.81.15-.74.11-1.46-.27-2-.54-.75-1.65-2.08-2.88-3.06-.94-.75-1.95-1.28-2.85-1.36-.9-.08-2.05.36-3.17,1.02-.83.49-1.67,1.09-2.35,1.54-.14.09-.26.17-.38.24h0Zm3.73,19.75c1.12-1.62,2.08-3.55,2.08-5.35,0-3.44-2.7-6.21-6-6.21s-6,2.77-6,6.21c0,1.8.96,3.73,2.08,5.35-.87.28-1.59.64-2.08,1.05-.68.56-1,1.22-1,1.89s.34,1.36,1.04,1.93c1.12.9,3.36,1.57,5.96,1.57s4.84-.67,5.96-1.57c.71-.57,1.04-1.25,1.04-1.93s-.32-1.33-1-1.89c-.49-.41-1.21-.77-2.08-1.05h0Zm-1.32,1.71c-.31.36-.6.69-.87.97h0c-.46.49-1.08.76-1.73.76s-1.28-.27-1.73-.76c-.27-.28-.56-.61-.87-.97-.76.17-1.41.41-1.88.71-.16.1-.29.21-.4.32-.06.07-.12.13-.12.2,0,.09.08.16.15.24.13.13.3.25.5.37.98.56,2.57.89,4.35.89s3.37-.34,4.35-.89c.2-.11.37-.23.5-.37.08-.08.15-.15.15-.24,0-.07-.06-.13-.12-.2-.1-.12-.24-.22-.4-.32-.47-.3-1.12-.54-1.88-.71h0Zm-2.32-.41s0,0-.01.01c-.07.08-.17.13-.27.13s-.2-.05-.27-.13c0,0,0,0,0-.01-.83-.87-2.03-2.26-2.85-3.8-.5-.93-.87-1.91-.87-2.86,0-2.31,1.78-4.21,4-4.21s4,1.9,4,4.21c0,.95-.37,1.93-.87,2.86-.82,1.54-2.02,2.92-2.85,3.8h0Zm-.28-9.86c-1.66,0-3,1.34-3,3s1.34,3,3,3,3-1.34,3-3-1.34-3-3-3h0Zm0,2c.55,0,1,.45,1,1s-.45,1-1,1-1-.45-1-1,.45-1,1-1h0Z"></path><text x="0" y="55.01" fill="#000000" font-size="5px" font-weight="bold" font-family="'Helvetica Neue', Helvetica, Arial-Unicode, Arial, Sans-serif">Created by Soni Sokell</text><text x="0" y="60.01" fill="#000000" font-size="5px" font-weight="bold" font-family="'Helvetica Neue', Helvetica, Arial-Unicode, Arial, Sans-serif">from the Noun Project</text></svg>