<svg xmlns="http://www.w3.org/2000/svg" xmlns:xlink="http://www.w3.org/1999/xlink" id="Capa_1" x="0px" y="0px" viewBox="0 0 512 512" style="enable-background:new 0 0 512 512;" xml:space="preserve"><g>	<g>		<path d="M255.999,219.246c-8.275,0-15.007,6.732-15.007,15.007s6.731,15.007,15.007,15.007c8.275,0,15.007-6.732,15.007-15.007   S264.274,219.246,255.999,219.246z"></path>	</g></g><g>	<g>		<path d="M326.291,89.899H185.707c-15.404,29.525-39.434,53.554-68.957,68.957v55.199c0,48.038,15.344,93.661,44.372,131.936   c24.569,32.396,57.287,57.066,94.877,71.599c37.59-14.533,70.307-39.203,94.877-71.599   c29.028-38.275,44.372-83.898,44.372-131.936v-55.199C365.724,143.452,341.695,119.423,326.291,89.899z M270.983,276.65v32.578   h-29.966V276.65c-17.452-6.186-29.99-22.851-29.99-42.397s12.538-36.211,29.99-42.397v-32.578h29.966v32.578   c17.452,6.186,29.99,22.851,29.99,42.397S288.435,270.464,270.983,276.65z"></path>	</g></g><g>	<g>		<path d="M470.164,87.308c-39.88,0-72.324-32.444-72.324-72.325V0h-283.68v14.983c0,39.88-32.444,72.325-72.324,72.325H26.852   v126.747c0,33.965,5.537,67.424,16.458,99.448c10.656,31.248,26.194,60.455,46.184,86.812   c19.99,26.357,43.924,49.197,71.14,67.885c27.893,19.153,58.619,33.508,91.325,42.669l4.04,1.132l4.04-1.132   c32.706-9.16,63.433-23.516,91.326-42.669c27.215-18.688,51.15-41.527,71.14-67.884c19.99-26.357,35.528-55.564,46.184-86.812   c10.921-32.024,16.458-65.483,16.458-99.448V87.308H470.164z M425.215,214.054c0,54.631-17.45,106.516-50.463,150.045   c-29.186,38.483-68.502,67.385-113.698,83.583l-5.054,1.812l-5.055-1.811c-45.197-16.199-84.513-45.101-113.699-83.584   c-33.013-43.529-50.462-95.413-50.462-150.044v-74.296l8.865-3.966c29.849-13.353,53.643-37.146,66.994-66.995l3.967-8.866H345.39   l3.966,8.865c13.353,29.849,37.146,53.643,66.995,66.995l8.865,3.966V214.054z"></path>	</g></g><g></g><g></g><g></g><g></g><g></g><g></g><g></g><g></g><g></g><g></g><g></g><g></g><g></g><g></g><g></g></svg>