<?xml version="1.0" encoding="UTF-8"?><svg xmlns="http://www.w3.org/2000/svg" viewBox="0 0 3144.75 1899.96"><defs><style>.d{letter-spacing:.02em;}.e{letter-spacing:0em;}.e,.f,.g{fill:#fff;}.f,.h{letter-spacing:.03em;}.i{letter-spacing:0em;}.j{font-family:Oswald-Bold, Oswald;font-size:377.26px;}.k{letter-spacing:-.03em;}.l{fill:#ecfe8c;letter-spacing:.02em;}</style></defs><g id="a"/><g id="b"><g id="c"><g><g><path class="g" d="M1526.66,595.18l-60.84-72.5-152.68-181.95-37.19-44.32L1027.22,0,0,861.95l827.91,986.72,3.32,3.96,30.71,36.6,73.61-61.77,39.74-33.34,277.43-232.8h-56.35l-295.96,248.33-20.67,17.34-13.32,11.18-38.51-45.9-32.93-39.24L51.06,866.43,1022.79,51.06l216.93,258.54,37.19,44.31,141.61,168.77,60.83,72.5,223.32,266.14h47.32l-223.33-266.14Z"/><path class="g" d="M1313.14,340.73l314.63-114.51,108.27,296.46,26.48,72.5,97.2,266.14h57.89l-97.18-266.14-26.47-72.5-133.7-366.14-384.31,139.87-36.23,13.19L383.09,621.37l411.89,1131.66,32.93,90.47,3.32,9.13,16.72,45.93,194.35-71.1,727.5-266.14h-158.21l-636.3,232.8-74.88,27.39-20,7.32-.67-1.84-51.83-142.41L452.77,653.86l824.14-299.95,36.23-13.18Z"/><path class="g" d="M2205.18,861.32v-338.64H827.91V1899.96h1377.27v-338.64h-72.49v266.14H900.41V595.18h1232.28v266.14h72.49Z"/></g><text class="j" transform="translate(1220.77 1124.05)"><tspan class="g"><tspan class="k" x="0" y="0">T</tspan><tspan class="i" x="157.69" y="0">r</tspan><tspan class="h" x="305.2" y="0">anspa</tspan><tspan class="d" x="1241.16" y="0">r</tspan><tspan class="h" x="1394.7" y="0">ent</tspan></tspan><tspan class="f" x="0" y="400">CAR</tspan><tspan class="e" x="674.9" y="400">D</tspan><tspan class="l" x="898.99" y="400">.</tspan><tspan class="f" x="999.71" y="400">de</tspan></text></g></g></g></svg>