<svg xmlns="http://www.w3.org/2000/svg" width="20" height="20" viewBox="0 0 20 20" fill="none"><path d="M16.2109 4.03906C15.7682 3.58333 15.2865 3.1862 14.7656 2.84766C14.2448 2.49609 13.6979 2.20312 13.125 1.96875C12.5651 1.73438 11.9792 1.55859 11.3672 1.44141C10.7552 1.3112 10.1302 1.24609 9.49219 1.24609C8.86719 1.24609 8.2487 1.3112 7.63672 1.44141C7.02474 1.55859 6.43229 1.73438 5.85938 1.96875C5.28646 2.20312 4.73958 2.49609 4.21875 2.84766C3.71094 3.1862 3.22917 3.58333 2.77344 4.03906C2.33073 4.48177 1.93359 4.96354 1.58203 5.48438C1.24349 6.00521 0.957031 6.55208 0.722656 7.125C0.488281 7.6849 0.30599 8.27083 0.175781 8.88281C0.0585938 9.49479 0 10.1198 0 10.7578C0 11.3828 0.0585938 12.0013 0.175781 12.6133C0.30599 13.2253 0.488281 13.8177 0.722656 14.3906C0.957031 14.9505 1.24349 15.4909 1.58203 16.0117C1.93359 16.5326 2.33073 17.0208 2.77344 17.4766C3.22917 17.9193 3.71094 18.3164 4.21875 18.668C4.73958 19.0065 5.28646 19.293 5.85938 19.5273C6.43229 19.7617 7.02474 19.9375 7.63672 20.0547C8.2487 20.1849 8.86719 20.25 9.49219 20.25C10.1302 20.25 10.7552 20.1849 11.3672 20.0547C11.9792 19.9375 12.5651 19.7617 13.125 19.5273C13.6979 19.293 14.2448 19.0065 14.7656 18.668C15.2865 18.3164 15.7682 17.9193 16.2109 17.4766C16.6667 17.0208 17.0638 16.5391 17.4023 16.0312C17.7539 15.5104 18.0469 14.9635 18.2812 14.3906C18.5156 13.8177 18.6914 13.2253 18.8086 12.6133C18.9388 12.0013 19.0039 11.3828 19.0039 10.7578C19.0039 10.1198 18.9388 9.49479 18.8086 8.88281C18.6914 8.27083 18.5156 7.6849 18.2812 7.125C18.0469 6.55208 17.7539 6.00521 17.4023 5.48438C17.0638 4.96354 16.6667 4.48177 16.2109 4.03906ZM9.49219 19.2539C8.32031 19.2539 7.22005 19.0326 6.19141 18.5898C5.16276 18.1341 4.26432 17.5221 3.49609 16.7539C2.72786 15.9857 2.11589 15.0872 1.66016 14.0586C1.21745 13.0299 0.996094 11.9297 0.996094 10.7578C0.996094 9.58594 1.21745 8.48568 1.66016 7.45703C2.11589 6.41536 2.72786 5.51042 3.49609 4.74219C4.26432 3.97396 5.16276 3.36849 6.19141 2.92578C7.22005 2.47005 8.32031 2.24219 9.49219 2.24219C10.6641 2.24219 11.7643 2.47005 12.793 2.92578C13.8346 3.36849 14.7396 3.97396 15.5078 4.74219C16.276 5.51042 16.8815 6.41536 17.3242 7.45703C17.7799 8.48568 18.0078 9.58594 18.0078 10.7578C18.0078 11.9297 17.7799 13.0299 17.3242 14.0586C16.8815 15.0872 16.276 15.9857 15.5078 16.7539C14.7396 17.5221 13.8346 18.1341 12.793 18.5898C11.7643 19.0326 10.6641 19.2539 9.49219 19.2539ZM15.1367 7.49609C15.0586 7.37891 14.9544 7.30729 14.8242 7.28125C14.694 7.24219 14.5703 7.25521 14.4531 7.32031L9.53125 10.1523L5.68359 7.47656C5.57943 7.39844 5.45573 7.3724 5.3125 7.39844C5.18229 7.41146 5.07812 7.47656 5 7.59375C4.92188 7.71094 4.88932 7.84115 4.90234 7.98438C4.92839 8.11458 5 8.21875 5.11719 8.29688L9.21875 11.168C9.23177 11.168 9.23828 11.1745 9.23828 11.1875C9.2513 11.1875 9.25781 11.1875 9.25781 11.1875C9.27083 11.1875 9.27734 11.1875 9.27734 11.1875C9.27734 11.1875 9.27734 11.194 9.27734 11.207C9.29036 11.207 9.29688 11.207 9.29688 11.207C9.29688 11.207 9.30339 11.207 9.31641 11.207C9.31641 11.207 9.31641 11.2135 9.31641 11.2266C9.32943 11.2266 9.33594 11.2266 9.33594 11.2266C9.33594 11.2266 9.34245 11.2266 9.35547 11.2266C9.35547 11.2266 9.36198 11.2266 9.375 11.2266C9.38802 11.2266 9.39453 11.2331 9.39453 11.2461C9.40755 11.2461 9.41406 11.2461 9.41406 11.2461C9.42708 11.2461 9.43359 11.2461 9.43359 11.2461C9.44661 11.2461 9.45312 11.2461 9.45312 11.2461C9.46615 11.2461 9.47266 11.2461 9.47266 11.2461C9.48568 11.2461 9.4987 11.2461 9.51172 11.2461C9.51172 11.2461 9.51823 11.2461 9.53125 11.2461C9.54427 11.2461 9.55078 11.2461 9.55078 11.2461C9.5638 11.2461 9.57682 11.2461 9.58984 11.2461C9.60286 11.2461 9.60938 11.2461 9.60938 11.2461C9.60938 11.2331 9.60938 11.2266 9.60938 11.2266C9.6224 11.2266 9.62891 11.2266 9.62891 11.2266C9.64193 11.2266 9.65495 11.2266 9.66797 11.2266C9.68099 11.2135 9.6875 11.207 9.6875 11.207C9.70052 11.207 9.71354 11.2005 9.72656 11.1875C9.73958 11.1875 9.74609 11.1875 9.74609 11.1875L14.9414 8.17969C15.0586 8.11458 15.1367 8.01693 15.1758 7.88672C15.2148 7.74349 15.2018 7.61328 15.1367 7.49609Z" transform="translate(0 -1)" fill="#D72521"></path></svg>