<svg xmlns="http://www.w3.org/2000/svg" width="20" height="20" viewBox="0 0 20 20" fill="none"><path d="M18.7695 1.32422C18.6914 1.28516 18.6068 1.26562 18.5156 1.26562C18.4375 1.2526 18.3594 1.26562 18.2812 1.30469L12.5 4.19531L6.71875 1.30469C6.65365 1.26562 6.58203 1.24609 6.50391 1.24609C6.42578 1.24609 6.34766 1.26562 6.26953 1.30469L0.273438 4.3125C0.195312 4.35156 0.130208 4.41016 0.078125 4.48828C0.0260417 4.56641 0 4.65104 0 4.74219V19.7422C0 19.8333 0.0195312 19.918 0.0585938 19.9961C0.110677 20.0742 0.169271 20.1328 0.234375 20.1719C0.273438 20.1979 0.3125 20.2174 0.351562 20.2305C0.403646 20.2435 0.455729 20.25 0.507812 20.25C0.546875 20.25 0.579427 20.2435 0.605469 20.2305C0.644531 20.2305 0.683594 20.2174 0.722656 20.1914L6.50391 17.3008L12.2852 20.1914C12.3503 20.2305 12.4219 20.25 12.5 20.25C12.5781 20.25 12.6562 20.2305 12.7344 20.1914L18.7305 17.2031C18.8086 17.151 18.8737 17.0859 18.9258 17.0078C18.9779 16.9297 19.0039 16.8451 19.0039 16.7539V1.75391C19.0039 1.66276 18.9779 1.58464 18.9258 1.51953C18.8867 1.44141 18.8346 1.3763 18.7695 1.32422ZM5.99609 16.4414L0.996094 18.9414V5.05469L5.99609 2.55469V16.4414ZM6.99219 2.55469L11.9922 5.05469V18.9414L6.99219 16.4414V2.55469ZM18.0078 16.4414L13.0078 18.9414V5.05469L18.0078 2.55469V16.4414Z" transform="translate(0 -1)" fill="#D72521"></path></svg>