<svg xmlns="http://www.w3.org/2000/svg" width="20" height="21" viewBox="0 0 20 21" fill="none"><path d="M15.9961 20.25C15.1107 20.25 14.1992 20.1263 13.2617 19.8789C12.3242 19.6315 11.3672 19.2604 10.3906 18.7656C9.94792 18.5312 9.50521 18.2773 9.0625 18.0039C8.61979 17.7305 8.18359 17.4375 7.75391 17.125C7.32422 16.7995 6.90104 16.4609 6.48438 16.1094C6.06771 15.7448 5.66406 15.3672 5.27344 14.9766C4.88281 14.5859 4.51172 14.1823 4.16016 13.7656C3.80859 13.349 3.47005 12.9258 3.14453 12.4961C2.83203 12.0664 2.53255 11.6302 2.24609 11.1875C1.97266 10.7448 1.72526 10.3021 1.50391 9.85938C1.00911 8.88281 0.638021 7.92578 0.390625 6.98828C0.143229 6.05078 0.0195312 5.13932 0.0195312 4.25391C0.0195312 3.68099 0.214844 3.14714 0.605469 2.65234C0.996094 2.14453 1.30859 1.78646 1.54297 1.57812C1.86849 1.26562 2.26562 0.966146 2.73438 0.679688C3.20312 0.393229 3.6263 0.25 4.00391 0.25C4.1862 0.25 4.38802 0.315104 4.60938 0.445312C4.84375 0.5625 5.10417 0.757812 5.39062 1.03125C5.59896 1.22656 5.82031 1.45443 6.05469 1.71484C6.28906 1.97526 6.52995 2.26172 6.77734 2.57422C6.92057 2.75651 7.23958 3.21875 7.73438 3.96094C8.24219 4.70312 8.49609 5.30208 8.49609 5.75781C8.49609 6.1224 8.3138 6.44792 7.94922 6.73438C7.59766 7.00781 7.20052 7.28776 6.75781 7.57422C6.58854 7.67839 6.41927 7.78255 6.25 7.88672C6.08073 7.99089 5.93099 8.09505 5.80078 8.19922C5.65755 8.31641 5.56641 8.40755 5.52734 8.47266C5.48828 8.52474 5.46875 8.55729 5.46875 8.57031C5.70312 9.15625 6.04818 9.76823 6.50391 10.4062C6.95964 11.0443 7.47396 11.6497 8.04688 12.2227C8.61979 12.7826 9.21875 13.2904 9.84375 13.7461C10.4818 14.2018 11.0938 14.5469 11.6797 14.7812C11.6927 14.7812 11.7253 14.7617 11.7773 14.7227C11.8424 14.6836 11.9336 14.5924 12.0508 14.4492C12.1549 14.319 12.2591 14.1693 12.3633 14C12.4674 13.8307 12.5716 13.6615 12.6758 13.4922C12.9492 13.0495 13.2292 12.6523 13.5156 12.3008C13.8021 11.9362 14.1276 11.7539 14.4922 11.7539C14.9479 11.7539 15.5469 12.0078 16.2891 12.5156C17.0312 13.0104 17.4935 13.3294 17.6758 13.4727C17.9883 13.7201 18.2747 13.9609 18.5352 14.1953C18.7956 14.4297 19.0234 14.651 19.2188 14.8594C19.4922 15.1458 19.6875 15.4062 19.8047 15.6406C19.9349 15.862 20 16.0638 20 16.2461C20 16.6237 19.8568 17.0469 19.5703 17.5156C19.2839 17.9844 18.9844 18.3815 18.6719 18.707C18.4635 18.9414 18.1055 19.2539 17.5977 19.6445C17.1029 20.0482 16.569 20.25 15.9961 20.25ZM3.98438 1.24609C3.85417 1.24609 3.6263 1.33073 3.30078 1.5C2.97526 1.66927 2.61719 1.9362 2.22656 2.30078C1.84896 2.65234 1.54948 3.00391 1.32812 3.35547C1.11979 3.69401 1.01562 3.99349 1.01562 4.25391C1.01562 5.93359 1.47786 7.65885 2.40234 9.42969C3.33984 11.2005 4.53125 12.8151 5.97656 14.2734C7.4349 15.7318 9.04948 16.9297 10.8203 17.8672C12.5911 18.7917 14.3164 19.2539 15.9961 19.2539C16.2565 19.2539 16.556 19.1432 16.8945 18.9219C17.2461 18.7005 17.5977 18.4076 17.9492 18.043C18.3008 17.6393 18.5612 17.2747 18.7305 16.9492C18.9128 16.6237 19.0039 16.3958 19.0039 16.2656C18.9909 16.1615 18.8346 15.9336 18.5352 15.582C18.2357 15.2305 17.7279 14.7747 17.0117 14.2148C16.3867 13.7461 15.8464 13.388 15.3906 13.1406C14.9349 12.8802 14.6419 12.75 14.5117 12.75C14.4987 12.75 14.4596 12.7695 14.3945 12.8086C14.3424 12.8477 14.2578 12.9388 14.1406 13.082C14.0495 13.2122 13.9518 13.362 13.8477 13.5312C13.7435 13.6875 13.6393 13.8503 13.5352 14.0195C13.2487 14.4753 12.9622 14.8854 12.6758 15.25C12.3893 15.6016 12.0573 15.7773 11.6797 15.7773C11.6146 15.7773 11.5495 15.7773 11.4844 15.7773C11.4323 15.7643 11.3737 15.7448 11.3086 15.7188C10.6576 15.4583 9.98698 15.0807 9.29688 14.5859C8.60677 14.0911 7.94922 13.5378 7.32422 12.9258C6.71224 12.3008 6.15885 11.6432 5.66406 10.9531C5.16927 10.263 4.79167 9.59245 4.53125 8.94141C4.46615 8.78516 4.45312 8.58984 4.49219 8.35547C4.53125 8.10807 4.70052 7.84115 5 7.55469C5.16927 7.41146 5.35807 7.26823 5.56641 7.125C5.78776 6.98177 6.00911 6.84505 6.23047 6.71484C6.39974 6.61068 6.5625 6.50651 6.71875 6.40234C6.88802 6.29818 7.03776 6.19401 7.16797 6.08984C7.3112 5.98568 7.40234 5.90755 7.44141 5.85547C7.48047 5.79036 7.5 5.7513 7.5 5.73828C7.5 5.60807 7.36979 5.3151 7.10938 4.85938C6.86198 4.40365 6.50391 3.86328 6.03516 3.23828C5.47526 2.52214 5.01953 2.01432 4.66797 1.71484C4.31641 1.41536 4.08854 1.25911 3.98438 1.24609Z" fill="#D72521"></path></svg>