<?xml version="1.0" encoding="UTF-8" standalone="no" ?>
<!DOCTYPE svg PUBLIC "-//W3C//DTD SVG 1.1//EN" "http://www.w3.org/Graphics/SVG/1.1/DTD/svg11.dtd">
<svg xmlns="http://www.w3.org/2000/svg" xmlns:xlink="http://www.w3.org/1999/xlink" version="1.1" width="649.6062992203126" height="1003.9370078859376" viewBox="0 0 305.8 472.6" xml:space="preserve">
<desc>Created with Fabric.js 3.4.0 and NBDesigner 2.7</desc>
<defs>
</defs>
<g transform="matrix(0.258714044 0 0 0.258714044 152.9 237.4994923858)"  >
	<image style="stroke: none; stroke-width: 0; stroke-dasharray: none; stroke-linecap: butt; stroke-dashoffset: 0; stroke-linejoin: miter; stroke-miterlimit: 4; fill: rgb(255,255,255); fill-rule: nonzero; opacity: 1;"  xlink:href="https://transparentcard.de/wp-content/themes/astra-child/assets/img/transparent_glass_55x85-mm.png" x="-591" y="-918" width="1182" height="1836"></image>
</g>
<g transform="matrix(0.5419015795 0 0 1.3801683249 152.9 237.2987304145)"  >
<path style="stroke: none; stroke-width: 1; stroke-dasharray: none; stroke-linecap: butt; stroke-dashoffset: 0; stroke-linejoin: miter; stroke-miterlimit: 4; fill: rgb(255,255,255); fill-rule: nonzero; opacity: 0.27;"  transform=" translate(-262.9279535, -171.699939)" d="M 0.154907 0.874878 V 342.488 V 23.4748 C 119.514 -41.4142 150.957 62.4082 150.957 62.4082 C 146.341 64.8184 141.835 66.9505 137.46 68.8786 C 141.006 75.8796 146.02 82.0327 152.162 86.9177 C 166.141 97.8933 171.369 96.1876 175.077 100.711 C 178.785 105.235 174.855 108.906 170.146 112.614 C 170.146 112.614 170.387 118.658 178.044 121.513 C 185.7 124.368 178.044 133.86 178.044 133.86 C 178.044 133.86 183.068 134.899 183.346 139.107 C 183.624 143.316 176.801 144.669 179.972 148.377 C 183.142 152.085 187.888 154.643 186.627 166.75 C 185.367 178.856 168.848 178.374 146.507 181.841 C 120.886 185.827 124.445 211.838 129.377 230.378 C 137.714 232.749 146.35 233.898 155.017 233.789 C 236.74 233.789 248.031 280.639 277.769 296.713 C 307.506 312.787 315.738 295.008 312.661 283.736 C 309.583 272.463 295.548 279.286 295.548 279.286 C 298.292 267.662 321.207 258.781 334.204 281.344 C 347.2 303.907 326.695 335.109 303.317 342.525 H 525.701 V 0.874878 H 0.154907 Z" stroke-linecap="round" />
</g>
<g transform="matrix(0.5345580349 0 0 0.5345580349 58.9021322993 216.3040849685)"  >
<path style="stroke: none; stroke-width: 1; stroke-dasharray: none; stroke-linecap: butt; stroke-dashoffset: 0; stroke-linejoin: miter; stroke-miterlimit: 4; fill: rgb(255,255,255); fill-rule: nonzero; opacity: 0.02;"  transform=" translate(-133.1781678381, -93.5744095891)" d="M 148.777 85.731 C 148.777 85.731 143.264 93.9272 135.325 91.3912 C 135.21 90.9302 135.037 90.4856 134.81 90.068 C 134.644 89.777 134.453 89.5004 134.241 89.241 C 134.011 88.9405 133.746 88.6689 133.451 88.4324 C 133.152 88.1707 132.825 87.9426 132.477 87.7525 C 132.123 87.5634 131.754 87.4036 131.374 87.2746 C 131 87.1395 130.611 87.0471 130.216 86.999 C 129.848 86.9152 129.473 86.866 129.095 86.852 C 128.74 86.8339 128.384 86.8339 128.029 86.852 H 127.092 C 126.826 86.8668 126.562 86.9037 126.302 86.9622 C 126.565 86.9426 126.829 86.9426 127.092 86.9622 H 128.029 C 128.375 86.9644 128.72 87.0014 129.058 87.0725 C 129.421 87.1017 129.779 87.1758 130.124 87.293 C 130.491 87.3729 130.848 87.4899 131.19 87.6422 C 131.53 87.7905 131.856 87.9689 132.164 88.1751 C 132.45 88.3753 132.72 88.5965 132.973 88.8367 C 133.201 89.0656 133.404 89.3181 133.579 89.5902 C 133.748 89.8249 133.889 90.0776 134.002 90.3437 C 134.131 90.6329 134.229 90.9347 134.296 91.2441 C 131.006 92.1446 113.291 97.1616 118.547 99.5507 C 123.65 101.802 129.42 102.026 134.682 100.176 C 143.485 97.2168 148.373 91.5014 148.777 85.731 Z" stroke-linecap="round" />
</g>
<g transform="matrix(1.7842100458 0 0 1.7842100458 260.3994047538 256.7561951117)"  >
<path style="stroke: none; stroke-width: 1; stroke-dasharray: none; stroke-linecap: butt; stroke-dashoffset: 0; stroke-linejoin: miter; stroke-miterlimit: 4; fill: rgb(231,29,115); fill-rule: nonzero; opacity: 1;"  transform=" translate(-258.4599792876, -120.070715335)" d="M 258.46 121.58 a 1.49 1.49 0 0 1 -1.07 -0.45 a 1.47 1.47 0 0 1 -0.45 -1.07 a 1.49 1.49 0 0 1 0.45 -1.07 a 1.55 1.55 0 0 1 2.14 0 a 1.49 1.49 0 0 1 0.45 1.07 a 1.54 1.54 0 0 1 -1.52 1.52 Z" stroke-linecap="round" />
</g>
<g transform="matrix(1.7842100458 0 0 1.7842100458 241.3810267689 308.2750365957)"  >
<path style="stroke: none; stroke-width: 1; stroke-dasharray: none; stroke-linecap: butt; stroke-dashoffset: 0; stroke-linejoin: miter; stroke-miterlimit: 4; fill: rgb(231,29,115); fill-rule: nonzero; opacity: 1;"  transform=" translate(-248.8900166908, -120.06)" d="M 247.37 120.06 a 1.53 1.53 0 0 1 1.52 -1.52 h 0 a 1.51 1.51 0 0 1 1.52 1.52 h 0 a 1.51 1.51 0 0 1 -1.52 1.52 h 0 A 1.53 1.53 0 0 1 247.37 120.06 Z" stroke-linecap="round" />
</g>
<g transform="matrix(1.7842100458 0 0 1.7842100458 224.3096400728 308.2967220117)"  >
<path style="stroke: none; stroke-width: 1; stroke-dasharray: none; stroke-linecap: butt; stroke-dashoffset: 0; stroke-linejoin: miter; stroke-miterlimit: 4; fill: rgb(231,29,115); fill-rule: nonzero; opacity: 1;"  transform=" translate(-239.3219802728, -120.0721540713)" d="M 239.32 121.58 a 1.51 1.51 0 0 1 -1.07 -2.59 a 1.57 1.57 0 0 1 2.15 0 a 1.5 1.5 0 0 1 0 2.14 A 1.51 1.51 0 0 1 239.32 121.58 Z" stroke-linecap="round" />
</g>
<g transform="matrix(0.6715268693 0 0 0.6715268693 181.1640370247 334.5954430786)" style=""  >
		<text xml:space="preserve" font-family="Roboto" font-size="56.55634019252848" font-style="normal" font-weight="normal" style="stroke: none; stroke-width: 0; stroke-dasharray: none; stroke-linecap: butt; stroke-dashoffset: 0; stroke-linejoin: miter; stroke-miterlimit: 4; fill: rgb(231,29,115); fill-rule: nonzero; opacity: 1; white-space: pre;" ><tspan x="-120.5188677912" y="17.7666087081" >John Doe</tspan></text>
</g>
<g transform="matrix(0.6715268693 0 0 0.6715268693 224.4500520927 362.1734399388)" style=""  >
		<text xml:space="preserve" font-family="Roboto" font-size="20.081112214498503" font-style="normal" font-weight="normal" style="stroke: none; stroke-width: 0; stroke-dasharray: none; stroke-linecap: butt; stroke-dashoffset: 0; stroke-linejoin: miter; stroke-miterlimit: 4; fill: rgb(60,60,59); fill-rule: nonzero; opacity: 1; white-space: pre;" ><tspan x="-56.0597715988" y="6.3082805911" >Job Position</tspan></text>
</g>
<g transform="matrix(0.9455782313 0 0 0.9455782313 126.6921435762 159.8700970247)" style=""  >
		<text xml:space="preserve" font-family="Roboto" font-size="16.59466666666667" font-style="normal" font-weight="normal" style="stroke: none; stroke-width: 0; stroke-dasharray: none; stroke-linecap: butt; stroke-dashoffset: 0; stroke-linejoin: miter; stroke-miterlimit: 4; fill: rgb(60,60,59); fill-rule: nonzero; opacity: 1; white-space: pre;" ><tspan x="-80.6585394862" y="5.2130485867" >Your address goes here</tspan></text>
</g>
<g transform="matrix(0.9455782313 0 0 0.9455782313 165.8505625418 199.4499804206)" style=""  >
		<text xml:space="preserve" font-family="Roboto" font-size="16.59466666666667" font-style="normal" font-weight="normal" style="stroke: none; stroke-width: 0; stroke-dasharray: none; stroke-linecap: butt; stroke-dashoffset: 0; stroke-linejoin: miter; stroke-miterlimit: 4; fill: rgb(60,60,59); fill-rule: nonzero; opacity: 1; white-space: pre;" ><tspan x="-50.1496543649" y="5.2130485867" >+021 111 222</tspan></text>
</g>
<g transform="matrix(0.9455782313 0 0 0.9455782313 136.2823502689 239.029623133)" style=""  >
		<text xml:space="preserve" font-family="Roboto" font-size="16.59466666666667" font-style="normal" font-weight="normal" style="stroke: none; stroke-width: 0; stroke-dasharray: none; stroke-linecap: butt; stroke-dashoffset: 0; stroke-linejoin: miter; stroke-miterlimit: 4; fill: rgb(60,60,59); fill-rule: nonzero; opacity: 1; white-space: pre;" ><tspan x="-82.6087044271" y="5.2130485867" >www.yourdomain.com</tspan></text>
</g>
<g transform="matrix(0.9455782313 0 0 0.9455782313 140.7300787845 278.6090300748)" style=""  >
		<text xml:space="preserve" font-family="Roboto" font-size="16.59466666666667" font-style="normal" font-weight="normal" style="stroke: none; stroke-width: 0; stroke-dasharray: none; stroke-linecap: butt; stroke-dashoffset: 0; stroke-linejoin: miter; stroke-miterlimit: 4; fill: rgb(60,60,59); fill-rule: nonzero; opacity: 1; white-space: pre;" ><tspan x="-77.9049915365" y="5.2130485867" >youremail@mail.com</tspan></text>
</g>
<g transform="matrix(0.6715268693 0 0 0.6715268693 244.7350905817 197.5711485113)"  >
<g style=""   >
		<g transform="matrix(2.656945131 0 0 2.656945131 0 0)"  >
<path style="stroke: none; stroke-width: 1; stroke-dasharray: none; stroke-linecap: butt; stroke-dashoffset: 0; stroke-linejoin: miter; stroke-miterlimit: 4; fill: rgb(231,29,115); fill-rule: nonzero; opacity: 1;"  transform=" translate(-250.7698651037, -57.6801348963)" d="M 260 57.68 a 9.23 9.23 0 1 1 -9.23 -9.23 A 9.23 9.23 0 0 1 260 57.68 Z" stroke-linecap="round" />
</g>
		<g transform="matrix(2.656945131 0 0 2.656945131 -0.0394957648 -0.0003584121)"  >
<path style="stroke: none; stroke-width: 1; stroke-dasharray: none; stroke-linecap: butt; stroke-dashoffset: 0; stroke-linejoin: miter; stroke-miterlimit: 4; fill: rgb(255,255,255); fill-rule: nonzero; opacity: 1;"  transform=" translate(-250.755, -57.68)" d="M 253.43 62.15 A 8.41 8.41 0 0 1 246.29 55 s 1.19 -1.79 1.78 -1.79 s 2.38 1.79 1.79 2.38 s -1.19 0.59 -1.19 1.19 s 0.59 1.19 1.19 1.79 s 1.19 1.19 1.79 1.19 s 0.59 -0.6 1.18 -1.19 s 2.39 1.19 2.39 1.78 S 253.43 62.15 253.43 62.15 Z" stroke-linecap="round" />
</g>
</g>
</g>
<g transform="matrix(0.6715268693 0 0 0.6715268693 244.7350905817 157.9912651155)"  >
<g style=""   >
		<g transform="matrix(2.656945131 0 0 2.656945131 0 0)"  >
<path style="stroke: none; stroke-width: 1; stroke-dasharray: none; stroke-linecap: butt; stroke-dashoffset: 0; stroke-linejoin: miter; stroke-miterlimit: 4; fill: rgb(231,29,115); fill-rule: nonzero; opacity: 1;"  transform=" translate(-250.7698651037, -35.8301348963)" d="M 260 35.83 a 9.23 9.23 0 1 1 -9.23 -9.23 A 9.23 9.23 0 0 1 260 35.83 Z" stroke-linecap="round" />
</g>
		<g transform="matrix(2.656945131 0 0 2.656945131 0.0133658906 0.0860094336)"  >
<path style="stroke: none; stroke-width: 1; stroke-dasharray: none; stroke-linecap: butt; stroke-dashoffset: 0; stroke-linejoin: miter; stroke-miterlimit: 4; fill: rgb(255,255,255); fill-rule: nonzero; opacity: 1;"  transform=" translate(-250.7748956519, -35.8625064469)" d="M 245.09 34.77 a 1.42 1.42 0 0 0 1.06 1.37 v 4.65 h -0.71 a 0.36 0.36 0 0 0 0 0.71 h 10.62 a 0.36 0.36 0 1 0 0 -0.71 h -0.71 V 36.14 a 1.43 1.43 0 0 0 1.07 -1.37 v -0.35 H 245.09 Z m 7.08 1.42 a 1.42 1.42 0 0 0 1.41 -1.42 a 1.43 1.43 0 0 0 1.07 1.37 v 4.65 h -5.32 v -4.6 a 1.42 1.42 0 0 0 1.42 -1.42 a 1.43 1.43 0 0 0 1.42 1.42 Z m -3.19 0 v 4.65 h -2.12 V 36.14 a 1.42 1.42 0 0 0 1.06 -1.37 A 1.42 1.42 0 0 0 249 36.14 Z m 6 -4.91 h -8.5 l -1.41 2.83 h 11.33 Z m -6.92 0.79 l -0.71 1.41 a 0.16 0.16 0 0 1 -0.16 0.1 a 0.13 0.13 0 0 1 -0.08 0 a 0.18 0.18 0 0 1 -0.08 -0.23 l 0.71 -1.42 a 0.18 0.18 0 0 1 0.24 -0.08 a 0.18 0.18 0 0 1 0.08 0.24 Z m 1.41 0 l -0.7 1.41 a 0.18 0.18 0 0 1 -0.16 0.1 a 0.11 0.11 0 0 1 -0.08 0 a 0.17 0.17 0 0 1 -0.08 -0.23 l 0.71 -1.42 a 0.17 0.17 0 1 1 0.31 0.16 Z m 1.44 1.33 a 0.18 0.18 0 0 1 -0.36 0 V 31.94 a 0.18 0.18 0 1 1 0.36 0 Z m 2 0.16 l -0.08 0 a 0.17 0.17 0 0 1 -0.16 -0.09 L 252 32 a 0.17 0.17 0 0 1 0.07 -0.24 a 0.19 0.19 0 0 1 0.24 0.07 l 0.77 1.42 a 0.17 0.17 0 0 1 -0.07 0.24 Z m 1.41 0 a 0.11 0.11 0 0 1 -0.08 0 a 0.17 0.17 0 0 1 -0.16 -0.1 l -0.7 -1.41 a 0.17 0.17 0 1 1 0.31 -0.16 l 0.71 1.42 a 0.17 0.17 0 0 1 -0.08 0.23 Z m -6.27 5.21 V 37.9 a 0.34 0.34 0 0 1 -0.18 -0.3 a 0.36 0.36 0 1 1 0.53 0.3 v 0.82 a 0.35 0.35 0 1 1 -0.53 0.3 a 0.34 0.34 0 0 1 0.18 -0.3 Z m -1.6 -8.2 a 0.36 0.36 0 0 1 0.36 -0.35 h 7.79 a 0.36 0.36 0 0 1 0 0.71 h -7.79 a 0.36 0.36 0 0 1 -0.36 -0.36 Z m 4.79 7.56 l -0.25 -0.25 l 1 -1 l 0.25 0.25 Z m 0 1 l -0.25 -0.25 l 2 -2 l 0.26 0.25 Z M 253 37.83 l 0.26 0.25 l -1 1 l -0.25 -0.25 Z" stroke-linecap="round" />
</g>
</g>
</g>
<g transform="matrix(0.6715268693 0 0 0.6715268693 244.7353312651 237.1507912238)"  >
<g style=""   >
		<g transform="matrix(2.656945131 0 0 2.656945131 0 0)"  >
<path style="stroke: none; stroke-width: 1; stroke-dasharray: none; stroke-linecap: butt; stroke-dashoffset: 0; stroke-linejoin: miter; stroke-miterlimit: 4; fill: rgb(231,29,115); fill-rule: nonzero; opacity: 1;"  transform=" translate(-250.77, -80.53)" d="M 260 80.53 a 9.23 9.23 0 1 1 -9.23 -9.23 A 9.23 9.23 0 0 1 260 80.53 Z" stroke-linecap="round" />
</g>
		<g transform="matrix(2.656945131 0 0 2.656945131 -0.0265694513 0.039854177)"  >
<path style="stroke: none; stroke-width: 1; stroke-dasharray: none; stroke-linecap: butt; stroke-dashoffset: 0; stroke-linejoin: miter; stroke-miterlimit: 4; fill: rgb(255,255,255); fill-rule: nonzero; opacity: 1;"  transform=" translate(-250.76, -80.545)" d="M 255.22 80.53 v 0.3 h 0 A 4.46 4.46 0 0 1 251.05 85 h -0.6 a 4.46 4.46 0 0 1 -4.15 -4.16 h 0 v -0.59 h 0 a 4.46 4.46 0 0 1 4.15 -4.16 h 0.6 a 4.46 4.46 0 0 1 4.15 4.16 h 0 Z M 248.83 82 h 1.62 V 80.83 h -1.78 A 6.33 6.33 0 0 0 248.83 82 Z m 1.62 2.34 V 82.62 H 249 A 2.52 2.52 0 0 0 250.45 84.36 Z m -1.78 -4.12 h 1.78 V 79.05 h -1.62 A 6.33 6.33 0 0 0 248.67 80.24 Z M 254 78.45 A 3.81 3.81 0 0 0 252.42 77 a 4.65 4.65 0 0 1 0.7 1.41 Z m -5 0 h 1.46 V 76.7 A 2.56 2.56 0 0 0 249 78.45 Z m -1.5 4.17 A 4 4 0 0 0 249.08 84 a 4.77 4.77 0 0 1 -0.7 -1.41 Z m 0.74 -3.57 h -1 a 3.92 3.92 0 0 0 -0.29 1.19 h 1.19 A 6.34 6.34 0 0 1 248.23 79.05 Z m -0.15 1.78 h -1.19 a 3.92 3.92 0 0 0 0.29 1.19 h 1 A 6.45 6.45 0 0 1 248.08 80.83 Z m 1 -3.79 a 3.87 3.87 0 0 0 -1.59 1.41 h 0.89 A 4.65 4.65 0 0 1 249.08 77 Z m 4.2 2 a 6.36 6.36 0 0 1 0.14 1.19 h 1.19 a 3.65 3.65 0 0 0 -0.29 -1.19 Z m -0.86 5 A 4 4 0 0 0 254 82.62 h -0.89 A 4.77 4.77 0 0 1 252.42 84 Z m 0.86 -2 h 1 a 3.65 3.65 0 0 0 0.29 -1.19 h -1.19 A 6.46 6.46 0 0 1 253.28 82 Z m -2.23 -5.32 v 1.75 h 1.46 A 2.54 2.54 0 0 0 251.05 76.7 Z m 1.63 2.35 h -1.63 v 1.19 h 1.78 A 7.3 7.3 0 0 0 252.68 79.05 Z m 0.15 1.78 h -1.78 V 82 h 1.63 A 7.3 7.3 0 0 0 252.83 80.83 Z m -1.78 1.79 v 1.74 a 2.49 2.49 0 0 0 1.46 -1.74 Z" stroke-linecap="round" />
</g>
</g>
</g>
<g transform="matrix(0.6715268693 0 0 0.6715268693 244.7353166961 276.7301981655)"  >
<g style=""   >
		<g transform="matrix(2.656945131 0 0 2.656945131 0 0)"  >
<path style="stroke: none; stroke-width: 1; stroke-dasharray: none; stroke-linecap: butt; stroke-dashoffset: 0; stroke-linejoin: miter; stroke-miterlimit: 4; fill: rgb(231,29,115); fill-rule: nonzero; opacity: 1;"  transform=" translate(-250.7700135695, -102.379997299)" d="M 260 102.39 a 9.23 9.23 0 1 1 -9.23 -9.24 A 9.22 9.22 0 0 1 260 102.39 Z" stroke-linecap="round" />
</g>
		<g transform="matrix(2.656945131 0 0 2.656945131 -0.0398902304 0.0122034592)"  >
<path style="stroke: none; stroke-width: 1; stroke-dasharray: none; stroke-linecap: butt; stroke-dashoffset: 0; stroke-linejoin: miter; stroke-miterlimit: 4; fill: rgb(255,255,255); fill-rule: nonzero; opacity: 1;"  transform=" translate(-250.755, -102.3845903405)" d="M 246.93 99.2 h 7.64 a 0.62 0.62 0 0 1 0.44 0.17 L 250.75 103 l -4.26 -3.65 A 0.62 0.62 0 0 1 246.93 99.2 Z m -0.64 0.56 l 3.08 2.67 l -3.08 2.63 Z m 8.28 5.81 h -7.64 a 0.62 0.62 0 0 1 -0.44 -0.17 l 3.16 -2.7 l 1.1 1 l 1.11 -1 l 3.15 2.7 A 0.62 0.62 0 0 1 254.57 105.57 Z m 0.65 -0.51 l -3.09 -2.63 l 3.09 -2.68 Z" stroke-linecap="round" />
</g>
</g>
</g>
<g transform="matrix(0.9455782313 0 0 0.9455782313 222.6409470555 86.993267226)"  >
<g style=""   >
		<g transform="matrix(0.1373843142 0 0 0.1373843142 -7.8e-9 -7.8e-9)"  >
<g style=""   >
		<g transform="matrix(1 0 0 1 0 0)"  >
<circle style="stroke: none; stroke-width: 1; stroke-dasharray: none; stroke-linecap: butt; stroke-dashoffset: 0; stroke-linejoin: miter; stroke-miterlimit: 4; fill: rgb(231,29,115); fill-rule: nonzero; opacity: 1;"  cx="0" cy="0" r="277.8" />
</g>
		<g transform="matrix(1 0 0 1 0 0)"  >
<path style="stroke: none; stroke-width: 1; stroke-dasharray: none; stroke-linecap: butt; stroke-dashoffset: 0; stroke-linejoin: miter; stroke-miterlimit: 4; fill: rgb(231,29,115); fill-rule: nonzero; opacity: 1;"  transform=" translate(-306, -306)" d="m 306 612 c -168.7 0 -306 -137.3 -306 -306 s 137.3 -306 306 -306 s 306 137.3 306 306 s -137.3 306 -306 306 z m 0 -598.7 c -161.4 0 -292.7 131.3 -292.7 292.7 s 131.3 292.7 292.7 292.7 s 292.7 -131.3 292.7 -292.7 s -131.3 -292.7 -292.7 -292.7 z" stroke-linecap="round" />
</g>
		<g transform="matrix(-0.7071067812 -0.7071067812 0.7071067812 -0.7071067812 0.0481657472 -1.6251351117)"  >
<rect style="stroke: none; stroke-width: 1; stroke-dasharray: none; stroke-linecap: butt; stroke-dashoffset: 0; stroke-linejoin: miter; stroke-miterlimit: 4; fill: rgb(39,44,51); fill-rule: nonzero; opacity: 1;"  x="-180.1" y="-3.25" rx="0" ry="0" width="360.2" height="6.5" />
</g>
		<g transform="matrix(-0.7068599113 -0.7073535649 0.7073535649 -0.7068599113 0.0073291594 -1.5714758461)"  >
<rect style="stroke: none; stroke-width: 1; stroke-dasharray: none; stroke-linecap: butt; stroke-dashoffset: 0; stroke-linejoin: miter; stroke-miterlimit: 4; fill: rgb(39,44,51); fill-rule: nonzero; opacity: 1;"  x="-3.25" y="-180.1" rx="0" ry="0" width="6.5" height="360.2" />
</g>
</g>
</g>
		<g transform="matrix(0.7368795036 0 0 0.7368795036 2.1164274291 -17.1083024319)" style=""  >
		<text xml:space="preserve" font-family="Playfair Display" font-size="20" font-style="normal" font-weight="normal" style="stroke: none; stroke-width: 1; stroke-dasharray: none; stroke-linecap: butt; stroke-dashoffset: 0; stroke-linejoin: miter; stroke-miterlimit: 4; fill: rgb(255,255,255); fill-rule: nonzero; opacity: 1; white-space: pre;" ><tspan x="-9.05" y="6.2828" >W</tspan></text>
</g>
		<g transform="matrix(0.670268927 0 0 0.670268927 -15.8469464427 0.2237695978)" style=""  >
		<text xml:space="preserve" font-family="Playfair Display" font-size="20" font-style="normal" font-weight="normal" style="stroke: none; stroke-width: 1; stroke-dasharray: none; stroke-linecap: butt; stroke-dashoffset: 0; stroke-linejoin: miter; stroke-miterlimit: 4; fill: rgb(255,255,255); fill-rule: nonzero; opacity: 1; white-space: pre;" ><tspan x="-7.4099998474" y="6.2828" >O</tspan></text>
</g>
		<g transform="matrix(0.670268927 0 0 0.670268927 2.1235048027 17.4176246811)" style=""  >
		<text xml:space="preserve" font-family="Playfair Display" font-size="20" font-style="normal" font-weight="normal" style="stroke: none; stroke-width: 1; stroke-dasharray: none; stroke-linecap: butt; stroke-dashoffset: 0; stroke-linejoin: miter; stroke-miterlimit: 4; fill: rgb(255,255,255); fill-rule: nonzero; opacity: 1; white-space: pre;" ><tspan x="-6.55" y="6.2828" >K</tspan></text>
</g>
		<g transform="matrix(0.5537004179 0 0 0.5537004179 16.8956076477 0.2179411716)" style=""  >
		<text xml:space="preserve" font-family="Playfair Display" font-size="20" font-style="normal" font-weight="normal" style="stroke: none; stroke-width: 1; stroke-dasharray: none; stroke-linecap: butt; stroke-dashoffset: 0; stroke-linejoin: miter; stroke-miterlimit: 4; fill: rgb(255,255,255); fill-rule: nonzero; opacity: 1; white-space: pre;" ><tspan x="-6.4800003052" y="6.2828" >R</tspan></text>
</g>
</g>
</g>
</svg>