<?xml version="1.0" encoding="UTF-8" standalone="no" ?>
<!DOCTYPE svg PUBLIC "-//W3C//DTD SVG 1.1//EN" "http://www.w3.org/Graphics/SVG/1.1/DTD/svg11.dtd">
<svg xmlns="http://www.w3.org/2000/svg" xmlns:xlink="http://www.w3.org/1999/xlink" version="1.1" width="649.6062992203126" height="1003.9370078859376" viewBox="0 0 305.8 472.6" xml:space="preserve">
<desc>Created with Fabric.js 3.4.0 and NBDesigner 2.7</desc>
<defs>
</defs>
<g transform="matrix(0.258714044 0 0 0.258714044 152.9 237.4994923858)"  >
	<image style="stroke: none; stroke-width: 0; stroke-dasharray: none; stroke-linecap: butt; stroke-dashoffset: 0; stroke-linejoin: miter; stroke-miterlimit: 4; fill: rgb(255,255,255); fill-rule: nonzero; opacity: 1;"  xlink:href="https://transparentcard.de/wp-content/themes/astra-child/assets/img/transparent_glass_55x85-mm.png" x="-591" y="-918" width="1182" height="1836"></image>
</g>
<g transform="matrix(0.6946310121 0 0 0.6946310121 210.7000512363 193.3306891454)" style=""  >
		<text xml:space="preserve" font-family="Roboto" font-size="14.178359510564304" font-style="normal" font-weight="normal" style="stroke: none; stroke-width: 0; stroke-dasharray: none; stroke-linecap: butt; stroke-dashoffset: 0; stroke-linejoin: miter; stroke-miterlimit: 4; fill: rgb(229,196,153); fill-rule: nonzero; opacity: 1; white-space: pre;" ><tspan x="-53.9892268765" y="4.4539898566" >natural beauty oil</tspan></text>
</g>
<g transform="matrix(0.6946310121 0 0 0.6946310121 214.1620388275 178.0488068805)" style=""  >
		<text xml:space="preserve" font-family="Roboto" font-size="30.83552308049368" font-style="normal" font-weight="normal" style="stroke: none; stroke-width: 0; stroke-dasharray: none; stroke-linecap: butt; stroke-dashoffset: 0; stroke-linejoin: miter; stroke-miterlimit: 4; fill: rgb(255,255,255); fill-rule: nonzero; opacity: 1; white-space: pre;" ><tspan x="-81.8918620005" y="9.6866712205" >O</tspan><tspan x="-54.8028549742" y="9.6866712205" >L</tspan><tspan x="-32.3211087208" y="9.6866712205" >I</tspan><tspan x="-18.0451046934" y="9.6866712205" >V</tspan><tspan x="7.4629795187" y="9.6866712205" >I</tspan><tspan x="21.7389835461" y="9.6866712205" >N</tspan><tspan x="49.8819391151" y="9.6866712205" >A</tspan></text>
</g>
<g transform="matrix(0.6946310121 0 0 0.6946310121 208.9194352934 101.5512028007)"  >
<g style=""   >
		<g transform="matrix(0.5861836184 0 0 0.5861836184 0 0)"  >
<linearGradient id="SVGID_0" gradientUnits="userSpaceOnUse" gradientTransform="matrix(1 0 0 1 0 0)"  x1="169.2342" y1="283.349" x2="370.8605" y2="283.349">
<stop offset="0%" style="stop-color:rgb(229,196,153);stop-opacity: 1"/>
<stop offset="0.00611609%" style="stop-color:rgb(229,196,153);stop-opacity: 1"/>
<stop offset="100%" style="stop-color:rgb(172,132,97);stop-opacity: 1"/>
<stop offset="100%" style="stop-color:rgb(172,132,97);stop-opacity: 1"/>
</linearGradient>
<path style="stroke: none; stroke-width: 1; stroke-dasharray: none; stroke-linecap: butt; stroke-dashoffset: 0; stroke-linejoin: miter; stroke-miterlimit: 4; fill: url(#SVGID_0); fill-rule: nonzero; opacity: 1;"  transform=" translate(-270.1627958453, -282.9963459911)" d="M 370.5 316 c 0.1 -0.3 0 -0.5 -0.1 -0.8 c -0.6 -6.8 -1.7 -13.7 -3.4 -20.5 c -3.9 -15.6 -10.8 -31.6 -18.8 -46.5 c -1.8 -3.3 -2.7 -7.1 -2.8 -10.8 c 0 -1.7 -0.1 -3.3 -0.3 -4.9 c -0.3 -2.6 -0.9 -5.1 -1.8 -7.6 c 0 0 0 0 0 0 c -1.6 -4.7 -4.2 -9.1 -7.6 -12.8 c -4.1 -4.5 -9.4 -8 -15.2 -10 c 1.1 2.6 1.7 5.5 1.9 8.4 c 0.3 4.4 -0.1 8.8 0.3 13.2 c 0.4 4.4 1.7 8.9 4.8 12.1 c 0.3 0.3 0.7 0.7 1 1 c 0 0 0 0 0 0 c 3.1 2.5 7 3.7 10.8 5.2 c 0.6 0.2 1.2 0.5 1.8 0.7 c -2.3 -5 -4.8 -10 -7.3 -14.9 c 3.1 4.5 6.4 9.9 9.6 16 c 1.5 2.8 3 5.7 4.4 8.8 c 3.6 7.6 7 15.7 9.9 24 c -1.5 -1.4 -3 -2.7 -4.7 -3.9 c -1.9 -1.4 -4 -2.6 -6.1 -3.6 c -2.1 -1 -4.4 -1.8 -6.7 -2.3 c -1 -0.3 -2 -0.5 -3 -0.7 c -3.6 -0.7 -7.1 -1.2 -10.5 -2 c -2.1 -0.5 -4.2 -1.2 -6.2 -2.1 c 3.2 1.1 6.8 1.6 9.9 1.9 c 2 0.2 4 0.3 6 0.5 c 0 0 0 0 0 0 c -1.1 -2.2 -2.3 -4.4 -3.9 -6.2 c -2.4 -2.8 -5.9 -4.8 -9.6 -5.5 c -2.5 -0.5 -5.1 -0.3 -7.7 -0.4 c -2.6 0 -5.2 -0.3 -7.5 -1.4 c -1.4 -0.7 -2.7 -1.8 -3.6 -3.1 c 0.1 5.6 2.4 11.2 6.4 15.2 c 4.5 4.5 10.9 7 17.2 6.6 c 2.9 -0.2 5.9 -0.5 8.8 -1.3 c 2.8 -0.4 6.9 1.2 9.6 2.5 c 2 1 3.9 2.2 5.7 3.5 c 1.5 1.1 2.9 2.4 4.3 3.7 c 2.2 2.2 3.7 4.9 4.6 7.8 c 2.1 6.9 3.7 14 4.8 20.9 c -1.6 -2.2 -3.3 -4.2 -5.3 -6.1 c -1.8 -1.7 -3.7 -3.3 -5.7 -4.7 c -0.8 -0.6 -1.2 -1.5 -1.1 -2.5 c 0 0 0 0 0 0 c 0.3 -2.1 -0.3 -4.4 -1.8 -6.2 c -3.6 -4 -12.5 -6.7 -16.7 -2.2 c -1.4 1.8 -1.5 3.9 -0.8 5.8 c 0.9 2.7 3.3 5.1 5.8 6.4 c 2.1 1.3 4.4 2.4 6.9 2.4 c 2.2 0 3.9 -0.9 5 -2.3 c 0.4 -0.5 1.1 -0.5 1.5 -0.2 c 1.9 1.5 3.7 3.1 5.4 4.9 c 1.5 1.6 2.9 3.3 4.1 5.1 c 2.4 3.5 3.7 7.5 4 11.7 c 0.4 6.3 0.2 12.4 -0.6 18.3 c -0.9 6.7 -2.4 13.4 -4.6 20.1 c -0.4 -2.7 -1.2 -5.3 -2.2 -7.8 c -0.5 -1.1 -1 -2.2 -1.6 -3.3 c -0.6 -1 -1.2 -2 -1.9 -2.9 c 0 0 -0.1 -0.1 -0.1 -0.1 c -1.4 -1.9 -2.9 -3.7 -4.3 -5.5 c -0.7 -0.9 -1.4 -1.8 -2 -2.8 c -0.6 -1 -1.1 -1.9 -1.6 -3 c -0.4 -1 -0.7 -2 -0.9 -3 c 0.6 2 1.6 3.8 2.8 5.5 c 1.6 2.3 3.5 4.3 5.4 6.3 c 0.5 -0.2 0.2 -0.1 0.8 -0.3 c 0.1 -1.3 0.2 -2.7 0.3 -4 c 0.3 -5.6 -0.2 -11.6 -3.5 -16.1 c -1.8 -2.5 -4.4 -4.4 -6.6 -6.6 c -1.3 -1.3 -2.4 -2.8 -3.2 -4.4 c 0 0 0 0 0 0 c -0.1 0.3 -0.3 0.5 -0.4 0.8 c -2 3.7 -3.8 7.6 -4.4 11.8 c -0.8 5.3 0.2 11.1 3.9 15 c 2.4 2.5 5.6 4 8.6 5.7 c 0.3 0.2 0.8 0.5 1.2 0.7 c 0.4 0.2 0.7 0.5 1 0.7 c 0 0 0 0 0 0 c 0.5 0.4 1 0.9 1.4 1.4 l 0 0 c 0 0 0 0 0 0 c 0.5 0.6 0.9 1.2 1.3 1.9 c 0 0 0 0 0 0 c 0.5 1 0.9 2.1 1.3 3.1 c 0.4 1 0.7 2 1 3 c 1.4 5.9 0.6 12.1 -2.1 17.5 c -3.4 6.7 -7.7 13.2 -12.9 19.1 c 0.1 -0.4 0.2 -0.8 0.2 -1.2 c 0.6 -2.9 0.9 -5.8 0.9 -8.8 c 0 -2.9 -0.3 -5.9 -0.8 -8.7 c -1.2 -6.4 -3.6 -12.7 -7.3 -18.1 l 0 0 c -2.2 -3.3 -3.7 -7 -4.4 -10.9 c -0.4 -2.3 -0.7 -4.7 -0.9 -7.1 c -0.5 -5.3 -0.3 -10.7 -0.7 -16.1 c -0.1 -1.4 -0.2 -2.7 -0.4 -4.1 l 0 0 c -0.2 -1.4 -0.2 -2.8 0 -4.2 c 0.3 -2.3 0.5 -4.7 0.5 -7 c 0 -1.3 -0.1 -2.5 -0.3 -3.8 c 0 0 0 0 0 0 c -0.7 -5.3 -2.6 -10.4 -6.2 -14.2 c -3.7 -3.9 -8.9 -6.1 -13.3 -9.2 c -0.2 -0.1 -0.4 -0.3 -0.5 -0.4 c 1.2 7.2 -0.8 15.3 1.9 22.2 c 2 5 6.2 8.8 10.3 12.2 c 1.3 1.1 2.6 2.2 3.8 3.3 l 0.1 0.1 c -0.1 -1.5 -0.3 -3 -0.6 -4.5 c -0.7 -3.6 -1.9 -7 -3.2 -10.4 c -0.7 -1.8 -1.4 -3.6 -2.2 -5.3 c 0.5 0.9 0.9 1.7 1.4 2.6 c 0.6 1.2 1.2 2.4 1.7 3.6 c 0.5 1.2 1.1 2.4 1.5 3.7 c 0.2 0.6 0.5 1.2 0.7 1.9 c 0.2 0.6 0.4 1.3 0.6 1.9 c 0.4 1.3 0.7 2.6 0.9 3.8 c 0.2 1.3 0.4 2.6 0.6 3.9 c 0 0.1 0 0.1 0 0.2 c 0.1 1.3 0.2 2.5 0.2 3.8 c 0.2 5.3 -0.2 10.7 0.1 16.2 c 0.2 3.2 0.5 6.4 1 9.5 c -1 -0.9 -2 -1.8 -3 -2.6 c -2.2 -1.8 -4.5 -3.4 -6.8 -5 c -4.5 -3.1 -9.1 -6 -13.4 -9.3 h 0 c -0.1 0 -0.1 -0.1 -0.2 -0.1 c -4.3 -3.3 -8.3 -7 -11.4 -11.4 c -1 -1.5 -2 -3.1 -2.7 -4.7 c 3.6 5.5 8.2 10.2 13.6 13.9 c 0 -0.1 0 -0.1 0 -0.2 c -1 -4.1 -1.3 -8.4 -2.1 -12.6 s -2.3 -8.4 -5.3 -11.4 c -2 -2.1 -4.6 -3.5 -7.1 -5.1 c -1.7 -1.1 -3.3 -2.3 -4.6 -3.8 c -3.3 5.9 -4.2 13.1 -2.3 19.6 c 2.1 7.1 7.4 13.2 14.2 16.2 c 0.7 0.3 1.7 0.7 2.7 1 c 2.5 0.8 4.8 2 6.9 3.6 c 3.2 2.5 6.4 4.8 9.6 7.1 c -0.9 -0.1 -1.9 -0.3 -2.8 -0.4 c -3.4 -0.3 -6.9 -0.1 -10.2 0.4 c -2.5 0.4 -5 0.9 -7.5 1.4 c -0.7 0.2 -1.5 -0.1 -2 -0.6 v 0 c -0.1 -0.1 -0.2 -0.2 -0.2 -0.3 c -1 -1.6 -2.9 -2.8 -4.6 -3.5 c -6.5 -2.9 -20.3 0.3 -17.9 9.3 c 0.1 0.2 0.1 0.4 0.2 0.6 c 0.5 1.2 1.3 2.3 2.4 3 c 6.5 4.2 20.2 3.7 20.6 -5.5 c 0 -0.6 0.5 -1.2 1.1 -1.3 c 2.7 -0.5 5.4 -0.9 8.1 -1.2 c 3.3 -0.4 6.5 -0.5 9.7 -0.1 c 0 0 0.1 0 0.1 0 c 4.8 0.6 9.2 2.9 12.6 6.3 c 0.8 0.9 1.6 1.7 2.4 2.6 c 6.8 8 10.1 18.6 9.6 28.9 c 0 0.6 -0.1 1.1 -0.1 1.7 c -0.1 -0.2 -0.3 -0.3 -0.4 -0.5 l -0.4 -0.5 l -0.5 -0.5 c -1.2 -1.3 -2.6 -2.4 -4 -3.3 c -1.5 -0.9 -3 -1.7 -4.6 -2.3 c -1.6 -0.6 -3.2 -1.1 -4.8 -1.4 c -1.6 -0.3 -3.3 -0.6 -4.9 -0.7 c -3.3 -0.3 -6.5 -0.2 -9.8 -0.1 c -3.2 0.1 -6.4 0.3 -9.5 0.4 c -0.1 0 -0.2 0 -0.3 0 h 0 c -3 0 -6.1 -0.1 -9 -0.7 c -3.1 -0.6 -6 -1.6 -8.7 -3.2 c -0.9 -0.5 -1.7 -1.1 -2.5 -1.7 c 0 0 -0.1 0 -0.1 0 c 5.8 3.3 12.6 4.8 19.2 4.5 c -1.5 -1.7 -3 -3.4 -4.5 -5.1 c -2.7 -3 -5.8 -6 -9.7 -7.4 c -3.7 -1.4 -7.8 -1.4 -11.7 -1.7 c -2.9 -0.2 -5.8 -0.4 -8.5 -1.4 c -0.2 5.2 2 10.6 5.8 14.3 c 4.9 4.8 12 7 18.9 6.6 c 3 -0.1 5.9 -0.7 8.7 -1.6 c 0.8 -0.3 1.6 -0.6 2.4 -0.4 c 3.2 0.1 6.4 0 9.6 0 c 3.2 0 6.3 0.1 9.4 0.5 c 1.5 0.2 3.1 0.5 4.5 0.8 c 1.5 0.4 2.9 0.9 4.3 1.5 c 1.4 0.6 2.7 1.3 3.9 2.2 c 1.2 0.8 2.3 1.8 3.2 2.9 c 1.3 1.5 2.3 3.3 3 5.2 c -0.6 2.4 -1.4 4.6 -2.5 6.8 c 0 0 0 0 0 0.1 c -2 4.2 -5.2 7.6 -9 10.1 c -8.6 5.5 -18.8 9.7 -30.8 12.3 c -11.8 2.5 -22.2 3.3 -31.3 2.8 c 0.6 -0.6 1.2 -1.2 1.7 -1.8 c 1.7 -1.2 3.3 -2.6 4.8 -4 c 1.7 -1.6 3.3 -3.2 4.9 -4.7 c 1.6 -1.5 3.2 -2.9 5 -4.2 c 1.7 -1.2 3.6 -2.2 5.7 -3 l 0 0 c 1 -0.4 2.1 -0.5 3.1 -0.2 c 4.4 1.1 8.9 2 13.3 1.2 c 5.4 -0.9 10.3 -4.2 14 -8.3 c 3 -3.3 5.3 -7 7.5 -10.8 c 0 0 0 0 0 0 c -2.8 0.1 -5.7 0.1 -8.5 0.2 c -5.1 0.2 -10.3 0.7 -15 2.8 c -5.3 2.3 -9.5 6.4 -13.3 10.9 c 3.1 -0.7 6.3 -1.1 9.5 -1.5 c 3.1 -0.4 6.1 -0.8 9.2 -1.2 c -0.2 0.1 -0.4 0.1 -0.6 0.2 c -2.1 0.7 -4.3 1.1 -6.5 1.5 c -4.2 0.7 -8.4 1.2 -12.7 2.3 c -0.3 0.1 -0.5 0.1 -0.8 0.2 c -1.1 0.3 -2.2 0.7 -3.4 1.2 c -1.1 0.5 -2.2 1 -3.2 1.6 c -2.1 1.2 -4 2.6 -5.8 4 c -0.8 0.6 -1.5 1.2 -2.3 1.8 c 0.1 -0.7 0.2 -1.4 0.3 -2.1 c 0.2 -2 0.2 -4 -0.1 -6 c -0.3 -4 -1.7 -7.6 -3.5 -11.1 c -1.7 -3.4 -3.9 -6.5 -6.3 -9.4 c -2.3 -2.9 -4.8 -5.6 -7.3 -8.3 c -0.3 -0.4 -0.7 -0.7 -1 -1.1 c -2.1 -2.3 -4.2 -4.7 -6.1 -7.2 c -1.3 -1.7 -2.6 -3.5 -3.7 -5.4 c 2.7 3.6 5.9 6.8 9.3 9.8 c -0.4 -2.5 -0.5 -4.9 -0.9 -7.4 c -0.5 -3.5 -1.5 -7 -3.7 -9.7 c -4.3 -5.3 -12.1 -6.3 -17.6 -10.2 c -1.3 5 -1 10.3 0.9 15.1 c 2.1 5.4 6.2 10 11.3 12.8 c 2 1.1 4.1 1.8 6.3 2.5 c 1.3 0.4 2.4 1.2 3.3 2.3 l 0 0 c 2.3 2.8 4.6 5.7 6.7 8.6 c 1.5 2 2.8 4.2 4 6.3 c -0.2 -0.2 -0.5 -0.3 -0.7 -0.4 c -0.8 -0.5 -1.7 -0.9 -2.5 -1.3 c -0.9 -0.4 -1.9 -0.8 -2.8 -1 c -1.9 -0.5 -3.7 -0.6 -5.6 -0.6 c -2.1 0 -4.2 0.2 -6.3 0.5 c -0.6 0.1 -1.1 0 -1.6 -0.2 c 0 0 0 0 0 0 c -0.3 -0.1 -0.6 -0.3 -0.9 -0.5 c -2.5 -2.1 -6.4 -3 -11.4 -1.5 c -8.9 4.5 -10.4 12.9 -5.9 16.5 c 2.5 2 6.9 2.6 13 0.3 c 5.7 -2.7 7.7 -7.1 7 -10.8 c -0.1 -0.6 0.3 -1.2 1 -1.3 h 0 c 1.7 -0.1 3.4 -0.1 5 0.1 c 1.6 0.2 3.3 0.4 4.7 0.9 c 1.5 0.5 2.8 1.3 4.1 2.2 c 1.3 0.9 2.5 2 3.6 3.2 c 1.7 1.9 3.4 3.9 3.3 6.5 c 0.2 3.3 -0.3 6.7 -1.6 9.5 c -0.4 0.8 -0.8 1.5 -1.3 2.2 c -3.5 4.7 -9.6 6.7 -15.2 5.2 c -9 -2.3 -16.5 -6.2 -22.7 -10.9 c -17.5 -13.4 -24.7 -33.9 -27.9 -48.2 c -1.3 -5.7 0.9 -11.6 4.4 -16.2 c 1.4 -1.8 3 -3.4 4.9 -4.7 c 9.2 -6.3 15.7 -4.5 17.3 -3.8 c 0 0 0 0 0 0 c 0.2 0.1 0.3 0.1 0.4 0.2 c 0.2 0.1 0.3 0.1 0.4 0.2 c 0.1 0 0.1 0 0.2 0.1 c 1.8 0.8 3.5 1.5 5.1 2.1 c 0 0 0 0 0.1 0 c 12.2 4.4 20.3 3.1 25.5 -0.7 c 3.3 -2.4 5.4 -5.8 6.6 -9.4 c 3.6 -10.8 6.5 -7.6 9.9 -14.2 c 2.9 -5.6 -12.1 -6.5 -16.8 -6.6 c 8 0.1 20.8 -1.3 22 -6.8 c 1.2 -5.8 -1.7 -9.5 11.2 -11.6 c 12.9 -2.2 13.1 -11.2 6.1 -26.7 c -7 -15.5 1.2 -31.8 1.2 -31.8 c 2.7 -7 4.6 -14.2 5.7 -21.4 c 0.5 -3.5 0.8 -7.1 0.9 -10.6 c 0 0 -1.3 -33.1 -34.5 -61.1 c -5 20.5 -17.1 39.5 -30.5 56.2 c -17.7 22 -38.3 42.1 -51.7 67 c -6.3 11.8 -10.9 24.5 -13.5 37.5 c -2 9.7 -2.9 19.7 -2.7 29.6 c 0.6 31.8 12.2 63.4 36.6 83.7 c 24.4 20.4 58.4 26.1 89.6 19.7 c 32.3 -6.6 60.8 -32.5 69.7 -63.3 C 369.8 349.3 371.7 332.6 370.5 316 z M 269 241.4 c -0.1 1.7 -0.6 3.3 -1.6 4.7 c -1.3 1.9 -3.4 3.4 -5.7 3.6 c -2.6 0.2 -5 -1 -7 -2.7 c -2 -1.6 -3.5 -3.7 -5.5 -5.4 c -1.8 -1.5 -4.3 -3 -7 -4.1 c -0.2 -0.1 -0.1 -0.4 0.1 -0.4 c 3.1 0.2 6.1 1.2 8.7 3 c 2.8 1.8 5.4 4 8.6 4.8 c 2.9 0.7 6 -0.4 7.9 -2.7 c 0.6 -0.8 1 -1.6 1.3 -2.6 c 0 -0.1 0.2 -0.1 0.2 0 C 269 240.2 269 241 269 241.4 z M 282.8 228.8 c -0.3 0.5 -1 0.6 -1.5 0.2 c -1.6 -1.4 -3.1 -3 -4.7 -4.2 c -6.6 -4.8 -15.4 -5 -23.4 -3.6 c -4.8 0.8 -9.7 3.1 -14.4 5.9 c -0.6 0.4 -1.2 -0.5 -0.7 -0.9 c 2.2 -1.8 4.6 -3.5 6.5 -4.4 c 8.6 -4.3 17.5 -7.4 27.6 -6.3 c 4.2 0.5 8.8 1.6 10.9 5.2 C 284.5 223.2 284.3 226.4 282.8 228.8 z" stroke-linecap="round" />
</g>
		<g transform="matrix(0.5861836184 0 0 0.5861836184 -19.3808693031 -39.4187064173)"  >
<radialGradient id="SVGID_1" gradientUnits="userSpaceOnUse" gradientTransform="matrix(1 0 0 1 0 0)"  cx="207.7127" cy="130.6335" r="141.6888" fx="207.7127" fy="130.6335">
<stop offset="0%" style="stop-color:rgb(221,194,160);stop-opacity: 1"/>
<stop offset="7.367092%" style="stop-color:rgb(203,178,147);stop-opacity: 1"/>
<stop offset="53.39%" style="stop-color:rgb(95,83,69);stop-opacity: 1"/>
<stop offset="85.2%" style="stop-color:rgb(27,23,19);stop-opacity: 1"/>
<stop offset="100%" style="stop-color:rgb(0,0,0);stop-opacity: 1"/>
</radialGradient>
<path style="stroke: none; stroke-width: 1; stroke-dasharray: none; stroke-linecap: butt; stroke-dashoffset: 0; stroke-linejoin: miter; stroke-miterlimit: 4; fill: url(#SVGID_1); fill-rule: nonzero; opacity: 1;"  transform=" translate(-237.1, -215.75)" d="M 302.2 196.4 c -0.1 3.5 -0.4 7 -0.9 10.6 c -2 -20.6 -11.7 -40.5 -27.1 -54.3 c -10.4 20.2 -25.1 38.2 -40 55.4 c -18.4 21.2 -37.9 41.9 -51.9 66.3 c -4 6.9 -7.5 14.2 -10.3 21.7 c 2.7 -13.1 7.2 -25.8 13.5 -37.5 c 13.4 -24.9 34 -45 51.7 -67 c 13.4 -16.7 25.5 -35.7 30.5 -56.2 C 300.9 163.2 302.2 196.4 302.2 196.4 z" stroke-linecap="round" />
</g>
		<g transform="matrix(0.5861836184 0 0 0.5861836184 -37.9010166836 45.0700197469)"  >
<radialGradient id="SVGID_2" gradientUnits="userSpaceOnUse" gradientTransform="matrix(1 0 0 1 0 0)"  cx="150.1817" cy="298.2196" r="118.7256" fx="150.1817" fy="298.2196">
<stop offset="0%" style="stop-color:rgb(85,34,16);stop-opacity: 1"/>
<stop offset="7.831544%" style="stop-color:rgb(110,66,51);stop-opacity: 1"/>
<stop offset="21.23%" style="stop-color:rgb(148,116,104);stop-opacity: 1"/>
<stop offset="34.79%" style="stop-color:rgb(181,158,151);stop-opacity: 1"/>
<stop offset="48.24%" style="stop-color:rgb(207,193,188);stop-opacity: 1"/>
<stop offset="61.550000000000004%" style="stop-color:rgb(228,220,217);stop-opacity: 1"/>
<stop offset="74.7%" style="stop-color:rgb(243,240,238);stop-opacity: 1"/>
<stop offset="87.61%" style="stop-color:rgb(252,251,251);stop-opacity: 1"/>
<stop offset="100%" style="stop-color:rgb(255,255,255);stop-opacity: 1"/>
</radialGradient>
<path style="stroke: none; stroke-width: 1; stroke-dasharray: none; stroke-linecap: butt; stroke-dashoffset: 0; stroke-linejoin: miter; stroke-miterlimit: 4; fill: url(#SVGID_2); fill-rule: nonzero; opacity: 1;"  transform=" translate(-205.5055528008, -359.8835504988)" d="M 225.2 406.6 c 0 0 -33.6 -16.5 -38.2 -56.4 c -2.2 -19 -1 -28.8 0.8 -33.9 c 1.2 -3.3 5.5 -4.2 7.9 -1.7 c 4.2 4.5 13 12.3 28.3 19 c -1.6 -0.6 -8.1 -2.5 -17.3 3.8 c -1.9 1.3 -3.5 2.9 -4.9 4.7 c -3.5 4.6 -5.7 10.5 -4.4 16.2 C 200.4 372.7 207.7 393.2 225.2 406.6 z" stroke-linecap="round" />
</g>
		<g transform="matrix(0.5861836184 0 0 0.5861836184 -17.1533715532 41.5332512838)"  >
<radialGradient id="SVGID_3" gradientUnits="userSpaceOnUse" gradientTransform="matrix(1 0 0 1 0 0)"  cx="236.6932" cy="341.6682" r="25.8762" fx="236.6932" fy="341.6682">
<stop offset="0%" style="stop-color:rgb(221,194,160);stop-opacity: 1"/>
<stop offset="7.367092%" style="stop-color:rgb(203,178,147);stop-opacity: 1"/>
<stop offset="53.39%" style="stop-color:rgb(95,83,69);stop-opacity: 1"/>
<stop offset="85.2%" style="stop-color:rgb(27,23,19);stop-opacity: 1"/>
<stop offset="100%" style="stop-color:rgb(0,0,0);stop-opacity: 1"/>
</radialGradient>
<path style="stroke: none; stroke-width: 1; stroke-dasharray: none; stroke-linecap: butt; stroke-dashoffset: 0; stroke-linejoin: miter; stroke-miterlimit: 4; fill: url(#SVGID_3); fill-rule: nonzero; opacity: 1;"  transform=" translate(-240.9, -353.85)" d="M 252 367.5 c 0 0 -3.6 -7.3 -10.7 -13 c -7.2 -5.6 -11.5 -14.3 -11.5 -14.3 c 5.5 3.9 13.3 4.9 17.6 10.2 c 2.2 2.7 3.2 6.2 3.7 9.7 C 251.5 362.5 251.6 365 252 367.5 z" stroke-linecap="round" />
</g>
		<g transform="matrix(0.5861836184 0 0 0.5861836184 -22.1247601888 63.1665668514)"  >
<radialGradient id="SVGID_4" gradientUnits="userSpaceOnUse" gradientTransform="matrix(1 0 0 1 0 0)"  cx="235.5902" cy="380.9977" r="18.4661" fx="235.5902" fy="380.9977">
<stop offset="0%" style="stop-color:rgb(221,194,160);stop-opacity: 1"/>
<stop offset="7.367092%" style="stop-color:rgb(203,178,147);stop-opacity: 1"/>
<stop offset="53.39%" style="stop-color:rgb(95,83,69);stop-opacity: 1"/>
<stop offset="85.2%" style="stop-color:rgb(27,23,19);stop-opacity: 1"/>
<stop offset="100%" style="stop-color:rgb(0,0,0);stop-opacity: 1"/>
</radialGradient>
<path style="stroke: none; stroke-width: 1; stroke-dasharray: none; stroke-linecap: butt; stroke-dashoffset: 0; stroke-linejoin: miter; stroke-miterlimit: 4; fill: url(#SVGID_4); fill-rule: nonzero; opacity: 1;"  transform=" translate(-232.4190590804, -390.7553567663)" d="M 242.7 384.8 c -0.5 0 -0.9 -0.1 -1.3 -0.1 c -2.7 0.1 -5.3 0.6 -7.8 1.6 c -1.4 0.5 -2.8 1.2 -4.1 2 c -2.1 1.3 -4 2.9 -4.9 5.1 c -0.8 1.8 -0.8 3.9 -0.1 5.8 c 0 0.1 0 0.1 0.1 0.2 c -4.5 -3.7 -3 -12 5.9 -16.5 c 4.9 -1.6 8.9 -0.6 11.4 1.5 C 242 384.5 242.4 384.7 242.7 384.8 z" stroke-linecap="round" />
</g>
		<g transform="matrix(0.5861836184 0 0 0.5861836184 6.4112099066 47.2595325061)"  >
<radialGradient id="SVGID_5" gradientUnits="userSpaceOnUse" gradientTransform="matrix(1 0 0 1 0 0)"  cx="271.3855" cy="355.8179" r="26.7347" fx="271.3855" fy="355.8179">
<stop offset="0%" style="stop-color:rgb(221,194,160);stop-opacity: 1"/>
<stop offset="7.367092%" style="stop-color:rgb(203,178,147);stop-opacity: 1"/>
<stop offset="53.39%" style="stop-color:rgb(95,83,69);stop-opacity: 1"/>
<stop offset="85.2%" style="stop-color:rgb(27,23,19);stop-opacity: 1"/>
<stop offset="100%" style="stop-color:rgb(0,0,0);stop-opacity: 1"/>
</radialGradient>
<path style="stroke: none; stroke-width: 1; stroke-dasharray: none; stroke-linecap: butt; stroke-dashoffset: 0; stroke-linejoin: miter; stroke-miterlimit: 4; fill: url(#SVGID_5); fill-rule: nonzero; opacity: 1;"  transform=" translate(-281.1, -363.61875)" d="M 298.3 371.4 c -6.7 0.3 -13.4 -1.2 -19.2 -4.5 c 0 0 0 0 0 0 c -8.1 -3.7 -15.2 -11.1 -15.2 -11.1 c 2.7 1 5.6 1.3 8.5 1.4 c 4 0.2 8 0.2 11.7 1.7 c 3.8 1.5 6.9 4.4 9.7 7.4 C 295.3 368 296.7 369.7 298.3 371.4 z" stroke-linecap="round" />
</g>
		<g transform="matrix(0.5861836184 0 0 0.5861836184 7.5902940558 34.3120314024)"  >
<radialGradient id="SVGID_6" gradientUnits="userSpaceOnUse" gradientTransform="matrix(1 0 0 1 0 0)"  cx="276.0894" cy="335.4279" r="20.1881" fx="276.0894" fy="335.4279">
<stop offset="0%" style="stop-color:rgb(221,194,160);stop-opacity: 1"/>
<stop offset="7.367092%" style="stop-color:rgb(203,178,147);stop-opacity: 1"/>
<stop offset="53.39%" style="stop-color:rgb(95,83,69);stop-opacity: 1"/>
<stop offset="85.2%" style="stop-color:rgb(27,23,19);stop-opacity: 1"/>
<stop offset="100%" style="stop-color:rgb(0,0,0);stop-opacity: 1"/>
</radialGradient>
<path style="stroke: none; stroke-width: 1; stroke-dasharray: none; stroke-linecap: butt; stroke-dashoffset: 0; stroke-linejoin: miter; stroke-miterlimit: 4; fill: url(#SVGID_6); fill-rule: nonzero; opacity: 1;"  transform=" translate(-283.1114587175, -341.5309592511)" d="M 294.6 340.8 c -0.3 -0.1 -0.5 -0.2 -0.8 -0.3 c -0.6 -0.2 -1.3 -0.4 -1.9 -0.6 c -2.6 -0.7 -5.3 -0.9 -8 -0.6 c -1.5 0.1 -3 0.4 -4.5 0.9 c -2.4 0.7 -4.8 1.9 -6.2 4 c -0.6 0.8 -1 1.8 -1.1 2.8 c -0.1 -0.2 -0.1 -0.4 -0.2 -0.6 c -2.4 -9 11.4 -12.2 17.9 -9.3 c 1.7 0.7 3.6 1.8 4.6 3.5 C 294.5 340.6 294.5 340.7 294.6 340.8 z" stroke-linecap="round" />
</g>
		<g transform="matrix(0.5861836184 0 0 0.5861836184 20.6554718337 63.3099727074)"  >
<radialGradient id="SVGID_7" gradientUnits="userSpaceOnUse" gradientTransform="matrix(1 0 0 1 0 0)"  cx="316.9707" cy="384.3642" r="26.3744" fx="316.9707" fy="384.3642">
<stop offset="0%" style="stop-color:rgb(221,194,160);stop-opacity: 1"/>
<stop offset="7.367092%" style="stop-color:rgb(203,178,147);stop-opacity: 1"/>
<stop offset="53.39%" style="stop-color:rgb(95,83,69);stop-opacity: 1"/>
<stop offset="85.2%" style="stop-color:rgb(27,23,19);stop-opacity: 1"/>
<stop offset="100%" style="stop-color:rgb(0,0,0);stop-opacity: 1"/>
</radialGradient>
<path style="stroke: none; stroke-width: 1; stroke-dasharray: none; stroke-linecap: butt; stroke-dashoffset: 0; stroke-linejoin: miter; stroke-miterlimit: 4; fill: url(#SVGID_7); fill-rule: nonzero; opacity: 1;"  transform=" translate(-305.4, -391)" d="M 323.8 384.1 C 323.8 384.1 323.8 384.1 323.8 384.1 c -0.2 0.1 -13.6 8.5 -36.8 13.8 c 3.8 -4.5 8 -8.5 13.3 -10.9 c 4.7 -2 9.9 -2.6 15 -2.8 C 318.1 384.2 320.9 384.2 323.8 384.1 z" stroke-linecap="round" />
</g>
		<g transform="matrix(0.5861836184 0 0 0.5861836184 44.3497370097 25.5304385014)"  >
<radialGradient id="SVGID_8" gradientUnits="userSpaceOnUse" gradientTransform="matrix(1 0 0 1 0 0)"  cx="342.8969" cy="310.2477" r="29.7313" fx="342.8969" fy="310.2477">
<stop offset="0%" style="stop-color:rgb(221,194,160);stop-opacity: 1"/>
<stop offset="7.367092%" style="stop-color:rgb(203,178,147);stop-opacity: 1"/>
<stop offset="53.39%" style="stop-color:rgb(95,83,69);stop-opacity: 1"/>
<stop offset="85.2%" style="stop-color:rgb(27,23,19);stop-opacity: 1"/>
<stop offset="100%" style="stop-color:rgb(0,0,0);stop-opacity: 1"/>
</radialGradient>
<path style="stroke: none; stroke-width: 1; stroke-dasharray: none; stroke-linecap: butt; stroke-dashoffset: 0; stroke-linejoin: miter; stroke-miterlimit: 4; fill: url(#SVGID_8); fill-rule: nonzero; opacity: 1;"  transform=" translate(-345.8212339483, -326.55)" d="M 353.3 343.9 c -0.3 -0.3 -0.7 -0.5 -1 -0.7 c -0.5 -0.3 -0.9 -0.5 -1.2 -0.7 c -3 -1.7 -6.2 -3.2 -8.6 -5.7 c -3.7 -3.9 -4.7 -9.7 -3.9 -15 c 0.7 -4.2 2.4 -8.1 4.4 -11.8 c 0.1 -0.3 0.3 -0.5 0.4 -0.8 C 343.2 309.7 336.8 327.4 353.3 343.9 z" stroke-linecap="round" />
</g>
		<g transform="matrix(0.5861836184 0 0 0.5861836184 14.9180667472 15.2722251795)"  >
<radialGradient id="SVGID_9" gradientUnits="userSpaceOnUse" gradientTransform="matrix(1 0 0 1 0 0)"  cx="293.4901" cy="294.7651" r="28.1924" fx="293.4901" fy="294.7651">
<stop offset="0%" style="stop-color:rgb(221,194,160);stop-opacity: 1"/>
<stop offset="7.367092%" style="stop-color:rgb(203,178,147);stop-opacity: 1"/>
<stop offset="53.39%" style="stop-color:rgb(95,83,69);stop-opacity: 1"/>
<stop offset="85.2%" style="stop-color:rgb(27,23,19);stop-opacity: 1"/>
<stop offset="100%" style="stop-color:rgb(0,0,0);stop-opacity: 1"/>
</radialGradient>
<path style="stroke: none; stroke-width: 1; stroke-dasharray: none; stroke-linecap: butt; stroke-dashoffset: 0; stroke-linejoin: miter; stroke-miterlimit: 4; fill: url(#SVGID_9); fill-rule: nonzero; opacity: 1;"  transform=" translate(-295.6122732426, -309.05)" d="M 305.2 325.5 c -2.4 -7.4 -7.9 -12.6 -14 -18.8 c -6.2 -6.2 -5.1 -14.1 -5.1 -14.1 c 1.3 1.5 2.9 2.8 4.6 3.8 c 2.4 1.6 5 3 7.1 5.1 c 3 3 4.5 7.2 5.3 11.4 S 304.2 321.3 305.2 325.5 z" stroke-linecap="round" />
</g>
		<g transform="matrix(0.5861836184 0 0 0.5861836184 29.2723710242 6.9484177981)"  >
<radialGradient id="SVGID_10" gradientUnits="userSpaceOnUse" gradientTransform="matrix(1 0 0 1 0 0)"  cx="302.7813" cy="279.1284" r="29.1673" fx="302.7813" fy="279.1284">
<stop offset="0%" style="stop-color:rgb(221,194,160);stop-opacity: 1"/>
<stop offset="7.367092%" style="stop-color:rgb(203,178,147);stop-opacity: 1"/>
<stop offset="53.39%" style="stop-color:rgb(95,83,69);stop-opacity: 1"/>
<stop offset="85.2%" style="stop-color:rgb(27,23,19);stop-opacity: 1"/>
<stop offset="100%" style="stop-color:rgb(0,0,0);stop-opacity: 1"/>
</radialGradient>
<path style="stroke: none; stroke-width: 1; stroke-dasharray: none; stroke-linecap: butt; stroke-dashoffset: 0; stroke-linejoin: miter; stroke-miterlimit: 4; fill: url(#SVGID_10); fill-rule: nonzero; opacity: 1;"  transform=" translate(-320.1, -294.85)" d="M 314 284.1 c -0.8 6.5 1.1 13.3 5 18.5 c 2.3 3 5.3 5.6 6.6 9.2 c 0.2 0.6 0.4 1.3 0.5 1.9 c -1.2 -1.1 -2.5 -2.2 -3.8 -3.3 c -4.1 -3.5 -8.3 -7.2 -10.3 -12.2 c -2.7 -6.9 -0.7 -15 -1.9 -22.2 c 0.2 0.1 0.4 0.3 0.5 0.4 c 4.4 3.1 9.6 5.3 13.3 9.2 c 3.6 3.8 5.6 9 6.2 14.2 c -1 -2.5 -2.2 -4.8 -3.8 -6.9 C 323.3 288.7 318.9 285.3 314 284.1 z" stroke-linecap="round" />
</g>
		<g transform="matrix(0.5861836184 0 0 0.5861836184 37.9771977574 6.7432535318)"  >
<radialGradient id="SVGID_11" gradientUnits="userSpaceOnUse" gradientTransform="matrix(1 0 0 1 0 0)"  cx="334.917" cy="294.4629" r="0.3322" fx="334.917" fy="294.4629">
<stop offset="0%" style="stop-color:rgb(221,194,160);stop-opacity: 1"/>
<stop offset="7.367092%" style="stop-color:rgb(203,178,147);stop-opacity: 1"/>
<stop offset="53.39%" style="stop-color:rgb(95,83,69);stop-opacity: 1"/>
<stop offset="85.2%" style="stop-color:rgb(27,23,19);stop-opacity: 1"/>
<stop offset="100%" style="stop-color:rgb(0,0,0);stop-opacity: 1"/>
</radialGradient>
<path style="stroke: none; stroke-width: 1; stroke-dasharray: none; stroke-linecap: butt; stroke-dashoffset: 0; stroke-linejoin: miter; stroke-miterlimit: 4; fill: url(#SVGID_11); fill-rule: nonzero; opacity: 1;"  transform=" translate(-334.95, -294.5)" d="M 334.7 294.1 c 0.2 0.3 0.3 0.5 0.5 0.8 C 335 294.6 334.8 294.3 334.7 294.1 z" stroke-linecap="round" />
</g>
		<g transform="matrix(0.5861836184 0 0 0.5861836184 43.1994255103 2.9222524877)"  >
<radialGradient id="SVGID_12" gradientUnits="userSpaceOnUse" gradientTransform="matrix(1 0 0 1 0 0)"  cx="340.8124" cy="279.8729" r="17.9395" fx="340.8124" fy="279.8729">
<stop offset="0%" style="stop-color:rgb(221,194,160);stop-opacity: 1"/>
<stop offset="7.367092%" style="stop-color:rgb(203,178,147);stop-opacity: 1"/>
<stop offset="53.39%" style="stop-color:rgb(95,83,69);stop-opacity: 1"/>
<stop offset="85.2%" style="stop-color:rgb(27,23,19);stop-opacity: 1"/>
<stop offset="100%" style="stop-color:rgb(0,0,0);stop-opacity: 1"/>
</radialGradient>
<path style="stroke: none; stroke-width: 1; stroke-dasharray: none; stroke-linecap: butt; stroke-dashoffset: 0; stroke-linejoin: miter; stroke-miterlimit: 4; fill: url(#SVGID_12); fill-rule: nonzero; opacity: 1;"  transform=" translate(-343.8588599356, -287.9815629027)" d="M 353.7 293.4 c -0.8 -0.6 -1.5 -1.7 -2 -2.2 c -1.6 -1.4 -3.2 -2.7 -5.1 -3.7 c -1.9 -1 -3.9 -1.6 -6 -1.5 c -2.1 0.1 -4.2 1.1 -5.4 2.9 c -0.4 0.5 -0.6 1.1 -0.8 1.8 c -0.7 -1.9 -0.6 -3.9 0.8 -5.8 c 4.2 -4.5 13 -1.8 16.7 2.2 C 353.4 289 353.9 291.3 353.7 293.4 z" stroke-linecap="round" />
</g>
		<g transform="matrix(0.5861836184 0 0 0.5861836184 29.4482261096 -15.8248157767)"  >
<radialGradient id="SVGID_13" gradientUnits="userSpaceOnUse" gradientTransform="matrix(1 0 0 1 0 0)"  cx="297.389" cy="257.5024" r="40.0644" fx="297.389" fy="257.5024">
<stop offset="0%" style="stop-color:rgb(221,194,160);stop-opacity: 1"/>
<stop offset="7.367092%" style="stop-color:rgb(203,178,147);stop-opacity: 1"/>
<stop offset="53.39%" style="stop-color:rgb(95,83,69);stop-opacity: 1"/>
<stop offset="85.2%" style="stop-color:rgb(27,23,19);stop-opacity: 1"/>
<stop offset="100%" style="stop-color:rgb(0,0,0);stop-opacity: 1"/>
</radialGradient>
<path style="stroke: none; stroke-width: 1; stroke-dasharray: none; stroke-linecap: butt; stroke-dashoffset: 0; stroke-linejoin: miter; stroke-miterlimit: 4; fill: url(#SVGID_13); fill-rule: nonzero; opacity: 1;"  transform=" translate(-320.4, -256)" d="M 336.5 264.3 c -0.1 -0.1 -4.1 -2.3 -16.6 -5 c -12.7 -2.7 -15.6 -11.6 -15.6 -11.6 c 0.8 1.3 2.1 2.4 3.6 3.1 c 2.3 1.1 5 1.3 7.5 1.4 c 2.6 0 5.2 -0.1 7.7 0.4 c 3.7 0.7 7.1 2.7 9.6 5.5 C 334.2 259.9 335.4 262.1 336.5 264.3 z" stroke-linecap="round" />
</g>
		<g transform="matrix(0.5861836184 0 0 0.5861836184 36.306574445 -37.3670637529)"  >
<radialGradient id="SVGID_14" gradientUnits="userSpaceOnUse" gradientTransform="matrix(1 0 0 1 0 0)"  cx="325.8095" cy="193.2884" r="44.1781" fx="325.8095" fy="193.2884">
<stop offset="0%" style="stop-color:rgb(221,194,160);stop-opacity: 1"/>
<stop offset="7.367092%" style="stop-color:rgb(203,178,147);stop-opacity: 1"/>
<stop offset="53.39%" style="stop-color:rgb(95,83,69);stop-opacity: 1"/>
<stop offset="85.2%" style="stop-color:rgb(27,23,19);stop-opacity: 1"/>
<stop offset="100%" style="stop-color:rgb(0,0,0);stop-opacity: 1"/>
</radialGradient>
<path style="stroke: none; stroke-width: 1; stroke-dasharray: none; stroke-linecap: butt; stroke-dashoffset: 0; stroke-linejoin: miter; stroke-miterlimit: 4; fill: url(#SVGID_14); fill-rule: nonzero; opacity: 1;"  transform=" translate(-332.1, -219.25)" d="M 326.5 210.1 c 0.2 3.7 -0.8 7.5 -1 11.3 c -0.3 5.2 0.8 10.5 3.2 15.2 c -0.4 -0.3 -0.7 -0.6 -1 -1 c -3.1 -3.2 -4.4 -7.7 -4.8 -12.1 c -0.4 -4.4 0 -8.8 -0.3 -13.2 c -0.2 -2.9 -0.7 -5.8 -1.9 -8.4 c 5.8 2 11.1 5.5 15.2 10 c 3.4 3.7 6 8.1 7.6 12.8 C 339.4 218.4 333.4 213.2 326.5 210.1 z" stroke-linecap="round" />
</g>
</g>
</g>
<g transform="matrix(-0.5484075168 0 0 -0.4958050258 43.7520518942 344.3843521375)"  >
<path style="stroke: none; stroke-width: 1; stroke-dasharray: none; stroke-linecap: butt; stroke-dashoffset: 0; stroke-linejoin: miter; stroke-miterlimit: 4; fill: rgb(229,196,153); fill-rule: nonzero; opacity: 0.8;"  transform=" translate(-538.85, -263.3)" d="M 538.8 526.6 L 538.8 526.6 c -15.3 0 -27.7 -12.4 -27.7 -27.7 V 0 h 55.5 v 498.9 C 566.6 514.2 554.2 526.6 538.8 526.6 z" stroke-linecap="round" />
</g>
<g transform="matrix(0.7284292981 0 0 0.7284292981 144.9322914199 258.6401571553)" style=""  >
		<text xml:space="preserve" font-family="Roboto" font-size="14.761749376201639" font-style="normal" font-weight="normal" style="stroke: none; stroke-width: 0; stroke-dasharray: none; stroke-linecap: butt; stroke-dashoffset: 0; stroke-linejoin: miter; stroke-miterlimit: 4; fill: rgb(229,196,153); fill-rule: nonzero; opacity: 1; white-space: pre;" ><tspan x="-101.085156915" y="4.637255949" >C</tspan><tspan x="-87.4323262976" y="4.637255949" >R</tspan><tspan x="-74.2984634317" y="4.637255949" >E</tspan><tspan x="-61.8637654532" y="4.637255949" >A</tspan><tspan x="-49.119128401" y="4.637255949" >T</tspan><tspan x="-36.2663730671" y="4.637255949" >I</tspan><tspan x="-28.2068615493" y="4.637255949" >V</tspan><tspan x="-14.770267495" y="4.637255949" >E</tspan><tspan x="-2.3355695166" y="4.637255949" style="white-space: pre; "> </tspan><tspan x="5.3635477293" y="4.637255949" >M</tspan><tspan x="22.4257081587" y="4.637255949" >A</tspan><tspan x="36.1001624324" y="4.637255949" >N</tspan><tspan x="50.7981364383" y="4.637255949" >A</tspan><tspan x="64.3933039722" y="4.637255949" >G</tspan><tspan x="78.4930234867" y="4.637255949" >E</tspan><tspan x="90.9277214652" y="4.637255949" >R</tspan></text>
</g>
<g transform="matrix(0.7284292981 0 0 0.7284292981 169.9010392224 239.7380291942)" style=""  >
		<text xml:space="preserve" font-family="Roboto" font-size="26.534664177468553" font-style="normal" font-weight="normal" style="stroke: none; stroke-width: 0; stroke-dasharray: none; stroke-linecap: butt; stroke-dashoffset: 0; stroke-linejoin: miter; stroke-miterlimit: 4; fill: rgb(255,255,255); fill-rule: nonzero; opacity: 1; white-space: pre;" ><tspan x="-135.3626741258" y="8.3355994047" >N</tspan><tspan x="-112.3334878487" y="8.3355994047" >I</tspan><tspan x="-101.0039118021" y="8.3355994047" >R</tspan><tspan x="-80.5530449445" y="8.3355994047" >M</tspan><tspan x="-53.0409515358" y="8.3355994047" >A</tspan><tspan x="-31.6183562538" y="8.3355994047" >L</tspan><tspan x="-12.9813824553" y="8.3355994047" >A</tspan><tspan x="8.4412128268" y="8.3355994047" style="white-space: pre; "> </tspan><tspan x="19.1229699237" y="8.3355994047" >A</tspan><tspan x="40.5455652057" y="8.3355994047" >N</tspan><tspan x="63.5747514829" y="8.3355994047" >J</tspan><tspan x="82.0432923545" y="8.3355994047" >A</tspan><tspan x="103.4658876365" y="8.3355994047" >N</tspan><tspan x="126.4950739137" y="8.3355994047" >I</tspan></text>
</g>
<g transform="matrix(1 0 0 1 155.26683949 362.839857244)" style=""  >
		<text xml:space="preserve" font-family="Roboto" font-size="16.559898754036126" font-style="normal" font-weight="normal" style="stroke: none; stroke-width: 0; stroke-dasharray: none; stroke-linecap: butt; stroke-dashoffset: 0; stroke-linejoin: miter; stroke-miterlimit: 4; fill: rgb(255,255,255); fill-rule: nonzero; opacity: 1; white-space: pre;" ><tspan x="-84.3277266142" y="5.2021265946" >www.Yourwebsite.com</tspan></text>
</g>
<g transform="matrix(0.8482191432 0 0 0.8482191432 144.0062557284 401.9866332089)" style=""  >
		<text xml:space="preserve" font-family="Roboto" font-size="17.082745098039215" font-style="normal" font-weight="normal" style="stroke: none; stroke-width: 0; stroke-dasharray: none; stroke-linecap: butt; stroke-dashoffset: 0; stroke-linejoin: miter; stroke-miterlimit: 4; fill: rgb(255,255,255); fill-rule: nonzero; opacity: 1; white-space: pre;" ><tspan x="-89.254840782" y="5.3663735451" >Your address goes here</tspan></text>
</g>
<g transform="matrix(0.8482191432 0 0 0.8482191432 128.2709205156 287.1326355386)" style=""  >
		<text xml:space="preserve" font-family="Roboto" font-size="17.082745098039215" font-style="normal" font-weight="normal" style="stroke: none; stroke-width: 0; stroke-dasharray: none; stroke-linecap: butt; stroke-dashoffset: 0; stroke-linejoin: miter; stroke-miterlimit: 4; fill: rgb(255,255,255); fill-rule: nonzero; opacity: 1; white-space: pre;" ><tspan x="-68.7396984145" y="5.3663735451" >+012 255 354 364</tspan></text>
</g>
<g transform="matrix(0.8482191432 0 0 0.8482191432 152.8221090431 324.8628780059)" style=""  >
		<text xml:space="preserve" font-family="Roboto" font-size="17.082745098039215" font-style="normal" font-weight="normal" style="stroke: none; stroke-width: 0; stroke-dasharray: none; stroke-linecap: butt; stroke-dashoffset: 0; stroke-linejoin: miter; stroke-miterlimit: 4; fill: rgb(255,255,255); fill-rule: nonzero; opacity: 1; white-space: pre;" ><tspan x="-96.3448472924" y="5.3663735451" >Yourname@infomail.com</tspan></text>
</g>
<g transform="matrix(1 0 0 1 44.1974852474 345.1312475397)"  >
<g style=""   >
		<g transform="matrix(0.6688607837 0 0 0.6688607837 -2e-10 -57.9986120018)"  >
<path style="stroke: none; stroke-width: 1; stroke-dasharray: none; stroke-linecap: butt; stroke-dashoffset: 0; stroke-linejoin: miter; stroke-miterlimit: 4; fill: rgb(58,79,64); fill-rule: nonzero; opacity: 1;"  transform=" translate(-540.2507401231, -366.006338972)" d="M 552.8 377.8 L 552.8 377.8 c -4.5 3.9 -11.9 2.7 -16.6 -2.6 l -5.3 -6.2 c -4.7 -5.4 -4.8 -12.9 -0.3 -16.8 v 0 c 0.5 -0.5 1.5 -0.3 2 0.3 l 3.4 3.9 c 0.6 0.7 0.6 1.7 -0.1 2.1 c -0.1 0.1 -0.2 0.2 -0.4 0.3 c -3 2.4 -3.1 7.3 -0.3 10.9 c 3.1 4 8.4 5 11.5 2.2 c 0.2 -0.1 0.3 -0.3 0.5 -0.5 c 0.5 -0.6 1.5 -0.5 2.1 0.2 l 3.4 3.9 C 553.3 376.4 553.4 377.3 552.8 377.8 z" stroke-linecap="round" />
</g>
		<g transform="matrix(0.6688607837 0 0 0.6688607837 -3e-10 -20.2683695344)"  >
<path style="stroke: none; stroke-width: 1; stroke-dasharray: none; stroke-linecap: butt; stroke-dashoffset: 0; stroke-linejoin: miter; stroke-miterlimit: 4; fill: rgb(58,79,64); fill-rule: nonzero; opacity: 1;"  transform=" translate(-540.1688488189, -300.45)" d="M 553 292.9 c -1.2 -2.1 -2.9 -3.7 -5.1 -4.8 c -2.2 -1.2 -4.7 -1.7 -7.5 -1.7 c -2.9 0 -5.5 0.6 -7.7 1.8 c -2.2 1.2 -4 2.9 -5.2 5 c -1.2 2.1 -1.9 4.5 -1.9 7.2 c 0 2.7 0.6 5.1 1.8 7.3 c 1.2 2.1 2.9 3.8 5.2 5 c 2.2 1.2 4.8 1.8 7.6 1.8 c 1.2 0 2.4 -0.1 3.6 -0.4 c 0.7 -0.2 1.4 -0.3 2.1 -0.6 c 0.5 -0.2 0.8 -0.7 0.8 -1.2 c 0 -0.1 0 -0.3 -0.1 -0.4 c -0.2 -0.7 -1 -1.1 -1.7 -0.8 c -0.5 0.2 -1.1 0.4 -1.7 0.5 c -1 0.2 -2.1 0.3 -3.1 0.3 c -2.3 0 -4.4 -0.5 -6.2 -1.5 c -1.8 -1 -3.2 -2.3 -4.2 -4.1 c -1 -1.7 -1.5 -3.8 -1.5 -6 c 0 -2.2 0.5 -4.2 1.5 -6 c 1 -1.8 2.4 -3.1 4.2 -4.1 c 1.8 -1 3.9 -1.5 6.2 -1.5 c 2.3 0 4.4 0.5 6.2 1.4 c 1.8 0.9 3.2 2.2 4.2 3.9 c 1 1.7 1.5 3.6 1.5 5.8 c 0 1.8 -0.2 3.2 -0.7 4.2 c -0.4 1 -1.1 1.4 -1.9 1.4 c -0.5 0 -0.9 -0.2 -1.2 -0.5 c -0.3 -0.3 -0.4 -0.9 -0.4 -1.6 v -8.8 c 0 -0.5 -0.2 -0.9 -0.5 -1.2 c -0.3 -0.3 -0.7 -0.5 -1.2 -0.5 c -0.9 0 -1.7 0.8 -1.7 1.7 v 0.3 c -0.6 -0.7 -1.3 -1.3 -2.2 -1.6 c -0.9 -0.4 -1.9 -0.6 -3 -0.6 c -1.4 0 -2.7 0.3 -3.8 1 c -1.1 0.7 -2 1.6 -2.6 2.8 c -0.6 1.2 -1 2.5 -1 4 c 0 1.5 0.3 2.9 1 4.1 c 0.6 1.2 1.5 2.1 2.6 2.8 c 1.1 0.7 2.4 1 3.8 1 c 2.5 0 4.3 -0.9 5.6 -2.7 c 0.3 0.9 0.7 1.5 1.4 2 c 0.7 0.5 1.5 0.7 2.5 0.7 c 1.9 0 3.3 -0.8 4.4 -2.3 c 1.1 -1.5 1.6 -3.6 1.6 -6.3 C 554.9 297.2 554.3 294.9 553 292.9 z M 543.4 304.1 c -0.9 0.9 -1.9 1.3 -3.3 1.3 c -1.4 0 -2.5 -0.4 -3.3 -1.3 s -1.3 -2.1 -1.3 -3.6 c 0 -1.5 0.4 -2.6 1.3 -3.5 s 1.9 -1.3 3.3 -1.3 c 1.3 0 2.4 0.4 3.3 1.3 c 0.9 0.9 1.3 2 1.3 3.5 C 544.7 302 544.3 303.2 543.4 304.1 z" stroke-linecap="round" />
</g>
		<g transform="matrix(0.6688607837 0 0 0.6688607837 -2e-10 17.7086097041)"  >
<path style="stroke: none; stroke-width: 1; stroke-dasharray: none; stroke-linecap: butt; stroke-dashoffset: 0; stroke-linejoin: miter; stroke-miterlimit: 4; fill: rgb(58,79,64); fill-rule: nonzero; opacity: 1;"  transform=" translate(-540.3, -491.9)" d="M 554.7 490.6 c -0.6 -6.9 -6.2 -12.5 -13.1 -13.1 c -9 -0.8 -16.5 6.7 -15.7 15.7 c 0.6 6.9 6.2 12.5 13.1 13.1 C 548 507.1 555.5 499.6 554.7 490.6 z M 528.4 489.3 c 0.7 -3.1 2.6 -5.8 5.1 -7.5 c 1 -0.7 2.2 0.4 1.7 1.5 c -0.7 1.7 -1.4 3.8 -1.6 6.4 c -0.1 0.6 -0.6 1.1 -1.2 1.1 h -3 C 528.8 490.7 528.3 490 528.4 489.3 z M 534.1 502.4 c -2.9 -1.7 -5 -4.5 -5.7 -7.8 c -0.2 -0.7 0.4 -1.4 1.1 -1.4 h 3.1 c 0.6 0 1.1 0.4 1.2 1 c 0.2 1.7 0.8 4.2 2 6.7 C 536.3 501.9 535.1 502.9 534.1 502.4 z M 544.2 494.5 c -0.4 2 -1.2 5 -3 7.7 c -0.5 0.7 -1.5 0.7 -1.9 0 c -1.8 -2.7 -2.6 -5.6 -3 -7.7 c -0.1 -0.7 0.4 -1.4 1.2 -1.4 h 5.6 C 543.8 493.1 544.3 493.8 544.2 494.5 z M 543.2 490.7 h -5.9 c -0.7 0 -1.2 -0.6 -1.2 -1.3 c 0.5 -4.1 2 -6.8 3.2 -8.3 c 0.5 -0.6 1.3 -0.6 1.8 0 c 1.2 1.5 2.8 4.1 3.2 8.3 C 544.5 490.1 543.9 490.7 543.2 490.7 z M 552.1 494.5 c -0.7 3.3 -2.8 6.2 -5.7 7.8 c -1 0.6 -2.1 -0.5 -1.7 -1.5 c 1.2 -2.5 1.7 -5 2 -6.7 c 0.1 -0.6 0.6 -1 1.2 -1 h 3.1 C 551.7 493.1 552.2 493.8 552.1 494.5 z M 550.9 490.7 h -3 c -0.6 0 -1.1 -0.5 -1.2 -1.1 c -0.2 -2.6 -0.8 -4.7 -1.6 -6.4 c -0.5 -1.1 0.7 -2.1 1.7 -1.5 c 2.6 1.7 4.4 4.4 5.1 7.5 C 552.2 490 551.7 490.7 550.9 490.7 z" stroke-linecap="round" />
</g>
		<g transform="matrix(0.6688607837 0 0 0.6688607837 -1e-10 56.8553856685)"  >
<path style="stroke: none; stroke-width: 1; stroke-dasharray: none; stroke-linecap: butt; stroke-dashoffset: 0; stroke-linejoin: miter; stroke-miterlimit: 4; fill: rgb(58,79,64); fill-rule: nonzero; opacity: 1;"  transform=" translate(-540.3445868975, -428.7760609766)" d="M 539.6 413 c -5.3 0.3 -9.6 4.7 -9.8 10 c -0.1 2.2 0.5 4.2 1.5 5.9 c 2 3.3 5.1 8.9 6.8 12.4 l 1.2 2.6 c 0.4 0.9 1.6 0.9 2 0 l 1.2 -2.5 c 2 -4.3 4.3 -8.4 6.8 -12.4 c 1 -1.6 1.6 -3.5 1.6 -5.6 C 550.8 417.5 545.7 412.6 539.6 413 z M 540.2 429.5 c -3.3 0 -6 -2.7 -6 -6 c 0 -3.3 2.7 -6 6 -6 c 3.3 0 6 2.7 6 6 C 546.3 426.8 543.6 429.5 540.2 429.5 z" stroke-linecap="round" />
</g>
</g>
</g>
</svg>