<?xml version="1.0" encoding="UTF-8" standalone="no" ?>
<!DOCTYPE svg PUBLIC "-//W3C//DTD SVG 1.1//EN" "http://www.w3.org/Graphics/SVG/1.1/DTD/svg11.dtd">
<svg xmlns="http://www.w3.org/2000/svg" xmlns:xlink="http://www.w3.org/1999/xlink" version="1.1" width="1003.9370078859376" height="649.6062992203126" viewBox="0 0 588 380.4705882353" xml:space="preserve">
<desc>Created with Fabric.js 3.4.0 and NBDesigner 2.7</desc>
<defs>
</defs>
<g transform="matrix(0.3202614379 0 0 0.3202411168 294 190.2352941176)"  >
	<image style="stroke: none; stroke-width: 0; stroke-dasharray: none; stroke-linecap: butt; stroke-dashoffset: 0; stroke-linejoin: miter; stroke-miterlimit: 4; fill: rgb(255,0,0); fill-rule: nonzero; opacity: 1;"  xlink:href="https://transparentcard.de/wp-content/uploads/nbdesigner/temp/2024/02/15/170800752494ef7214.png" x="-918" y="-591" width="1836" height="1182"></image>
</g>
<g transform="matrix(1.1241140069 0 0 1.1241140069 154.7343138351 220.2726835721)" style=""  >
		<text xml:space="preserve" font-family="Roboto" font-size="18.24444897220905" font-style="normal" font-weight="bold" style="stroke: none; stroke-width: 0; stroke-dasharray: none; stroke-linecap: butt; stroke-dashoffset: 0; stroke-linejoin: miter; stroke-miterlimit: 4; fill: rgb(53,183,41); fill-rule: nonzero; opacity: 1; white-space: pre;" ><tspan x="-71.5530178505" y="5.7313112001" >COMPANY NAME</tspan></text>
</g>
<g transform="matrix(1.0471031622 0 0 1.0471031622 154.7343138339 152.1480950543)"  >
<g style=""   >
		<g transform="matrix(0.6191177483 0 0 0.6191177483 5.4746853311 -5.4762241657)"  >
<path style="stroke: none; stroke-width: 1; stroke-dasharray: none; stroke-linecap: butt; stroke-dashoffset: 0; stroke-linejoin: miter; stroke-miterlimit: 4; fill: rgb(53,183,41); fill-rule: nonzero; opacity: 1;"  transform=" translate(-669.825253341, -301.3451905234)" d="M 704.18 267 a 61.31 61.31 0 0 0 -86.61 0 l 12.6 12.59 A 43.42 43.42 0 0 1 691.58 341 l 12.6 12.6 A 61.32 61.32 0 0 0 704.18 267 Z" stroke-linecap="round" />
</g>
		<g transform="matrix(0.6191177483 0 0 0.6191177483 -5.5412606951 5.5440814796)"  >
<path style="stroke: none; stroke-width: 1; stroke-dasharray: none; stroke-linecap: butt; stroke-dashoffset: 0; stroke-linejoin: miter; stroke-miterlimit: 4; fill: rgb(255,255,255); fill-rule: nonzero; opacity: 1;"  transform=" translate(-652.032279296, -319.1452062322)" d="M 630.17 341 a 43.47 43.47 0 0 1 0 -61.41 L 617.57 267 a 61.24 61.24 0 0 0 86.61 86.6 L 691.58 341 A 43.47 43.47 0 0 1 630.17 341 Z" stroke-linecap="round" />
</g>
</g>
</g>
<g transform="matrix(1.1241140069 0 0 1.1241140069 153.6109091891 245.0336797537)" style=""  >
		<text xml:space="preserve" font-family="Roboto" font-size="9.82988796139021" font-style="normal" font-weight="normal" style="stroke: none; stroke-width: 0; stroke-dasharray: none; stroke-linecap: butt; stroke-dashoffset: 0; stroke-linejoin: miter; stroke-miterlimit: 4; fill: rgb(255,255,255); fill-rule: nonzero; opacity: 1; white-space: pre;" ><tspan x="-45.6354116036" y="3.0879610042" >S</tspan><tspan x="-37.1693054029" y="3.0879610042" >L</tspan><tspan x="-29.5575546988" y="3.0879610042" >O</tspan><tspan x="-20.1650967517" y="3.0879610042" >G</tspan><tspan x="-10.8350355543" y="3.0879610042" >A</tspan><tspan x="-1.7881596059" y="3.0879610042" >N</tspan><tspan x="7.8538853403" y="3.0879610042" style="white-space: pre; "> </tspan><tspan x="12.9217685543" y="3.0879610042" >H</tspan><tspan x="22.5638135005" y="3.0879610042" >E</tspan><tspan x="30.7851324522" y="3.0879610042" >R</tspan><tspan x="39.4720271521" y="3.0879610042" >E</tspan></text>
</g>
<g transform="matrix(0.6749795832 0 0 0.6749795832 317.4012601586 81.4866684223)"  >
<g style=""   >
		<g transform="matrix(0.7587488027 0 0 0.7587488027 0 0)"  >
<circle style="stroke: none; stroke-width: 1; stroke-dasharray: none; stroke-linecap: butt; stroke-dashoffset: 0; stroke-linejoin: miter; stroke-miterlimit: 4; fill: rgb(53,183,41); fill-rule: nonzero; opacity: 1;"  cx="0" cy="0" r="39.78" />
</g>
		<g transform="matrix(0.7587488027 0 0 0.7587488027 0.0379903396 -0.0079473554)"  >
<path style="stroke: none; stroke-width: 1; stroke-dasharray: none; stroke-linecap: butt; stroke-dashoffset: 0; stroke-linejoin: miter; stroke-miterlimit: 4; fill: rgb(255,255,255); fill-rule: nonzero; opacity: 1;"  transform=" translate(-659.2900697195, -207.6595257095)" d="M 659.22 243.75 a 36.09 36.09 0 1 1 36.16 -35.88 A 36.14 36.14 0 0 1 659.22 243.75 Z m -27.54 -20 c 6.43 10.08 15.52 15.69 27.57 15.7 s 21.13 -5.62 27.65 -15.84 a 34.08 34.08 0 0 0 -3.63 -2.24 c -2.79 -1.3 -5.64 -2.48 -8.49 -3.66 c -4 -1.66 -3 -0.67 -5.13 -4.29 a 1.89 1.89 0 0 0 -1.64 -1 c -1.15 -0.09 -1.33 -0.39 -1 -1.5 a 3 3 0 0 1 0.51 -0.93 a 5.91 5.91 0 0 0 1.53 -3.66 a 1.26 1.26 0 0 1 0.44 -0.91 c 2.1 -1.38 2.57 -3.5 2.7 -5.78 a 4.9 4.9 0 0 0 -0.33 -1.29 a 4.49 4.49 0 0 1 -0.26 -1.28 c 0.13 -2.57 0.43 -5.14 0.46 -7.71 a 8.4 8.4 0 0 0 -3.53 -7 a 14.87 14.87 0 0 0 -8.44 -3 a 15.07 15.07 0 0 0 -10.52 3.17 a 7.68 7.68 0 0 0 -2.88 4.15 a 19.93 19.93 0 0 0 -0.28 6.89 c 0.14 1.25 0.36 2.5 0.4 3.75 c 0 0.53 -0.42 1.06 -0.52 1.61 c -0.31 1.77 0.47 5 2.48 6.32 a 1.46 1.46 0 0 1 0.58 1 A 6.3 6.3 0 0 0 651 210 a 3.79 3.79 0 0 1 0.6 1.46 a 0.63 0.63 0 0 1 -0.72 0.86 a 2.22 2.22 0 0 0 -2.28 1.54 a 7.25 7.25 0 0 1 -0.89 1.56 a 4.56 4.56 0 0 1 -1.54 1.3 c -2.45 1.05 -5 1.94 -7.4 3 S 633.78 221.76 631.68 223.74 Z" stroke-linecap="round" />
</g>
</g>
</g>
<g transform="matrix(0.6749795832 0 0 0.6749795832 317.4012601586 173.3953039571)"  >
<g style=""   >
		<g transform="matrix(0.7587488027 0 0 0.7587488027 0 0)"  >
<circle style="stroke: none; stroke-width: 1; stroke-dasharray: none; stroke-linecap: butt; stroke-dashoffset: 0; stroke-linejoin: miter; stroke-miterlimit: 4; fill: rgb(53,183,41); fill-rule: nonzero; opacity: 1;"  cx="0" cy="0" r="31.35" />
</g>
		<g transform="matrix(0.7587488027 0 0 0.7587488027 0.0042806479 -0.0275551877)"  >
<path style="stroke: none; stroke-width: 1; stroke-dasharray: none; stroke-linecap: butt; stroke-dashoffset: 0; stroke-linejoin: miter; stroke-miterlimit: 4; fill: rgb(255,255,255); fill-rule: nonzero; opacity: 1;"  transform=" translate(-659.2456417195, -387.0936833855)" d="M 656.92 359.82 h 4.61 a 6 6 0 0 0 0.81 0.21 a 27.15 27.15 0 0 1 22.94 19 c 0.56 1.88 0.84 3.84 1.25 5.77 v 4.61 a 6 6 0 0 0 -0.22 0.93 a 27.27 27.27 0 1 1 -34.11 -29.59 C 653.75 360.36 655.35 360.13 656.92 359.82 Z M 683.3 387.1 a 24.08 24.08 0 1 0 -24 24.1 A 24.16 24.16 0 0 0 683.3 387.1 Z" stroke-linecap="round" />
</g>
		<g transform="matrix(0.7587488027 0 0 0.7587488027 -2.0120926788 1.2992921213)"  >
<path style="stroke: none; stroke-width: 1; stroke-dasharray: none; stroke-linecap: butt; stroke-dashoffset: 0; stroke-linejoin: miter; stroke-miterlimit: 4; fill: rgb(255,255,255); fill-rule: nonzero; opacity: 1;"  transform=" translate(-656.5881438503, -388.8424140648)" d="M 649.43 372 l 5.1 8.83 c -1.83 1.42 -1.82 3.37 -1.42 5.31 a 14.49 14.49 0 0 0 4.35 7.82 a 5 5 0 0 0 5.45 1.39 l 5.05 8.75 c -2.72 2 -5 2.1 -7.67 0.34 a 28.24 28.24 0 0 1 -7.45 -7.57 c -3.64 -5.16 -6.46 -10.69 -7.45 -17 C 644.77 375.87 645.74 373.91 649.43 372 Z" stroke-linecap="round" />
</g>
		<g transform="matrix(0.7587488027 0 0 0.7587488027 -3.2542929907 -9.4956400422)"  >
<path style="stroke: none; stroke-width: 1; stroke-dasharray: none; stroke-linecap: butt; stroke-dashoffset: 0; stroke-linejoin: miter; stroke-miterlimit: 4; fill: rgb(255,255,255); fill-rule: nonzero; opacity: 1;"  transform=" translate(-654.9509744636, -374.6151334087)" d="M 653.89 368.4 a 4.86 4.86 0 0 1 1 1 c 1.58 2.67 3.11 5.37 4.67 8.06 a 1.19 1.19 0 0 1 -0.49 1.84 c -3.73 2.18 -3.23 2.24 -5.21 -1.19 c -1.14 -2 -2.28 -4 -3.45 -6 A 1.31 1.31 0 0 1 651 370 C 651.94 369.51 652.85 369 653.89 368.4 Z" stroke-linecap="round" />
</g>
		<g transform="matrix(0.7587488027 0 0 0.7587488027 6.8917005378 8.1203618247)"  >
<path style="stroke: none; stroke-width: 1; stroke-dasharray: none; stroke-linecap: butt; stroke-dashoffset: 0; stroke-linejoin: miter; stroke-miterlimit: 4; fill: rgb(255,255,255); fill-rule: nonzero; opacity: 1;"  transform=" translate(-668.3229804459, -397.8323059492)" d="M 673.17 401.13 c 0 1.09 -3.36 3.12 -4.2 2.59 a 2.5 2.5 0 0 1 -0.77 -0.9 c -1.47 -2.51 -2.89 -5 -4.37 -7.54 a 1.36 1.36 0 0 1 0.56 -2.2 a 12.48 12.48 0 0 1 2.12 -1.15 a 1.73 1.73 0 0 1 1.54 0.28 c 1.73 2.81 3.36 5.69 5 8.56 A 1.17 1.17 0 0 1 673.17 401.13 Z" stroke-linecap="round" />
</g>
</g>
</g>
<g transform="matrix(0.6749795832 0 0 0.6749795832 317.4012601586 229.4848713467)"  >
<g style=""   >
		<g transform="matrix(0.7587488027 0 0 0.7587488027 0 0)"  >
<circle style="stroke: none; stroke-width: 1; stroke-dasharray: none; stroke-linecap: butt; stroke-dashoffset: 0; stroke-linejoin: miter; stroke-miterlimit: 4; fill: rgb(53,183,41); fill-rule: nonzero; opacity: 1;"  cx="0" cy="0" r="31.35" />
</g>
		<g transform="matrix(0.7587488027 0 0 0.7587488027 0.0042806479 -0.0009989796)"  >
<path style="stroke: none; stroke-width: 1; stroke-dasharray: none; stroke-linecap: butt; stroke-dashoffset: 0; stroke-linejoin: miter; stroke-miterlimit: 4; fill: rgb(255,255,255); fill-rule: nonzero; opacity: 1;"  transform=" translate(-659.2456417195, -496.6486833855)" d="M 656.92 469.34 h 4.61 a 6 6 0 0 0 0.81 0.21 a 27.15 27.15 0 0 1 22.94 19 c 0.56 1.88 0.84 3.84 1.25 5.77 V 499 a 6.27 6.27 0 0 0 -0.22 0.93 a 27.27 27.27 0 1 1 -34.11 -29.59 C 653.75 469.89 655.35 469.65 656.92 469.34 Z m 26.38 27.28 a 24.08 24.08 0 1 0 -24 24.1 A 24.15 24.15 0 0 0 683.3 496.62 Z" stroke-linecap="round" />
</g>
		<g transform="matrix(0.7587488027 0 0 0.7587488027 0.0076864132 0.0229591342)"  >
<path style="stroke: none; stroke-width: 1; stroke-dasharray: none; stroke-linecap: butt; stroke-dashoffset: 0; stroke-linejoin: miter; stroke-miterlimit: 4; fill: rgb(255,255,255); fill-rule: nonzero; opacity: 1;"  transform=" translate(-659.2501303796, -496.6802592032)" d="M 659.25 478.68 a 18 18 0 1 1 -18 17.93 A 18 18 0 0 1 659.25 478.68 Z M 651 497.51 a 0.37 0.37 0 0 0 0 0.11 a 28.61 28.61 0 0 0 1 6.57 c 0.08 0.3 0.25 0.32 0.5 0.32 H 658 l 0.39 0 v -7 Z m -0.1 -1.71 h 7.48 v -7 a 0.72 0.72 0 0 0 -0.19 0 h -5.85 c -0.27 0 -0.33 0.15 -0.38 0.35 c -0.21 0.94 -0.47 1.88 -0.61 2.83 C 651.16 493.21 651.06 494.49 650.91 495.8 Z m 16.17 0 a 1.68 1.68 0 0 0 0 -0.2 a 27.23 27.23 0 0 0 -1 -6.53 c -0.08 -0.29 -0.24 -0.3 -0.47 -0.3 H 660.1 v 7 Z m -7 8.69 H 666 a 26.66 26.66 0 0 0 1.08 -7 h -7 Z m 7.76 -15.71 l 1 7 h 6.65 a 15.73 15.73 0 0 0 -1.86 -6.74 a 0.65 0.65 0 0 0 -0.51 -0.27 c -1 0 -2 0 -3 0 Z m 1 8.73 l -1 7 h 5.49 a 0.51 0.51 0 0 0 0.33 -0.25 a 15.81 15.81 0 0 0 1.86 -6.74 Z m -18.63 -8.73 c -1.65 0 -3.39 0 -5.12 0 a 0.44 0.44 0 0 0 -0.29 0.23 a 16 16 0 0 0 -1.89 6.77 h 6.27 Z m -1 8.72 H 643 a 15.68 15.68 0 0 0 1.88 6.78 a 0.61 0.61 0 0 0 0.44 0.22 c 0.72 0 1.44 0 2.16 0 h 2.8 Z m 3.39 -10.37 h 5.78 v -6.79 l -1.76 0.2 a 1 1 0 0 0 -0.7 0.44 a 24.31 24.31 0 0 0 -2.72 4.68 C 653 486.14 652.82 486.62 652.61 487.13 Z m 0 19 a 2.07 2.07 0 0 0 0.09 0.32 a 23.16 23.16 0 0 0 3.29 5.94 a 0.85 0.85 0 0 0 0.47 0.3 c 0.62 0.11 1.25 0.17 1.9 0.26 v -6.82 Z m 7.45 6.8 a 11.79 11.79 0 0 1 1.27 -0.12 a 0.94 0.94 0 0 0 0.77 -0.48 a 23.74 23.74 0 0 0 3.21 -5.81 c 0 -0.12 0.07 -0.25 0.1 -0.38 h -5.35 Z m 5.34 -25.82 a 0.87 0.87 0 0 0 0 -0.25 a 23.7 23.7 0 0 0 -3.43 -6.16 a 0.59 0.59 0 0 0 -0.33 -0.21 c -0.5 -0.07 -1 -0.12 -1.53 -0.17 v 6.79 Z m 7.07 0 a 16.44 16.44 0 0 0 -8.06 -6 l 2.91 6 Z m 0 19 l -0.48 0 c -1.46 0 -2.92 0 -4.37 0 a 0.51 0.51 0 0 0 -0.58 0.41 a 25.75 25.75 0 0 1 -2.58 5.27 c -0.06 0.09 -0.1 0.2 -0.2 0.37 A 16.47 16.47 0 0 0 672.49 506.16 Z m -26.51 -19 c 1.58 0 3 0 4.5 0 a 0.49 0.49 0 0 0 0.56 -0.39 a 23.81 23.81 0 0 1 2.48 -5.13 c 0.05 -0.08 0.09 -0.17 0.18 -0.34 A 16.5 16.5 0 0 0 646 487.16 Z m 7.66 24.77 a 30.42 30.42 0 0 1 -2.68 -5.54 a 0.59 0.59 0 0 0 -0.45 -0.24 c -1.3 0 -2.61 0 -3.91 0 H 646 A 16.2 16.2 0 0 0 653.64 511.93 Z" stroke-linecap="round" />
</g>
</g>
</g>
<g transform="matrix(0.6749795832 0 0 0.6749795832 317.4012601586 285.579560136)"  >
<g style=""   >
		<g transform="matrix(0.7587488027 0 0 0.7587488027 0 0)"  >
<circle style="stroke: none; stroke-width: 1; stroke-dasharray: none; stroke-linecap: butt; stroke-dashoffset: 0; stroke-linejoin: miter; stroke-miterlimit: 4; fill: rgb(53,183,41); fill-rule: nonzero; opacity: 1;"  cx="0" cy="0" r="31.35" />
</g>
		<g transform="matrix(0.7587488027 0 0 0.7587488027 -0.0070241187 -0.002807763)"  >
<path style="stroke: none; stroke-width: 1; stroke-dasharray: none; stroke-linecap: butt; stroke-dashoffset: 0; stroke-linejoin: miter; stroke-miterlimit: 4; fill: rgb(255,255,255); fill-rule: nonzero; opacity: 1;"  transform=" translate(-659.230742498, -606.176299483)" d="M 659.23 623.31 l -1 -1.67 l -8.77 -15.18 a 11.58 11.58 0 0 1 -1.63 -5 A 11.43 11.43 0 0 1 657 589.27 A 11.4 11.4 0 0 1 670.39 598 a 11 11 0 0 1 -1.2 8 c -3.26 5.7 -6.55 11.37 -9.83 17.06 C 659.33 623.17 659.28 623.23 659.23 623.31 Z m -5.69 -22.83 a 5.7 5.7 0 1 0 5.72 -5.69 A 5.7 5.7 0 0 0 653.54 600.48 Z" stroke-linecap="round" />
</g>
		<g transform="matrix(0.7587488027 0 0 0.7587488027 0.0042806479 -0.0313489318)"  >
<path style="stroke: none; stroke-width: 1; stroke-dasharray: none; stroke-linecap: butt; stroke-dashoffset: 0; stroke-linejoin: miter; stroke-miterlimit: 4; fill: rgb(255,255,255); fill-rule: nonzero; opacity: 1;"  transform=" translate(-659.2456417195, -606.1386833855)" d="M 656.92 578.86 h 4.61 a 4.88 4.88 0 0 0 0.81 0.22 a 27.15 27.15 0 0 1 22.94 19 c 0.56 1.88 0.84 3.84 1.25 5.76 v 4.61 a 6.11 6.11 0 0 0 -0.22 0.94 a 27.27 27.27 0 1 1 -34.11 -29.59 C 653.75 579.41 655.35 579.18 656.92 578.86 Z m 26.38 27.28 a 24.08 24.08 0 1 0 -24 24.11 A 24.16 24.16 0 0 0 683.3 606.14 Z" stroke-linecap="round" />
</g>
</g>
</g>
<g transform="matrix(0.5121399506 0 0 0.5121399506 529.3759857132 96.2108014044)"  >
<rect style="stroke: none; stroke-width: 1; stroke-dasharray: none; stroke-linecap: butt; stroke-dashoffset: 0; stroke-linejoin: miter; stroke-miterlimit: 4; fill: rgb(255,255,255); fill-rule: nonzero; opacity: 1;"  x="-187.69" y="-0.81" rx="0" ry="0" width="375.38" height="1.62" />
</g>
<g transform="matrix(0.5121399506 0 0 0.5121399506 487.9208174125 193.7170171967)"  >
<rect style="stroke: none; stroke-width: 1; stroke-dasharray: none; stroke-linecap: butt; stroke-dashoffset: 0; stroke-linejoin: miter; stroke-miterlimit: 4; fill: rgb(255,255,255); fill-rule: nonzero; opacity: 1;"  x="-268.645" y="-0.81" rx="0" ry="0" width="537.29" height="1.62" />
</g>
<g transform="matrix(0.5121399506 0 0 0.5121399506 487.9208174125 250.4211525272)"  >
<rect style="stroke: none; stroke-width: 1; stroke-dasharray: none; stroke-linecap: butt; stroke-dashoffset: 0; stroke-linejoin: miter; stroke-miterlimit: 4; fill: rgb(255,255,255); fill-rule: nonzero; opacity: 1;"  x="-268.645" y="-0.81" rx="0" ry="0" width="537.29" height="1.62" />
</g>
<g transform="matrix(0.6749795832 0 0 0.6749795832 461.975380321 74.9545387216)" style=""  >
		<text xml:space="preserve" font-family="Roboto" font-size="45.25818181818182" font-style="normal" font-weight="bold" style="stroke: none; stroke-width: 0; stroke-dasharray: none; stroke-linecap: butt; stroke-dashoffset: 0; stroke-linejoin: miter; stroke-miterlimit: 4; fill: rgb(255,255,255); fill-rule: nonzero; opacity: 1; white-space: pre;" ><tspan x="-130.6045385427" y="14.2174052364" >YOUR NAME</tspan></text>
</g>
<g transform="matrix(0.6749795832 0 0 0.6749795832 400.4809353296 96.6273666276)" style=""  >
		<text xml:space="preserve" font-family="Roboto" font-size="15.086060606060606" font-style="normal" font-weight="normal" style="stroke: none; stroke-width: 0; stroke-dasharray: none; stroke-linecap: butt; stroke-dashoffset: 0; stroke-linejoin: miter; stroke-miterlimit: 4; fill: rgb(255,255,255); fill-rule: nonzero; opacity: 1; white-space: pre;" ><tspan x="-39.4989013921" y="4.7391350788" >P</tspan><tspan x="-28.2619077178" y="4.7391350788" >O</tspan><tspan x="-16.1704301421" y="4.7391350788" >S</tspan><tspan x="-5.5006369886" y="4.7391350788" >I</tspan><tspan x="0.1085489204" y="4.7391350788" >T</tspan><tspan x="10.8299057576" y="4.7391350788" >I</tspan><tspan x="16.652712642" y="4.7391350788" >O</tspan><tspan x="28.7441902178" y="4.7391350788" >N</tspan></text>
</g>
<g transform="matrix(0.6749795832 0 0 0.6749795832 457.8060808068 172.6556178856)" style=""  >
		<text xml:space="preserve" font-family="Roboto" font-size="24.514848484848486" font-style="normal" font-weight="normal" style="stroke: none; stroke-width: 0; stroke-dasharray: none; stroke-linecap: butt; stroke-dashoffset: 0; stroke-linejoin: miter; stroke-miterlimit: 4; fill: rgb(255,255,255); fill-rule: nonzero; opacity: 1; white-space: pre;" ><tspan x="-159.4637496327" y="-8.3659371939" >+</tspan><tspan x="-142.7717233649" y="-8.3659371939" >1</tspan><tspan x="-126.2113686466" y="-8.3659371939" style="white-space: pre; "> </tspan><tspan x="-117.3478145024" y="-8.3659371939" >2</tspan><tspan x="-100.7874597842" y="-8.3659371939" >3</tspan><tspan x="-84.2271050659" y="-8.3659371939" >4</tspan><tspan x="-67.6667503476" y="-8.3659371939" >5</tspan><tspan x="-51.1063956293" y="-8.3659371939" style="white-space: pre; "> </tspan><tspan x="-42.2428414852" y="-8.3659371939" >9</tspan><tspan x="-25.6824867669" y="-8.3659371939" >8</tspan><tspan x="-9.1221320486" y="-8.3659371939" >7</tspan><tspan x="7.4382226697" y="-8.3659371939" >6</tspan><tspan x="23.9985773879" y="-8.3659371939" style="white-space: pre; "> </tspan><tspan x="32.8621315321" y="-8.3659371939" >4</tspan><tspan x="49.4224862504" y="-8.3659371939" >5</tspan><tspan x="65.9828409687" y="-8.3659371939" >6</tspan><tspan x="82.543195687" y="-8.3659371939" >7</tspan><tspan x="-159.4637496327" y="23.7681262" >+</tspan><tspan x="-142.7717233649" y="23.7681262" >0</tspan><tspan x="-126.2113686466" y="23.7681262" >4</tspan><tspan x="-109.6510139283" y="23.7681262" >1</tspan><tspan x="-93.0906592101" y="23.7681262" style="white-space: pre; "> </tspan><tspan x="-84.2271050659" y="23.7681262" >3</tspan><tspan x="-67.6667503476" y="23.7681262" >4</tspan><tspan x="-51.1063956293" y="23.7681262" >5</tspan><tspan x="-34.5460409111" y="23.7681262" style="white-space: pre; "> </tspan><tspan x="-25.6824867669" y="23.7681262" >3</tspan><tspan x="-9.1221320486" y="23.7681262" >4</tspan><tspan x="7.4382226697" y="23.7681262" >5</tspan><tspan x="23.9985773879" y="23.7681262" style="white-space: pre; "> </tspan><tspan x="32.8621315321" y="23.7681262" >2</tspan><tspan x="49.4224862504" y="23.7681262" >3</tspan><tspan x="65.9828409687" y="23.7681262" >4</tspan><tspan x="82.543195687" y="23.7681262" >5</tspan></text>
</g>
<g transform="matrix(0.6749795832 0 0 0.6749795832 458.2610500223 229.8038892641)" style=""  >
		<text xml:space="preserve" font-family="Roboto" font-size="24.514848484848486" font-style="normal" font-weight="normal" style="stroke: none; stroke-width: 0; stroke-dasharray: none; stroke-linecap: butt; stroke-dashoffset: 0; stroke-linejoin: miter; stroke-miterlimit: 4; fill: rgb(255,255,255); fill-rule: nonzero; opacity: 1; white-space: pre;" ><tspan x="-159.4637496327" y="-8.3659371939" >i</tspan><tspan x="-150.7198968971" y="-8.3659371939" >n</tspan><tspan x="-134.398944996" y="-8.3659371939" >f</tspan><tspan x="-123.0934821161" y="-8.3659371939" >o</tspan><tspan x="-106.3176648623" y="-8.3659371939" >@</tspan><tspan x="-81.5098830903" y="-8.3659371939" >y</tspan><tspan x="-67.2956759809" y="-8.3659371939" >o</tspan><tspan x="-50.5198587271" y="-8.3659371939" >u</tspan><tspan x="-34.2108769669" y="-8.3659371939" >r</tspan><tspan x="-23.1208766225" y="-8.3659371939" >m</tspan><tspan x="1.1602189516" y="-8.3659371939" >a</tspan><tspan x="17.2896485989" y="-8.3659371939" >i</tspan><tspan x="26.0335013344" y="-8.3659371939" >l</tspan><tspan x="34.77735407" y="-8.3659371939" >.</tspan><tspan x="44.0239527218" y="-8.3659371939" >c</tspan><tspan x="59.6506364528" y="-8.3659371939" >o</tspan><tspan x="76.4264537066" y="-8.3659371939" >m</tspan><tspan x="-159.4637496327" y="23.7681262" >w</tspan><tspan x="-138.2470101192" y="23.7681262" >w</tspan><tspan x="-117.0302706057" y="23.7681262" >w</tspan><tspan x="-97.297828559" y="23.7681262" >.</tspan><tspan x="-88.0512299073" y="23.7681262" >w</tspan><tspan x="-66.8344903938" y="23.7681262" >e</tspan><tspan x="-51.0521948315" y="23.7681262" >b</tspan><tspan x="-34.5038102541" y="23.7681262" >s</tspan><tspan x="-19.0686487768" y="23.7681262" >i</tspan><tspan x="-10.3247960413" y="23.7681262" >t</tspan><tspan x="0.4779209225" y="23.7681262" >e</tspan><tspan x="16.2602164848" y="23.7681262" >.</tspan><tspan x="25.5068151365" y="23.7681262" >c</tspan><tspan x="41.1334988676" y="23.7681262" >o</tspan><tspan x="57.9093161214" y="23.7681262" >m</tspan></text>
</g>
<g transform="matrix(1 0 0 1 457.8167582925 285.6022014761)" style=""  >
		<text xml:space="preserve" font-family="Roboto" font-size="16.547022212570646" font-style="normal" font-weight="normal" style="stroke: none; stroke-width: 0; stroke-dasharray: none; stroke-linecap: butt; stroke-dashoffset: 0; stroke-linejoin: miter; stroke-miterlimit: 4; fill: rgb(255,255,255); fill-rule: nonzero; opacity: 1; white-space: pre;" ><tspan x="-107.6347752629" y="-5.6468368003" >R</tspan><tspan x="-95.5600382609" y="-5.6468368003" >d</tspan><tspan x="-84.3417389321" y="-5.6468368003" style="white-space: pre; "> </tspan><tspan x="-78.3590208501" y="-5.6468368003" >0</tspan><tspan x="-67.1811195247" y="-5.6468368003" >0</tspan><tspan x="-56.0032181993" y="-5.6468368003" >0</tspan><tspan x="-44.8253168739" y="-5.6468368003" style="white-space: pre; "> </tspan><tspan x="-38.8425987919" y="-5.6468368003" >D</tspan><tspan x="-26.1053345334" y="-5.6468368003" >o</tspan><tspan x="-14.7820003956" y="-5.6468368003" >r</tspan><tspan x="-7.175282575" y="-5.6468368003" >f</tspan><tspan x="0.2617636311" y="-5.6468368003" >e</tspan><tspan x="10.9144909117" y="-5.6468368003" >n</tspan><tspan x="21.9308002233" y="-5.6468368003" >,</tspan><tspan x="27.0651602328" y="-5.6468368003" style="white-space: pre; "> </tspan><tspan x="-107.6347752629" y="16.042999916" >B</tspan><tspan x="-95.4469238513" y="16.042999916" >a</tspan><tspan x="-84.681082161" y="16.042999916" >y</tspan><tspan x="-75.0706233694" y="16.042999916" >e</tspan><tspan x="-64.4178960888" y="16.042999916" >r</tspan><tspan x="-56.9323722786" y="16.042999916" >n</tspan><tspan x="-45.916062967" y="16.042999916" >/</tspan><tspan x="-37.2105194526" y="16.042999916" >D</tspan><tspan x="-24.4732551941" y="16.042999916" >e</tspan><tspan x="-13.8205279135" y="16.042999916" >u</tspan><tspan x="-2.8122982025" y="16.042999916" >t</tspan><tspan x="4.4793151911" y="16.042999916" >s</tspan><tspan x="14.8977340517" y="16.042999916" >c</tspan><tspan x="25.4454265233" y="16.042999916" >h</tspan><tspan x="36.4455766336" y="16.042999916" >l</tspan><tspan x="42.3474987086" y="16.042999916" >a</tspan><tspan x="53.2345344092" y="16.042999916" >n</tspan><tspan x="64.2508437208" y="16.042999916" >d</tspan></text>
</g>
</svg>