<?xml version="1.0" encoding="UTF-8" standalone="no" ?>
<!DOCTYPE svg PUBLIC "-//W3C//DTD SVG 1.1//EN" "http://www.w3.org/Graphics/SVG/1.1/DTD/svg11.dtd">
<svg xmlns="http://www.w3.org/2000/svg" xmlns:xlink="http://www.w3.org/1999/xlink" version="1.1" width="602.3622047315624" height="1051.1811023746875" viewBox="0 0 265.71 463.69" xml:space="preserve">
<desc>Created with Fabric.js 3.4.0 and NBDesigner 2.7</desc>
<defs>
</defs>
<g transform="matrix(0.2412539022 0 0 0.2412539022 135.8259469303 231.845)"  >
	<image style="stroke: none; stroke-width: 0; stroke-dasharray: none; stroke-linecap: butt; stroke-dashoffset: 0; stroke-linejoin: miter; stroke-miterlimit: 4; fill: rgb(255,255,255); fill-rule: nonzero; opacity: 1;"  xlink:href="https://transparentcard.de/wp-content/themes/astra-child/assets/img/transparent_glass_51x89-mm.png" x="-563" y="-961" width="1126" height="1922"></image>
</g>
<g transform="matrix(0.4408528039 0 0 0.1620731082 155.2763726149 231.8449999925)"  >
<rect style="stroke: none; stroke-width: 1; stroke-dasharray: none; stroke-linecap: butt; stroke-dashoffset: 0; stroke-linejoin: miter; stroke-miterlimit: 4; fill: rgb(0,0,0); fill-rule: nonzero; opacity: 0.8;"  x="-250" y="-250" rx="0" ry="0" width="500" height="500" />
</g>
<g transform="matrix(2.3533589578 0 0 2.3533589578 44.2225963865 315.1824600419)"  >
<path style="stroke: none; stroke-width: 1; stroke-dasharray: none; stroke-linecap: butt; stroke-dashoffset: 0; stroke-linejoin: miter; stroke-miterlimit: 4; fill: rgb(255,255,255); fill-rule: nonzero; opacity: 0.7;"  transform=" translate(-151.44, -101.815)" d="M 151.44 98.96 c -1.13 0 -2.04 0.91 -2.04 2.04 c 0 0.42 0.13 0.81 0.35 1.13 h 0 l 1.69 2.54 l 1.69 -2.54 c 0.22 -0.32 0.35 -0.71 0.35 -1.13 c 0 -1.13 -0.91 -2.04 -2.04 -2.04 Z m 0 3.17 c -0.63 0 -1.14 -0.51 -1.14 -1.13 s 0.51 -1.14 1.14 -1.14 s 1.13 0.51 1.13 1.14 s -0.5 1.13 -1.13 1.13 Z" stroke-linecap="round" />
</g>
<g transform="matrix(2.3533589578 0 0 2.3533589578 44.2225963867 337.2640193289)"  >
<path style="stroke: none; stroke-width: 1; stroke-dasharray: none; stroke-linecap: butt; stroke-dashoffset: 0; stroke-linejoin: miter; stroke-miterlimit: 4; fill: rgb(255,255,255); fill-rule: nonzero; opacity: 0.7;"  transform=" translate(-151.4702230669, -111.8379102813)" d="M 150.88 110.78 c 0.29 -0.33 -0.02 -0.77 -0.22 -1.06 c -0.11 -0.17 -0.27 -0.42 -0.49 -0.45 c -0.21 -0.02 -0.4 0.21 -0.55 0.34 c -0.34 0.31 -0.53 0.71 -0.55 1.16 c 0 0.05 0 0.14 0 0.06 c 0.03 0.27 0.06 0.53 0.16 0.79 c 0.09 0.24 0.21 0.47 0.35 0.69 c 0.3 0.46 0.65 0.9 1.07 1.26 c 0.4 0.36 0.86 0.68 1.4 0.8 c 0.51 0.1 1 0 1.4 -0.33 c 0.14 -0.12 0.41 -0.29 0.42 -0.49 c 0.01 -0.21 -0.15 -0.37 -0.29 -0.49 c -0.3 -0.27 -0.74 -0.72 -1.15 -0.39 c -0.16 0.13 -0.33 0.37 -0.54 0.41 c -0.21 0.03 -0.42 -0.12 -0.57 -0.24 c -0.34 -0.28 -0.68 -0.66 -0.88 -1.05 c -0.08 -0.18 -0.16 -0.4 -0.04 -0.58 c 0.13 -0.17 0.34 -0.25 0.48 -0.42 Z" stroke-linecap="round" />
</g>
<g transform="matrix(0.7009234321 0 0 0.7009234321 44.2225963863 363.0059994477)"  >
<g style="opacity: 0.7;"   >
		<g transform="matrix(3.357512176 0 0 3.357512176 -0.0167875609 -2.8538853496)"  >
<polygon style="stroke: none; stroke-width: 1; stroke-dasharray: none; stroke-linecap: butt; stroke-dashoffset: 0; stroke-linejoin: miter; stroke-miterlimit: 4; fill: rgb(255,255,255); fill-rule: nonzero; opacity: 1;"  points="0,0.95 -2.48,-0.95 2.48,-0.95 0,0.95 " />
</g>
		<g transform="matrix(3.357512176 0 0 3.357512176 -6.2617602082 -0.0335751218)"  >
<polygon style="stroke: none; stroke-width: 1; stroke-dasharray: none; stroke-linecap: butt; stroke-dashoffset: 0; stroke-linejoin: miter; stroke-miterlimit: 4; fill: rgb(255,255,255); fill-rule: nonzero; opacity: 1;"  points="1,-0.05 -1,1.59 -1,-1.59 1,-0.05 " />
</g>
		<g transform="matrix(3.357512176 0 0 3.357512176 0 3.3071494933)"  >
<polygon style="stroke: none; stroke-width: 1; stroke-dasharray: none; stroke-linecap: butt; stroke-dashoffset: 0; stroke-linejoin: miter; stroke-miterlimit: 4; fill: rgb(255,255,255); fill-rule: nonzero; opacity: 1;"  points="-0.535,-0.795 -0.005,-0.375 0.555,-0.815 2.505,0.815 -2.505,0.815 -0.535,-0.795 " />
</g>
		<g transform="matrix(3.357512176 0 0 3.357512176 6.2785477691 -0.0503626826)"  >
<polygon style="stroke: none; stroke-width: 1; stroke-dasharray: none; stroke-linecap: butt; stroke-dashoffset: 0; stroke-linejoin: miter; stroke-miterlimit: 4; fill: rgb(255,255,255); fill-rule: nonzero; opacity: 1;"  points="-0.995,-0.065 0.995,-1.585 0.995,1.585 -0.995,-0.065 " />
</g>
</g>
</g>
<g transform="matrix(2.3533589578 0 0 2.3533589578 44.2225963866 386.7117435845)"  >
<path style="stroke: none; stroke-width: 1; stroke-dasharray: none; stroke-linecap: butt; stroke-dashoffset: 0; stroke-linejoin: miter; stroke-miterlimit: 4; fill: rgb(255,255,255); fill-rule: evenodd; opacity: 0.7;"  transform=" translate(-151.47, -131.905)" d="M 152.4 134.3 c -0.2 0.09 -0.39 0.18 -0.59 0.27 c -0.28 -0.66 -0.57 -1.31 -0.85 -1.97 c -0.37 0.34 -0.72 0.69 -1.09 1.03 v -4.39 c 1.07 1 2.13 1.99 3.2 2.98 c -0.52 0.05 -1.03 0.09 -1.55 0.14 c 0.29 0.65 0.59 1.3 0.88 1.95 Z" stroke-linecap="round" />
</g>
<g transform="matrix(0.7009234321 0 0 0.7009234321 145.3827211053 384.4101001016)" style=""  >
		<text xml:space="preserve" font-family="Open Sans" font-size="20.743333333333332" font-style="normal" font-weight="normal" style="stroke: none; stroke-width: 0; stroke-dasharray: none; stroke-linecap: butt; stroke-dashoffset: 0; stroke-linejoin: miter; stroke-miterlimit: 4; fill: rgb(255,255,255); fill-rule: nonzero; opacity: 0.7; white-space: pre;" ><tspan x="-119.8757689346" y="6.5163107333" >www.website.com</tspan></text>
</g>
<g transform="matrix(0.7009234321 0 0 0.7009234321 145.3827211053 362.3580455666)" style=""  >
		<text xml:space="preserve" font-family="Open Sans" font-size="20.743333333333332" font-style="normal" font-weight="normal" style="stroke: none; stroke-width: 0; stroke-dasharray: none; stroke-linecap: butt; stroke-dashoffset: 0; stroke-linejoin: miter; stroke-miterlimit: 4; fill: rgb(255,255,255); fill-rule: nonzero; opacity: 0.7; white-space: pre;" ><tspan x="-119.8757689346" y="6.5163107333" >info@yourmail.com</tspan></text>
</g>
<g transform="matrix(0.7009234321 0 0 0.7009234321 145.3827211053 338.2629061129)" style=""  >
		<text xml:space="preserve" font-family="Open Sans" font-size="20.743333333333332" font-style="normal" font-weight="normal" style="stroke: none; stroke-width: 0; stroke-dasharray: none; stroke-linecap: butt; stroke-dashoffset: 0; stroke-linejoin: miter; stroke-miterlimit: 4; fill: rgb(255,255,255); fill-rule: nonzero; opacity: 0.7; white-space: pre;" ><tspan x="-119.8757689346" y="6.5163107333" >+088 2743 1298</tspan></text>
</g>
<g transform="matrix(0.6577296642 0 0 0.6577296642 145.3827211117 315.1824600424)" style=""  >
		<text xml:space="preserve" font-family="Open Sans" font-size="22.105568876827682" font-style="normal" font-weight="normal" style="stroke: none; stroke-width: 0; stroke-dasharray: none; stroke-linecap: butt; stroke-dashoffset: 0; stroke-linejoin: miter; stroke-miterlimit: 4; fill: rgb(255,255,255); fill-rule: nonzero; opacity: 0.7; white-space: pre;" ><tspan x="-127.7481311352" y="6.944243407" >Your address goes here</tspan></text>
</g>
<g transform="matrix(0.5246400723 0 0 0.5246400723 120.9746571341 245.3107618544)" style=""  >
		<text xml:space="preserve" font-family="Open Sans" font-size="22.62909090909091" font-style="normal" font-weight="normal" style="stroke: none; stroke-width: 0; stroke-dasharray: none; stroke-linecap: butt; stroke-dashoffset: 0; stroke-linejoin: miter; stroke-miterlimit: 4; fill: rgb(153,226,101); fill-rule: nonzero; opacity: 0.7; white-space: pre;" ><tspan x="-92.5640548683" y="7.1087026182" >GRAPHIC DESIGN</tspan></text>
</g>
<g transform="matrix(0.5246400723 0 0 0.5246400723 150.1585963449 222.8510729851)" style=""  >
		<text xml:space="preserve" font-family="Open Sans" font-size="37.71515151515152" font-style="normal" font-weight="bold" style="stroke: none; stroke-width: 0; stroke-dasharray: none; stroke-linecap: butt; stroke-dashoffset: 0; stroke-linejoin: miter; stroke-miterlimit: 4; fill: rgb(153,226,101); fill-rule: nonzero; opacity: 0.8; white-space: pre;" ><tspan x="-148.1906467961" y="11.847837697" >THOMAS SMITH</tspan></text>
</g>
<g transform="matrix(1 0 0 1 132.8536061538 116.7372922762)"  >
<g style=""   >
		<g transform="matrix(0.2787673688 0 0 0.2787673688 -39.2197811165 15.6472124107)"  >
<path style="stroke: none; stroke-width: 1; stroke-dasharray: none; stroke-linecap: butt; stroke-dashoffset: 0; stroke-linejoin: miter; stroke-miterlimit: 4; fill: rgb(153,226,101); fill-rule: nonzero; opacity: 1;"  transform=" translate(-137.1, -187.19)" d="M 147.92 209.11 l -1.06 -6.31 h -17.29 l -3.28 6.31 h -12.82 l 24.23 -43.84 h 14.26 l 8.77 43.84 h -12.82 Z m -5.02 -32.67 l -8.5 16.5 h 11.11 l -2.61 -16.5 Z" stroke-linecap="round" />
</g>
		<g transform="matrix(0.2787673688 0 0 0.2787673688 -25.0960323762 15.6472124107)"  >
<path style="stroke: none; stroke-width: 1; stroke-dasharray: none; stroke-linecap: butt; stroke-dashoffset: 0; stroke-linejoin: miter; stroke-miterlimit: 4; fill: rgb(153,226,101); fill-rule: nonzero; opacity: 1;"  transform=" translate(-187.765, -187.19)" d="M 172.9 209.11 l -8.77 -43.84 h 12.82 l 5.27 31.62 l 16.36 -31.62 h 12.82 l -24.23 43.84 h -14.26 Z" stroke-linecap="round" />
</g>
		<g transform="matrix(0.2787673688 0 0 0.2787673688 -15.287602505 15.6472124107)"  >
<path style="stroke: none; stroke-width: 1; stroke-dasharray: none; stroke-linecap: butt; stroke-dashoffset: 0; stroke-linejoin: miter; stroke-miterlimit: 4; fill: rgb(153,226,101); fill-rule: nonzero; opacity: 1;"  transform=" translate(-222.95, -187.19)" d="M 233.77 209.11 l -1.06 -6.31 h -17.29 l -3.28 6.31 h -12.82 l 24.23 -43.84 h 14.26 l 8.77 43.84 h -12.82 Z m -5.02 -32.67 l -8.5 16.5 h 11.11 l -2.61 -16.5 Z" stroke-linecap="round" />
</g>
		<g transform="matrix(0.2787673688 0 0 0.2787673688 -2.72495103 15.6472124107)"  >
<path style="stroke: none; stroke-width: 1; stroke-dasharray: none; stroke-linecap: butt; stroke-dashoffset: 0; stroke-linejoin: miter; stroke-miterlimit: 4; fill: rgb(153,226,101); fill-rule: nonzero; opacity: 1;"  transform=" translate(-268.015, -187.19)" d="M 255.53 209.11 l 5.99 -33.98 h -12.29 l 1.74 -9.86 h 35.83 l -1.74 9.86 h -12.23 l -5.99 33.98 h -11.31 Z" stroke-linecap="round" />
</g>
		<g transform="matrix(0.2787673688 0 0 0.2787673688 4.5104560272 15.6472124107)"  >
<path style="stroke: none; stroke-width: 1; stroke-dasharray: none; stroke-linecap: butt; stroke-dashoffset: 0; stroke-linejoin: miter; stroke-miterlimit: 4; fill: rgb(153,226,101); fill-rule: nonzero; opacity: 1;"  transform=" translate(-293.97, -187.19)" d="M 284.45 209.11 l 7.73 -43.84 h 11.31 l -7.73 43.84 h -11.31 Z" stroke-linecap="round" />
</g>
		<g transform="matrix(0.2787673688 0 0 0.2787673688 14.1909981638 15.6555754318)"  >
<path style="stroke: none; stroke-width: 1; stroke-dasharray: none; stroke-linecap: butt; stroke-dashoffset: 0; stroke-linejoin: miter; stroke-miterlimit: 4; fill: rgb(153,226,101); fill-rule: nonzero; opacity: 1;"  transform=" translate(-328.6962385058, -187.22)" d="M 305.27 187.22 c 2.35 -13.34 14.05 -22.68 27.46 -22.68 s 21.75 9.33 19.4 22.68 c -2.35 13.34 -13.99 22.68 -27.4 22.68 s -21.82 -9.33 -19.47 -22.68 Z m 35.36 0 c 1.26 -7.17 -2.43 -12.69 -9.66 -12.69 s -12.94 5.52 -14.2 12.69 c -1.25 7.1 2.5 12.69 9.73 12.69 s 12.88 -5.59 14.13 -12.69 Z" stroke-linecap="round" />
</g>
		<g transform="matrix(0.2787673688 0 0 0.2787673688 27.9993945223 15.6472124107)"  >
<path style="stroke: none; stroke-width: 1; stroke-dasharray: none; stroke-linecap: butt; stroke-dashoffset: 0; stroke-linejoin: miter; stroke-miterlimit: 4; fill: rgb(153,226,101); fill-rule: nonzero; opacity: 1;"  transform=" translate(-378.23, -187.19)" d="M 383.83 209.11 l -14.06 -25.37 l -4.47 25.37 h -11.31 l 7.73 -43.84 h 11.63 l 13.5 24.12 l 4.25 -24.12 h 11.37 l -7.73 43.84 h -10.91 Z" stroke-linecap="round" />
</g>
		<g transform="matrix(0.2787673688 0 0 0.2787673688 -6.3224439244 30.2044444095)"  >
<path style="stroke: none; stroke-width: 1; stroke-dasharray: none; stroke-linecap: butt; stroke-dashoffset: 0; stroke-linejoin: miter; stroke-miterlimit: 4; fill: rgb(153,226,101); fill-rule: nonzero; opacity: 1;"  transform=" translate(-255.11, -239.41)" d="M 249.37 261.33 l 7.73 -43.84 h 3.75 l -7.73 43.84 h -3.75 Z" stroke-linecap="round" />
</g>
		<g transform="matrix(0.2787673688 0 0 0.2787673688 2.1228135134 30.2044444095)"  >
<path style="stroke: none; stroke-width: 1; stroke-dasharray: none; stroke-linecap: butt; stroke-dashoffset: 0; stroke-linejoin: miter; stroke-miterlimit: 4; fill: rgb(153,226,101); fill-rule: nonzero; opacity: 1;"  transform=" translate(-285.405, -239.41)" d="M 295.38 261.33 l -20.97 -37.66 l -6.64 37.66 h -3.75 l 7.73 -43.84 h 3.81 l 20.93 37.14 l 6.55 -37.14 h 3.75 l -7.73 43.84 h -3.68 Z" stroke-linecap="round" />
</g>
		<g transform="matrix(0.2787673688 0 0 0.2787673688 14.6007073546 30.2044444095)"  >
<path style="stroke: none; stroke-width: 1; stroke-dasharray: none; stroke-linecap: butt; stroke-dashoffset: 0; stroke-linejoin: miter; stroke-miterlimit: 4; fill: rgb(153,226,101); fill-rule: nonzero; opacity: 1;"  transform=" translate(-330.1659556845, -239.41)" d="M 309.97 261.33 l 7.73 -43.84 h 14 c 13.61 0 20.4 9.93 18.28 21.95 c -2.14 12.16 -12.41 21.89 -26.01 21.89 h -14 Z m 36.07 -21.89 c 1.81 -10.25 -3.3 -18.54 -14.94 -18.54 h -10.25 l -6.53 37.01 h 10.25 c 11.57 0 19.66 -8.22 21.46 -18.47 Z" stroke-linecap="round" />
</g>
		<g transform="matrix(0.2787673688 0 0 0.2787673688 27.8436166615 30.3131636833)"  >
<path style="stroke: none; stroke-width: 1; stroke-dasharray: none; stroke-linecap: butt; stroke-dashoffset: 0; stroke-linejoin: miter; stroke-miterlimit: 4; fill: rgb(153,226,101); fill-rule: nonzero; opacity: 1;"  transform=" translate(-377.6711904754, -239.8)" d="M 358.42 244.5 l 4.76 -27.02 h 3.81 l -4.75 26.95 c -1.56 8.88 2.15 14.27 10.76 14.27 s 14.23 -5.39 15.79 -14.27 l 4.75 -26.95 h 3.81 l -4.76 27.02 c -1.91 10.85 -8.89 17.62 -20.2 17.62 s -15.88 -6.84 -13.98 -17.62 Z" stroke-linecap="round" />
</g>
		<g transform="matrix(0.2787673688 0 0 0.2787673688 38.9089555003 30.2114135937)"  >
<path style="stroke: none; stroke-width: 1; stroke-dasharray: none; stroke-linecap: butt; stroke-dashoffset: 0; stroke-linejoin: miter; stroke-miterlimit: 4; fill: rgb(153,226,101); fill-rule: nonzero; opacity: 1;"  transform=" translate(-417.365, -239.435)" d="M 399.21 255.15 l 2.93 -2.83 c 2.26 3.22 6.3 6.38 12.61 6.38 c 8.94 0 12.38 -5 13.04 -8.74 c 2.27 -12.88 -25.2 -6.18 -22.5 -21.5 c 1.26 -7.16 8.51 -11.7 16.46 -11.7 c 6.51 0 11.1 2.3 13.77 6.18 l -2.98 2.76 c -2.48 -3.81 -6.65 -5.52 -11.58 -5.52 c -5.85 0 -10.84 3.35 -11.68 8.08 c -1.98 11.24 25.4 5.06 22.51 21.43 c -1 5.65 -5.94 12.42 -17.77 12.42 c -7.23 0 -12.16 -2.96 -14.81 -6.97 Z" stroke-linecap="round" />
</g>
		<g transform="matrix(0.2787673688 0 0 0.2787673688 50.5307671055 30.2030505726)"  >
<path style="stroke: none; stroke-width: 1; stroke-dasharray: none; stroke-linecap: butt; stroke-dashoffset: 0; stroke-linejoin: miter; stroke-miterlimit: 4; fill: rgb(153,226,101); fill-rule: nonzero; opacity: 1;"  transform=" translate(-459.055, -239.405)" d="M 449.72 261.33 l 7.13 -40.43 h -14.33 l 0.6 -3.42 h 32.47 l -0.6 3.42 h -14.33 l -7.13 40.43 h -3.81 Z" stroke-linecap="round" />
</g>
		<g transform="matrix(0.2787673688 0 0 0.2787673688 60.0859731575 30.2044444095)"  >
<path style="stroke: none; stroke-width: 1; stroke-dasharray: none; stroke-linecap: butt; stroke-dashoffset: 0; stroke-linejoin: miter; stroke-miterlimit: 4; fill: rgb(153,226,101); fill-rule: nonzero; opacity: 1;"  transform=" translate(-493.3316303428, -239.41)" d="M 501.32 261.33 l -9.09 -18.14 h -9.66 l -3.2 18.14 h -3.75 l 7.73 -43.84 h 16.37 c 7.56 0 12.5 4.8 11.08 12.82 c -1.4 7.95 -7.77 12.36 -14.39 12.62 l 9.44 18.4 h -4.54 Z m 5.54 -31.03 c 0.97 -5.52 -2.22 -9.4 -8.07 -9.4 h -12.29 l -3.33 18.87 h 12.29 c 5.85 0 10.42 -3.94 11.4 -9.46 Z" stroke-linecap="round" />
</g>
		<g transform="matrix(0.2787673688 0 0 0.2787673688 72.0516079769 30.2044444095)"  >
<path style="stroke: none; stroke-width: 1; stroke-dasharray: none; stroke-linecap: butt; stroke-dashoffset: 0; stroke-linejoin: miter; stroke-miterlimit: 4; fill: rgb(153,226,101); fill-rule: nonzero; opacity: 1;"  transform=" translate(-536.255, -239.41)" d="M 526.62 261.33 l 3.3 -18.73 l -12.99 -25.11 h 4.53 l 10.99 21.56 l 18.59 -21.56 h 4.54 l -21.85 25.11 l -3.3 18.73 h -3.81 Z" stroke-linecap="round" />
</g>
		<g transform="matrix(0.2787673688 0 0 0.2787673688 -4.503486843 0.5101442849)"  >
<polygon style="stroke: none; stroke-width: 1; stroke-dasharray: none; stroke-linecap: butt; stroke-dashoffset: 0; stroke-linejoin: miter; stroke-miterlimit: 4; fill: rgb(0,0,0); fill-rule: nonzero; opacity: 1;"  points="-261.635,19.5 261.635,-59.02 164.435,59.02 196.195,-21.28 -261.635,19.5 " />
</g>
		<g transform="matrix(0.2787673688 0 0 0.2787673688 19.9485929113 -16.1294799588)"  >
<polygon style="stroke: none; stroke-width: 1; stroke-dasharray: none; stroke-linecap: butt; stroke-dashoffset: 0; stroke-linejoin: miter; stroke-miterlimit: 4; fill: rgb(0,0,0); fill-rule: nonzero; opacity: 1;"  points="-62.3,73.2 36.93,-73.2 62.3,23.29 31.96,-29.73 -62.3,73.2 " />
</g>
</g>
</g>
</svg>