<?xml version="1.0" encoding="UTF-8" standalone="no" ?>
<!DOCTYPE svg PUBLIC "-//W3C//DTD SVG 1.1//EN" "http://www.w3.org/Graphics/SVG/1.1/DTD/svg11.dtd">
<svg xmlns="http://www.w3.org/2000/svg" xmlns:xlink="http://www.w3.org/1999/xlink" version="1.1" width="1003.9370078859375" height="472.4409448875" viewBox="0 0 473 222.5882352941" xml:space="preserve">
<desc>Created with Fabric.js 3.4.0 and NBDesigner 2.7</desc>
<defs>
</defs>
<g transform="matrix(0.2577656676 0 0 0.2577656676 236.5 111.4836512262)"  >
	<image style="stroke: none; stroke-width: 0; stroke-dasharray: none; stroke-linecap: butt; stroke-dashoffset: 0; stroke-linejoin: miter; stroke-miterlimit: 4; fill: rgb(255,255,255); fill-rule: nonzero; opacity: 1;"  xlink:href="https://transparentcard.de/wp-content/themes/astra-child/assets/img/transparent_glass_85x40-mm.png" x="-917.5" y="-432.5" width="1835" height="865"></image>
</g>
<g transform="matrix(1.7993310061 0 0 1.6778398847 356.4841288971 176.8853355187)"  >
<rect style="stroke: none; stroke-width: 1; stroke-dasharray: none; stroke-linecap: butt; stroke-dashoffset: 0; stroke-linejoin: miter; stroke-miterlimit: 4; fill: rgb(241,241,242); fill-rule: nonzero; opacity: 1;"  x="-78.815" y="-7.98" rx="0" ry="0" width="157.63" height="15.96" />
</g>
<g transform="matrix(0.8315523254 0 0 0.8315523254 248.3151998146 50.8714069739)"  >
<g style=""   >
		<g transform="matrix(2.1813429827 0 0 2.1813429827 0.0109067149 0)"  >
<rect style="stroke: none; stroke-width: 1; stroke-dasharray: none; stroke-linecap: butt; stroke-dashoffset: 0; stroke-linejoin: miter; stroke-miterlimit: 4; fill: rgb(241,241,242); fill-rule: nonzero; opacity: 1;"  x="-8.03" y="-8.03" rx="0" ry="0" width="16.06" height="16.06" />
</g>
		<g transform="matrix(2.1813429827 0 0 2.1813429827 0 0)"  >
<path style="stroke: none; stroke-width: 1; stroke-dasharray: none; stroke-linecap: butt; stroke-dashoffset: 0; stroke-linejoin: miter; stroke-miterlimit: 4; fill: rgb(241,241,242); fill-rule: nonzero; opacity: 1;"  transform=" translate(-140.045, -35.41)" d="M 149.86 45.23 H 130.23 V 25.59 h 19.63 Z m -19 -0.65 h 18.33 V 26.24 H 130.88 Z" stroke-linecap="round" />
</g>
		<g transform="matrix(2.1813429827 0 0 2.1813429827 0.0109061444 -0.7198431842)"  >
<linearGradient id="SVGID_0" gradientUnits="userSpaceOnUse" gradientTransform="matrix(1 0 0 1 0 0)"  x1="136.2" y1="35.08" x2="143.9" y2="35.08">
<stop offset="17%" style="stop-color:rgb(17,44,70);stop-opacity: 1"/>
<stop offset="63%" style="stop-color:rgb(6,29,53);stop-opacity: 1"/>
<stop offset="100%" style="stop-color:rgb(0,22,45);stop-opacity: 1"/>
</linearGradient>
<path style="stroke: none; stroke-width: 1; stroke-dasharray: none; stroke-linecap: butt; stroke-dashoffset: 0; stroke-linejoin: miter; stroke-miterlimit: 4; fill: url(#SVGID_0); fill-rule: nonzero; opacity: 1;"  transform=" translate(-140.0499997384, -35.08)" d="M 141.42 35 a 2.55 2.55 0 0 0 -1.37 -4.7 h 0 a 2.55 2.55 0 0 0 -1.37 4.7 a 3.85 3.85 0 0 0 -2.48 3.6 a 1.26 1.26 0 0 0 1.25 1.26 h 5.2 a 1.26 1.26 0 0 0 1.25 -1.26 A 3.87 3.87 0 0 0 141.42 35 Z m -3.27 -2.15 a 1.9 1.9 0 0 1 1.9 -1.89 h 0 a 1.89 1.89 0 1 1 0 3.78 h 0 A 1.9 1.9 0 0 1 138.15 32.85 Z m 4.5 6.34 h -5.2 a 0.59 0.59 0 0 1 -0.59 -0.59 a 3.19 3.19 0 0 1 3.19 -3.19 h 0 a 3.19 3.19 0 0 1 3.19 3.19 A 0.59 0.59 0 0 1 142.65 39.19 Z" stroke-linecap="round" />
</g>
</g>
</g>
<g transform="matrix(0.8043951918 0 0 0.8043951918 249.8368876477 86.5919101285)"  >
<g style=""   >
		<g transform="matrix(2.1813429827 0 0 2.1813429827 0 -0.0109067149)"  >
<rect style="stroke: none; stroke-width: 1; stroke-dasharray: none; stroke-linecap: butt; stroke-dashoffset: 0; stroke-linejoin: miter; stroke-miterlimit: 4; fill: rgb(241,241,242); fill-rule: nonzero; opacity: 1;"  x="-4.79" y="-4.79" rx="0" ry="0" width="9.58" height="9.58" />
</g>
		<g transform="matrix(2.1813429827 0 0 2.1813429827 0 0)"  >
<path style="stroke: none; stroke-width: 1; stroke-dasharray: none; stroke-linecap: butt; stroke-dashoffset: 0; stroke-linejoin: miter; stroke-miterlimit: 4; fill: rgb(241,241,242); fill-rule: nonzero; opacity: 1;"  transform=" translate(-139.98, -67.605)" d="M 145.84 73.46 H 134.12 V 61.75 h 11.72 Z m -11.33 -0.38 h 10.94 V 62.13 H 134.51 Z" stroke-linecap="round" />
</g>
		<g transform="matrix(2.1813429827 0 0 2.1813429827 -0.0109067149 -0.8070969036)"  >
<linearGradient id="SVGID_1" gradientUnits="userSpaceOnUse" gradientTransform="matrix(1 0 0 1 0 0)"  x1="137.29" y1="67.23" x2="142.66" y2="67.23">
<stop offset="17%" style="stop-color:rgb(17,44,70);stop-opacity: 1"/>
<stop offset="63%" style="stop-color:rgb(6,29,53);stop-opacity: 1"/>
<stop offset="100%" style="stop-color:rgb(0,22,45);stop-opacity: 1"/>
</linearGradient>
<path style="stroke: none; stroke-width: 1; stroke-dasharray: none; stroke-linecap: butt; stroke-dashoffset: 0; stroke-linejoin: miter; stroke-miterlimit: 4; fill: url(#SVGID_1); fill-rule: nonzero; opacity: 1;"  transform=" translate(-139.975, -67.235)" d="M 141.89 65.13 h -3.82 a 0.78 0.78 0 0 0 -0.78 0.77 v 2.67 a 0.78 0.78 0 0 0 0.78 0.77 h 3.82 a 0.78 0.78 0 0 0 0.77 -0.77 V 65.9 A 0.78 0.78 0 0 0 141.89 65.13 Z m -3.82 0.37 H 142 l -1.61 1.82 a 0.5 0.5 0 0 1 -0.39 0.18 h -0.1 a 0.46 0.46 0 0 1 -0.29 -0.17 L 138 65.51 Z m 4.22 3.07 a 0.4 0.4 0 0 1 -0.4 0.4 h -3.82 a 0.41 0.41 0 0 1 -0.41 -0.4 V 65.9 a 0.8 0.8 0 0 1 0 -0.15 l 1.62 1.83 a 0.86 0.86 0 0 0 0.57 0.29 h 0.1 a 0.87 0.87 0 0 0 0.67 -0.3 l 1.61 -1.83 a 0.4 0.4 0 0 1 0 0.15 Z" stroke-linecap="round" />
</g>
</g>
</g>
<g transform="matrix(0.8043951918 0 0 0.8043951918 249.8368876477 115.0876178746)"  >
<g style=""   >
		<g transform="matrix(2.1813429827 0 0 2.1813429827 0 -0.0545335746)"  >
<rect style="stroke: none; stroke-width: 1; stroke-dasharray: none; stroke-linecap: butt; stroke-dashoffset: 0; stroke-linejoin: miter; stroke-miterlimit: 4; fill: rgb(241,241,242); fill-rule: nonzero; opacity: 1;"  x="-4.79" y="-4.79" rx="0" ry="0" width="9.58" height="9.58" />
</g>
		<g transform="matrix(2.1813429827 0 0 2.1813429827 0 0)"  >
<path style="stroke: none; stroke-width: 1; stroke-dasharray: none; stroke-linecap: butt; stroke-dashoffset: 0; stroke-linejoin: miter; stroke-miterlimit: 4; fill: rgb(241,241,242); fill-rule: nonzero; opacity: 1;"  transform=" translate(-139.98, -83.845)" d="M 145.84 89.69 H 134.12 V 78 h 11.72 Z m -11.33 -0.39 h 10.94 v -11 H 134.51 Z" stroke-linecap="round" />
</g>
		<g transform="matrix(2.1813429827 0 0 2.1813429827 -0.0977007093 -0.0415994383)"  >
<linearGradient id="SVGID_2" gradientUnits="userSpaceOnUse" gradientTransform="matrix(1 0 0 1 0 0)"  x1="137.56" y1="83.83" x2="142.39" y2="83.83">
<stop offset="17%" style="stop-color:rgb(17,44,70);stop-opacity: 1"/>
<stop offset="63%" style="stop-color:rgb(6,29,53);stop-opacity: 1"/>
<stop offset="100%" style="stop-color:rgb(0,22,45);stop-opacity: 1"/>
</linearGradient>
<path style="stroke: none; stroke-width: 1; stroke-dasharray: none; stroke-linecap: butt; stroke-dashoffset: 0; stroke-linejoin: miter; stroke-miterlimit: 4; fill: url(#SVGID_2); fill-rule: evenodd; opacity: 1;"  transform=" translate(-139.9352107532, -83.8259294372)" d="M 137.56 82.81 a 1.67 1.67 0 0 1 0.56 -1.23 c 0.14 -0.13 0.33 -0.36 0.55 -0.34 s 0.38 0.28 0.49 0.45 s 0.5 0.74 0.22 1.07 c -0.14 0.16 -0.35 0.25 -0.48 0.42 a 0.58 0.58 0 0 0 0 0.58 a 3.33 3.33 0 0 0 0.88 1.06 a 0.74 0.74 0 0 0 0.57 0.24 c 0.22 0 0.39 -0.27 0.55 -0.4 c 0.41 -0.34 0.85 0.12 1.16 0.38 c 0.13 0.13 0.3 0.3 0.29 0.5 s -0.28 0.38 -0.42 0.5 a 1.63 1.63 0 0 1 -1.41 0.33 a 3.16 3.16 0 0 1 -1.41 -0.8 a 6.86 6.86 0 0 1 -1.07 -1.27 a 3.48 3.48 0 0 1 -0.36 -0.69 a 4.2 4.2 0 0 1 -0.16 -0.8 C 137.57 82.54 137.58 83 137.56 82.81 Z" stroke-linecap="round" />
</g>
</g>
</g>
<g transform="matrix(0.8043951918 0 0 0.8043951918 249.8368876477 143.7061519473)"  >
<g style=""   >
		<g transform="matrix(2.1813429827 0 0 2.1813429827 0 0.0327201448)"  >
<rect style="stroke: none; stroke-width: 1; stroke-dasharray: none; stroke-linecap: butt; stroke-dashoffset: 0; stroke-linejoin: miter; stroke-miterlimit: 4; fill: rgb(241,241,242); fill-rule: nonzero; opacity: 1;"  x="-4.79" y="-4.79" rx="0" ry="0" width="9.58" height="9.58" />
</g>
		<g transform="matrix(2.1813429827 0 0 2.1813429827 0 0)"  >
<path style="stroke: none; stroke-width: 1; stroke-dasharray: none; stroke-linecap: butt; stroke-dashoffset: 0; stroke-linejoin: miter; stroke-miterlimit: 4; fill: rgb(241,241,242); fill-rule: nonzero; opacity: 1;"  transform=" translate(-139.98, -100.155)" d="M 145.84 106 H 134.12 V 94.31 h 11.72 Z m -11.33 -0.39 h 10.94 V 94.7 H 134.51 Z" stroke-linecap="round" />
</g>
		<g transform="matrix(2.1813429827 0 0 2.1813429827 0.0435615557 0.0327854487)"  >
<linearGradient id="SVGID_3" gradientUnits="userSpaceOnUse" gradientTransform="matrix(1 0 0 1 0 0)"  x1="137.29" y1="100.17" x2="142.67" y2="100.17">
<stop offset="17%" style="stop-color:rgb(17,44,70);stop-opacity: 1"/>
<stop offset="63%" style="stop-color:rgb(6,29,53);stop-opacity: 1"/>
<stop offset="100%" style="stop-color:rgb(0,22,45);stop-opacity: 1"/>
</linearGradient>
<path style="stroke: none; stroke-width: 1; stroke-dasharray: none; stroke-linecap: butt; stroke-dashoffset: 0; stroke-linejoin: miter; stroke-miterlimit: 4; fill: url(#SVGID_3); fill-rule: nonzero; opacity: 1;"  transform=" translate(-139.9999700625, -100.1700299375)" d="M 140 97.48 a 2.69 2.69 0 1 0 2.69 2.69 A 2.68 2.68 0 0 0 140 97.48 Z m 2.31 2.5 h -1 a 4 4 0 0 0 -0.52 -2 A 2.32 2.32 0 0 1 142.29 100 Z M 140 102.49 c -0.42 0 -0.89 -0.87 -0.93 -2.14 h 1.86 C 140.86 101.62 140.4 102.49 140 102.49 Z m -0.93 -2.51 c 0 -1.27 0.51 -2.13 0.93 -2.13 s 0.88 0.86 0.93 2.13 Z m 0.15 -2 a 3.88 3.88 0 0 0 -0.52 2 h -1 A 2.32 2.32 0 0 1 139.2 98 Z m -1.53 2.37 h 1 a 3.88 3.88 0 0 0 0.52 2 A 2.31 2.31 0 0 1 137.67 100.35 Z m 3.09 2 a 4 4 0 0 0 0.52 -2 h 1 A 2.31 2.31 0 0 1 140.76 102.35 Z" stroke-linecap="round" />
</g>
</g>
</g>
<g transform="matrix(0.7691774738 0 0 0.7691774738 249.8368876483 177.3298346207)"  >
<g style=""   >
		<g transform="matrix(2.1813429827 0 0 2.1813429827 0 0)"  >
<linearGradient id="SVGID_4" gradientUnits="userSpaceOnUse" gradientTransform="matrix(1 0 0 1 0 0)"  x1="134.12" y1="128.43" x2="145.84" y2="128.43">
<stop offset="17%" style="stop-color:rgb(17,44,70);stop-opacity: 1"/>
<stop offset="63%" style="stop-color:rgb(6,29,53);stop-opacity: 1"/>
<stop offset="100%" style="stop-color:rgb(0,22,45);stop-opacity: 1"/>
</linearGradient>
<path style="stroke: none; stroke-width: 1; stroke-dasharray: none; stroke-linecap: butt; stroke-dashoffset: 0; stroke-linejoin: miter; stroke-miterlimit: 4; fill: url(#SVGID_4); fill-rule: nonzero; opacity: 1;"  transform=" translate(-139.98, -128.43)" d="M 145.84 134.29 H 134.12 V 122.57 h 11.72 Z m -11.33 -0.39 h 10.94 V 123 H 134.51 Z" stroke-linecap="round" />
</g>
		<g transform="matrix(2.1813429827 0 0 2.1813429827 -0.0109067149 0)"  >
<linearGradient id="SVGID_5" gradientUnits="userSpaceOnUse" gradientTransform="matrix(1 0 0 1 0 0)"  x1="135.66" y1="128.43" x2="144.29" y2="128.43">
<stop offset="17%" style="stop-color:rgb(17,44,70);stop-opacity: 1"/>
<stop offset="63%" style="stop-color:rgb(6,29,53);stop-opacity: 1"/>
<stop offset="100%" style="stop-color:rgb(0,22,45);stop-opacity: 1"/>
</linearGradient>
<path style="stroke: none; stroke-width: 1; stroke-dasharray: none; stroke-linecap: butt; stroke-dashoffset: 0; stroke-linejoin: miter; stroke-miterlimit: 4; fill: url(#SVGID_5); fill-rule: nonzero; opacity: 1;"  transform=" translate(-139.975, -128.43)" d="M 144.29 132.75 h -8.63 v -8.64 h 8.63 Z m -8.34 -0.29 H 144 V 124.4 H 136 Z" stroke-linecap="round" />
</g>
		<g transform="matrix(2.1813429827 0 0 2.1813429827 0.1322434501 -2.7979281973)"  >
<linearGradient id="SVGID_6" gradientUnits="userSpaceOnUse" gradientTransform="matrix(1 0 0 1 0 0)"  x1="136.77" y1="127.16" x2="143.32" y2="127.16">
<stop offset="17%" style="stop-color:rgb(17,44,70);stop-opacity: 1"/>
<stop offset="63%" style="stop-color:rgb(6,29,53);stop-opacity: 1"/>
<stop offset="100%" style="stop-color:rgb(0,22,45);stop-opacity: 1"/>
</linearGradient>
<path style="stroke: none; stroke-width: 1; stroke-dasharray: none; stroke-linecap: butt; stroke-dashoffset: 0; stroke-linejoin: miter; stroke-miterlimit: 4; fill: url(#SVGID_6); fill-rule: nonzero; opacity: 1;"  transform=" translate(-140.0406247853, -127.1473368794)" d="M 143.14 127.7 l -2.78 -1.9 a 0.42 0.42 0 0 0 -0.48 0 l -2.93 2 a 0.43 0.43 0 0 0 -0.11 0.59 a 0.44 0.44 0 0 0 0.35 0.18 a 0.43 0.43 0 0 0 0.24 -0.08 l 2.69 -1.85 l 2.55 1.74 a 0.42 0.42 0 0 0 0.58 -0.11 A 0.43 0.43 0 0 0 143.14 127.7 Z" stroke-linecap="round" />
</g>
		<g transform="matrix(2.1813429827 0 0 2.1813429827 0.3272014474 1.385152794)"  >
<linearGradient id="SVGID_7" gradientUnits="userSpaceOnUse" gradientTransform="matrix(1 0 0 1 -140.13 -129.065)"  x1="137.86" y1="129.07" x2="142.4" y2="129.07">
<stop offset="17%" style="stop-color:rgb(17,44,70);stop-opacity: 1"/>
<stop offset="63%" style="stop-color:rgb(6,29,53);stop-opacity: 1"/>
<stop offset="100%" style="stop-color:rgb(0,22,45);stop-opacity: 1"/>
</linearGradient>
<polygon style="stroke: none; stroke-width: 1; stroke-dasharray: none; stroke-linecap: butt; stroke-dashoffset: 0; stroke-linejoin: miter; stroke-miterlimit: 4; fill: url(#SVGID_7); fill-rule: nonzero; opacity: 1;"  points="-2.27,-0.515 -2.27,2.065 -0.6,2.065 -0.6,0.265 0.65,0.265 0.65,2.065 2.27,2.065 2.27,-0.515 -0.01,-2.065 -2.27,-0.515 " />
</g>
</g>
</g>
<g transform="matrix(1.0301673178 0 0 1.0301673178 61.5872101481 109.7865983595)"  >
<g style=""   >
		<g transform="matrix(2.1813429827 0 0 2.1813429827 0 0)"  >
<linearGradient id="SVGID_8" gradientUnits="userSpaceOnUse" gradientTransform="matrix(1 0 0 1 -42.83 -81)"  x1="32.61" y1="81" x2="53.05" y2="81">
<stop offset="17%" style="stop-color:rgb(17,44,70);stop-opacity: 1"/>
<stop offset="63%" style="stop-color:rgb(6,29,53);stop-opacity: 1"/>
<stop offset="100%" style="stop-color:rgb(0,22,45);stop-opacity: 1"/>
</linearGradient>
<rect style="stroke: none; stroke-width: 1; stroke-dasharray: none; stroke-linecap: butt; stroke-dashoffset: 0; stroke-linejoin: miter; stroke-miterlimit: 4; fill: url(#SVGID_8); fill-rule: nonzero; opacity: 1;"  x="-10.22" y="-10.22" rx="0" ry="0" width="20.44" height="20.44" />
</g>
		<g transform="matrix(2.1813429827 0 0 2.1813429827 0 0)"  >
<linearGradient id="SVGID_9" gradientUnits="userSpaceOnUse" gradientTransform="matrix(1 0 0 1 0 0)"  x1="30.33" y1="81" x2="55.33" y2="81">
<stop offset="17%" style="stop-color:rgb(17,44,70);stop-opacity: 1"/>
<stop offset="63%" style="stop-color:rgb(6,29,53);stop-opacity: 1"/>
<stop offset="100%" style="stop-color:rgb(0,22,45);stop-opacity: 1"/>
</linearGradient>
<path style="stroke: none; stroke-width: 1; stroke-dasharray: none; stroke-linecap: butt; stroke-dashoffset: 0; stroke-linejoin: miter; stroke-miterlimit: 4; fill: url(#SVGID_9); fill-rule: nonzero; opacity: 1;"  transform=" translate(-42.83, -81)" d="M 55.33 93.5 h -25 v -25 h 25 Z m -24.17 -0.83 H 54.5 V 69.33 H 31.16 Z" stroke-linecap="round" />
</g>
		<g transform="matrix(2.1813429827 0 0 2.1813429827 0.0761855934 -0.9676184491)"  >
<path style="stroke: none; stroke-width: 1; stroke-dasharray: none; stroke-linecap: butt; stroke-dashoffset: 0; stroke-linejoin: miter; stroke-miterlimit: 4; fill: rgb(241,241,242); fill-rule: nonzero; opacity: 1;"  transform=" translate(-42.8649260038, -80.5564115974)" d="M 42.9 75.79 l -6.61 9.06 a 0.56 0.56 0 0 0 0.45 0.88 H 48 a 0.76 0.76 0 0 0 0.67 -1.1 l -3.48 -3.19 l 4.08 -2.08 a 0.48 0.48 0 0 0 0.26 -0.42 a 0.59 0.59 0 0 0 0 -0.22 a 0.48 0.48 0 0 0 -0.64 -0.2 l -4.11 2.09 l -0.5 -4.71 A 0.75 0.75 0 0 0 42.9 75.79 Z" stroke-linecap="round" />
</g>
</g>
</g>
<g transform="matrix(0 -1.0301673178 1.0301673178 0 111.2874975769 111.3594578234)" style=""  >
		<text xml:space="preserve" font-family="Roboto" font-size="22.725629789700168" font-style="normal" font-weight="bold" style="stroke: none; stroke-width: 0; stroke-dasharray: none; stroke-linecap: butt; stroke-dashoffset: 0; stroke-linejoin: miter; stroke-miterlimit: 4; fill: rgb(0,0,0); fill-rule: nonzero; opacity: 1; white-space: pre;" ><tspan x="-61.0909005636" y="7.1390293421" >LOGO HERE</tspan></text>
</g>
<g transform="matrix(0 -1.0301673178 1.0301673178 0 137.9617566975 109.2991231883)" style=""  >
		<text xml:space="preserve" font-family="Roboto" font-size="16.445088414129952" font-style="normal" font-weight="normal" style="stroke: none; stroke-width: 0; stroke-dasharray: none; stroke-linecap: butt; stroke-dashoffset: 0; stroke-linejoin: miter; stroke-miterlimit: 4; fill: rgb(0,0,0); fill-rule: nonzero; opacity: 1; white-space: pre;" ><tspan x="-78.8957393964" y="5.1660600744" >TAGLINE GOES HERE</tspan></text>
</g>
<g transform="matrix(0.8315523254 0 0 0.8315523254 343.3022065408 62.5590618326)" style=""  >
		<text xml:space="preserve" font-family="Roboto" font-size="16.445088414129952" font-style="normal" font-weight="normal" style="stroke: none; stroke-width: 0; stroke-dasharray: none; stroke-linecap: butt; stroke-dashoffset: 0; stroke-linejoin: miter; stroke-miterlimit: 4; fill: rgb(241,241,242); fill-rule: nonzero; opacity: 1; white-space: pre;" ><tspan x="-78.8957393964" y="5.1660600744" >TAGLINE GOES HERE</tspan></text>
</g>
<g transform="matrix(0.8043951918 0 0 0.8043951918 326.1655295057 85.9637492784)" style=""  >
		<text xml:space="preserve" font-family="Roboto" font-size="16" font-style="normal" font-weight="normal" style="stroke: none; stroke-width: 0; stroke-dasharray: none; stroke-linecap: butt; stroke-dashoffset: 0; stroke-linejoin: miter; stroke-miterlimit: 4; fill: rgb(241,241,242); fill-rule: nonzero; opacity: 1; white-space: pre;" ><tspan x="-56.796875" y="5.02624" >Your Email Here</tspan></text>
</g>
<g transform="matrix(0.8043951918 0 0 0.8043951918 333.2165561092 114.9219761844)" style=""  >
		<text xml:space="preserve" font-family="Roboto" font-size="16" font-style="normal" font-weight="normal" style="stroke: none; stroke-width: 0; stroke-dasharray: none; stroke-linecap: butt; stroke-dashoffset: 0; stroke-linejoin: miter; stroke-miterlimit: 4; fill: rgb(241,241,242); fill-rule: nonzero; opacity: 1; white-space: pre;" ><tspan x="-65.5625" y="5.02624" >Your Number Here</tspan></text>
</g>
<g transform="matrix(0.8043951918 0 0 0.8043951918 333.2668308086 143.8802030906)" style=""  >
		<text xml:space="preserve" font-family="Roboto" font-size="16" font-style="normal" font-weight="normal" style="stroke: none; stroke-width: 0; stroke-dasharray: none; stroke-linecap: butt; stroke-dashoffset: 0; stroke-linejoin: miter; stroke-miterlimit: 4; fill: rgb(241,241,242); fill-rule: nonzero; opacity: 1; white-space: pre;" ><tspan x="-65.625" y="5.02624" >Your Website Here</tspan></text>
</g>
<g transform="matrix(0.7691774738 0 0 0.7691774738 332.7373955675 177.7443461535)" style=""  >
		<text xml:space="preserve" font-family="Roboto" font-size="16" font-style="normal" font-weight="normal" style="stroke: none; stroke-width: 0; stroke-dasharray: none; stroke-linecap: butt; stroke-dashoffset: 0; stroke-linejoin: miter; stroke-miterlimit: 4; fill: rgb(0,0,0); fill-rule: nonzero; opacity: 1; white-space: pre;" ><tspan x="-67.94140625" y="5.02624" >Your Location Here</tspan></text>
</g>
<g transform="matrix(0.8002706142 0 0 0.8002706142 344.8299360855 44.2823237181)"  >
<g style=""   >
		<g transform="matrix(1.0390889164 0 0 1.0390889164 43.7515378896 4e-10)" style=""  >
		<text xml:space="preserve" font-family="Roboto" font-size="27.260043431476905" font-style="normal" font-weight="bold" style="stroke: none; stroke-width: 0; stroke-dasharray: none; stroke-linecap: butt; stroke-dashoffset: 0; stroke-linejoin: miter; stroke-miterlimit: 4; fill: rgb(241,241,242); fill-rule: nonzero; opacity: 1; white-space: pre;" ><tspan x="-38.6272685733" y="8.5634700436" >HERE</tspan></text>
</g>
		<g transform="matrix(1.0390889164 0 0 1.0390889164 -40.6188472448 4e-10)" style=""  >
		<text xml:space="preserve" font-family="Roboto" font-size="27.260043431476905" font-style="normal" font-weight="bold" style="stroke: none; stroke-width: 0; stroke-dasharray: none; stroke-linecap: butt; stroke-dashoffset: 0; stroke-linejoin: miter; stroke-miterlimit: 4; fill: rgb(228,229,56); fill-rule: nonzero; opacity: 1; white-space: pre;" ><tspan x="-41.6421122439" y="8.5634700436" >NAME</tspan></text>
</g>
</g>
</g>
</svg>