<?xml version="1.0" encoding="UTF-8" standalone="no" ?>
<!DOCTYPE svg PUBLIC "-//W3C//DTD SVG 1.1//EN" "http://www.w3.org/Graphics/SVG/1.1/DTD/svg11.dtd">
<svg xmlns="http://www.w3.org/2000/svg" xmlns:xlink="http://www.w3.org/1999/xlink" version="1.1" width="1003.9370078859375" height="472.4409448875" viewBox="0 0 473 222.5882352941" xml:space="preserve">
<desc>Created with Fabric.js 3.4.0 and NBDesigner 2.7</desc>
<defs>
</defs>
<g transform="matrix(0.2577656676 0 0 0.2577656676 236.5 111.4836512262)"  >
	<image style="stroke: none; stroke-width: 0; stroke-dasharray: none; stroke-linecap: butt; stroke-dashoffset: 0; stroke-linejoin: miter; stroke-miterlimit: 4; fill: rgb(255,255,255); fill-rule: nonzero; opacity: 1;"  xlink:href="https://transparentcard.de/wp-content/themes/astra-child/assets/img/transparent_glass_85x40-mm.png" x="-917.5" y="-432.5" width="1835" height="865"></image>
</g>
<g transform="matrix(1.5424395671 0 0 1.1926426098 226.5 107.6103896098)"  >
<path style="stroke: none; stroke-width: 1; stroke-dasharray: none; stroke-linecap: butt; stroke-dashoffset: 0; stroke-linejoin: miter; stroke-miterlimit: 4; fill: rgb(255,255,255); fill-rule: nonzero; opacity: 0.2;"  transform=" translate(-164.925, -98.92)" d="M 0 119.18 V 121 H 329.85 v -1.84 Z M 0 108.6 v 1.84 H 329.85 V 108.6 Z M 0 98 v 1.84 H 329.85 V 98 Z M 0 87.43 v 1.84 H 329.85 V 87.43 Z M 0 76.84 v 1.84 H 329.85 V 76.84 Z" stroke-linecap="round" />
</g>
<g transform="matrix(1.5424395671 0 0 1.5424395671 317.3342472399 111.2941176471)"  >
<rect style="stroke: none; stroke-width: 1; stroke-dasharray: none; stroke-linecap: butt; stroke-dashoffset: 0; stroke-linejoin: miter; stroke-miterlimit: 4; fill: rgb(255,255,255); fill-rule: nonzero; opacity: 0.8;"  x="-75.415" y="-98.93" rx="0" ry="0" width="150.83" height="197.86" />
</g>
<g transform="matrix(0.9270266723 0 0 0.9270266723 341.0326087435 146.4238581945)" style=""  >
		<text xml:space="preserve" font-family="Roboto" font-size="17.67069883847782" font-style="normal" font-weight="normal" style="stroke: none; stroke-width: 0; stroke-dasharray: none; stroke-linecap: butt; stroke-dashoffset: 0; stroke-linejoin: miter; stroke-miterlimit: 4; fill: rgb(0,0,0); fill-rule: nonzero; opacity: 1; white-space: pre;" ><tspan x="-76.0668364063" y="5.5510733331" >+698 545 256 3333</tspan></text>
</g>
<g transform="matrix(0.9270266723 0 0 0.9270266723 338.9089705467 165.8233520539)" style=""  >
		<text xml:space="preserve" font-family="Roboto" font-size="17.67069883847782" font-style="normal" font-weight="normal" style="stroke: none; stroke-width: 0; stroke-dasharray: none; stroke-linecap: butt; stroke-dashoffset: 0; stroke-linejoin: miter; stroke-miterlimit: 4; fill: rgb(0,0,0); fill-rule: nonzero; opacity: 1; white-space: pre;" ><tspan x="-78.3576423348" y="5.5510733331" >yourmail@mail.com</tspan></text>
</g>
<g transform="matrix(0.9270266723 0 0 0.9270266723 333.1499517081 185.2228459137)" style=""  >
		<text xml:space="preserve" font-family="Roboto" font-size="17.67069883847782" font-style="normal" font-weight="normal" style="stroke: none; stroke-width: 0; stroke-dasharray: none; stroke-linecap: butt; stroke-dashoffset: 0; stroke-linejoin: miter; stroke-miterlimit: 4; fill: rgb(0,0,0); fill-rule: nonzero; opacity: 1; white-space: pre;" ><tspan x="-84.5699973952" y="5.5510733331" >yourwebaddress.com</tspan></text>
</g>
<g transform="matrix(1.0997464772 0 0 1.0997464772 360.4562262922 120.3614573403)" style=""  >
		<text xml:space="preserve" font-family="Roboto" font-size="24.041361482119786" font-style="normal" font-weight="normal" style="stroke: none; stroke-width: 0; stroke-dasharray: none; stroke-linecap: butt; stroke-dashoffset: 0; stroke-linejoin: miter; stroke-miterlimit: 4; fill: rgb(102,102,102); fill-rule: nonzero; opacity: 1; white-space: pre;" ><tspan x="-46.4583153813" y="7.552353296" >Musitian</tspan></text>
</g>
<g transform="matrix(1.0997464772 0 0 1.0997464772 326.1618357693 93.447141855)" style=""  >
		<text xml:space="preserve" font-family="Roboto" font-size="27.134475825753956" font-style="normal" font-weight="bold" style="stroke: none; stroke-width: 0; stroke-dasharray: none; stroke-linecap: butt; stroke-dashoffset: 0; stroke-linejoin: miter; stroke-miterlimit: 4; fill: rgb(0,0,0); fill-rule: nonzero; opacity: 1; white-space: pre;" ><tspan x="-77.6422211584" y="8.5240242359" >YOUR NAME</tspan></text>
</g>
<g transform="matrix(1.5921091287 0 0 1.5921091287 366.056591907 50.8510653082)"  >
<path style="stroke: none; stroke-width: 1; stroke-dasharray: none; stroke-linecap: butt; stroke-dashoffset: 0; stroke-linejoin: miter; stroke-miterlimit: 4; fill: rgb(1,3,0); fill-rule: nonzero; opacity: 1;"  transform=" translate(-254.5847973178, -54.4397934494)" d="M 278.48 40.66 H 230.69 a 4.42 4.42 0 0 0 -4.6 4.59 V 63.62 a 4.43 4.43 0 0 0 4.6 4.6 h 47.79 a 4.44 4.44 0 0 0 4.6 -4.6 V 45.25 A 4.43 4.43 0 0 0 278.48 40.66 Z M 261 42.49 h 7.36 v 11 h 1.84 v 7.35 H 261 Z m -11 11 h 1.83 v -11 h 7.36 V 60.87 H 250 Z m -11 0 h 1.84 v -11 h 5.52 v 11 h 1.84 v 7.35 H 239 Z m -11 -8.26 a 2.63 2.63 0 0 1 2.76 -2.77 h 4.59 v 11 h 1.84 v 7.35 h -9.19 Z m 53.31 18.36 a 2.63 2.63 0 0 1 -2.76 2.76 H 230.69 a 2.62 2.62 0 0 1 -2.76 -2.76 v -0.91 h 53.31 Z m 0 -2.75 h -9.17 V 53.52 h 1.84 v -11 h 4.57 a 2.62 2.62 0 0 1 2.76 2.76 Z" stroke-linecap="round" />
</g>
</svg>