<?xml version="1.0" encoding="UTF-8" standalone="no" ?>
<!DOCTYPE svg PUBLIC "-//W3C//DTD SVG 1.1//EN" "http://www.w3.org/Graphics/SVG/1.1/DTD/svg11.dtd">
<svg xmlns="http://www.w3.org/2000/svg" xmlns:xlink="http://www.w3.org/1999/xlink" version="1.1" width="472.4409448875001" height="1003.9370078859376" viewBox="0 0 222.4 472.6" xml:space="preserve">
<desc>Created with Fabric.js 3.4.0 and NBDesigner 2.7</desc>
<defs>
</defs>
<g transform="matrix(0.2574074074 0 0 0.2574074074 111.3287037037 236.3)"  >
	<image style="stroke: none; stroke-width: 0; stroke-dasharray: none; stroke-linecap: butt; stroke-dashoffset: 0; stroke-linejoin: miter; stroke-miterlimit: 4; fill: rgb(255,255,255); fill-rule: nonzero; opacity: 1;"  xlink:href="https://transparentcard.de/wp-content/themes/astra-child/assets/img/transparent_glass_40x85-mm.png" x="-432.5" y="-918" width="865" height="1836"></image>
</g>
<g transform="matrix(0.5095247262 0 0 0.5095247262 55.4559405049 219.5377355322)" style=""  >
		<text xml:space="preserve" font-family="Roboto" font-size="26.11699677567941" font-style="normal" font-weight="normal" style="stroke: none; stroke-width: 0; stroke-dasharray: none; stroke-linecap: butt; stroke-dashoffset: 0; stroke-linejoin: miter; stroke-miterlimit: 4; fill: rgb(255,255,255); fill-rule: nonzero; opacity: 1; white-space: pre;" ><tspan x="-48.2438968217" y="8.2043933671" >Position</tspan></text>
</g>
<g transform="matrix(0.6407457858 0 0 0.6407457858 85.9094561449 199.0315009297)" style=""  >
		<text xml:space="preserve" font-family="Roboto" font-size="30.51630130822538" font-style="normal" font-weight="bold" style="stroke: none; stroke-width: 0; stroke-dasharray: none; stroke-linecap: butt; stroke-dashoffset: 0; stroke-linejoin: miter; stroke-miterlimit: 4; fill: rgb(255,255,255); fill-rule: nonzero; opacity: 1; white-space: pre;" ><tspan x="-85.8920576281" y="9.586390893" >FULL NAME</tspan></text>
</g>
<g transform="matrix(0.2616698334 0 0 0.2616698334 111.1999999768 130.9635185765)"  >
<g style=""   >
		<g transform="matrix(1 0 0 1 -140.695 56.13)"  >
<path style="stroke: none; stroke-width: 1; stroke-dasharray: none; stroke-linecap: butt; stroke-dashoffset: 0; stroke-linejoin: miter; stroke-miterlimit: 4; fill: rgb(49,54,56); fill-rule: nonzero; opacity: 1;"  transform=" translate(-137.1, -187.19)" d="M 147.92 209.11 l -1.06 -6.31 h -17.29 l -3.28 6.31 h -12.82 l 24.23 -43.84 h 14.26 l 8.77 43.84 h -12.82 Z m -5.02 -32.67 l -8.5 16.5 h 11.11 l -2.61 -16.5 Z" stroke-linecap="round" />
</g>
		<g transform="matrix(1 0 0 1 -90.03 56.13)"  >
<path style="stroke: none; stroke-width: 1; stroke-dasharray: none; stroke-linecap: butt; stroke-dashoffset: 0; stroke-linejoin: miter; stroke-miterlimit: 4; fill: rgb(49,54,56); fill-rule: nonzero; opacity: 1;"  transform=" translate(-187.765, -187.19)" d="M 172.9 209.11 l -8.77 -43.84 h 12.82 l 5.27 31.62 l 16.36 -31.62 h 12.82 l -24.23 43.84 h -14.26 Z" stroke-linecap="round" />
</g>
		<g transform="matrix(1 0 0 1 -54.845 56.13)"  >
<path style="stroke: none; stroke-width: 1; stroke-dasharray: none; stroke-linecap: butt; stroke-dashoffset: 0; stroke-linejoin: miter; stroke-miterlimit: 4; fill: rgb(49,54,56); fill-rule: nonzero; opacity: 1;"  transform=" translate(-222.95, -187.19)" d="M 233.77 209.11 l -1.06 -6.31 h -17.29 l -3.28 6.31 h -12.82 l 24.23 -43.84 h 14.26 l 8.77 43.84 h -12.82 Z m -5.02 -32.67 l -8.5 16.5 h 11.11 l -2.61 -16.5 Z" stroke-linecap="round" />
</g>
		<g transform="matrix(1 0 0 1 -9.78 56.13)"  >
<path style="stroke: none; stroke-width: 1; stroke-dasharray: none; stroke-linecap: butt; stroke-dashoffset: 0; stroke-linejoin: miter; stroke-miterlimit: 4; fill: rgb(49,54,56); fill-rule: nonzero; opacity: 1;"  transform=" translate(-268.015, -187.19)" d="M 255.53 209.11 l 5.99 -33.98 h -12.29 l 1.74 -9.86 h 35.83 l -1.74 9.86 h -12.23 l -5.99 33.98 h -11.31 Z" stroke-linecap="round" />
</g>
		<g transform="matrix(1 0 0 1 16.175 56.13)"  >
<path style="stroke: none; stroke-width: 1; stroke-dasharray: none; stroke-linecap: butt; stroke-dashoffset: 0; stroke-linejoin: miter; stroke-miterlimit: 4; fill: rgb(49,54,56); fill-rule: nonzero; opacity: 1;"  transform=" translate(-293.97, -187.19)" d="M 284.45 209.11 l 7.73 -43.84 h 11.31 l -7.73 43.84 h -11.31 Z" stroke-linecap="round" />
</g>
		<g transform="matrix(1 0 0 1 50.9012385058 56.16)"  >
<path style="stroke: none; stroke-width: 1; stroke-dasharray: none; stroke-linecap: butt; stroke-dashoffset: 0; stroke-linejoin: miter; stroke-miterlimit: 4; fill: rgb(49,54,56); fill-rule: nonzero; opacity: 1;"  transform=" translate(-328.6962385058, -187.22)" d="M 305.27 187.22 c 2.35 -13.34 14.05 -22.68 27.46 -22.68 s 21.75 9.33 19.4 22.68 c -2.35 13.34 -13.99 22.68 -27.4 22.68 s -21.82 -9.33 -19.47 -22.68 Z m 35.36 0 c 1.26 -7.17 -2.43 -12.69 -9.66 -12.69 s -12.94 5.52 -14.2 12.69 c -1.25 7.1 2.5 12.69 9.73 12.69 s 12.88 -5.59 14.13 -12.69 Z" stroke-linecap="round" />
</g>
		<g transform="matrix(1 0 0 1 100.435 56.13)"  >
<path style="stroke: none; stroke-width: 1; stroke-dasharray: none; stroke-linecap: butt; stroke-dashoffset: 0; stroke-linejoin: miter; stroke-miterlimit: 4; fill: rgb(49,54,56); fill-rule: nonzero; opacity: 1;"  transform=" translate(-378.23, -187.19)" d="M 383.83 209.11 l -14.06 -25.37 l -4.47 25.37 h -11.31 l 7.73 -43.84 h 11.63 l 13.5 24.12 l 4.25 -24.12 h 11.37 l -7.73 43.84 h -10.91 Z" stroke-linecap="round" />
</g>
		<g transform="matrix(1 0 0 1 -22.685 108.35)"  >
<path style="stroke: none; stroke-width: 1; stroke-dasharray: none; stroke-linecap: butt; stroke-dashoffset: 0; stroke-linejoin: miter; stroke-miterlimit: 4; fill: rgb(49,54,56); fill-rule: nonzero; opacity: 1;"  transform=" translate(-255.11, -239.41)" d="M 249.37 261.33 l 7.73 -43.84 h 3.75 l -7.73 43.84 h -3.75 Z" stroke-linecap="round" />
</g>
		<g transform="matrix(1 0 0 1 7.61 108.35)"  >
<path style="stroke: none; stroke-width: 1; stroke-dasharray: none; stroke-linecap: butt; stroke-dashoffset: 0; stroke-linejoin: miter; stroke-miterlimit: 4; fill: rgb(49,54,56); fill-rule: nonzero; opacity: 1;"  transform=" translate(-285.405, -239.41)" d="M 295.38 261.33 l -20.97 -37.66 l -6.64 37.66 h -3.75 l 7.73 -43.84 h 3.81 l 20.93 37.14 l 6.55 -37.14 h 3.75 l -7.73 43.84 h -3.68 Z" stroke-linecap="round" />
</g>
		<g transform="matrix(1 0 0 1 52.3709556845 108.35)"  >
<path style="stroke: none; stroke-width: 1; stroke-dasharray: none; stroke-linecap: butt; stroke-dashoffset: 0; stroke-linejoin: miter; stroke-miterlimit: 4; fill: rgb(49,54,56); fill-rule: nonzero; opacity: 1;"  transform=" translate(-330.1659556845, -239.41)" d="M 309.97 261.33 l 7.73 -43.84 h 14 c 13.61 0 20.4 9.93 18.28 21.95 c -2.14 12.16 -12.41 21.89 -26.01 21.89 h -14 Z m 36.07 -21.89 c 1.81 -10.25 -3.3 -18.54 -14.94 -18.54 h -10.25 l -6.53 37.01 h 10.25 c 11.57 0 19.66 -8.22 21.46 -18.47 Z" stroke-linecap="round" />
</g>
		<g transform="matrix(1 0 0 1 99.8761904755 108.74)"  >
<path style="stroke: none; stroke-width: 1; stroke-dasharray: none; stroke-linecap: butt; stroke-dashoffset: 0; stroke-linejoin: miter; stroke-miterlimit: 4; fill: rgb(49,54,56); fill-rule: nonzero; opacity: 1;"  transform=" translate(-377.6711904754, -239.8)" d="M 358.42 244.5 l 4.76 -27.02 h 3.81 l -4.75 26.95 c -1.56 8.88 2.15 14.27 10.76 14.27 s 14.23 -5.39 15.79 -14.27 l 4.75 -26.95 h 3.81 l -4.76 27.02 c -1.91 10.85 -8.89 17.62 -20.2 17.62 s -15.88 -6.84 -13.98 -17.62 Z" stroke-linecap="round" />
</g>
		<g transform="matrix(1 0 0 1 139.57 108.375)"  >
<path style="stroke: none; stroke-width: 1; stroke-dasharray: none; stroke-linecap: butt; stroke-dashoffset: 0; stroke-linejoin: miter; stroke-miterlimit: 4; fill: rgb(49,54,56); fill-rule: nonzero; opacity: 1;"  transform=" translate(-417.365, -239.435)" d="M 399.21 255.15 l 2.93 -2.83 c 2.26 3.22 6.3 6.38 12.61 6.38 c 8.94 0 12.38 -5 13.04 -8.74 c 2.27 -12.88 -25.2 -6.18 -22.5 -21.5 c 1.26 -7.16 8.51 -11.7 16.46 -11.7 c 6.51 0 11.1 2.3 13.77 6.18 l -2.98 2.76 c -2.48 -3.81 -6.65 -5.52 -11.58 -5.52 c -5.85 0 -10.84 3.35 -11.68 8.08 c -1.98 11.24 25.4 5.06 22.51 21.43 c -1 5.65 -5.94 12.42 -17.77 12.42 c -7.23 0 -12.16 -2.96 -14.81 -6.97 Z" stroke-linecap="round" />
</g>
		<g transform="matrix(1 0 0 1 181.26 108.345)"  >
<path style="stroke: none; stroke-width: 1; stroke-dasharray: none; stroke-linecap: butt; stroke-dashoffset: 0; stroke-linejoin: miter; stroke-miterlimit: 4; fill: rgb(49,54,56); fill-rule: nonzero; opacity: 1;"  transform=" translate(-459.055, -239.405)" d="M 449.72 261.33 l 7.13 -40.43 h -14.33 l 0.6 -3.42 h 32.47 l -0.6 3.42 h -14.33 l -7.13 40.43 h -3.81 Z" stroke-linecap="round" />
</g>
		<g transform="matrix(1 0 0 1 215.5366303428 108.35)"  >
<path style="stroke: none; stroke-width: 1; stroke-dasharray: none; stroke-linecap: butt; stroke-dashoffset: 0; stroke-linejoin: miter; stroke-miterlimit: 4; fill: rgb(49,54,56); fill-rule: nonzero; opacity: 1;"  transform=" translate(-493.3316303428, -239.41)" d="M 501.32 261.33 l -9.09 -18.14 h -9.66 l -3.2 18.14 h -3.75 l 7.73 -43.84 h 16.37 c 7.56 0 12.5 4.8 11.08 12.82 c -1.4 7.95 -7.77 12.36 -14.39 12.62 l 9.44 18.4 h -4.54 Z m 5.54 -31.03 c 0.97 -5.52 -2.22 -9.4 -8.07 -9.4 h -12.29 l -3.33 18.87 h 12.29 c 5.85 0 10.42 -3.94 11.4 -9.46 Z" stroke-linecap="round" />
</g>
		<g transform="matrix(1 0 0 1 258.46 108.35)"  >
<path style="stroke: none; stroke-width: 1; stroke-dasharray: none; stroke-linecap: butt; stroke-dashoffset: 0; stroke-linejoin: miter; stroke-miterlimit: 4; fill: rgb(49,54,56); fill-rule: nonzero; opacity: 1;"  transform=" translate(-536.255, -239.41)" d="M 526.62 261.33 l 3.3 -18.73 l -12.99 -25.11 h 4.53 l 10.99 21.56 l 18.59 -21.56 h 4.54 l -21.85 25.11 l -3.3 18.73 h -3.81 Z" stroke-linecap="round" />
</g>
		<g transform="matrix(1 0 0 1 -16.16 1.83)"  >
<polygon style="stroke: none; stroke-width: 1; stroke-dasharray: none; stroke-linecap: butt; stroke-dashoffset: 0; stroke-linejoin: miter; stroke-miterlimit: 4; fill: rgb(138,205,215); fill-rule: nonzero; opacity: 1;"  points="-261.635,19.5 261.635,-59.02 164.435,59.02 196.195,-21.28 -261.635,19.5 " />
</g>
		<g transform="matrix(1 0 0 1 71.555 -57.86)"  >
<polygon style="stroke: none; stroke-width: 1; stroke-dasharray: none; stroke-linecap: butt; stroke-dashoffset: 0; stroke-linejoin: miter; stroke-miterlimit: 4; fill: rgb(138,205,215); fill-rule: nonzero; opacity: 1;"  points="-62.3,73.2 36.93,-73.2 62.3,23.29 31.96,-29.73 -62.3,73.2 " />
</g>
</g>
</g>
<g transform="matrix(0.1476482365 0 0 -0.0017426639 68.4845695594 233.7527006526)"  >
<rect style="stroke: none; stroke-width: 1; stroke-dasharray: none; stroke-linecap: butt; stroke-dashoffset: 0; stroke-linejoin: miter; stroke-miterlimit: 4; fill: rgb(255,255,255); fill-rule: nonzero; opacity: 1;"  x="-250" y="-250" rx="0" ry="0" width="500" height="500" />
</g>
<g transform="matrix(0.7800902971 0 0 0.7800902971 111.1999999827 328.4117114755)" style=""  >
		<text xml:space="preserve" font-family="Roboto" font-size="17.0864273988" font-style="normal" font-weight="normal" style="stroke: none; stroke-width: 0; stroke-dasharray: none; stroke-linecap: butt; stroke-dashoffset: 0; stroke-linejoin: miter; stroke-miterlimit: 4; fill: rgb(255,255,255); fill-rule: nonzero; opacity: 1; white-space: pre;" ><tspan x="-103.2861187486" y="5.3675303031" >www.construction.com</tspan></text>
</g>
<g transform="matrix(0.3702487841 0 0 0.3702487841 111.1999999929 301.8860457914)" style=""  >
		<text xml:space="preserve" font-family="Roboto" font-size="36" font-style="normal" font-weight="normal" style="stroke: none; stroke-width: 0; stroke-dasharray: none; stroke-linecap: butt; stroke-dashoffset: 0; stroke-linejoin: miter; stroke-miterlimit: 4; fill: rgb(255,255,255); fill-rule: nonzero; opacity: 1; white-space: pre;" ><tspan x="-217.6171875" y="11.30904" >contact@construction.com</tspan></text>
</g>
<g transform="matrix(0.3702487841 0 0 0.3702487841 91.1631771222 275.3603801064)" style=""  >
		<text xml:space="preserve" font-family="Roboto" font-size="36" font-style="normal" font-weight="normal" style="stroke: none; stroke-width: 0; stroke-dasharray: none; stroke-linecap: butt; stroke-dashoffset: 0; stroke-linejoin: miter; stroke-miterlimit: 4; fill: rgb(255,255,255); fill-rule: nonzero; opacity: 1; white-space: pre;" ><tspan x="-163.5" y="11.30904" >23 Name Street, City</tspan></text>
</g>
<g transform="matrix(0.7800902971 0 0 0.7800902971 71.9102403437 248.8347144201)" style=""  >
		<text xml:space="preserve" font-family="Roboto" font-size="17.0864273988" font-style="normal" font-weight="normal" style="stroke: none; stroke-width: 0; stroke-dasharray: none; stroke-linecap: butt; stroke-dashoffset: 0; stroke-linejoin: miter; stroke-miterlimit: 4; fill: rgb(255,255,255); fill-rule: nonzero; opacity: 1; white-space: pre;" ><tspan x="-52.920462638" y="5.3675303031" >+025 255 369</tspan></text>
</g>
<g transform="matrix(1.2082900412 0 0 1.2082900412 104.0046328031 373.9353126413)"  >
<path style="stroke: rgb(255,255,255); stroke-width: 1; stroke-dasharray: none; stroke-linecap: round; stroke-dashoffset: 0; stroke-linejoin: round; stroke-miterlimit: 4; fill: none; fill-rule: nonzero; opacity: 1;"  transform=" translate(-211.8182736799, -82.0865636221)" d="M 221.53 77 a 5.5 5.5 0 0 0 0 -6.14 L 219 74.72 l -3.46 -2.36 l 2.62 -3.84 A 5.52 5.52 0 0 0 212.37 77 l -11.2 16.43 l 3.46 2.36 l 11.2 -16.43 A 5.51 5.51 0 0 0 221.53 77 Z" stroke-linecap="round" />
</g>
<g transform="matrix(0.5067286192 0 0 0.5067286192 42.9395580463 373.9353126428)"  >
<g style=""   >
		<g transform="matrix(2.3844914131 0 0 2.3844914131 -1.1803232496 15.9284026394)"  >
<rect style="stroke: rgb(255,255,255); stroke-width: 1; stroke-dasharray: none; stroke-linecap: round; stroke-dashoffset: 0; stroke-linejoin: round; stroke-miterlimit: 4; fill: none; fill-rule: nonzero; opacity: 1;"  x="-2.09" y="-5.365" rx="0" ry="0" width="4.18" height="10.73" />
</g>
		<g transform="matrix(2.3844914131 0 0 2.3844914131 -1.1684007925 -4.5305336849)"  >
<rect style="stroke: rgb(255,255,255); stroke-width: 1; stroke-dasharray: none; stroke-linecap: round; stroke-dashoffset: 0; stroke-linejoin: round; stroke-miterlimit: 4; fill: none; fill-rule: nonzero; opacity: 1;"  x="-1.425" y="-3.215" rx="0" ry="0" width="2.85" height="6.43" />
</g>
		<g transform="matrix(2.3844914131 0 0 2.3844914131 0 -19.5647520444)"  >
<path style="stroke: rgb(255,255,255); stroke-width: 1; stroke-dasharray: none; stroke-linecap: round; stroke-dashoffset: 0; stroke-linejoin: round; stroke-miterlimit: 4; fill: none; fill-rule: nonzero; opacity: 1;"  transform=" translate(-211.385, -31.93)" d="M 213 28.7 v -0.61 H 208.8 v 1.23 h -2.67 v -1 h -3.65 v 5.32 h 3.65 v -1 h 2.67 V 35 H 213 V 32 c 6 0 7.29 3.77 7.29 3.77 C 220.27 28.66 213 28.7 213 28.7 Z" stroke-linecap="round" />
</g>
</g>
</g>
<g transform="matrix(0.5067286192 0 0 0.5067286192 172.2650747579 373.9353126426)"  >
<g style=""   >
		<g transform="matrix(0 2.3844914131 -2.3844914131 0 -2e-10 15.4173477363)"  >
<rect style="stroke: rgb(255,255,255); stroke-width: 1; stroke-dasharray: none; stroke-linecap: round; stroke-dashoffset: 0; stroke-linejoin: round; stroke-miterlimit: 4; fill: none; fill-rule: nonzero; opacity: 1;"  x="-1.615" y="-14.86" rx="0" ry="0" width="3.23" height="29.72" />
</g>
		<g transform="matrix(2.3844914131 0 0 2.3844914131 0.0715345873 -3.8628760891)"  >
<path style="stroke: rgb(255,255,255); stroke-width: 1; stroke-dasharray: none; stroke-linecap: round; stroke-dashoffset: 0; stroke-linejoin: round; stroke-miterlimit: 4; fill: none; fill-rule: nonzero; opacity: 1;"  transform=" translate(-211.3999999349, -122.3893244888)" d="M 216.8 117.12 v 5.18 h -2.34 v -6 a 13 13 0 0 0 -6.17 0 v 6 H 206 v -5.18 a 12.92 12.92 0 0 0 -7.5 11.73 H 224.3 A 12.93 12.93 0 0 0 216.8 117.12 Z" stroke-linecap="round" />
</g>
</g>
</g>
</svg>