<svg width="729" height="16" viewBox="0 0 729 16" fill="none" xmlns="http://www.w3.org/2000/svg">
<path d="M0.292893 7.29289C-0.0976311 7.68342 -0.0976311 8.31658 0.292893 8.70711L6.65685 15.0711C7.04738 15.4616 7.68054 15.4616 8.07107 15.0711C8.46159 14.6805 8.46159 14.0474 8.07107 13.6569L2.41421 8L8.07107 2.34315C8.46159 1.95262 8.46159 1.31946 8.07107 0.928933C7.68054 0.538408 7.04738 0.538408 6.65685 0.928933L0.292893 7.29289ZM728.707 8.70717C729.098 8.31665 729.098 7.68348 728.707 7.29296L722.343 0.928995C721.953 0.538471 721.319 0.538471 720.929 0.928995C720.538 1.31952 720.538 1.95268 720.929 2.34321L726.586 8.00006L720.929 13.6569C720.538 14.0474 720.538 14.6806 720.929 15.0711C721.319 15.4617 721.953 15.4617 722.343 15.0711L728.707 8.70717ZM1 9L728 9.00006L728 7.00006L1 7L1 9Z" fill="#003F3F"/>
</svg>
