<svg width="58" height="58" viewBox="0 0 58 58" fill="none" xmlns="http://www.w3.org/2000/svg">
<path fill-rule="evenodd" clip-rule="evenodd" d="M13.3571 3.77698H44.4821C45.0907 3.77698 45.6744 4.01981 46.1047 4.45206C46.535 4.88431 46.7768 5.47056 46.7768 6.08186V7.36434H11.0625V6.08186C11.0625 5.47056 11.3043 4.88431 11.7346 4.45206C12.1649 4.01981 12.7486 3.77698 13.3571 3.77698ZM7.49107 12.6467V14.5391H50.3482V12.6467C50.3482 12.4241 50.3046 12.2037 50.2198 11.9981C50.135 11.7924 50.0107 11.6056 49.854 11.4482C49.6973 11.2908 49.5112 11.1659 49.3065 11.0807C49.1018 10.9955 48.8823 10.9517 48.6607 10.9517H9.17857C8.95697 10.9517 8.73753 10.9955 8.53279 11.0807C8.32806 11.1659 8.14203 11.2908 7.98533 11.4482C7.82863 11.6056 7.70433 11.7924 7.61953 11.9981C7.53472 12.2037 7.49107 12.4241 7.49107 12.6467ZM48.3482 18.1264H9.65179C8.15356 18.1288 6.71738 18.7277 5.65798 19.7918C4.59857 20.8559 4.00236 22.2985 4 23.8034V48.323C4.00236 49.8279 4.59857 51.2705 5.65798 52.3346C6.71738 53.3988 8.15356 53.9976 9.65179 54H48.3482C49.8464 53.9976 51.2826 53.3988 52.342 52.3346C53.4014 51.2705 53.9976 49.8279 54 48.323V23.8034C53.9976 22.2985 53.4014 20.8559 52.342 19.7918C51.2826 18.7277 49.8464 18.1288 48.3482 18.1264Z" fill="#003F3F"/>
<rect x="6" y="20" width="46" height="32" rx="4" fill="#ECFF8C"/>
<rect x="33.5" y="25" width="14" height="2" rx="1" fill="#003F3F"/>
<rect x="37.5" y="28" width="10" height="1" rx="0.5" fill="#003F3F"/>
<rect x="9.5" y="37" width="20" height="1" rx="0.5" fill="#003F3F"/>
<rect x="9.5" y="40" width="20" height="1" rx="0.5" fill="#003F3F"/>
<rect x="9.5" y="43" width="20" height="1" rx="0.5" fill="#003F3F"/>
</svg>
