<svg width="52" height="92" viewBox="0 0 52 92" fill="none" xmlns="http://www.w3.org/2000/svg">
<path d="M27.4164 91.8086C26.8656 91.8494 26.386 91.4359 26.3453 90.8851L25.6809 81.9097C25.6401 81.3589 26.0535 80.8794 26.6043 80.8386C27.1551 80.7978 27.6346 81.2113 27.6754 81.7621L28.266 89.7402L36.2442 89.1497C36.7949 89.1089 37.2745 89.5223 37.3153 90.0731C37.356 90.6239 36.9426 91.1034 36.3918 91.1442L27.4164 91.8086ZM1.13677 0.629476C8.90725 1.70153 17.7947 4.0075 25.933 7.83959C34.0657 11.669 41.5142 17.053 46.3153 24.3169C51.1363 31.611 53.2382 40.7287 50.7766 51.8815C48.3228 62.9993 41.345 76.1016 28.0999 91.4643L26.5852 90.1583C39.7089 74.9363 46.4671 62.1276 48.8236 51.4505C51.1725 40.8083 49.1592 32.2469 44.6468 25.4197C40.1144 18.5623 33.0111 13.383 25.081 9.64904C17.1567 5.91772 8.47037 3.6602 0.863429 2.61071L1.13677 0.629476Z" fill="#003F3F"/>
</svg>
