<svg width="16" height="20" viewBox="0 0 16 20" fill="none" xmlns="http://www.w3.org/2000/svg">
<path d="M5 0.75C5 0.335786 5.33579 0 5.75 0H9.75C10.1642 0 10.5 0.335786 10.5 0.75V1.5H14.75C15.1642 1.5 15.5 1.83579 15.5 2.25C15.5 2.66421 15.1642 3 14.75 3H0.75C0.335786 3 0 2.66421 0 2.25C0 1.83579 0.335786 1.5 0.75 1.5H5V0.75Z" fill="white"/>
<path fill-rule="evenodd" clip-rule="evenodd" d="M1.9899 5.69478C2.01803 5.44157 2.23206 5.25 2.48684 5.25H13.0132C13.2679 5.25 13.482 5.44157 13.5101 5.69478L13.7102 7.49613C14.071 10.7431 14.071 14.0201 13.7102 17.267L13.6905 17.4444C13.5591 18.6269 12.6426 19.5699 11.4643 19.7349C9.0001 20.0799 6.49989 20.0799 4.03574 19.7349C2.85737 19.5699 1.94085 18.6269 1.80945 17.4444L1.78975 17.267C1.42897 14.0201 1.42897 10.7431 1.78975 7.49613L1.9899 5.69478ZM6.5 9.14999C6.5 8.73578 6.16421 8.39999 5.75 8.39999C5.33579 8.39999 5 8.73578 5 9.14999L5 16.15C5 16.5642 5.33579 16.9 5.75 16.9C6.16421 16.9 6.5 16.5642 6.5 16.15L6.5 9.14999ZM10.5 9.14999C10.5 8.73578 10.1642 8.39999 9.75 8.39999C9.33579 8.39999 9 8.73578 9 9.14999V16.15C9 16.5642 9.33579 16.9 9.75 16.9C10.1642 16.9 10.5 16.5642 10.5 16.15V9.14999Z" fill="white"/>
</svg>
