<svg width="64" height="81" viewBox="0 0 64 81" fill="none" xmlns="http://www.w3.org/2000/svg">
<g clip-path="url(#clip0_47_147)">
<path d="M20.0996 47.0196C18.0234 47.5278 16.0784 47.9865 14.1472 48.5039C13.9621 48.5534 13.7817 48.9519 13.7539 49.2067C13.5056 51.5081 13.2912 53.8126 13.066 56.1171C12.958 57.2184 12.8284 58.3166 12.7575 59.4178C12.6402 61.0582 13.0567 62.5734 13.885 63.9897C16.8455 69.0508 19.7998 74.1149 22.748 79.1821C22.8251 79.3149 22.9023 79.4508 22.9763 79.5837C23.2092 79.9806 23.2848 80.3915 22.8421 80.6649C22.3562 80.963 22.0308 80.6772 21.7824 80.2494C20.5413 78.1148 19.298 75.9823 18.0527 73.8518C16.2532 70.7627 14.4537 67.6735 12.6541 64.5844C11.5204 62.6413 11.2104 60.5562 11.4525 58.3382C11.7749 55.4035 12.0294 52.4503 12.3101 49.5048C12.3271 49.3334 12.3101 49.1588 12.3101 48.9797C11.6932 49.0569 11.1317 49.2005 10.578 49.1805C8.99693 49.1264 7.77529 48.0668 7.37425 46.4358C6.49042 42.8416 5.62664 39.2427 4.75206 35.6455C3.2209 29.3529 1.69026 23.0598 0.160135 16.7662C-0.422917 14.3629 0.593565 12.6855 3.01061 12.0986C19.4255 8.10741 35.8415 4.11831 52.2584 0.131277C54.3793 -0.383063 56.127 0.644073 56.6499 2.78175C58.234 9.2473 59.7873 15.7221 61.3529 22.1923C62.1868 25.6398 63.0223 29.0893 63.8594 32.5409C64.4054 34.8067 63.3395 36.5243 61.0922 37.0665C55.3521 38.4524 49.6142 39.8425 43.8783 41.2368C43.6808 41.2847 43.4865 41.3511 43.2088 41.4329C43.7965 42.8447 43.7379 44.2023 42.8618 45.5585C44.4366 46.113 45.4701 47.154 45.7647 48.7773C46.0593 50.4007 45.4408 51.746 44.0896 52.8148C44.2608 52.9245 44.3796 53.0033 44.5014 53.0789C45.9837 54.0057 46.4418 55.5935 45.669 57.1581C45.1924 58.1235 44.4212 58.7722 43.4587 59.2186C41.5029 60.1252 39.5501 61.0365 37.4863 61.9988C37.7207 62.5101 37.8796 63.0259 38.168 63.4569C39.5424 65.505 40.039 67.828 39.9989 70.2097C39.9557 72.8756 39.6272 75.5369 39.4005 78.1997C39.3604 78.677 39.2015 79.1682 38.5629 79.0647C37.9243 78.9612 38.0123 78.4469 38.0539 77.9711C38.2652 75.5663 38.5691 73.1645 38.6447 70.7549C38.7398 68.4027 38.1607 66.0724 36.9757 64.0392C36.1505 62.5865 35.5689 61.0081 35.2543 59.3669C35.0198 58.1606 35.3099 56.823 35.5104 55.5672C36.1752 51.3784 36.9125 47.2003 37.6066 43.0146C37.7547 42.1719 37.5912 41.3041 37.1466 40.5735C36.7021 39.8429 36.0068 39.2995 35.1911 39.045C33.4728 38.4813 31.5385 39.1902 30.8012 40.8074C30.4495 41.5797 30.3508 42.4786 30.2336 43.3343C29.4778 48.8376 28.7605 54.3455 27.9893 59.8457C27.9184 60.3554 27.6808 61.0674 27.2967 61.2574C26.6906 61.5663 26.4314 60.794 26.1291 60.3863C24.6344 58.3892 23.1475 56.3859 21.6976 54.3625C20.2754 52.37 19.7988 50.1196 20.0317 47.7008C20.0487 47.5185 20.0657 47.344 20.0996 47.0196ZM38.8822 41.0159C39.1799 40.9587 39.4082 40.9279 39.6318 40.8722C46.6675 39.1609 53.7022 37.4469 60.7359 35.7304C62.32 35.3443 62.9123 34.3882 62.5328 32.8235C60.1472 22.9836 57.7568 13.1422 55.3619 3.29918C54.9593 1.64341 54.0601 1.10435 52.4035 1.50748L3.22656 13.4439C1.70414 13.813 1.10258 14.7861 1.46969 16.3075C3.84508 26.1268 6.22202 35.9456 8.6005 45.7639C9.0324 47.5432 9.93784 48.0946 11.6993 47.6652L27.7117 43.7544C28.8932 43.4671 28.8947 43.4687 28.9564 42.2685C28.997 41.5339 29.197 40.8169 29.5424 40.1675C29.8879 39.5181 30.3706 38.952 30.9568 38.5084C31.5431 38.0648 32.2189 37.7546 32.9371 37.5992C33.6553 37.4438 34.3987 37.447 35.1155 37.6086C36.9773 38.0349 38.1696 39.2242 38.8822 41.0159ZM36.9927 54.9309C39.2308 53.7586 41.3116 52.7252 43.3415 51.5838C44.4983 50.9305 44.7914 49.4616 44.1605 48.2676C43.5096 47.032 42.1553 46.5068 40.9028 47.0582C40.0591 47.4305 39.2431 47.866 38.4349 48.314C38.2313 48.4445 38.0868 48.6496 38.0323 48.8855C37.6821 50.8239 37.3613 52.7685 36.9927 54.9309ZM28.4798 46.1145C28.3791 46.116 28.2791 46.1305 28.1821 46.1578C26.0412 47.2111 23.8971 48.2599 21.7716 49.3442C21.6659 49.4169 21.5791 49.5138 21.5185 49.6269C21.4578 49.7401 21.4251 49.8661 21.423 49.9944C21.6222 51.5716 22.2908 53.0521 23.3419 54.2435C24.7054 53.5377 26.0489 52.8534 27.3816 52.146C27.4582 52.1074 27.5262 52.0538 27.5816 51.9882C27.637 51.9226 27.6786 51.8466 27.7039 51.7645C27.9754 49.8941 28.2222 48.019 28.4798 46.1145ZM36.9541 60.74C39.1305 59.719 41.199 58.8124 43.198 57.7713C43.7579 57.4794 44.2438 56.8446 44.523 56.2607C44.6308 56.0395 44.6828 55.7952 44.6745 55.5492C44.6662 55.3032 44.5977 55.063 44.4752 54.8496C44.3526 54.6362 44.1797 54.4562 43.9716 54.3252C43.7635 54.1942 43.5265 54.1163 43.2813 54.0984C42.5736 54.0515 41.8647 54.1711 41.2113 54.4474C40.0329 54.9432 38.9239 55.6028 37.7809 56.1851C36.6826 56.7442 36.2955 57.3867 36.4574 58.6116C36.5438 59.2866 36.7644 59.9476 36.9541 60.74ZM38.3717 46.7987C39.4005 46.2535 40.3167 45.8427 41.1481 45.3036C41.5493 45.0599 41.8647 44.697 42.0505 44.2654C42.2363 43.8339 42.2832 43.3551 42.1846 42.8956C42.1152 42.5126 41.8114 41.9241 41.5306 41.87C40.6607 41.7032 39.0904 42.4215 39.0133 42.8725C38.8035 44.1097 38.6077 45.3499 38.3717 46.7926V46.7987ZM24.1316 55.3834L26.7538 58.9359C27.0021 57.0639 27.2165 55.439 27.4525 53.6844L24.1316 55.3834ZM21.494 47.9371L25.836 45.7747C24.6919 45.9275 23.5585 46.1525 22.4426 46.4481C21.4045 46.7061 21.3814 46.7354 21.494 47.9371Z" fill="black"/>
<circle cx="14.5318" cy="22.9256" r="6.69701" transform="rotate(-13.5506 14.5318 22.9256)" stroke="#003F3F" stroke-width="2"/>
<path d="M27.0122 17.3042L50.957 11.5332" stroke="#003F3F" stroke-width="3" stroke-linecap="round"/>
<path d="M28.2749 22.542L52.2197 16.771" stroke="black" stroke-width="2.5" stroke-linecap="round"/>
<path d="M10.9839 36.2102L54.3838 25.7503" stroke="black" stroke-width="2.5" stroke-linecap="round"/>
<path d="M12.0659 40.6997L55.4659 30.2398" stroke="black" stroke-width="2.5" stroke-linecap="round"/>
</g>
<defs>
<clipPath id="clip0_47_147">
<rect width="64" height="80.7869" fill="white"/>
</clipPath>
</defs>
</svg>
