<svg width="24" height="23" viewBox="0 0 24 23" fill="none" xmlns="http://www.w3.org/2000/svg">
<path d="M9.28578 1.83927C8.51798 2.57508 7.75713 2.9167 6.66249 2.9167C5.70672 2.9167 4.34691 2.73905 3.6 3.46086C2.85899 4.17696 3.04354 5.47475 3.04354 6.38486C3.04354 7.43392 2.68704 8.16306 1.91922 8.89889C0.639749 10.1251 1.10583e-05 10.7381 0 11.5C1.96761e-05 12.2618 0.639764 12.875 1.91925 14.1011C2.77939 14.9254 3.04354 15.4576 3.04354 16.6151C3.04354 17.5311 2.85817 18.8342 3.61139 19.55C4.35862 20.2601 5.71282 20.0833 6.66248 20.0833C7.82819 20.0833 8.38954 20.3018 9.22149 21.0991C9.92991 21.778 10.8796 23 12 23C13.1205 23 14.0701 21.778 14.7785 21.0991C15.6105 20.3018 16.1718 20.0833 17.3375 20.0833C18.2872 20.0833 19.6414 20.2601 20.3886 19.55C21.1418 18.8342 20.9565 17.5311 20.9565 16.6151C20.9565 15.4576 21.2206 14.9254 22.0807 14.1011C23.3602 12.875 24 12.2618 24 11.5C24 10.7381 23.3603 10.1251 22.0808 8.89889C21.2206 8.07458 20.9565 7.54237 20.9565 6.38486C20.9565 5.46893 21.1418 4.1658 20.3887 3.45C19.6414 2.73984 18.2872 2.9167 17.3375 2.9167C16.2426 2.9167 15.4819 2.57493 14.7142 1.83927C13.4347 0.613091 12.795 2.19259e-07 12 0C11.205 2.92345e-07 10.5653 0.613092 9.28578 1.83927Z" fill="#004D4D"/>
</svg>
