<svg width="167" height="21" viewBox="0 0 167 21" fill="none" xmlns="http://www.w3.org/2000/svg">
<path d="M0.782179 19.5499C0.533618 19.6702 0.429641 19.9693 0.54994 20.2178C0.670239 20.4664 0.96926 20.5704 1.21782 20.4501L0.782179 19.5499ZM167 20L163.719 15.2495L161.245 20.4663L167 20ZM1.21782 20.4501C2.1352 20.0061 3.05651 19.5692 3.98169 19.1396L3.56051 18.2326C2.63049 18.6645 1.70436 19.1036 0.782179 19.5499L1.21782 20.4501ZM9.57075 16.6524C11.4449 15.8542 13.3339 15.0852 15.2371 14.346L14.875 13.4139C12.9618 14.1569 11.0629 14.93 9.1789 15.7324L9.57075 16.6524ZM20.9746 12.2235C22.8955 11.5479 24.8299 10.9023 26.7774 10.2873L26.4763 9.33376C24.5185 9.952 22.5738 10.601 20.6428 11.2801L20.9746 12.2235ZM32.6402 8.53981C34.6001 7.98999 36.5723 7.47087 38.5564 6.98299L38.3176 6.01192C36.323 6.50238 34.3403 7.02425 32.37 7.57698L32.6402 8.53981ZM44.5194 5.61873C46.51 5.19712 48.5116 4.80676 50.5239 4.44816L50.3485 3.46367C48.3255 3.82416 46.3133 4.21659 44.3122 4.64043L44.5194 5.61873ZM56.5636 3.47233C58.5762 3.18043 60.5988 2.92017 62.6308 2.69206L62.5193 1.6983C60.4766 1.92761 58.4433 2.18924 56.42 2.48269L56.5636 3.47233ZM68.7201 2.10745C70.7466 1.94568 72.7819 1.81582 74.8254 1.71834L74.7778 0.719478C72.7236 0.817461 70.6777 0.948007 68.6405 1.11063L68.7201 2.10745ZM80.9406 1.52421C81.9585 1.50809 82.9783 1.5 84 1.5V0.5C82.9731 0.5 81.948 0.508133 80.9248 0.524339L80.9406 1.52421ZM84 1.5C85.0216 1.5 86.0415 1.50809 87.0593 1.52421L87.0752 0.524339C86.052 0.508133 85.0269 0.5 84 0.5V1.5ZM93.1745 1.71834C95.2181 1.81582 97.2534 1.94568 99.2799 2.10745L99.3595 1.11063C97.3223 0.948006 95.2764 0.81746 93.2222 0.719478L93.1745 1.71834ZM105.369 2.69206C107.401 2.92017 109.424 3.18043 111.436 3.47233L111.58 2.48269C109.557 2.18924 107.523 1.92761 105.481 1.6983L105.369 2.69206ZM117.476 4.44816C119.488 4.80676 121.49 5.19712 123.481 5.61873L123.688 4.64043C121.687 4.21659 119.674 3.82416 117.652 3.46367L117.476 4.44816ZM129.444 6.98299C131.428 7.47087 133.4 7.98999 135.36 8.53981L135.63 7.57698C133.66 7.02425 131.677 6.50238 129.682 6.01192L129.444 6.98299ZM141.223 10.2873C143.17 10.9023 145.105 11.5479 147.025 12.2235L147.357 11.2801C145.426 10.601 143.482 9.95199 141.524 9.33376L141.223 10.2873ZM152.763 14.346C154.666 15.0852 156.555 15.8542 158.429 16.6524L158.821 15.7324C156.937 14.93 155.038 14.1569 153.125 13.4139L152.763 14.346ZM0.782179 19.5499C0.533618 19.6702 0.429641 19.9693 0.54994 20.2178C0.670239 20.4664 0.96926 20.5704 1.21782 20.4501L0.782179 19.5499ZM167 20L163.719 15.2495L161.245 20.4663L167 20ZM1.21782 20.4501C2.1352 20.0061 3.05651 19.5692 3.98169 19.1396L3.56051 18.2326C2.63049 18.6645 1.70436 19.1036 0.782179 19.5499L1.21782 20.4501ZM9.57075 16.6524C11.4449 15.8542 13.3339 15.0852 15.2371 14.346L14.875 13.4139C12.9618 14.1569 11.0629 14.93 9.1789 15.7324L9.57075 16.6524ZM20.9746 12.2235C22.8955 11.5479 24.8299 10.9023 26.7774 10.2873L26.4763 9.33376C24.5185 9.952 22.5738 10.601 20.6428 11.2801L20.9746 12.2235ZM32.6402 8.53981C34.6001 7.98999 36.5723 7.47087 38.5564 6.98299L38.3176 6.01192C36.323 6.50238 34.3403 7.02425 32.37 7.57698L32.6402 8.53981ZM44.5194 5.61873C46.51 5.19712 48.5116 4.80676 50.5239 4.44816L50.3485 3.46367C48.3255 3.82416 46.3133 4.21659 44.3122 4.64043L44.5194 5.61873ZM56.5636 3.47233C58.5762 3.18043 60.5988 2.92017 62.6308 2.69206L62.5193 1.6983C60.4766 1.92761 58.4433 2.18924 56.42 2.48269L56.5636 3.47233ZM68.7201 2.10745C70.7466 1.94568 72.7819 1.81582 74.8254 1.71834L74.7778 0.719478C72.7236 0.817461 70.6777 0.948007 68.6405 1.11063L68.7201 2.10745ZM80.9406 1.52421C81.9585 1.50809 82.9783 1.5 84 1.5V0.5C82.9731 0.5 81.948 0.508133 80.9248 0.524339L80.9406 1.52421ZM84 1.5C85.0216 1.5 86.0415 1.50809 87.0593 1.52421L87.0752 0.524339C86.052 0.508133 85.0269 0.5 84 0.5V1.5ZM93.1745 1.71834C95.2181 1.81582 97.2534 1.94568 99.2799 2.10745L99.3595 1.11063C97.3223 0.948006 95.2764 0.81746 93.2222 0.719478L93.1745 1.71834ZM105.369 2.69206C107.401 2.92017 109.424 3.18043 111.436 3.47233L111.58 2.48269C109.557 2.18924 107.523 1.92761 105.481 1.6983L105.369 2.69206ZM117.476 4.44816C119.488 4.80676 121.49 5.19712 123.481 5.61873L123.688 4.64043C121.687 4.21659 119.674 3.82416 117.652 3.46367L117.476 4.44816ZM129.444 6.98299C131.428 7.47087 133.4 7.98999 135.36 8.53981L135.63 7.57698C133.66 7.02425 131.677 6.50238 129.682 6.01192L129.444 6.98299ZM141.223 10.2873C143.17 10.9023 145.105 11.5479 147.025 12.2235L147.357 11.2801C145.426 10.601 143.482 9.95199 141.524 9.33376L141.223 10.2873ZM152.763 14.346C154.666 15.0852 156.555 15.8542 158.429 16.6524L158.821 15.7324C156.937 14.93 155.038 14.1569 153.125 13.4139L152.763 14.346Z" fill="#003F3F"/>
</svg>
