<svg width="58" height="57" viewBox="0 0 58 57" fill="none" xmlns="http://www.w3.org/2000/svg">
<g clip-path="url(#clip0_151_984)">
<path d="M45.6392 4.24158H19.4906V15.0852H51.2239V9.82407C51.2239 6.74559 48.7186 4.24158 45.6392 4.24158Z" fill="#ECFF8C"/>
<path d="M30.8374 16.7538H0.253906V6.69212C0.253906 3.00525 3.25411 0.00634766 6.94229 0.00634766H16.7209C17.6928 0.00634766 18.6291 0.211174 19.4798 0.596039C20.6678 1.13137 21.6885 2.01373 22.4043 3.16659L30.8374 16.7538Z" fill="#002C2C"/>
<path d="M57.2539 19.0065V51.4169C57.2539 54.4993 54.7447 57.0064 51.661 57.0064H5.84684C2.76314 57.0064 0.253906 54.4993 0.253906 51.4169V13.4158H51.661C54.7447 13.4158 57.2539 15.9237 57.2539 19.0065Z" fill="#003F3F"/>
<path d="M57.2539 19.0065V51.4169C57.2539 54.4993 54.7447 57.0064 51.661 57.0064H28.7539V13.4158H51.661C54.7447 13.4158 57.2539 15.9237 57.2539 19.0065Z" fill="#003F3F"/>
<path d="M43.7475 35.2104C43.7475 43.4787 37.0213 50.2054 28.7539 50.2054C20.4865 50.2054 13.7603 43.4787 13.7603 35.2104C13.7603 26.9435 20.4865 20.2168 28.7539 20.2168C37.0213 20.2168 43.7475 26.9435 43.7475 35.2104Z" fill="#E3F585"/>
<path d="M43.7475 35.2104C43.7475 43.4787 37.0213 50.2054 28.7539 50.2054V20.2168C37.0213 20.2168 43.7475 26.9435 43.7475 35.2104Z" fill="#ECFF8C"/>
<path d="M33.5867 35.3943C33.274 35.6591 32.8909 35.7883 32.5112 35.7883C32.0359 35.7883 31.5637 35.587 31.2331 35.1947L30.4238 34.2354V40.5163C30.4238 41.4382 29.6759 42.1862 28.7539 42.1862C27.832 42.1862 27.084 41.4382 27.084 40.5163V34.2354L26.2747 35.1947C25.6789 35.8996 24.6261 35.9897 23.9211 35.3943C23.2166 34.7998 23.1262 33.7466 23.7207 33.0416L27.0262 29.123C27.4571 28.6133 28.086 28.3202 28.7539 28.3202C29.4219 28.3202 30.0507 28.6133 30.4817 29.123L33.7872 33.0416C34.3816 33.7466 34.2912 34.7998 33.5867 35.3943Z" fill="#003F3F"/>
<path d="M33.5867 35.3943C33.274 35.6591 32.8909 35.7883 32.5112 35.7883C32.0359 35.7883 31.5636 35.587 31.2331 35.1947L30.4238 34.2354V40.5163C30.4238 41.4382 29.6758 42.1862 28.7539 42.1862V28.3202C29.4219 28.3202 30.0507 28.6133 30.4817 29.123L33.7872 33.0416C34.3816 33.7466 34.2912 34.7998 33.5867 35.3943Z" fill="#002C2C"/>
</g>
<defs>
<clipPath id="clip0_151_984">
<rect width="57" height="57" fill="white" transform="translate(0.253906 0.00634766)"/>
</clipPath>
</defs>
</svg>
