<?xml version="1.0" encoding="UTF-8" standalone="no" ?>
<!DOCTYPE svg PUBLIC "-//W3C//DTD SVG 1.1//EN" "http://www.w3.org/Graphics/SVG/1.1/DTD/svg11.dtd">
<svg xmlns="http://www.w3.org/2000/svg" xmlns:xlink="http://www.w3.org/1999/xlink" version="1.1" width="1051.1811023746875" height="602.3622047315625" viewBox="0 0 545.5176470588 312.6" xml:space="preserve">
<desc>Created with Fabric.js 3.4.0 and NBDesigner 2.7</desc>
<defs>
</defs>
<g transform="matrix(0.2968484508 0 0 0.2646597559 272.8611567025 155.7439692559)"  >
	<image style="stroke: none; stroke-width: 0; stroke-dasharray: none; stroke-linecap: butt; stroke-dashoffset: 0; stroke-linejoin: miter; stroke-miterlimit: 4; fill: rgb(255,0,0); fill-rule: nonzero; opacity: 1;"  xlink:href="https://transparentcard.de/wp-content/themes/astra-child/assets/img/Card-20pt.png" x="-918" y="-591" width="1836" height="1182"></image>
</g>
<g transform="matrix(0.4129989178 0 0 0.3950619831 272.329408422 74.5941907624)"  >
<rect style="stroke: none; stroke-width: 1; stroke-dasharray: none; stroke-linecap: butt; stroke-dashoffset: 0; stroke-linejoin: miter; stroke-miterlimit: 4; fill: rgb(241,243,242); fill-rule: nonzero; opacity: 1;"  x="-659" y="-69" rx="0" ry="0" width="1318" height="138" />
</g>
<g transform="matrix(0.3950619831 0 0 0.3950619831 6.6252684121 74.532956155)"  >
<rect style="stroke: none; stroke-width: 1; stroke-dasharray: none; stroke-linecap: butt; stroke-dashoffset: 0; stroke-linejoin: miter; stroke-miterlimit: 4; fill: rgb(35,35,35); fill-rule: nonzero; opacity: 1;"  x="-16.38" y="-69.005" rx="0" ry="0" width="32.76" height="138.01" />
</g>
<g transform="matrix(0.3950619831 0 0 0.3950619831 66.4980990191 87.9216067632)"  >
<rect style="stroke: none; stroke-width: 1; stroke-dasharray: none; stroke-linecap: butt; stroke-dashoffset: 0; stroke-linejoin: miter; stroke-miterlimit: 4; fill: rgb(35,35,35); fill-rule: nonzero; opacity: 1;"  x="-55.365" y="-0.785" rx="0" ry="0" width="110.73" height="1.57" />
</g>
<g transform="matrix(0.3950619831 0 0 0.3950619831 83.2566283434 87.8801252549)"  >
<rect style="stroke: none; stroke-width: 1; stroke-dasharray: none; stroke-linecap: butt; stroke-dashoffset: 0; stroke-linejoin: miter; stroke-miterlimit: 4; fill: rgb(26,26,26); fill-rule: nonzero; opacity: 1;"  x="-12.945" y="-1.76" rx="0" ry="0" width="25.89" height="3.52" />
</g>
<g transform="matrix(0.4776823618 0 0 0.4776823618 93.4733714435 168.1798441184)"  >
<rect style="stroke: none; stroke-width: 1; stroke-dasharray: none; stroke-linecap: butt; stroke-dashoffset: 0; stroke-linejoin: miter; stroke-miterlimit: 4; fill: rgb(35,35,35); fill-rule: nonzero; opacity: 1;"  x="-225" y="-1" rx="0" ry="0" width="450" height="2" />
</g>
<g transform="matrix(0.4776823618 0 0 0.4776823618 93.4733714435 221.6802686378)"  >
<rect style="stroke: none; stroke-width: 1; stroke-dasharray: none; stroke-linecap: butt; stroke-dashoffset: 0; stroke-linejoin: miter; stroke-miterlimit: 4; fill: rgb(35,35,35); fill-rule: nonzero; opacity: 1;"  x="-225" y="-1" rx="0" ry="0" width="450" height="2" />
</g>
<g transform="matrix(0.9041950044 0 0 0.9041950044 393.3725209379 235.3570985213)" style=""  >
		<text xml:space="preserve" font-family="Roboto" font-size="13.188334423002061" font-style="normal" font-weight="normal" style="stroke: none; stroke-width: 0; stroke-dasharray: none; stroke-linecap: butt; stroke-dashoffset: 0; stroke-linejoin: miter; stroke-miterlimit: 4; fill: rgb(26,26,26); fill-rule: nonzero; opacity: 1; white-space: pre;" ><tspan x="-61.5369744855" y="4.1429833756" >YOUR SLOGAN HERE</tspan></text>
</g>
<g transform="matrix(0.9041950044 0 0 0.9041950044 393.3725209383 217.7410156878)" style=""  >
		<text xml:space="preserve" font-family="Roboto" font-size="26.057983776848634" font-style="normal" font-weight="normal" style="stroke: none; stroke-width: 0; stroke-dasharray: none; stroke-linecap: butt; stroke-dashoffset: 0; stroke-linejoin: miter; stroke-miterlimit: 4; fill: rgb(0,0,0); fill-rule: nonzero; opacity: 1; white-space: pre;" ><tspan x="-85.4663578769" y="8.1858550237" >BRAND NAME</tspan></text>
</g>
<g transform="matrix(0.7381586704 0 0 0.7381586704 136.0708581522 87.4531082596)" style=""  >
		<text xml:space="preserve" font-family="Roboto" font-size="13.5183579317928" font-style="normal" font-weight="normal" style="stroke: none; stroke-width: 0; stroke-dasharray: none; stroke-linecap: butt; stroke-dashoffset: 0; stroke-linejoin: miter; stroke-miterlimit: 4; fill: rgb(35,35,35); fill-rule: nonzero; opacity: 1; white-space: pre;" ><tspan x="-53.7136902685" y="4.2466569607" >GRAPHIC DESIGN</tspan></text>
</g>
<g transform="matrix(0.7381586704 0 0 0.7381586704 109.6238000281 72.3406381704)" style=""  >
		<text xml:space="preserve" font-family="Roboto" font-size="31.736443788230332" font-style="normal" font-weight="normal" style="stroke: none; stroke-width: 0; stroke-dasharray: none; stroke-linecap: butt; stroke-dashoffset: 0; stroke-linejoin: miter; stroke-miterlimit: 4; fill: rgb(35,35,35); fill-rule: nonzero; opacity: 1; white-space: pre;" ><tspan x="-89.5421092597" y="9.9696864516" >YOUR NAME</tspan></text>
</g>
<g transform="matrix(0.9041950044 0 0 0.9041950044 393.3725209373 160.7191342128)"  >
<g style=""   >
		<g transform="matrix(0.5351992722 0 0 0.5351992722 0.0350791242 24.8594176374)"  >
<path style="stroke: none; stroke-width: 1; stroke-dasharray: none; stroke-linecap: butt; stroke-dashoffset: 0; stroke-linejoin: miter; stroke-miterlimit: 4; fill: rgb(235,251,248); fill-rule: nonzero; opacity: 1;"  transform=" translate(-974.02, -427.1619854831)" d="M 1019.26 427.06 l -18.61 18.61 a 38.7 38.7 0 0 0 -53.25 -0.17 l -18.62 -18.61 l 0.33 -0.31 a 65 65 0 0 1 89.37 -0.26 Z" stroke-linecap="round" />
</g>
		<g transform="matrix(0.5351992722 0 0 0.5351992722 0.0350791242 28.1096678159)"  >
<path style="stroke: none; stroke-width: 1; stroke-dasharray: none; stroke-linecap: butt; stroke-dashoffset: 0; stroke-linejoin: miter; stroke-miterlimit: 4; fill: rgb(35,35,35); fill-rule: nonzero; opacity: 1;"  transform=" translate(-974.02, -433.2349574531)" d="M 1019.26 427.06 l -18.61 18.61 a 38.7 38.7 0 0 0 -53.25 -0.17 l -18.62 -18.61 l 0.33 -0.31 a 179.55 179.55 0 0 1 89.37 -0.26 Z" stroke-linecap="round" />
</g>
		<g transform="matrix(0.5351992722 0 0 0.5351992722 24.9058025897 -0.036439138)"  >
<path style="stroke: none; stroke-width: 1; stroke-dasharray: none; stroke-linecap: butt; stroke-dashoffset: 0; stroke-linejoin: miter; stroke-miterlimit: 4; fill: rgb(35,35,35); fill-rule: nonzero; opacity: 1;"  transform=" translate(-1020.4900248251, -380.645)" d="M 1039 380.78 a 64.81 64.81 0 0 1 -18.15 45.06 l -18.53 -18.53 l -0.08 -0.08 a 38.72 38.72 0 0 0 -0.26 -53.17 l 18.61 -18.61 A 64.83 64.83 0 0 1 1039 380.78 Z" stroke-linecap="round" />
</g>
		<g transform="matrix(0.5351992722 0 0 0.5351992722 21.6250402003 -4.9870324059)"  >
<path style="stroke: none; stroke-width: 1; stroke-dasharray: none; stroke-linecap: butt; stroke-dashoffset: 0; stroke-linejoin: miter; stroke-miterlimit: 4; fill: rgb(235,251,248); fill-rule: nonzero; opacity: 1;"  transform=" translate(-1014.36004192, -371.395)" d="M 1026.79 361.17 a 55.6 55.6 0 0 1 -24.52 46.14 l -0.08 -0.08 a 38.72 38.72 0 0 0 -0.26 -53.17 l 18.59 -18.58 A 55.37 55.37 0 0 1 1026.79 361.17 Z" stroke-linecap="round" />
</g>
		<g transform="matrix(0.5351992722 0 0 0.5351992722 -24.9590313454 -0.028411149)"  >
<path style="stroke: none; stroke-width: 1; stroke-dasharray: none; stroke-linecap: butt; stroke-dashoffset: 0; stroke-linejoin: miter; stroke-miterlimit: 4; fill: rgb(35,35,35); fill-rule: nonzero; opacity: 1;"  transform=" translate(-927.3194311317, -380.66)" d="M 935.23 380.78 a 38.57 38.57 0 0 0 10.28 26.27 l -0.1 0.1 l -18.52 18.51 a 65 65 0 0 1 0.23 -90 l 0 0 l 18.61 18.61 A 38.58 38.58 0 0 0 935.23 380.78 Z" stroke-linecap="round" />
</g>
		<g transform="matrix(0.5351992722 0 0 0.5351992722 -21.7276962663 -4.9816804132)"  >
<path style="stroke: none; stroke-width: 1; stroke-dasharray: none; stroke-linecap: butt; stroke-dashoffset: 0; stroke-linejoin: miter; stroke-miterlimit: 4; fill: rgb(235,251,248); fill-rule: nonzero; opacity: 1;"  transform=" translate(-933.3570609399, -371.405)" d="M 935.23 380.78 a 38.57 38.57 0 0 0 10.28 26.27 l -0.1 0.1 a 55.7 55.7 0 0 1 -18.29 -71.49 l 0 0 l 18.61 18.61 A 38.58 38.58 0 0 0 935.23 380.78 Z" stroke-linecap="round" />
</g>
		<g transform="matrix(0.5351992722 0 0 0.5351992722 -0.0585807484 -24.9242301064)"  >
<path style="stroke: none; stroke-width: 1; stroke-dasharray: none; stroke-linecap: butt; stroke-dashoffset: 0; stroke-linejoin: miter; stroke-miterlimit: 4; fill: rgb(235,251,248); fill-rule: nonzero; opacity: 1;"  transform=" translate(-973.845, -334.1430851786)" d="M 1018.82 333.74 l -0.22 0.22 l -18.4 18.4 a 38.7 38.7 0 0 0 -52.72 0.17 l -18.61 -18.62 l 0.09 -0.08 a 65 65 0 0 1 89.86 -0.09 Z" stroke-linecap="round" />
</g>
		<g transform="matrix(0.5351992722 0 0 0.5351992722 -0.0344967812 -28.3896736264)"  >
<path style="stroke: none; stroke-width: 1; stroke-dasharray: none; stroke-linecap: butt; stroke-dashoffset: 0; stroke-linejoin: miter; stroke-miterlimit: 4; fill: rgb(35,35,35); fill-rule: nonzero; opacity: 1;"  transform=" translate(-973.89, -327.6680324272)" d="M 1018.82 333.74 l -0.22 0.22 a 179.53 179.53 0 0 1 -89.64 -0.13 a 65 65 0 0 1 89.86 -0.09 Z" stroke-linecap="round" />
</g>
</g>
</g>
<g transform="matrix(1.0713573741 0 0 1.0713573741 131.2188396027 140.4362270794)" style=""  >
		<text xml:space="preserve" font-family="Roboto" font-size="11.261941559394389" font-style="normal" font-weight="normal" style="stroke: none; stroke-width: 0; stroke-dasharray: none; stroke-linecap: butt; stroke-dashoffset: 0; stroke-linejoin: miter; stroke-miterlimit: 4; fill: rgb(26,26,26); fill-rule: nonzero; opacity: 1; white-space: pre;" ><tspan x="-46.7112121954" y="-3.8432501766" style="white-space: pre; ">+584 558 574 987 </tspan><tspan x="-46.7112121954" y="10.9189028195" >+455 154 554 447</tspan></text>
</g>
<g transform="matrix(1.0713573741 0 0 1.0713573741 56.5707257265 140.4362270794)"  >
<g style=""   >
		<g transform="matrix(0.4458664992 0 0 0.4458664992 4e-10 4e-10)"  >
<rect style="stroke: none; stroke-width: 1; stroke-dasharray: none; stroke-linecap: butt; stroke-dashoffset: 0; stroke-linejoin: miter; stroke-miterlimit: 4; fill: rgb(35,35,35); fill-rule: nonzero; opacity: 1;"  x="-29.42" y="-29.42" rx="12" ry="12" width="58.84" height="58.84" />
</g>
		<g transform="matrix(0.4458664992 0 0 0.4458664992 -0.1543858768 3e-10)"  >
<path style="stroke: none; stroke-width: 1; stroke-dasharray: none; stroke-linecap: butt; stroke-dashoffset: 0; stroke-linejoin: miter; stroke-miterlimit: 4; fill: rgb(248,248,249); fill-rule: nonzero; opacity: 1;"  transform=" translate(-102.5437396787, -349.6742656908)" d="M 119.78 358.88 h 0 c -0.49 -0.52 -1 -1 -1.58 -1.59 l -0.41 -0.39 l -0.43 -0.43 L 115 354.11 a 3 3 0 0 0 -4.64 0 l -0.23 0.23 l -0.51 0.51 c -0.8 0.78 -1.47 1.46 -2.14 2.2 l 0 0 c -0.2 0.2 -0.27 0.2 -0.56 0.11 h 0 a 17.63 17.63 0 0 1 -4.16 -2.56 l 0 0 A 30.09 30.09 0 0 1 96 347.24 a 8 8 0 0 1 -0.51 -0.94 c -0.17 -0.33 -0.33 -0.65 -0.5 -0.94 l 0 -0.05 a 0.48 0.48 0 0 1 -0.06 -0.21 a 0.53 0.53 0 0 1 0.19 -0.34 l 3 -3 a 3.22 3.22 0 0 0 1.06 -2.29 a 3.1 3.1 0 0 0 -1.06 -2.24 l -4.76 -4.76 a 3.07 3.07 0 0 0 -4.64 0 c -0.32 0.29 -0.6 0.59 -0.9 0.9 l -0.19 0.19 a 22.53 22.53 0 0 1 -1.64 1.59 a 0.1 0.1 0 0 0 0 0 a 5.55 5.55 0 0 0 -1.81 4.27 c 0 0.15 0 0.32 0 0.48 a 20 20 0 0 0 2.15 7.26 a 39.86 39.86 0 0 0 10.37 13.24 a 36.49 36.49 0 0 0 10.78 6.46 a 13.58 13.58 0 0 0 6 1.06 a 5.45 5.45 0 0 0 3.43 -1.6 l 3 -2.95 l 0 0 a 3.3 3.3 0 0 0 1 -2.26 A 3.15 3.15 0 0 0 119.78 358.88 Z" stroke-linecap="round" />
</g>
</g>
</g>
<g transform="matrix(1.0713573741 0 0 1.0713573741 130.3410226807 194.5378165789)" style=""  >
		<text xml:space="preserve" font-family="Roboto" font-size="11.261941559394389" font-style="normal" font-weight="normal" style="stroke: none; stroke-width: 0; stroke-dasharray: none; stroke-linecap: butt; stroke-dashoffset: 0; stroke-linejoin: miter; stroke-miterlimit: 4; fill: rgb(26,26,26); fill-rule: nonzero; opacity: 1; white-space: pre;" ><tspan x="-45.891861955" y="-3.8432501766" style="white-space: pre; ">mail address here </tspan><tspan x="-45.891861955" y="10.9189028195" >web address here</tspan></text>
</g>
<g transform="matrix(1.0713573741 0 0 1.0713573741 56.5707257265 194.5378165791)"  >
<g style=""   >
		<g transform="matrix(0.4458664992 0 0 0.4458664992 4e-10 4e-10)"  >
<rect style="stroke: none; stroke-width: 1; stroke-dasharray: none; stroke-linecap: butt; stroke-dashoffset: 0; stroke-linejoin: miter; stroke-miterlimit: 4; fill: rgb(35,35,35); fill-rule: nonzero; opacity: 1;"  x="-29.42" y="-29.42" rx="12" ry="12" width="58.84" height="58.84" />
</g>
		<g transform="matrix(0.4458664992 0 0 0.4458664992 -0.1159252894 2e-10)"  >
<path style="stroke: none; stroke-width: 1; stroke-dasharray: none; stroke-linecap: butt; stroke-dashoffset: 0; stroke-linejoin: miter; stroke-miterlimit: 4; fill: rgb(248,248,249); fill-rule: nonzero; opacity: 1;"  transform=" translate(-102.63, -463.865)" d="M 121.6 462.57 a 19 19 0 0 0 -17.72 -17.73 v 0 h -2.54 v 0 a 19 19 0 0 0 -17.73 17.73 h 0 v 2.54 h 0 a 19 19 0 0 0 17.73 17.73 v 0.05 h 2.54 v -0.05 a 19 19 0 0 0 17.72 -17.73 h 0.05 v -2.54 Z M 95.49 449 a 20.05 20.05 0 0 0 -3 6 H 88.7 A 16.5 16.5 0 0 1 95.49 449 Z m -8.12 8.54 h 4.46 a 30.41 30.41 0 0 0 -0.63 5.08 h -5 A 16.36 16.36 0 0 1 87.37 457.49 Z m -1.22 7.62 h 5 a 30.28 30.28 0 0 0 0.63 5.08 H 87.37 A 16.22 16.22 0 0 1 86.15 465.11 Z m 2.55 7.62 h 3.79 a 20.25 20.25 0 0 0 3 6 A 16.59 16.59 0 0 1 88.7 472.73 Z m 12.64 7.45 c -2.61 -0.69 -4.86 -3.5 -6.22 -7.45 h 6.22 Z m 0 -10 H 94.4 a 28.74 28.74 0 0 1 -0.66 -5.08 h 7.6 Z m 0 -7.62 h -7.6 a 29 29 0 0 1 0.66 -5.08 h 6.94 Z m 0 -7.62 H 95.12 c 1.36 -3.95 3.61 -6.75 6.22 -7.45 Z m 15.18 0 h -3.8 a 20.29 20.29 0 0 0 -3 -6 A 16.62 16.62 0 0 1 116.52 455 Z m -12.64 -7.45 c 2.6 0.7 4.85 3.5 6.22 7.45 h -6.22 Z m 0 10 h 6.93 a 29 29 0 0 1 0.66 5.08 h -7.59 Z m 0 7.62 h 7.59 a 28.74 28.74 0 0 1 -0.66 5.08 h -6.93 Z m 0 15.07 v -7.45 h 6.22 C 108.73 476.68 106.48 479.49 103.88 480.18 Z m 5.85 -1.44 a 20.47 20.47 0 0 0 3 -6 h 3.8 A 16.72 16.72 0 0 1 109.73 478.74 Z m 8.12 -8.55 h -4.47 a 30.28 30.28 0 0 0 0.63 -5.08 h 5 A 16.21 16.21 0 0 1 117.85 470.19 Z M 114 462.57 a 30.41 30.41 0 0 0 -0.63 -5.08 h 4.47 a 16.35 16.35 0 0 1 1.21 5.08 Z" stroke-linecap="round" />
</g>
</g>
</g>
<g transform="matrix(1.0713573741 0 0 1.0713573741 135.9348962877 248.6394060787)" style=""  >
		<text xml:space="preserve" font-family="Roboto" font-size="11.261941559394389" font-style="normal" font-weight="normal" style="stroke: none; stroke-width: 0; stroke-dasharray: none; stroke-linecap: butt; stroke-dashoffset: 0; stroke-linejoin: miter; stroke-miterlimit: 4; fill: rgb(26,26,26); fill-rule: nonzero; opacity: 1; white-space: pre;" ><tspan x="-51.1131576145" y="-3.8432501766" style="white-space: pre; ">Your Street Address </tspan><tspan x="-51.1131576145" y="10.9189028195" >Here 0224</tspan></text>
</g>
<g transform="matrix(1.0713573741 0 0 1.0713573741 56.5707257265 248.6394060787)"  >
<g style=""   >
		<g transform="matrix(0.4458664992 0 0 0.4458664992 4e-10 4e-10)"  >
<rect style="stroke: none; stroke-width: 1; stroke-dasharray: none; stroke-linecap: butt; stroke-dashoffset: 0; stroke-linejoin: miter; stroke-miterlimit: 4; fill: rgb(35,35,35); fill-rule: nonzero; opacity: 1;"  x="-29.42" y="-29.42" rx="12" ry="12" width="58.84" height="58.84" />
</g>
		<g transform="matrix(0.8330850253 0 0 0.8330850253 -0.2894193076 2e-10)"  >
<g style=""   >
		<g transform="matrix(0.5351992722 0 0 0.5351992722 -0.1470879668 1.8003128078)"  >
<path style="stroke: none; stroke-width: 1; stroke-dasharray: none; stroke-linecap: butt; stroke-dashoffset: 0; stroke-linejoin: miter; stroke-miterlimit: 4; fill: rgb(248,248,249); fill-rule: nonzero; opacity: 1;"  transform=" translate(-101.9660550707, -580.9899665392)" d="M 85.44 587.73 c 0 -3 0 -6 0 -9 a 1 1 0 0 1 0.41 -0.9 q 8.11 -6.78 16.22 -13.59 c 0.34 -0.29 0.53 -0.27 0.86 0 q 7.62 6.8 15.26 13.57 a 1.08 1.08 0 0 1 0.39 0.9 c 0 5.88 0 11.76 0 17.64 c 0 1.24 -0.35 1.59 -1.57 1.59 c -3.46 0 -6.93 0 -10.39 0 c -0.51 0 -0.66 -0.13 -0.66 -0.65 c 0 -3.09 0 -6.19 0 -9.28 c 0 -0.52 -0.1 -0.72 -0.68 -0.71 c -2.1 0 -4.21 0 -6.31 0 c -0.53 0 -0.7 0.13 -0.7 0.68 c 0 3.12 0 6.23 0 9.35 c 0 0.48 -0.12 0.62 -0.62 0.62 c -3.65 0 -7.3 0 -11 0 c -1 0 -1.3 -0.27 -1.3 -1.33 Z" stroke-linecap="round" />
</g>
		<g transform="matrix(0.5351992722 0 0 0.5351992722 0 -5.0710131041)"  >
<path style="stroke: none; stroke-width: 1; stroke-dasharray: none; stroke-linecap: butt; stroke-dashoffset: 0; stroke-linejoin: miter; stroke-miterlimit: 4; fill: rgb(248,248,249); fill-rule: nonzero; opacity: 1;"  transform=" translate(-102.2408834842, -568.1511487962)" d="M 123 578.85 a 5.18 5.18 0 0 1 -3 -1.46 q -8.43 -7.54 -16.85 -15.12 c -0.41 -0.37 -0.64 -0.36 -1.05 0 Q 93 570 83.83 577.73 A 4.14 4.14 0 0 1 81.14 579 a 2.31 2.31 0 0 1 -1.56 -0.64 c -0.38 -0.33 -0.4 -0.57 0 -0.92 c 1.86 -1.6 3.69 -3.24 5.53 -4.86 q 8.5 -7.47 17 -15 c 0.4 -0.35 0.62 -0.39 1 0 q 10.88 9.88 21.78 19.72 c 0.44 0.4 0.37 0.64 0 1 A 2.61 2.61 0 0 1 123 578.85 Z" stroke-linecap="round" />
</g>
</g>
</g>
</g>
</g>
</svg>