<?xml version="1.0" encoding="UTF-8" standalone="no" ?>
<!DOCTYPE svg PUBLIC "-//W3C//DTD SVG 1.1//EN" "http://www.w3.org/Graphics/SVG/1.1/DTD/svg11.dtd">
<svg xmlns="http://www.w3.org/2000/svg" xmlns:xlink="http://www.w3.org/1999/xlink" version="1.1" width="472.44094488750005" height="1003.9370078859375" viewBox="0 0 235.2 499.8" xml:space="preserve">
<desc>Created with Fabric.js 3.4.0 and NBDesigner 2.7</desc>
<defs>
</defs>
<g transform="matrix(0.2722222222 0 0 0.2722222222 117.7361111111 249.9)"  >
	<image style="stroke: none; stroke-width: 0; stroke-dasharray: none; stroke-linecap: butt; stroke-dashoffset: 0; stroke-linejoin: miter; stroke-miterlimit: 4; fill: rgb(0,0,0); fill-rule: nonzero; opacity: 1;"  xlink:href="https://transparentcard.de/wp-content/themes/astra-child/assets/img/transparent_glass_40x85-mm.png" x="-432.5" y="-918" width="865" height="1836"></image>
</g>
<g transform="matrix(0.4682496043 0 0 0.1847826646 117.6000000077 223.4947174399)"  >
<rect style="stroke: none; stroke-width: 1; stroke-dasharray: none; stroke-linecap: butt; stroke-dashoffset: 0; stroke-linejoin: miter; stroke-miterlimit: 4; fill: rgb(255,92,92); fill-rule: nonzero; opacity: 1;"  x="-250" y="-250" rx="0" ry="0" width="500" height="500" />
</g>
<g transform="matrix(0.2391611345 0 0 0.2391611345 117.6000000086 144.5779749641)"  >
<g style=""   >
		<g transform="matrix(1 0 0 1 -225.04 -0.008899129)"  >
<path style="stroke: none; stroke-width: 1; stroke-dasharray: none; stroke-linecap: butt; stroke-dashoffset: 0; stroke-linejoin: miter; stroke-miterlimit: 4; fill: rgb(255,92,92); fill-rule: nonzero; opacity: 1;"  transform=" translate(-141.015, -86.1061008709)" d="M 206.35 28.16 c -0.22 0 -0.45 0 -0.67 0 c -3.72 -5.62 -8.38 -9.63 -13.63 -10.77 c -4.9 -1.06 -8.6 5.76 -2.31 5.76 c 2.36 0 4.28 2.18 5.81 5.25 c -8.4 0.36 -16.99 1.12 -25.65 2.25 c 0 1.09 -0.04 2.2 -0.11 3.33 c -0.05 0.82 -0.12 1.65 -0.2 2.48 c 9.61 -1.44 19.05 -2.27 28.11 -2.42 c 1.05 3.51 1.74 7.19 2.09 9.86 c 2.92 22.12 -4.4 44.86 -11.9 63.06 c -7.25 17.57 -16.16 34.1 -26.32 47.93 c 0 -18.72 9.24 -38.14 14.38 -54.5 c 2.6 -8.28 5.1 -15.08 1.83 -23.76 c -1 -2.68 -9.88 -18.98 -9.88 -7.82 c -8.64 14.66 -17.32 29.27 -26.08 43.76 c -7.05 11.65 -13.92 25.12 -22.05 35.05 c 0 -7.18 7.59 -18.83 10.19 -24.42 c 4.43 -9.52 8.9 -18.99 13.21 -28.64 c 7.77 -17.42 19.19 -39.39 20.56 -61.16 C 165.24 9.2 148.21 -0.43 135.2 0.01 c -14.34 0.49 -28.63 6 -41.65 15.08 c -12.81 8.94 -31.31 28.85 -38.76 51.71 c -15.63 8.44 -28.96 17.84 -38.71 27.74 c -36.08 36.67 -9.4 66.39 59.6 66.39 c 9.39 0 19.07 -0.55 28.9 -1.6 c 0.48 2.88 1.46 5.58 3.1 7.99 c 1.93 2.84 6.21 6.8 8.93 3.86 c 1.56 -1.69 3.2 -7.8 4.54 -10.42 c 4.23 -8.27 8.61 -16.37 13.1 -24.3 c 9.7 -17.12 19.61 -33.9 30.21 -49.73 c -6.78 16.77 -15.53 38.12 -17.27 58.32 c -4.04 1.15 -8.09 2.21 -12.15 3.18 c -1.31 2.39 -2.6 4.77 -3.87 7.16 c 5.27 -1 10.53 -2.12 15.76 -3.36 c 0.17 7.14 1.72 14.78 5.76 18.67 c 4.77 4.6 8.61 -4.04 11.89 -8.64 c 10.84 -15.2 21.25 -31.1 30.85 -48.16 c 8.14 -14.47 20.28 -34.22 19.56 -54.67 c -0.31 -8.66 -2.45 -17.6 -5.92 -25 c 49.32 2.63 64.5 28.63 33.31 60.31 c -11.56 11.75 -27.96 22.72 -46.8 32 c -2.63 4.45 -5.37 8.93 -8.24 13.45 c 32.7 -11.88 61.3 -27.87 78.61 -45.46 c 36.08 -36.66 9.4 -66.39 -59.6 -66.39 Z m -102.12 125.56 c -7.79 0.89 -15.43 1.36 -22.8 1.36 c -55.98 0 -74.69 -27.1 -41.79 -60.54 c 3.54 -3.59 7.52 -7.11 11.89 -10.53 c -0.43 9.84 1.74 19.85 7.68 29.46 c 9.52 15.41 26.25 19.35 38.39 9.01 c 2.43 -2.07 5.07 -4.99 5.07 -9.7 c 0 -5 -2.17 -2.58 -3.96 -0.94 c -5.68 5.22 -11.05 10.24 -17.89 10.24 c -17.63 0 -18.29 -25.28 -12.3 -44.37 c 6.65 -21.18 18.47 -38.79 31.3 -51.4 c 11.79 -11.59 27.65 -22.17 42.02 -18.84 c 6.27 1.45 13.26 8.56 12.44 19.49 c -0.16 2.12 -0.48 4.21 -0.93 6.27 c -22.5 4.09 -45.01 10.46 -65.62 18.46 c -2.94 4.55 -5.58 9.31 -7.88 14.21 c 21.43 -11.37 46.62 -20.56 71.68 -26.1 c -1.52 4.6 -3.41 8.99 -5.09 13.1 c -8.55 20.97 -18.75 40.25 -28.05 60.43 c -4.3 9.35 -13.71 26.15 -14.17 40.38 Z" stroke-linecap="round" />
</g>
		<g transform="matrix(1 0 0 1 -13.97 18.725)"  >
<path style="stroke: none; stroke-width: 1; stroke-dasharray: none; stroke-linecap: butt; stroke-dashoffset: 0; stroke-linejoin: miter; stroke-miterlimit: 4; fill: rgb(49,54,56); fill-rule: nonzero; opacity: 1;"  transform=" translate(-352.085, -104.84)" d="M 309.11 77.05 h 16.21 l 9.65 32.02 l 10.67 -32.18 h 13.21 l 10.67 32.18 l 9.65 -32.02 h 15.89 l -18.5 55.74 h -13.36 l -11.15 -31.86 l -11.07 31.86 h -13.36 l -18.5 -55.74 Z" stroke-linecap="round" />
</g>
		<g transform="matrix(1 0 0 1 59.91 18.615)"  >
<path style="stroke: none; stroke-width: 1; stroke-dasharray: none; stroke-linecap: butt; stroke-dashoffset: 0; stroke-linejoin: miter; stroke-miterlimit: 4; fill: rgb(49,54,56); fill-rule: nonzero; opacity: 1;"  transform=" translate(-425.965, -104.73)" d="M 403.51 77.05 h 44.52 v 13.05 h -29.34 v 8.38 h 26.57 v 12.1 h -26.57 v 8.78 h 29.73 v 13.05 h -44.91 v -55.35 Z" stroke-linecap="round" />
</g>
		<g transform="matrix(1 0 0 1 112.525 18.61)"  >
<path style="stroke: none; stroke-width: 1; stroke-dasharray: none; stroke-linecap: butt; stroke-dashoffset: 0; stroke-linejoin: miter; stroke-miterlimit: 4; fill: rgb(49,54,56); fill-rule: nonzero; opacity: 1;"  transform=" translate(-478.58, -104.725)" d="M 454.43 124.18 l 8.54 -10.2 c 5.46 4.35 11.54 6.64 17.95 6.64 c 4.11 0 6.33 -1.42 6.33 -3.79 v -0.16 c 0 -2.29 -1.82 -3.56 -9.33 -5.3 c -11.78 -2.69 -20.88 -6.01 -20.88 -17.4 v -0.16 c 0 -10.28 8.14 -17.71 21.43 -17.71 c 9.41 0 16.76 2.53 22.77 7.35 l -7.67 10.83 c -5.06 -3.56 -10.6 -5.46 -15.5 -5.46 c -3.72 0 -5.54 1.58 -5.54 3.56 v 0.16 c 0 2.53 1.9 3.64 9.57 5.38 c 12.73 2.77 20.64 6.88 20.64 17.24 v 0.16 c 0 11.31 -8.94 18.03 -22.38 18.03 c -9.8 0 -19.13 -3.08 -25.94 -9.17 Z" stroke-linecap="round" />
</g>
		<g transform="matrix(1 0 0 1 166.09 18.61)"  >
<path style="stroke: none; stroke-width: 1; stroke-dasharray: none; stroke-linecap: butt; stroke-dashoffset: 0; stroke-linejoin: miter; stroke-miterlimit: 4; fill: rgb(49,54,56); fill-rule: nonzero; opacity: 1;"  transform=" translate(-532.145, -104.725)" d="M 524.48 90.49 h -16.61 v -13.44 h 48.55 v 13.44 h -16.61 v 41.91 h -15.34 v -41.91 Z" stroke-linecap="round" />
</g>
		<g transform="matrix(1 0 0 1 221.91 18.615)"  >
<path style="stroke: none; stroke-width: 1; stroke-dasharray: none; stroke-linecap: butt; stroke-dashoffset: 0; stroke-linejoin: miter; stroke-miterlimit: 4; fill: rgb(49,54,56); fill-rule: nonzero; opacity: 1;"  transform=" translate(-587.965, -104.73)" d="M 565.51 77.05 h 44.52 v 13.05 h -29.34 v 8.38 h 26.57 v 12.1 h -26.57 v 8.78 h 29.73 v 13.05 h -44.91 v -55.35 Z" stroke-linecap="round" />
</g>
		<g transform="matrix(1 0 0 1 280.025 18.61)"  >
<path style="stroke: none; stroke-width: 1; stroke-dasharray: none; stroke-linecap: butt; stroke-dashoffset: 0; stroke-linejoin: miter; stroke-miterlimit: 4; fill: rgb(49,54,56); fill-rule: nonzero; opacity: 1;"  transform=" translate(-646.08, -104.725)" d="M 620.62 77.05 h 26.17 c 8.46 0 14.31 2.21 18.03 6.01 c 3.24 3.16 4.9 7.43 4.9 12.89 v 0.16 c 0 8.46 -4.51 14.08 -11.39 17 l 13.21 19.29 h -17.71 l -11.15 -16.76 h -6.72 v 16.76 h -15.34 v -55.35 Z m 25.46 26.57 c 5.22 0 8.22 -2.53 8.22 -6.56 v -0.16 c 0 -4.35 -3.16 -6.56 -8.3 -6.56 h -10.04 v 13.28 h 10.12 Z" stroke-linecap="round" />
</g>
		<g transform="matrix(1 0 0 1 339.915 18.61)"  >
<path style="stroke: none; stroke-width: 1; stroke-dasharray: none; stroke-linecap: butt; stroke-dashoffset: 0; stroke-linejoin: miter; stroke-miterlimit: 4; fill: rgb(49,54,56); fill-rule: nonzero; opacity: 1;"  transform=" translate(-705.97, -104.725)" d="M 679.84 77.05 h 14.31 l 22.77 29.26 v -29.26 h 15.18 v 55.35 h -13.44 l -23.64 -30.36 v 30.36 h -15.18 v -55.35 Z" stroke-linecap="round" />
</g>
</g>
</g>
<g transform="matrix(0.9796453585 0 0 0.9796453585 134.1518493792 391.388287159)" style=""  >
		<text xml:space="preserve" font-family="Roboto" font-size="14.513592795677692" font-style="normal" font-weight="normal" style="stroke: none; stroke-width: 0; stroke-dasharray: none; stroke-linecap: butt; stroke-dashoffset: 0; stroke-linejoin: miter; stroke-miterlimit: 4; fill: rgb(39,44,51); fill-rule: nonzero; opacity: 1; white-space: pre;" ><tspan x="-71.0407768459" y="4.5593000408" >Bayern/Deutschland</tspan></text>
</g>
<g transform="matrix(0.6854334156 0 0 0.6854334156 133.67802983 360.6508288253)" style=""  >
		<text xml:space="preserve" font-family="Roboto" font-size="20.743333333333332" font-style="normal" font-weight="normal" style="stroke: none; stroke-width: 0; stroke-dasharray: none; stroke-linecap: butt; stroke-dashoffset: 0; stroke-linejoin: miter; stroke-miterlimit: 4; fill: rgb(39,44,51); fill-rule: nonzero; opacity: 1; white-space: pre;" ><tspan x="-100.8426875302" y="6.5163107333" >info@yourmail.com</tspan></text>
</g>
<g transform="matrix(0.6854334156 0 0 0.6854334156 125.9159287375 329.2053237363)" style=""  >
		<text xml:space="preserve" font-family="Roboto" font-size="20.743333333333332" font-style="normal" font-weight="normal" style="stroke: none; stroke-width: 0; stroke-dasharray: none; stroke-linecap: butt; stroke-dashoffset: 0; stroke-linejoin: miter; stroke-miterlimit: 4; fill: rgb(39,44,51); fill-rule: nonzero; opacity: 1; white-space: pre;" ><tspan x="-89.5183182831" y="6.5163107333" >+880 1738 509 654</tspan></text>
</g>
<g transform="matrix(0.6854334156 0 0 0.6854334156 120.6298421873 296.9120447071)" style=""  >
		<text xml:space="preserve" font-family="Roboto" font-size="20.743333333333332" font-style="normal" font-weight="normal" style="stroke: none; stroke-width: 0; stroke-dasharray: none; stroke-linecap: butt; stroke-dashoffset: 0; stroke-linejoin: miter; stroke-miterlimit: 4; fill: rgb(39,44,51); fill-rule: nonzero; opacity: 1; white-space: pre;" ><tspan x="-81.8062831972" y="6.5163107333" >+049 1234 5739</tspan></text>
</g>
<g transform="matrix(0.6854334156 0 0 0.6854334156 41.4568628345 391.3882871592)"  >
<g style=""   >
		<g transform="matrix(3.5683094252 0 0 3.5683094252 -0.1427323769 -4.7101684413)" clip-path="url(#CLIPPATH_2)"  >
<clipPath id="CLIPPATH_2" >
	<rect transform="matrix(1 0 0 1 -11.74 -13.25)" x="-127.56" y="-77.955" rx="0" ry="0" width="255.12" height="155.91" />
</clipPath>
<path style="stroke: none; stroke-width: 1; stroke-dasharray: none; stroke-linecap: butt; stroke-dashoffset: 0; stroke-linejoin: miter; stroke-miterlimit: 4; fill: rgb(39,44,51); fill-rule: nonzero; opacity: 1;"  transform=" translate(-139.3, -91.205)" d="M 139.32 87.57 h -0.02 s -0.01 0 -0.02 0 c -1.53 0.02 -2.77 1.29 -2.77 2.82 c 0 1.74 1.74 3.51 2.62 4.29 h 0 c 0.06 0.06 0.12 0.11 0.17 0.16 c 0.79 -0.68 2.79 -2.57 2.79 -4.44 c 0 -1.53 -1.24 -2.79 -2.77 -2.82 Z m 0 4 c -0.81 0 -1.46 -0.65 -1.46 -1.46 s 0.65 -1.46 1.46 -1.46 s 1.46 0.65 1.46 1.46 s -0.65 1.46 -1.46 1.46 Z" stroke-linecap="round" />
</g>
		<g transform="matrix(3.5683094252 0 0 3.5683094252 0 12.8994385721)" clip-path="url(#CLIPPATH_3)"  >
<clipPath id="CLIPPATH_3" >
	<rect transform="matrix(1 0 0 1 -11.78 -18.185)" x="-127.56" y="-77.955" rx="0" ry="0" width="255.12" height="155.91" />
</clipPath>
<path style="stroke: none; stroke-width: 1; stroke-dasharray: none; stroke-linecap: butt; stroke-dashoffset: 0; stroke-linejoin: miter; stroke-miterlimit: 4; fill: rgb(39,44,51); fill-rule: nonzero; opacity: 1;"  transform=" translate(-139.34, -96.14)" d="M 139.34 97.48 c -1.67 0 -3.37 -0.48 -3.37 -1.4 c 0 -0.64 0.83 -1.07 1.91 -1.27 c 0.21 0.21 0.41 0.39 0.58 0.55 c -1.17 0.13 -1.86 0.5 -1.86 0.72 c 0 0.27 1.04 0.77 2.74 0.77 s 2.74 -0.5 2.74 -0.77 c 0 -0.23 -0.72 -0.61 -1.93 -0.73 c 0.17 -0.16 0.37 -0.34 0.58 -0.55 c 1.11 0.19 1.98 0.63 1.98 1.28 c 0 0.92 -1.7 1.4 -3.37 1.4 h 0 Z" stroke-linecap="round" />
</g>
</g>
</g>
<g transform="matrix(2.4458385171 0 0 2.4458385171 41.5302379895 360.6508288252)" clip-path="url(#CLIPPATH_4)"  >
<clipPath id="CLIPPATH_4" >
	<rect transform="matrix(1 0 0 1 -11.81 -3.94)" x="-127.56" y="-77.955" rx="0" ry="0" width="255.12" height="155.91" />
</clipPath>
<path style="stroke: none; stroke-width: 1; stroke-dasharray: none; stroke-linecap: butt; stroke-dashoffset: 0; stroke-linejoin: miter; stroke-miterlimit: 4; fill: rgb(39,44,51); fill-rule: nonzero; opacity: 1;"  transform=" translate(-139.37, -81.895)" d="M 142.89 79.53 h 0 v -0.02 h 0 v -0.03 h 0 v -0.03 h 0 v -0.03 h -0.01 v -0.03 h -0.01 v -0.03 h -0.02 v -0.02 h -0.02 v -0.02 h 0 v -0.02 h -0.02 v -0.02 h -0.02 v -0.02 h -0.04 v -0.02 h -0.05 v -0.02 h -6.72 v 0.02 h -0.04 v 0.02 h -0.02 v 0.02 h -0.02 v 0.02 h -0.02 v 0.02 h 0 v 0.02 h -0.02 v 0.02 h -0.02 v 0.03 h -0.01 v 0.03 h -0.01 v 0.03 h 0 v 0.04 h 0 v 0.03 h 0 v 4.76 h 0 v 0.02 h 0 v 0.04 h 0 v 0.03 h 0 v 0.03 h 0.01 v 0.03 h 0.01 v 0.02 h 0.02 v 0.02 h 0.02 v 0.02 h 0.02 v 0.02 h 0.02 v 0.02 h 0.04 v 0.02 h 0.04 v 0.02 h 6.74 v -0.02 h 0.04 v -0.02 h 0.03 v -0.02 h 0.02 v -0.02 h 0.02 v -0.02 h 0.02 v -0.02 h 0.02 v -0.02 h 0.01 v -0.04 h 0.02 v -0.03 h 0 v -0.03 h 0 v -0.04 h 0 v -4.76 h 0 Z m -6.54 0.67 l 1.47 1.33 l -1.47 1.88 v -3.22 Z m 1.91 1.73 l 0.31 0.29 c 0.43 0.39 1.07 0.39 1.5 0 l 0.31 -0.29 l 1.6 2.05 h -5.32 l 1.6 -2.05 Z m 2.57 -0.4 l 1.47 -1.33 v 3.22 l -1.47 -1.88 Z" stroke-linecap="round" />
</g>
<g transform="matrix(2.4458385171 0 0 2.4458385171 41.3195269576 329.2053237362)" clip-path="url(#CLIPPATH_5)"  >
<clipPath id="CLIPPATH_5" >
	<rect transform="matrix(1 0 0 1 -11.7238491644 6.0113543314)" x="-127.56" y="-77.955" rx="0" ry="0" width="255.12" height="155.91" />
</clipPath>
<path style="stroke: none; stroke-width: 1; stroke-dasharray: none; stroke-linecap: butt; stroke-dashoffset: 0; stroke-linejoin: miter; stroke-miterlimit: 4; fill: rgb(39,44,51); fill-rule: nonzero; opacity: 1;"  transform=" translate(-139.2838491644, -71.9436456686)" d="M 142.07 72.82 c -0.77 -0.56 -1.79 -0.48 -2.27 0.18 c -0.03 0.05 -0.07 0.1 -0.09 0.15 c -0.7 -0.39 -1.26 -0.99 -1.6 -1.72 c 0.48 -0.34 0.74 -1 0.63 -1.71 c -0.15 -0.94 -0.92 -1.6 -1.73 -1.48 c -0.98 0.15 -1.3 1.2 -1.25 2.03 c 0.09 1.45 0.89 2.88 1.96 3.84 c 0.87 0.78 2.21 1.51 3.4 1.55 c 1.69 0.06 2.31 -1.86 0.95 -2.85 Z" stroke-linecap="round" />
</g>
<g transform="matrix(2.4458385171 0 0 2.4458385171 42.5697193594 296.9120447071)" clip-path="url(#CLIPPATH_6)"  >
<clipPath id="CLIPPATH_6" >
	<rect transform="matrix(1 0 0 1 -12.235 15.65)" x="-127.56" y="-77.955" rx="0" ry="0" width="255.12" height="155.91" />
</clipPath>
<path style="stroke: none; stroke-width: 1; stroke-dasharray: none; stroke-linecap: butt; stroke-dashoffset: 0; stroke-linejoin: miter; stroke-miterlimit: 4; fill: rgb(39,44,51); fill-rule: nonzero; opacity: 1;"  transform=" translate(-139.795, -62.305)" d="M 139.57 66.09 h -3.01 c -0.45 0 -0.81 -0.36 -0.81 -0.81 v -5.95 c 0 -0.45 0.36 -0.81 0.81 -0.81 h 3.01 c 0.45 0 0.81 0.36 0.81 0.81 v 5.95 c 0 0.45 -0.36 0.81 -0.81 0.81 Z m -1.11 -1.08 h -0.81 c -0.15 0 -0.27 0.12 -0.27 0.27 s 0.12 0.27 0.27 0.27 h 0.81 c 0.15 0 0.27 -0.12 0.27 -0.27 s -0.12 -0.27 -0.27 -0.27 Z m 1.35 -5.14 h -3.48 v 4.86 h 3.48 v -4.86 Z m 2.13 0.24 c 0.11 -0.19 0.36 -0.26 0.55 -0.15 c 0.51 0.29 0.89 0.73 1.11 1.23 c 0.16 0.36 0.24 0.74 0.24 1.11 c 0 0.37 -0.08 0.75 -0.24 1.11 c -0.22 0.5 -0.6 0.94 -1.11 1.23 c -0.19 0.11 -0.44 0.05 -0.55 -0.15 c -0.11 -0.19 -0.05 -0.44 0.15 -0.55 c 0.29 -0.17 0.52 -0.41 0.69 -0.68 h 0 c 0.03 -0.07 0.06 -0.13 0.09 -0.18 c 0.11 -0.24 0.17 -0.51 0.17 -0.78 c 0 -0.27 -0.06 -0.53 -0.17 -0.78 c -0.03 -0.06 -0.05 -0.11 -0.09 -0.17 h 0 c -0.16 -0.29 -0.39 -0.52 -0.69 -0.69 c -0.19 -0.11 -0.26 -0.36 -0.15 -0.55 h 0 Z m -0.26 1.26 c -0.19 -0.11 -0.44 -0.05 -0.55 0.15 c -0.11 0.19 -0.05 0.44 0.15 0.55 c 0.04 0.02 0.07 0.06 0.1 0.1 h 0 v 0.03 s 0.04 0.07 0.04 0.11 c 0 0.04 0 0.08 -0.02 0.11 v 0.02 h -0.01 s -0.06 0.08 -0.1 0.1 c -0.19 0.11 -0.26 0.36 -0.15 0.55 c 0.11 0.19 0.36 0.26 0.55 0.15 c 0.2 -0.12 0.36 -0.29 0.45 -0.49 c 0.06 -0.14 0.1 -0.29 0.1 -0.44 c 0 -0.15 -0.03 -0.3 -0.1 -0.45 c -0.09 -0.2 -0.24 -0.37 -0.44 -0.49 h 0 Z m -3.5 -2.31 h -0.27 c -0.15 0 -0.27 0.12 -0.27 0.27 s 0.12 0.27 0.27 0.27 h 0.27 c 0.15 0 0.27 -0.12 0.27 -0.27 s -0.12 -0.27 -0.27 -0.27 Z" stroke-linecap="round" />
</g>
<g transform="matrix(0 2.4458385171 -2.4458385171 0 42.0250179613 423.762453641)" clip-path="url(#CLIPPATH_7)"  >
<clipPath id="CLIPPATH_7" >
	<rect transform="matrix(1 0 0 1 -108.52 -33.305)" x="-127.56" y="-77.955" rx="0" ry="0" width="255.12" height="155.91" />
</clipPath>
<path style="stroke: none; stroke-width: 1; stroke-dasharray: none; stroke-linecap: butt; stroke-dashoffset: 0; stroke-linejoin: miter; stroke-miterlimit: 4; fill: rgb(39,44,51); fill-rule: nonzero; opacity: 1;"  transform=" translate(-236.08, -111.26)" d="M 232.48 111.26 c 0 1.99 1.62 3.6 3.6 3.6 s 3.6 -1.62 3.6 -3.6 c 0 -1.99 -1.62 -3.6 -3.6 -3.6 s -3.6 1.62 -3.6 3.6 Z m 6.59 0 c 0 0.37 -0.07 0.72 -0.19 1.04 c -0.12 -0.13 -0.38 -0.27 -0.46 -0.3 c -0.1 -0.03 -0.36 0.08 -0.41 0.08 c -0.05 0 -0.41 0.31 -0.47 0.39 c -0.05 0.08 -0.34 0 -0.52 0 s -0.28 0.41 -0.39 0.57 c -0.1 0.16 0.28 0.21 0.21 0.39 c -0.08 0.18 -0.34 0.16 -0.54 0.18 c -0.15 0.02 -0.2 0.42 -0.21 0.63 h 0 c -1.31 0 -2.42 -0.85 -2.82 -2.02 c 0.01 0.01 0.02 0.02 0.03 0.03 c 0.14 0.1 0 0.29 0.44 0.24 c 0.44 -0.05 0.65 0.02 0.71 -0.3 c 0.06 -0.32 -0.02 -0.44 0 -0.66 c 0.02 -0.22 0.57 -0.21 0.58 -0.26 c 0 0 0.79 -0.29 1.02 -1.13 c 0.05 -0.18 0.42 0.19 0.53 0.44 c 0.11 0.25 0.13 0.49 0.4 0.52 c 0.27 0.03 0.11 -0.35 0.16 -0.46 c 0.05 -0.1 0.21 -0.54 -0.03 -0.72 c -0.25 -0.18 -0.16 -0.91 -0.43 -0.84 c -0.6 0.15 -0.87 -0.85 -1.27 -0.56 c -0.09 0.07 -0.37 0.05 -0.67 0.07 c 0.41 -0.21 0.87 -0.33 1.35 -0.33 c 1.65 0 2.98 1.34 2.98 2.98 Z" stroke-linecap="round" />
</g>
<g transform="matrix(2.345633019 0 0 2.345633019 133.794304139 423.7624536409)" style=""  >
		<text xml:space="preserve" font-family="Roboto" font-size="6.0615508489297945" font-style="normal" font-weight="normal" style="stroke: none; stroke-width: 0; stroke-dasharray: none; stroke-linecap: butt; stroke-dashoffset: 0; stroke-linejoin: miter; stroke-miterlimit: 4; fill: rgb(39,44,51); fill-rule: nonzero; opacity: 1; white-space: pre;" ><tspan x="-29.6699299244" y="1.9041755837" >www.cool.cards</tspan></text>
</g>
<g transform="matrix(1.3296405968 0 0 1.3296405968 117.6000000165 245.4439205067)" style=""  >
		<text xml:space="preserve" font-family="Roboto" font-size="11.914892054127398" font-style="normal" font-weight="normal" style="stroke: none; stroke-width: 0; stroke-dasharray: none; stroke-linecap: butt; stroke-dashoffset: 0; stroke-linejoin: miter; stroke-miterlimit: 4; fill: rgb(39,44,51); fill-rule: nonzero; opacity: 1; white-space: pre;" ><tspan x="-45.8705942022" y="3.7429441899" >YOUR POSITION</tspan></text>
</g>
<g transform="matrix(1.2146405706 0 0 1.2146405706 117.6000000179 211.9737156766)"  >
<g style=""   >
		<g transform="matrix(0.4728693058 0 0 0.4728693058 39.7696626598 0)" style=""  >
		<text xml:space="preserve" font-family="Roboto" font-size="37.71515151515152" font-style="normal" font-weight="bold" style="stroke: none; stroke-width: 0; stroke-dasharray: none; stroke-linecap: butt; stroke-dashoffset: 0; stroke-linejoin: miter; stroke-miterlimit: 4; fill: rgb(49,54,56); fill-rule: nonzero; opacity: 1; white-space: pre;" ><tspan x="-63.7760265625" y="11.847837697" >S</tspan><tspan x="-40.1382026752" y="11.847837697" >M</tspan><tspan x="-6.6480320786" y="11.847837697" >I</tspan><tspan x="4.2646112926" y="11.847837697" >T</tspan><tspan x="28.0497599905" y="11.847837697" >H</tspan></text>
</g>
		<g transform="matrix(0.4728693058 0 0 0.4728693058 -31.7382195552 0)" style=""  >
		<text xml:space="preserve" font-family="Roboto" font-size="37.71515151515152" font-style="normal" font-weight="normal" style="stroke: none; stroke-width: 0; stroke-dasharray: none; stroke-linecap: butt; stroke-dashoffset: 0; stroke-linejoin: miter; stroke-miterlimit: 4; fill: rgb(49,54,56); fill-rule: nonzero; opacity: 1; white-space: pre;" ><tspan x="-80.7605146781" y="11.847837697" >T</tspan><tspan x="-57.8040680398" y="11.847837697" >H</tspan><tspan x="-30.464708286" y="11.847837697" >O</tspan><tspan x="-4.0829598012" y="11.847837697" >M</tspan><tspan x="29.6281980113" y="11.847837697" >A</tspan><tspan x="54.6840232007" y="11.847837697" >S</tspan></text>
</g>
</g>
</g>
</svg>