<svg xmlns="http://www.w3.org/2000/svg" xmlns:xlink="http://www.w3.org/1999/xlink" id="Layer_1" x="0px" y="0px" viewBox="0 0 113 112" style="enable-background:new 0 0 113 112;" xml:space="preserve"><style type="text/css">	.st0{fill:#D9F8FF;}	.st1{fill:#FFFFFF;}	.st2{fill:#308EA7;}	.st3{fill:#FAD060;}</style><path class="st0" d="M48.3,107.1c15.1,2.8,16-16.7,33-17.8c29.9-1.9,37-21.8,25.8-36.6c-10.2-13.4-6-18-7.9-30 C96.9,7.3,72.4-4.6,53.9,15.7C35.5,36,19.3,22.8,7.9,33.7c-7.8,7.4-14,26,8.9,46.2C31.8,93.1,27.8,103.3,48.3,107.1z"></path><path class="st1" d="M71.6,30.1L55.5,19.9l-32.9,7.4c-2.1,0.5-3.5,2.6-3,4.7L32,87c1,4.5,5.5,7.4,10,6.3c4.5-1,7.4-5.5,6.3-10 l-0.1-0.6l33.5-7.6L71.6,30.1z"></path><path class="st2" d="M41.3,82.9l-12.4-55c0,0,0-0.1,0-0.1L23,29.1c-1.1,0.3-1.8,1.4-1.6,2.5l12.4,55c0.7,2.9,3.3,5.1,6.4,5.1 c0.5,0,1-0.1,1.4-0.2c1.7-0.4,3.2-1.4,4.1-2.9c0.2-0.3,0.3-0.6,0.5-0.8C43.8,87.2,41.9,85.3,41.3,82.9z"></path><path d="M81.1,72.8c-0.3,0-0.6-0.2-0.7-0.6l-9.4-41.7l-15.6-9.9l-32.6,7.4c-1.7,0.4-2.8,2.1-2.4,3.8l0.4,1.6 c0.1,0.4-0.2,0.8-0.6,0.9c-0.4,0.1-0.8-0.2-0.9-0.6l-0.4-1.6c-0.3-1.2-0.1-2.5,0.6-3.5c0.7-1.1,1.7-1.8,2.9-2.1l32.9-7.4 c0.2,0,0.4,0,0.6,0.1L72,29.5c0.2,0.1,0.3,0.3,0.3,0.5l9.5,42c0.1,0.4-0.2,0.8-0.6,0.9C81.2,72.8,81.1,72.8,81.1,72.8z"></path><path d="M40.2,94.3c-1.7,0-3.4-0.5-4.9-1.4c-2.1-1.3-3.5-3.3-4-5.7l-7.4-32.8c-0.1-0.4,0.2-0.8,0.6-0.9c0.4-0.1,0.8,0.2,0.9,0.6 l7.4,32.8c0.4,2,1.6,3.7,3.4,4.8c1.7,1.1,3.8,1.4,5.8,1c2-0.4,3.7-1.6,4.8-3.4c1.1-1.7,1.4-3.8,1-5.8l-0.1-0.6c0-0.2,0-0.4,0.1-0.6 c0.1-0.2,0.3-0.3,0.5-0.3l33.5-7.6c0.4-0.1,0.8,0.2,0.9,0.6c0.1,0.4-0.2,0.8-0.6,0.9l-32.8,7.4c0.5,2.3,0.1,4.7-1.2,6.7 c-1.3,2.1-3.3,3.5-5.7,4C41.6,94.2,40.9,94.3,40.2,94.3z"></path><path class="st3" d="M62.3,32.2l9.3-2.1L55.5,19.9l2.1,9.3C58.1,31.3,60.2,32.7,62.3,32.2z"></path><path d="M61.4,33c-2.1,0-4.1-1.5-4.6-3.7l-2.1-9.3c-0.1-0.3,0.1-0.6,0.3-0.8c0.2-0.2,0.6-0.2,0.8,0L72,29.5c0.3,0.2,0.4,0.5,0.3,0.8 s-0.3,0.5-0.6,0.6l-9.3,2.1C62.1,33,61.8,33,61.4,33z M62.3,32.2L62.3,32.2L62.3,32.2z M56.6,21.5l1.7,7.6c0.4,1.7,2.1,2.8,3.8,2.4 l7.6-1.7L56.6,21.5z"></path><path d="M59.9,67.1c-0.3,0-0.6-0.2-0.7-0.6c-0.1-0.4,0.2-0.8,0.6-0.9l10.6-2.4c0.4-0.1,0.8,0.2,0.9,0.6c0.1,0.4-0.2,0.8-0.6,0.9 L60,67C60,67.1,59.9,67.1,59.9,67.1z"></path><path d="M46.5,60.2c-0.3,0-0.6-0.2-0.7-0.6c-0.1-0.4,0.2-0.8,0.6-0.9l21.9-4.9c0.4-0.1,0.8,0.2,0.9,0.6c0.1,0.4-0.2,0.8-0.6,0.9 l-21.9,4.9C46.6,60.2,46.6,60.2,46.5,60.2z"></path><path d="M35.1,62.8c-0.3,0-0.6-0.2-0.7-0.6c-0.1-0.4,0.2-0.8,0.6-0.9l6.3-1.4c0.4-0.1,0.8,0.2,0.9,0.6c0.1,0.4-0.2,0.8-0.6,0.9 l-6.3,1.4C35.2,62.8,35.2,62.8,35.1,62.8z"></path><path d="M44.8,52.4c-0.3,0-0.6-0.2-0.7-0.6c-0.1-0.4,0.2-0.8,0.6-0.9L66.5,46c0.4-0.1,0.8,0.2,0.9,0.6c0.1,0.4-0.2,0.8-0.6,0.9 l-21.9,4.9C44.9,52.4,44.8,52.4,44.8,52.4z"></path><path d="M33.4,55c-0.3,0-0.6-0.2-0.7-0.6c-0.1-0.4,0.2-0.8,0.6-0.9l6.3-1.4c0.4-0.1,0.8,0.2,0.9,0.6c0.1,0.4-0.2,0.8-0.6,0.9 L33.5,55C33.5,55,33.4,55,33.4,55z"></path><path d="M43,44.6c-0.3,0-0.6-0.2-0.7-0.6c-0.1-0.4,0.2-0.8,0.6-0.9l21.9-4.9c0.4-0.1,0.8,0.2,0.9,0.6c0.1,0.4-0.2,0.8-0.6,0.9 l-21.9,4.9C43.1,44.6,43.1,44.6,43,44.6z"></path><path d="M31.6,47.2c-0.3,0-0.6-0.2-0.7-0.6c-0.1-0.4,0.2-0.8,0.6-0.9l6.3-1.4c0.4-0.1,0.8,0.2,0.9,0.6c0.1,0.4-0.2,0.8-0.6,0.9 l-6.3,1.4C31.7,47.2,31.7,47.2,31.6,47.2z"></path><path d="M29.5,37.9c-0.3,0-0.6-0.2-0.7-0.6c-0.1-0.4,0.2-0.8,0.6-0.9l20.3-4.6c0.4-0.1,0.8,0.2,0.9,0.6c0.1,0.4-0.2,0.8-0.6,0.9 l-20.3,4.6C29.6,37.8,29.6,37.9,29.5,37.9z"></path><path class="st1" d="M48.3,82.7l0.1,0.6c1,4.5-1.8,9-6.3,10l41.7-9.4c4.5-1,7.4-5.5,6.3-10L90,73.3L48.3,82.7z"></path><path class="st2" d="M50.4,86.5c-0.2,1.1-0.5,2.2-1,3.3l34-7.7c2.2-0.5,3.9-2.1,4.7-4.1L50.4,86.5z"></path><path d="M42.1,94.1c-0.3,0-0.6-0.2-0.7-0.6c-0.1-0.4,0.2-0.8,0.6-0.9c2-0.4,3.7-1.6,4.8-3.4c1.1-1.7,1.4-3.8,1-5.8l-0.1-0.6 c0-0.2,0-0.4,0.1-0.6c0.1-0.2,0.3-0.3,0.5-0.3l41.7-9.4c0.4-0.1,0.8,0.2,0.9,0.6l0.1,0.6c0.5,2.4,0.1,4.8-1.2,6.9 c-1.3,2.1-3.3,3.5-5.7,4l-41.7,9.4C42.2,94.1,42.1,94.1,42.1,94.1z M49.2,83.3c0.5,2.3,0.1,4.7-1.2,6.7c-0.3,0.5-0.7,1-1.2,1.5 l36.8-8.3c2-0.4,3.7-1.6,4.8-3.4c1.1-1.7,1.4-3.7,1-5.6L49.2,83.3z"></path><path class="st3" d="M23.6,35l-9.4,2.1c-1.5,0.3-2.5,1.9-2.1,3.4l2.3,10.2c0.3,1.5,1.9,2.5,3.4,2.1l9.4-2.1c1.5-0.3,2.5-1.9,2.1-3.4 L27,37.1C26.6,35.6,25.1,34.6,23.6,35z"></path><path class="st1" d="M40.9,77.8c3.1-7-0.1-15.1-7-18.1c-7-3.1-15.1,0.1-18.1,7s0.1,15.1,7,18.1C29.7,88,37.8,84.8,40.9,77.8z"></path><path class="st2" d="M21.3,62.6c-2.6,1.9-4.3,4.6-4.8,7.7c-0.5,3.1,0.2,6.3,2.1,8.9c2.2,3.1,5.8,5,9.7,5c2,0,3.9-0.5,5.6-1.4 l-11.3-21C22.2,62.1,21.8,62.3,21.3,62.6z"></path><path d="M28.3,86.8c-1.4,0-2.8-0.2-4.2-0.6c-3.7-1.1-6.8-3.6-8.6-7c-1.8-3.4-2.2-7.3-1.1-11c1.1-3.7,3.6-6.8,7-8.6 c3.5-1.9,7.7-2.2,11.5-1c0.4,0.1,0.6,0.6,0.5,0.9c-0.1,0.4-0.6,0.6-0.9,0.5c-3.4-1.2-7.2-0.8-10.3,0.9c-3.1,1.6-5.3,4.4-6.3,7.7 c-1,3.3-0.6,6.8,1,9.9s4.4,5.3,7.7,6.3c3.3,1,6.8,0.6,9.9-1c5.1-2.7,7.7-8.4,6.6-14c-0.1-0.4,0.2-0.8,0.6-0.9 c0.4-0.1,0.8,0.2,0.9,0.6c0.6,3,0.2,6.2-1.1,8.9c-1.3,2.9-3.5,5.2-6.3,6.7C33,86.2,30.7,86.8,28.3,86.8z"></path><path d="M28.4,80c-1.7,0-3.3-0.9-4.1-2.4c-0.2-0.4-0.1-0.8,0.3-1c0.4-0.2,0.8-0.1,1,0.3c0.8,1.5,2.7,2.1,4.3,1.3l2.4-1.3 c1.5-0.8,2.1-2.7,1.3-4.3l-0.5-0.9l-9.8,2.8c-0.3,0.1-0.7-0.1-0.9-0.4l-0.8-1.5c-0.6-1.1-0.7-2.3-0.4-3.5c0.4-1.2,1.2-2.2,2.2-2.7 l2.4-1.3c1.1-0.6,2.3-0.7,3.5-0.4c1.2,0.4,2.2,1.2,2.7,2.2c0.2,0.4,0.1,0.8-0.3,1c-0.4,0.2-0.8,0.1-1-0.3c-0.4-0.7-1.1-1.3-1.9-1.5 c-0.8-0.2-1.7-0.2-2.4,0.2l-2.4,1.3c-0.7,0.4-1.3,1.1-1.5,1.9c-0.2,0.8-0.2,1.7,0.2,2.4l0.5,0.9l9.8-2.8c0.3-0.1,0.7,0.1,0.9,0.4 l0.8,1.5c1.2,2.3,0.4,5.1-1.9,6.3l-2.4,1.3C29.9,79.9,29.1,80,28.4,80z"></path><path d="M32.7,81.3c-0.3,0-0.5-0.1-0.7-0.4l-8.9-16.5c-0.2-0.4-0.1-0.8,0.3-1c0.4-0.2,0.8-0.1,1,0.3l8.9,16.5c0.2,0.4,0.1,0.8-0.3,1 C32.9,81.2,32.8,81.3,32.7,81.3z"></path><path class="st3" d="M42.3,67.6c2.3-2,2.6-5.6,0.5-7.9c-2-2.3-5.6-2.6-7.9-0.5c-2.3,2-2.6,5.6-0.5,7.9 C36.4,69.4,39.9,69.6,42.3,67.6z"></path><path class="st3" d="M96.4,68.4l-20.1-4c-2.5-0.5-4.2-3-3.7-5.5l4-20.1c0.5-2.5,3-4.2,5.5-3.7l20.1,4c2.5,0.5,4.2,3,3.7,5.5l-4,20.1 C101.4,67.2,99,68.9,96.4,68.4z"></path><path d="M97.3,69.2c-0.3,0-0.7,0-1-0.1l-20.1-4c-0.4-0.1-0.7-0.5-0.6-0.9c0.1-0.4,0.5-0.7,0.9-0.6l20.1,4c2.1,0.4,4.2-1,4.6-3.1 l3.9-20.1c0.1-0.4,0.5-0.7,0.9-0.6c0.4,0.1,0.7,0.5,0.6,0.9l-4,20.1C102.2,67.4,99.9,69.2,97.3,69.2z"></path><path class="st1" d="M86.6,57.5c0,0-0.1,0-0.1,0c-0.2,0-0.4-0.2-0.5-0.3l-4.3-6.4c-0.2-0.3-0.1-0.8,0.2-1c0.3-0.2,0.8-0.1,1,0.2 l3.9,5.7l12.1-8.1c0.3-0.2,0.8-0.1,1,0.2c0.2,0.3,0.1,0.8-0.2,1L87,57.4C86.9,57.4,86.8,57.5,86.6,57.5z"></path><path class="st3" d="M8.3,67.9c-0.1,0-0.3,0-0.4-0.1l-6.7-3.7c-0.2-0.1-0.4-0.4-0.4-0.6S1,63,1.3,62.8l6.6-3.9 c0.2-0.1,0.5-0.1,0.7,0C8.8,59,9,59.3,9,59.5l0.1,7.6c0,0.3-0.1,0.5-0.4,0.6C8.6,67.9,8.4,67.9,8.3,67.9z M3.1,63.4l4.4,2.5 l-0.1-5.1L3.1,63.4z"></path><path class="st3" d="M88.4,29.5c-0.2,0-0.3,0-0.4-0.1c-0.2-0.2-0.3-0.4-0.3-0.7l0.8-7.6c0-0.3,0.2-0.5,0.4-0.6 c0.2-0.1,0.5-0.1,0.7,0.1l6.2,4.5c0.2,0.2,0.3,0.4,0.3,0.7c0,0.3-0.2,0.5-0.4,0.6l-7,3.1C88.6,29.5,88.5,29.5,88.4,29.5z M89.8,22.5 l-0.5,5l4.6-2.1L89.8,22.5z"></path><path d="M67.1,100.8c-2.3,0-4.1-1.8-4.1-4.1c0-2.3,1.8-4.1,4.1-4.1c2.3,0,4.1,1.8,4.1,4.1C71.3,99,69.4,100.8,67.1,100.8z  M67.1,94.1c-1.4,0-2.6,1.2-2.6,2.6c0,1.4,1.2,2.6,2.6,2.6c1.4,0,2.6-1.2,2.6-2.6C69.8,95.3,68.6,94.1,67.1,94.1z"></path><path d="M52.1,14.9c-2.3,0-4.1-1.8-4.1-4.1c0-2.3,1.8-4.1,4.1-4.1c2.3,0,4.1,1.8,4.1,4.1C56.2,13.1,54.4,14.9,52.1,14.9z M52.1,8.2 c-1.4,0-2.6,1.2-2.6,2.6c0,1.4,1.2,2.6,2.6,2.6c1.4,0,2.6-1.2,2.6-2.6C54.7,9.4,53.5,8.2,52.1,8.2z"></path></svg>