<svg xmlns="http://www.w3.org/2000/svg" xmlns:xlink="http://www.w3.org/1999/xlink" id="Layer_1" x="0px" y="0px" viewBox="0 0 113 112" style="enable-background:new 0 0 113 112;" xml:space="preserve"><style type="text/css">	.st0{fill:#D9F8FF;}	.st1{fill:#FFFFFF;}	.st2{fill:#308EA7;}	.st3{fill:#FAD060;}</style><path class="st0" d="M18.1,94.2c11.8,9.8,27.7-2.5,43.2,4.9c27.1,12.9,41.3-5.8,38.6-24.2c-2.4-16.7,4.7-13.7,8.9-25.1 c5.4-14.7-10.2-40-36.2-31.2c-26,8.8-35.2-9.2-50.5-5.3C11.7,15.9-1.2,27.8,9,56.6C15.8,75.5,2,80.9,18.1,94.2z"></path><path class="st1" d="M66.3,94.1l-9,10.6l-6.9-35.3c-0.6-2.8,1.3-5.6,4.2-6.2L91.9,56c2.8-0.6,5.6,1.3,6.2,4.2l4.2,21.6 c0.6,2.8-1.3,5.6-4.2,6.2L66.3,94.1z"></path><path class="st2" d="M69,87.5L68.6,88l-6.4,7.6l-6-30.8L55,65c-1.8,0.4-3,2.1-2.7,4l6.1,31.5l6.4-7.6l0.4-0.5l0.6-0.1l31.8-6.2 c1.8-0.4,3-2.1,2.7-4l-0.1-0.8l-30.6,6L69,87.5z"></path><path d="M57.3,105.4c-0.1,0-0.1,0-0.2,0c-0.3-0.1-0.5-0.3-0.5-0.6l-6.9-35.3c-0.6-3.2,1.5-6.4,4.7-7l37.3-7.3c0.7-0.1,1.5-0.1,2.2,0 c0.4,0.1,0.7,0.5,0.6,0.9c-0.1,0.4-0.5,0.7-0.9,0.6c-0.5-0.1-1.1-0.1-1.7,0l-37.3,7.3c-2.4,0.5-4,2.8-3.6,5.3l6.6,33.8l8-9.4 c0.1-0.1,0.3-0.2,0.4-0.2L98,87.2c2.4-0.5,4-2.8,3.6-5.3l-2.5-12.7c-0.1-0.4,0.2-0.8,0.6-0.9c0.4-0.1,0.8,0.2,0.9,0.6l2.5,12.7 c0.6,3.2-1.5,6.4-4.7,7l-31.6,6.1l-8.8,10.4C57.8,105.4,57.6,105.4,57.3,105.4z"></path><path class="st3" d="M103.8,62.2c-0.3,3.2-3.3,5.5-6.4,4.9c-2.9-0.5-4.9-3.1-4.6-6c0.3-3.2,3.3-5.5,6.4-4.9 C102,56.7,104.1,59.3,103.8,62.2z"></path><path class="st3" d="M89.2,67.9l2.1,2.8l3.5-0.2l-2,2.9l1.2,3.2l-3.3-1L88,77.8l-0.1-3.5L85,72.4l3.3-1.1L89.2,67.9z"></path><path d="M88,78.5c-0.1,0-0.2,0-0.3-0.1c-0.3-0.1-0.4-0.4-0.4-0.7l-0.1-3.1L84.6,73c-0.3-0.2-0.4-0.7-0.2-1c0.2-0.3,0.7-0.4,1-0.2 l2.9,1.9c0.2,0.1,0.3,0.4,0.3,0.6l0,2l1.5-1.2c0.2-0.2,0.4-0.2,0.7-0.1l3.3,1c0.4,0.1,0.6,0.5,0.5,0.9c-0.1,0.4-0.5,0.6-0.9,0.5 l-3-0.9l-2.4,1.9C88.3,78.5,88.1,78.5,88,78.5z"></path><path class="st3" d="M75.2,70.4l2.1,2.8l3.5-0.2l-2,2.9l1.2,3.2l-3.3-1L74,80.2L74,76.8L71,74.9l3.3-1.1L75.2,70.4z"></path><path d="M74,81c-0.1,0-0.2,0-0.3-0.1c-0.3-0.1-0.4-0.4-0.4-0.7l-0.1-3.1l-2.6-1.7c-0.3-0.2-0.4-0.7-0.2-1c0.2-0.3,0.7-0.4,1-0.2 l2.9,1.9c0.2,0.1,0.3,0.4,0.3,0.6l0,2l1.5-1.2c0.2-0.2,0.4-0.2,0.7-0.1l3.3,1c0.4,0.1,0.6,0.5,0.5,0.9c-0.1,0.4-0.5,0.6-0.9,0.5 l-3-0.9l-2.4,1.9C74.4,80.9,74.2,81,74,81z"></path><path class="st3" d="M61.2,73.1l2.1,2.8l3.5-0.2l-2,2.9l1.2,3.2l-3.3-1L60,83L60,79.5l-2.9-1.9l3.3-1.1L61.2,73.1z"></path><path d="M60,83.7c-0.1,0-0.2,0-0.3-0.1c-0.3-0.1-0.4-0.4-0.4-0.7l-0.1-3.1l-2.6-1.7c-0.3-0.2-0.4-0.7-0.2-1s0.7-0.4,1-0.2l2.9,1.9 c0.2,0.1,0.3,0.4,0.3,0.6l0,2l1.5-1.2c0.2-0.2,0.4-0.2,0.7-0.1l3.3,1c0.4,0.1,0.6,0.5,0.5,0.9c-0.1,0.4-0.5,0.6-0.9,0.5l-3-0.9 l-2.4,1.9C60.4,83.7,60.2,83.7,60,83.7z"></path><path class="st1" d="M27.8,41.7l28.8,4.4l9.9,10.8l5.7-37.7c0.5-3-1.6-5.9-4.7-6.3L33,7.7c-3-0.5-5.9,1.6-6.3,4.7l-3.5,23.1 C22.7,38.5,24.8,41.3,27.8,41.7z"></path><path class="st2" d="M31.4,37.8c-2.3-0.3-3.9-2.5-3.5-4.8l3.6-23.5c-1.5,0.3-2.7,1.5-3,3.1L25,35.7c-0.1,1,0.1,2,0.7,2.8 c0.6,0.8,1.4,1.3,2.4,1.5l29.5,4.5l7.8,8.4l0.8-5.5l-4.6-4.9L31.4,37.8z"></path><path d="M66.6,57.7c-0.2,0-0.4-0.1-0.5-0.2l-9.8-10.6l-28.6-4.3c-1.7-0.3-3.1-1.1-4.1-2.5c-1-1.4-1.4-3-1.2-4.7l3.5-23.1 c0.3-1.7,1.1-3.1,2.5-4.1c1.4-1,3-1.4,4.7-1.2l34.6,5.2c1.9,0.3,3.6,1.4,4.5,3.1c0.2,0.4,0.1,0.8-0.3,1c-0.4,0.2-0.8,0.1-1-0.3 c-0.7-1.3-2-2.1-3.5-2.4L32.9,8.4c-1.3-0.2-2.5,0.1-3.6,0.9c-1,0.8-1.7,1.9-1.9,3.2l-3.5,23.1c-0.2,1.3,0.1,2.5,0.9,3.6 c0.8,1,1.9,1.7,3.2,1.9l28.8,4.4c0.2,0,0.3,0.1,0.4,0.2l8.9,9.7l3.8-25.2c0.1-0.4,0.4-0.7,0.8-0.6c0.4,0.1,0.7,0.4,0.6,0.8l-4,26.7 c0,0.3-0.2,0.5-0.5,0.6C66.7,57.6,66.7,57.7,66.6,57.7z"></path><path class="st2" d="M54.9,25.4l-2,2.6l4.3,11.3l3.4,0.5L54.9,25.4z"></path><path d="M60.5,40.5c0,0-0.1,0-0.1,0l-6.1-0.9c-0.4-0.1-0.7-0.4-0.6-0.8c0.1-0.4,0.4-0.7,0.8-0.6l4.8,0.7l-4.7-12l-1.2,1.6 c-0.3,0.3-0.7,0.4-1,0.1c-0.3-0.3-0.4-0.7-0.1-1l2-2.6c0.2-0.2,0.4-0.3,0.7-0.3c0.3,0,0.5,0.2,0.6,0.5l5.7,14.4 c0.1,0.2,0.1,0.5-0.1,0.7C61,40.4,60.8,40.5,60.5,40.5z"></path><path d="M54.4,39.6c0,0-0.1,0-0.1,0l-22.6-3.4c-0.3,0-0.5-0.2-0.6-0.5c-0.1-0.2-0.1-0.5,0.1-0.7l14.2-17.9c0.2-0.2,0.4-0.3,0.7-0.3 c0.3,0,0.5,0.2,0.6,0.5l8.4,21.3c0.1,0.2,0.1,0.5-0.1,0.7C54.9,39.5,54.6,39.6,54.4,39.6z M33.2,34.9l20,3l-7.4-18.9L33.2,34.9z"></path><path d="M54.2,22.6c-0.2,0-0.4,0-0.6,0c-1.1-0.2-2-0.7-2.6-1.6c-0.6-0.9-0.9-1.9-0.7-3c0.2-1.1,0.7-2,1.6-2.6c0.9-0.6,1.9-0.9,3-0.7 c1.1,0.2,2,0.7,2.6,1.6c0.6,0.9,0.9,1.9,0.7,3c-0.2,1.1-0.7,2-1.6,2.6C55.9,22.4,55,22.6,54.2,22.6z M54.2,16.1 c-0.5,0-1.1,0.2-1.5,0.5c-0.5,0.4-0.9,1-1,1.7c-0.1,0.7,0.1,1.3,0.5,1.9c0.4,0.5,1,0.9,1.7,1c0.7,0.1,1.3-0.1,1.9-0.5 c0.5-0.4,0.9-1,1-1.7c0.1-0.7-0.1-1.3-0.5-1.9c-0.4-0.5-1-0.9-1.7-1C54.4,16.1,54.3,16.1,54.2,16.1z"></path><path class="st3" d="M75.6,26.9c2.2-2.2,2.2-5.7,0-7.8s-5.7-2.2-7.8,0c-2.2,2.2-2.2,5.7,0,7.8C69.9,29,73.5,29,75.6,26.9z"></path><path class="st3" d="M34.1,87.6l-6.5,3.8c-1.1,0.6-2.5,0.3-3.2-0.8l-9.3-16.1c-0.6-1.1-0.3-2.5,0.8-3.2l6.5-3.8 c1.1-0.6,2.5-0.3,3.2,0.8l9.3,16.1C35.6,85.6,35.2,87,34.1,87.6z"></path><path d="M26.4,92.4c-1.1,0-2.1-0.5-2.6-1.5l-9.3-16.1c-0.2-0.4-0.1-0.8,0.3-1c0.4-0.2,0.8-0.1,1,0.3l9.3,16.1c0.4,0.7,1.4,1,2.1,0.6 l6.5-3.8c0.4-0.2,0.8-0.1,1,0.3c0.2,0.4,0.1,0.8-0.3,1L28,92C27.5,92.3,27,92.4,26.4,92.4z"></path><path class="st1" d="M52.3,57.7c-0.9-1.5-2.8-2-4.4-1.2L47.2,57c1.5-0.9,2-2.8,1.2-4.4c-0.9-1.5-2.8-2-4.4-1.2l-10.5,6.1l-0.9-2.9 c-0.7-2.3-2-4.5-3.6-6.3l-1-1.1c-1.2-1.4-3.2-1.8-4.9-1.1c-1.5,0.6-2,2.5-1,3.7l0.9,1.1c1.6,2,2.5,4.6,2.6,7.2l-0.1,10.2l8.5,14.7 l2.5,0.4c1.6,0.2,3.2-0.1,4.5-0.9l12.4-7.2c1.5-0.9,2-2.8,1.2-4.4c-0.9-1.5-2.8-2-4.4-1.2l3.2-1.8c1.5-0.9,2-2.8,1.2-4.4 c-0.9-1.5-2.8-2-4.4-1.2l0.8-0.4C52.7,61.2,53.2,59.3,52.3,57.7z"></path><path d="M37.7,84.3c-0.4,0-0.7,0-1.1-0.1c-0.4-0.1-0.7-0.4-0.6-0.8c0.1-0.4,0.4-0.7,0.8-0.6c1.4,0.2,2.8-0.1,4.1-0.8l12.4-7.2 c0.6-0.3,1-0.9,1.1-1.5c0.2-0.6,0.1-1.3-0.2-1.9c-0.3-0.6-0.9-1-1.5-1.1c-0.6-0.2-1.3-0.1-1.9,0.2c-0.4,0.2-0.8,0.1-1-0.3 c-0.2-0.4-0.1-0.8,0.3-1l3.2-1.8c0.6-0.3,1-0.9,1.1-1.5c0.2-0.6,0.1-1.3-0.2-1.9c-0.7-1.2-2.2-1.6-3.3-0.9l0,0 c-0.4,0.2-0.8,0.1-1-0.3c-0.2-0.4-0.1-0.8,0.3-1l0.8-0.4c0.6-0.3,1-0.9,1.1-1.5c0.2-0.6,0.1-1.3-0.2-1.9c-0.3-0.6-0.9-1-1.5-1.1 c-0.6-0.2-1.3-0.1-1.9,0.2l-0.8,0.4c0,0,0,0,0,0c-0.4,0.2-0.8,0.1-1-0.3c-0.2-0.4-0.1-0.8,0.3-1c0.6-0.3,1-0.9,1.1-1.5 c0.2-0.6,0.1-1.3-0.2-1.9c-0.7-1.2-2.2-1.6-3.3-0.9l-6.8,4c-0.4,0.2-0.8,0.1-1-0.3c-0.2-0.4-0.1-0.8,0.3-1l6.8-4 c1.9-1.1,4.3-0.4,5.4,1.4c0.5,0.9,0.7,2,0.4,3c0,0,0,0.1,0,0.1c0.4,0,0.8,0,1.2,0.1c1,0.3,1.9,0.9,2.4,1.8c0.5,0.9,0.7,2,0.4,3 c-0.1,0.4-0.3,0.8-0.5,1.1c1,0.2,2,0.9,2.5,1.9c0.5,0.9,0.7,2,0.4,3c-0.3,1-0.9,1.9-1.8,2.4L53.5,69c0.8,0.3,1.5,0.9,2,1.7 c0.5,0.9,0.7,2,0.4,3c-0.3,1-0.9,1.9-1.8,2.4l-12.4,7.2C40.4,83.9,39,84.3,37.7,84.3z M25.6,66C25.6,66,25.6,66,25.6,66 c-0.4,0-0.7-0.3-0.7-0.7l0-7.1c-0.1-2.4-0.9-4.8-2.5-6.7l-0.9-1.1c-0.6-0.8-0.8-1.8-0.6-2.8c0.3-1,0.9-1.7,1.9-2.1 c2-0.8,4.3-0.3,5.8,1.3l1,1.1c1.7,1.9,3,4.1,3.7,6.6l0.9,2.9c0.1,0.4-0.1,0.8-0.5,0.9c-0.4,0.1-0.8-0.1-0.9-0.5L31.9,55 c-0.7-2.3-1.9-4.3-3.4-6l-1-1.1c-1-1.1-2.7-1.5-4.1-1c-0.5,0.2-0.8,0.6-1,1.1c-0.1,0.5,0,1,0.3,1.5l0.9,1.1c1.7,2.2,2.7,4.9,2.8,7.6 c0,0,0,0,0,0l0,7.1C26.4,65.7,26.1,66,25.6,66z"></path><path d="M46.2,73.1c-0.3,0-0.5-0.1-0.6-0.4c-0.2-0.4-0.1-0.8,0.3-1l4.2-2.5c0.4-0.2,0.8-0.1,1,0.3c0.2,0.4,0.1,0.8-0.3,1L46.5,73 C46.4,73.1,46.3,73.1,46.2,73.1z"></path><path d="M44.5,66.7c-0.3,0-0.5-0.1-0.6-0.4c-0.2-0.4-0.1-0.8,0.3-1l6.7-3.9c0.4-0.2,0.8-0.1,1,0.3c0.2,0.4,0.1,0.8-0.3,1l-6.7,3.9 C44.7,66.7,44.6,66.7,44.5,66.7z"></path><path d="M41.7,60.9c-0.3,0-0.5-0.1-0.6-0.4c-0.2-0.4-0.1-0.8,0.3-1l5.5-3.2c0.4-0.2,0.8-0.1,1,0.3c0.2,0.4,0.1,0.8-0.3,1l-5.5,3.2 C42,60.9,41.9,60.9,41.7,60.9z"></path><path d="M91.8,47.2c-0.2-0.3-0.7-0.4-1-0.2l-5.1,3.6l2-11.4c0.3-1.7-0.1-3.4-1-4.7c-1-1.4-2.4-2.3-4.1-2.6l-7.2-1.3 c-0.4-0.1-0.8,0.2-0.9,0.6c-0.1,0.4,0.2,0.8,0.6,0.9l7.2,1.3c1.3,0.2,2.4,0.9,3.1,2c0.7,1.1,1,2.4,0.8,3.6l-2,11.4l-3.6-5.1 c-0.2-0.3-0.7-0.4-1-0.2c-0.3,0.2-0.4,0.7-0.2,1l4.6,6.6c0,0,0,0,0,0c0,0,0,0,0,0.1c0,0,0,0,0,0c0,0,0,0,0,0c0,0,0,0,0,0 c0,0,0,0,0,0c0,0,0,0,0,0c0,0,0,0,0.1,0c0,0,0,0,0,0c0,0,0,0,0.1,0c0,0,0,0,0,0c0,0,0,0,0.1,0c0,0,0,0,0,0c0,0,0,0,0,0c0,0,0,0,0,0 c0,0,0.1,0,0.1,0h0c0,0,0,0,0,0c0,0,0.1,0,0.1,0c0,0,0,0,0,0c0,0,0.1,0,0.1,0c0,0,0,0,0,0c0,0,0,0,0.1,0c0,0,0,0,0,0c0,0,0,0,0,0 l6.6-4.6C92,48,92.1,47.5,91.8,47.2z"></path><path class="st3" d="M11.8,56c-0.2,0-0.4-0.1-0.5-0.2l-5.2-5.6c-0.2-0.2-0.2-0.5-0.2-0.7C6,49.2,6.2,49,6.4,48.9l7.4-1.7 c0.3-0.1,0.5,0,0.7,0.2c0.2,0.2,0.2,0.5,0.2,0.7l-2.2,7.3c-0.1,0.3-0.3,0.4-0.5,0.5C11.9,56,11.9,56,11.8,56z M8,50.1l3.5,3.7 l1.5-4.8L8,50.1z"></path><path class="st3" d="M90.9,23.7c-0.2,0-0.3-0.1-0.5-0.2l-5.9-4.9c-0.2-0.2-0.3-0.4-0.3-0.7c0-0.3,0.2-0.5,0.5-0.6l7.2-2.7 c0.2-0.1,0.5,0,0.7,0.1c0.2,0.2,0.3,0.4,0.3,0.7l-1.3,7.5c0,0.3-0.2,0.5-0.5,0.6C91.1,23.7,91,23.7,90.9,23.7z M86.4,18.3l3.9,3.2 l0.8-5L86.4,18.3z"></path><path d="M40.7,102.2c-2.3,0-4.1-1.8-4.1-4.1c0-2.3,1.8-4.1,4.1-4.1c2.3,0,4.1,1.8,4.1,4.1C44.8,100.4,43,102.2,40.7,102.2z  M40.7,95.5c-1.4,0-2.6,1.2-2.6,2.6c0,1.4,1.2,2.6,2.6,2.6c1.4,0,2.6-1.2,2.6-2.6C43.3,96.7,42.1,95.5,40.7,95.5z"></path><path d="M105.5,44.6c-2.3,0-4.1-1.8-4.1-4.1s1.8-4.1,4.1-4.1c2.3,0,4.1,1.8,4.1,4.1S107.7,44.6,105.5,44.6z M105.5,37.9 c-1.4,0-2.6,1.2-2.6,2.6c0,1.4,1.2,2.6,2.6,2.6c1.4,0,2.6-1.2,2.6-2.6C108.1,39,106.9,37.9,105.5,37.9z"></path></svg>