<svg xmlns="http://www.w3.org/2000/svg" xmlns:xlink="http://www.w3.org/1999/xlink" id="Layer_1" x="0px" y="0px" viewBox="0 0 113 112" style="enable-background:new 0 0 113 112;" xml:space="preserve"><style type="text/css">	.st0{fill:#D9F8FF;}	.st1{fill:#FFFFFF;}	.st2{fill:#308EA7;}	.st3{fill:#FAD060;}</style><path class="st0" d="M110.4,75.6c-5.9,12.4-26.2,4.6-38.5,13.6c-23.8,17.4-38.9,14.1-44.3-2.4c-4.8-15-13.2-11.4-21.4-19.6 C-4.4,56.8,0,33.8,25.4,32.1C50.7,30.4,40,4.8,63.9,2.6c14.4-1.3,30.9,8.3,34.1,36.2C100.2,57.1,118.4,58.7,110.4,75.6z"></path><path class="st1" d="M63.1,72.8l-8.5-3.2l-4-1.5c-1.3,4-4.9,7.1-9.4,7.5c-4.5,0.4-8.6-2-10.6-5.7l-11.5,6.9 c-4.8,2.9-7.6,8.3-7.1,13.9l0.2,2.7l60.7-5.3l-0.2-2.7C72,79.7,68.3,74.8,63.1,72.8z"></path><path class="st2" d="M68.1,78.8c-1.1-1.5-2.5-2.7-4.2-3.6c-2.7,3-4.1,7-3.7,11.1l0.2,2.7l10.4-0.9l-0.2-2.7 C70.4,83,69.5,80.7,68.1,78.8z"></path><path class="st2" d="M18.5,79.3c-1.4,1.1-2.6,2.6-3.5,4.2c-1.1,2.2-1.6,4.6-1.4,7l0.2,2.7l10.4-0.9l-0.2-2.7 C23.7,85.4,21.7,81.7,18.5,79.3z"></path><path class="st3" d="M41.4,79.8c6.2-0.5,11.2-4.7,13.1-10.2l-4-1.5c-1.3,4-4.9,7.1-9.4,7.5c-4.5,0.4-8.6-2-10.6-5.7L26.8,72 C29.6,77.1,35.3,80.4,41.4,79.8z"></path><path class="st3" d="M72.7,88.7c-0.4,0-0.7-0.3-0.7-0.7l-0.2-2.7c-0.5-5.3-4-9.9-8.9-11.8L50.9,69c-1.6,4.1-5.4,6.9-9.8,7.3 c-0.3,0-0.7,0-1,0c-4.3,0-8.2-2.3-10.3-6.2c-0.2-0.4-0.1-0.8,0.3-1c0.4-0.2,0.8-0.1,1,0.3c1.9,3.6,5.8,5.7,9.9,5.3 c4.1-0.4,7.5-3.1,8.8-7c0.1-0.2,0.2-0.4,0.4-0.4c0.2-0.1,0.4-0.1,0.6,0l12.6,4.8c2.7,1,5.1,2.8,6.8,5.1c1.8,2.3,2.8,5.1,3.1,8 l0.2,2.7C73.5,88.3,73.2,88.7,72.7,88.7C72.8,88.7,72.7,88.7,72.7,88.7z"></path><path d="M12.1,94c-0.4,0-0.7-0.3-0.7-0.7l-0.2-2.7c-0.3-2.9,0.3-5.8,1.6-8.4c1.3-2.6,3.3-4.7,5.8-6.2c0.4-0.2,0.8-0.1,1,0.3 c0.2,0.4,0.1,0.8-0.3,1c-4.6,2.7-7.2,7.9-6.7,13.2l0.2,2.7C12.8,93.6,12.5,94,12.1,94C12.1,94,12.1,94,12.1,94z"></path><path d="M51.3,63.7c-0.3,0-0.5-0.1-0.7-0.4c-0.2-0.3-3.7-7-3.2-15.9c0-0.4,0.4-0.7,0.8-0.7c0.4,0,0.7,0.4,0.7,0.8 c-0.4,8.4,3,15,3.1,15.1c0.2,0.4,0.1,0.8-0.3,1C51.5,63.6,51.4,63.7,51.3,63.7z"></path><path d="M55.1,62.3c-0.2,0-0.5-0.1-0.6-0.3c-0.2-0.3-4.3-6.7-3.9-16.4c0-0.4,0.4-0.7,0.8-0.7c0.4,0,0.7,0.4,0.7,0.8 c-0.4,9.3,3.6,15.5,3.7,15.6c0.2,0.3,0.1,0.8-0.2,1C55.4,62.3,55.3,62.3,55.1,62.3z"></path><path d="M58.6,60.3c-0.3,0-0.5-0.1-0.6-0.4c-0.1-0.3-3.6-6.3-3.7-12.3c-0.1-3.8-0.2-10.5-0.2-10.5l1.5,0c0,0,0.2,6.7,0.2,10.5 c0.1,5.6,3.5,11.6,3.5,11.6c0.2,0.4,0.1,0.8-0.3,1C58.9,60.3,58.8,60.3,58.6,60.3z"></path><path d="M28.8,65.7c-0.1,0-0.2,0-0.2,0c-0.4-0.1-0.6-0.5-0.5-0.9c0-0.1,2.3-7.2,0.4-15.4c-0.1-0.4,0.2-0.8,0.6-0.9 c0.4-0.1,0.8,0.2,0.9,0.6c2,8.6-0.3,15.9-0.4,16.2C29.4,65.5,29.1,65.7,28.8,65.7z"></path><path d="M24.7,65c-0.1,0-0.2,0-0.3-0.1c-0.4-0.2-0.6-0.6-0.4-1c0-0.1,2.9-7,0.9-16c-0.1-0.4,0.2-0.8,0.6-0.9 c0.4-0.1,0.8,0.2,0.9,0.6c2.1,9.5-0.8,16.6-0.9,16.9C25.3,64.8,25,65,24.7,65z"></path><path d="M20.9,63.6c-0.1,0-0.2,0-0.2,0c-0.4-0.1-0.6-0.6-0.5-1c0-0.1,2.3-6.5,1.4-12.1C21,46.9,20,40.3,20,40.3l1.5-0.2 c0,0,1,6.6,1.6,10.3c0.9,5.9-1.4,12.5-1.5,12.8C21.5,63.5,21.2,63.6,20.9,63.6z"></path><path class="st1" d="M24.3,46.6c0,0-1.5-9.4-0.9-10.5c2.6-5.8,6.2-2.5,6.2-2.5s6-2.6,11.1-1.7c7.8,1.4,11.6,5.8,11.6,5.8l1.2,13.3 c0.7,7.9-5.1,14.8-13,15.5c-7.9,0.7-14.8-5.1-15.5-13L24.3,46.6z"></path><path class="st1" d="M56.1,41.8c-2.1,0.2-3.5,2.2-3.5,2.2L50.1,48l3.2,3.4c2.3-0.2,4.6-2.6,5-5.3C58.6,43.3,57.7,41.7,56.1,41.8z"></path><path class="st1" d="M20.3,45c-1.6,0.1-2.3,1.9-1.4,4.6c0.8,2.6,3.5,4.5,5.8,4.3l2.1-3.2l-2.7-4.1C24.1,46.6,22.4,44.8,20.3,45z"></path><path d="M38.9,67.2c-7.5,0-13.9-5.5-14.9-13c-0.1-0.4,0.2-0.8,0.6-0.8c0.4-0.1,0.8,0.2,0.8,0.6c1,7.2,7.4,12.3,14.6,11.7 c5.9-0.5,10.7-4.7,12-10.5c0.1-0.4,0.5-0.7,0.9-0.6c0.4,0.1,0.7,0.5,0.6,0.9c-0.7,3.1-2.3,5.8-4.7,7.9c-2.4,2.2-5.4,3.4-8.7,3.7 C39.8,67.2,39.4,67.2,38.9,67.2z"></path><path d="M39.1,62c-2.3,0-4.5-0.9-6.2-2.5c-0.3-0.3-0.3-0.8,0-1.1c0.3-0.3,0.8-0.3,1.1,0c1.5,1.5,3.6,2.3,5.8,2.1 c2.1-0.2,4.1-1.3,5.3-3.1c0.2-0.3,0.7-0.4,1-0.2c0.3,0.2,0.4,0.7,0.2,1c-1.5,2.1-3.8,3.5-6.4,3.7C39.6,62,39.3,62,39.1,62z"></path><path d="M53.2,52.1c-0.4,0-0.7-0.3-0.7-0.7c0-0.4,0.3-0.8,0.7-0.8c2-0.2,4-2.3,4.3-4.6c0.2-1.4,0-2.6-0.5-3.1 c-0.2-0.2-0.5-0.3-0.9-0.3c-1.7,0.1-2.9,1.9-2.9,1.9c-0.2,0.3-0.7,0.4-1,0.2c-0.3-0.2-0.4-0.7-0.2-1c0.1-0.1,1.6-2.3,4-2.6 c0.8-0.1,1.6,0.2,2.1,0.8c0.8,0.9,1.1,2.4,0.9,4.3C58.6,49.2,56,51.9,53.2,52.1C53.3,52.1,53.3,52.1,53.2,52.1z"></path><path d="M24.4,54.6c-2.6,0-5.3-2.1-6.2-4.9c-0.6-1.9-0.6-3.4,0.1-4.4c0.4-0.7,1.1-1,1.9-1.1c2.4-0.2,4.3,1.7,4.4,1.8 c0.3,0.3,0.3,0.8,0,1.1c-0.3,0.3-0.8,0.3-1.1,0c0,0-1.5-1.5-3.2-1.4c-0.4,0-0.6,0.2-0.8,0.5c-0.4,0.6-0.4,1.7,0.1,3.1 c0.7,2.2,3,4,5.1,3.8c0.4,0,0.8,0.3,0.8,0.7c0,0.4-0.3,0.8-0.7,0.8C24.7,54.6,24.6,54.6,24.4,54.6z"></path><path d="M52.6,44.8c-0.4,0-0.7-0.3-0.7-0.7l-0.6-7.3c0-0.4,0.3-0.8,0.7-0.8c0.4,0,0.8,0.3,0.8,0.7l0.6,7.3 C53.4,44.4,53.1,44.8,52.6,44.8C52.6,44.8,52.6,44.8,52.6,44.8z"></path><path d="M24.1,47.3c-0.4,0-0.7-0.3-0.7-0.7l-0.6-7.3c0-0.4,0.3-0.8,0.7-0.8c0.4,0,0.8,0.3,0.8,0.7l0.6,7.3 C24.9,46.9,24.6,47.3,24.1,47.3C24.2,47.3,24.2,47.3,24.1,47.3z"></path><path d="M35.5,41.8c-0.2,0-0.5-0.1-0.6-0.4c-0.2-0.3-0.1-0.8,0.2-1c0,0,3.1-2,4.9-4.6c0.2-0.3,0.7-0.4,1-0.2c0.3,0.2,0.4,0.7,0.2,1 c-2,2.9-5.2,5-5.4,5.1C35.8,41.7,35.7,41.8,35.5,41.8z"></path><path d="M28.5,42.3c-0.3,0-0.6-0.2-0.7-0.6c-0.1-0.4,0.1-0.8,0.5-0.9c0,0,4.1-1.1,7.1-4.8c0.3-0.3,0.7-0.4,1-0.1 c0.3,0.3,0.4,0.7,0.1,1c-3.3,4.1-7.7,5.2-7.9,5.3C28.6,42.3,28.6,42.3,28.5,42.3z"></path><path class="st3" d="M39.9,17.9c0.1-0.4,0.1-0.8,0.1-1.2c-0.2-2.3-2.2-4-4.5-3.8c-2.3,0.2-4,2.2-3.8,4.5c0,0.4,0.1,0.8,0.3,1.2 c1.3-0.4,2.7-0.7,3.9-0.8C37.2,17.7,38.5,17.7,39.9,17.9z"></path><path class="st3" d="M52.9,29.2c-1.6-9-10.8-11.9-17-11.4c-6.2,0.5-14.8,5-14.8,14.2c2.4-0.9,7.3-2.4,15.7-3.1 C45.3,28.1,50.4,28.7,52.9,29.2z"></path><path class="st3" d="M55,29.7c0,0-5-2-18.1-0.9c-13.1,1.2-17.7,4-17.7,4c-2.3,4.8,0.7,7.6,0.7,7.6c4.1-1.8,10.4-3.4,17.7-4.1 c7.3-0.6,13.8-0.1,18.1,0.9C55.7,37.3,58.2,34,55,29.7z"></path><path d="M19.9,41.2c-0.2,0-0.4-0.1-0.5-0.2c-0.1-0.1-3.4-3.2-0.8-8.5c0.1-0.1,0.2-0.2,0.3-0.3c0,0,0.9-0.6,2.9-1.2 c0.4-0.1,0.8,0.1,0.9,0.5s-0.1,0.8-0.5,0.9c-1.3,0.5-2.1,0.8-2.4,1c-1.5,3.2-0.3,5.4,0.3,6.2c4.7-1.9,11-3.3,17.4-3.9 c6.7-0.6,13.4-0.3,18.4,0.9c0.4,0.1,0.6,0.5,0.6,0.9c-0.1,0.4-0.5,0.6-0.9,0.6c-4.8-1.1-11.3-1.5-17.9-0.9s-12.9,2-17.5,4 C20.1,41.2,20,41.2,19.9,41.2z"></path><path d="M21.2,32.7c-0.1,0-0.3,0-0.4-0.1c-0.2-0.1-0.3-0.4-0.3-0.6c0-4.3,1.8-8.1,5.3-10.9c2.8-2.2,6.5-3.7,10.1-4 c0.4,0,0.8,0.3,0.8,0.7c0,0.4-0.3,0.8-0.7,0.8c-5.2,0.5-13.4,4.2-14,12.3c2.9-1,7.6-2.1,14.9-2.8c8.3-0.7,13.4-0.2,16.2,0.3 c0.4,0.1,0.7,0.5,0.6,0.9c-0.1,0.4-0.5,0.7-0.9,0.6c-2.7-0.5-7.7-1-15.8-0.3c-8.1,0.7-12.9,2.1-15.5,3.1 C21.4,32.7,21.3,32.7,21.2,32.7z"></path><path d="M32,19.3c-0.3,0-0.6-0.2-0.7-0.5c-0.1-0.4,0.1-0.8,0.5-0.9c1.4-0.4,2.7-0.7,4.1-0.8c1.1-0.1,2.2-0.1,3.4,0 c0-0.1,0-0.2,0-0.3c-0.2-1.9-1.8-3.3-3.7-3.1c-0.4,0-0.8-0.3-0.8-0.7c0-0.4,0.3-0.8,0.7-0.8c2.7-0.2,5.1,1.8,5.3,4.4 c0,0.5,0,1-0.1,1.4c-0.1,0.4-0.4,0.6-0.8,0.6c-1.3-0.2-2.6-0.2-3.8-0.1c-1.2,0.1-2.5,0.4-3.8,0.8C32.2,19.3,32.1,19.3,32,19.3z"></path><path class="st1" d="M93.1,44.6l-19.3-3.8l-11.7,6.6l5.7-29.6c0.6-2.8,3.3-4.7,6.1-4.1l24.2,4.7c2.8,0.6,4.7,3.3,4.1,6.1l-3.1,15.9 C98.7,43.3,96,45.2,93.1,44.6z"></path><path class="st2" d="M70.6,30l2.8-14.4c-1.7-0.2-3.3,1-3.7,2.7l-5,25.6l8.7-4.9l20,3.9c1.7,0.3,3.3-0.7,3.8-2.3l-22.6-4.4 C71.9,35.5,70,32.8,70.6,30z"></path><path d="M62.1,48.2c-0.2,0-0.3,0-0.4-0.1c-0.2-0.2-0.4-0.5-0.3-0.7l5.7-29.6c0.6-3.2,3.8-5.3,7-4.7l24.2,4.7 c1.6,0.3,2.9,1.2,3.8,2.5c0.9,1.3,1.2,2.9,0.9,4.5l-0.7,3.5c-0.1,0.4-0.5,0.7-0.9,0.6c-0.4-0.1-0.7-0.5-0.6-0.9l0.7-3.5 c0.2-1.2,0-2.4-0.7-3.4c-0.7-1-1.7-1.7-2.9-1.9l-24.2-4.7c-2.4-0.5-4.8,1.1-5.2,3.5l-5.4,28l10.3-5.8c0.2-0.1,0.3-0.1,0.5-0.1 l19.3,3.8c1.2,0.2,2.4,0,3.4-0.7c1-0.7,1.7-1.7,1.9-2.9l0.1-0.4c0.1-0.4,0.5-0.7,0.9-0.6c0.4,0.1,0.7,0.5,0.6,0.9l-0.1,0.4 c-0.6,2.8-3.1,4.8-5.9,4.8c-0.4,0-0.8,0-1.1-0.1l-19.1-3.7l-11.4,6.4C62.4,48.1,62.2,48.2,62.1,48.2z"></path><path d="M83.6,32.1c0,0-0.1,0-0.1,0l-8.4-1.6c-0.4-0.1-0.7-0.5-0.6-0.9c0.1-0.4,0.5-0.7,0.9-0.6l8.4,1.6c0.4,0.1,0.7,0.5,0.6,0.9 C84.3,31.9,84,32.1,83.6,32.1z"></path><path d="M92.5,26.3c0,0-0.1,0-0.1,0l-15.9-3.1c-0.4-0.1-0.7-0.5-0.6-0.9c0.1-0.4,0.5-0.7,0.9-0.6l15.9,3.1c0.4,0.1,0.7,0.5,0.6,0.9 C93.2,26,92.8,26.3,92.5,26.3z"></path><path class="st3" d="M102.9,39.1l-6.5-1.3c-1.1-0.2-1.8-1.2-1.6-2.3l1-4.9c0.2-1.1,1.2-1.8,2.3-1.6l6.5,1.3c1.1,0.2,1.8,1.2,1.6,2.3 l-1,4.9C105,38.6,103.9,39.3,102.9,39.1z"></path><path class="st3" d="M78.1,61.5c1.2-2.2,0.4-4.9-1.8-6.1c-2.2-1.2-4.9-0.4-6.1,1.8c-1.2,2.2-0.4,4.9,1.8,6.1 C74.2,64.5,76.9,63.7,78.1,61.5z"></path><path d="M80.2,55.6c-0.2,0-0.5-0.1-0.6-0.3c-0.2-0.3-0.2-0.8,0.2-1l4-2.9c0.3-0.2,0.8-0.2,1,0.2c0.2,0.3,0.2,0.8-0.2,1l-4,2.9 C80.5,55.6,80.4,55.6,80.2,55.6z"></path><path d="M75.3,52.7c0,0-0.1,0-0.1,0c-0.4-0.1-0.7-0.4-0.6-0.9l0.8-4.9c0.1-0.4,0.4-0.7,0.9-0.6c0.4,0.1,0.7,0.4,0.6,0.9L76.1,52 C76,52.4,75.7,52.7,75.3,52.7z"></path><path d="M69.7,54c-0.2,0-0.5-0.1-0.6-0.3l-2.9-4c-0.2-0.3-0.2-0.8,0.2-1c0.3-0.2,0.8-0.2,1,0.2l2.9,4c0.2,0.3,0.2,0.8-0.2,1 C70,54,69.9,54,69.7,54z"></path><path d="M66.8,58.9c0,0-0.1,0-0.1,0l-4.9-0.8c-0.4-0.1-0.7-0.4-0.6-0.9c0.1-0.4,0.4-0.7,0.9-0.6l4.9,0.8c0.4,0.1,0.7,0.4,0.6,0.9 C67.4,58.6,67.1,58.9,66.8,58.9z"></path><path d="M64.1,67.4c-0.2,0-0.5-0.1-0.6-0.3c-0.2-0.3-0.2-0.8,0.2-1l4-2.9c0.3-0.2,0.8-0.2,1,0.2c0.2,0.3,0.2,0.8-0.2,1l-4,2.9 C64.4,67.3,64.2,67.4,64.1,67.4z"></path><path class="st1" d="M73.5,60.5l3.1,27.9c0.2,1.8,2.5,2.6,3.7,1.3l4-4.2L92.8,97c0.8,1.1,2.4,1.3,3.5,0.5l7.6-5.6 c1.1-0.8,1.3-2.4,0.5-3.5l-8.5-11.6l5.2-2.5c1.7-0.8,1.6-3.2-0.1-3.9L75.3,59.2C74.4,58.8,73.4,59.5,73.5,60.5z"></path><path class="st2" d="M78.7,88.6l5.1-5.4c0.3-0.3,0.9-0.3,1.1,0.1l9.1,12.4c0.3,0.4,0.9,0.5,1.3,0.2l3.4-2.5L75.5,61.3l3,27.3 C78.5,88.7,78.7,88.7,78.7,88.6z"></path><path d="M94.8,98.8c-0.2,0-0.3,0-0.5,0c-0.8-0.1-1.6-0.6-2.1-1.3l-8-10.9l-3.4,3.5c-0.8,0.8-2,1.1-3,0.8c-1.1-0.4-1.8-1.3-2-2.4 l-3.1-27.9c-0.1-0.7,0.2-1.4,0.8-1.9s1.4-0.5,2-0.2l25.7,11.3c1,0.5,1.7,1.5,1.7,2.6c0,1.1-0.6,2.2-1.6,2.7L97,77.2l8,10.9 c0.5,0.7,0.7,1.5,0.6,2.4c-0.1,0.8-0.6,1.6-1.3,2.1l-7.6,5.6C96.2,98.6,95.5,98.8,94.8,98.8z M84.3,84.7 C84.3,84.7,84.3,84.7,84.3,84.7c0.3,0,0.5,0.1,0.6,0.3l8.5,11.6c0.3,0.4,0.7,0.6,1.1,0.7c0.5,0.1,0.9,0,1.3-0.3l7.6-5.6 c0.4-0.3,0.6-0.7,0.7-1.1c0.1-0.5,0-0.9-0.3-1.3l-8.5-11.6c-0.1-0.2-0.2-0.4-0.1-0.6c0.1-0.2,0.2-0.4,0.4-0.5l5.2-2.5 c0.5-0.2,0.8-0.7,0.8-1.3c0-0.6-0.3-1-0.8-1.3L75,59.9c-0.3-0.1-0.5,0-0.6,0.1c-0.1,0.1-0.3,0.2-0.2,0.5l3.1,27.9 c0.1,0.6,0.4,1,1,1.2c0.5,0.2,1.1,0,1.5-0.4l4-4.2C83.9,84.8,84.1,84.7,84.3,84.7z"></path><path class="st3" d="M103.2,64.7c-0.2,0-0.3-0.1-0.5-0.2l-6-4.8c-0.2-0.2-0.3-0.4-0.3-0.7c0-0.3,0.2-0.5,0.5-0.6l7.1-2.8 c0.2-0.1,0.5-0.1,0.7,0.1c0.2,0.2,0.3,0.4,0.3,0.7l-1.2,7.6c0,0.3-0.2,0.5-0.5,0.6C103.4,64.7,103.3,64.7,103.2,64.7z M98.7,59.4 l3.9,3.2l0.8-5L98.7,59.4z"></path><path class="st3" d="M9.6,60.6C9.6,60.6,9.5,60.6,9.6,60.6c-0.4,0-0.6-0.2-0.7-0.5l-3-7c-0.1-0.2-0.1-0.5,0.1-0.7 c0.2-0.2,0.4-0.3,0.7-0.3l7.6,1c0.3,0,0.5,0.2,0.6,0.5c0.1,0.2,0.1,0.5-0.1,0.7l-4.6,6.1C10,60.5,9.8,60.6,9.6,60.6z M7.8,53.7 l2,4.7l3.1-4L7.8,53.7z"></path><path d="M55.6,105c-2.3,0-4.1-1.8-4.1-4.1c0-2.3,1.8-4.1,4.1-4.1c2.3,0,4.1,1.8,4.1,4.1C59.7,103.1,57.8,105,55.6,105z M55.6,98.2 c-1.4,0-2.6,1.2-2.6,2.6c0,1.4,1.2,2.6,2.6,2.6c1.4,0,2.6-1.2,2.6-2.6C58.2,99.4,57,98.2,55.6,98.2z"></path><path d="M52.2,14c-2.3,0-4.1-1.8-4.1-4.1c0-2.3,1.8-4.1,4.1-4.1c2.3,0,4.1,1.8,4.1,4.1C56.3,12.1,54.5,14,52.2,14z M52.2,7.3 c-1.4,0-2.6,1.2-2.6,2.6c0,1.4,1.2,2.6,2.6,2.6c1.4,0,2.6-1.2,2.6-2.6C54.8,8.4,53.7,7.3,52.2,7.3z"></path></svg>