<svg xmlns="http://www.w3.org/2000/svg" xmlns:xlink="http://www.w3.org/1999/xlink" id="Layer_1" x="0px" y="0px" viewBox="0 0 113 112" style="enable-background:new 0 0 113 112;" xml:space="preserve"><style type="text/css">	.st0{fill:#D9F8FF;}	.st1{fill:#FFFFFF;}	.st2{fill:#308EA7;}	.st3{fill:#FAD060;}</style><path class="st0" d="M4.5,71.9c6.7,12.1,18.7,8.6,29.7,20.2c19.2,20.2,41.8,12.4,47.1-3.2c4.8-14.2,13.5-8.3,22.1-15.9 c11-9.7,12.7-39-17.7-41.2c-27.3-2-16.4-21.2-32-23.7C43.1,6.3,20.7,6,18,32.6C16.2,50.1-4.6,55.4,4.5,71.9z"></path><path class="st1" d="M38.7,41.5l1.3-2.3c0.7-1.1,0.3-2.6-0.9-3.3L30.7,31c-1.1-0.7-2.6-0.3-3.3,0.9L7.3,66.7L48,90.2L65.5,60 c0.7-1.3,0.3-2.9-1-3.6L38.7,41.5z"></path><path d="M48,91c-0.1,0-0.3,0-0.4-0.1L9.8,69c-0.4-0.2-0.5-0.7-0.3-1c0.2-0.4,0.7-0.5,1-0.3l37.2,21.4l17.1-29.6 c0.3-0.4,0.3-0.9,0.2-1.4c-0.1-0.5-0.4-0.9-0.9-1.1L38.3,42.1c-0.4-0.2-0.5-0.7-0.3-1l1.3-2.3c0.2-0.4,0.3-0.8,0.2-1.2 c-0.1-0.4-0.4-0.8-0.8-1l-8.4-4.9c-0.8-0.5-1.8-0.2-2.2,0.6l-17,29.4c-0.2,0.4-0.7,0.5-1,0.3c-0.4-0.2-0.5-0.7-0.3-1l17-29.4 c0.9-1.5,2.8-2,4.3-1.1l8.4,4.9c0.7,0.4,1.2,1.1,1.5,1.9c0.2,0.8,0.1,1.7-0.3,2.4l-1,1.6l25.2,14.5c0.8,0.5,1.3,1.2,1.6,2 c0.2,0.9,0.1,1.8-0.3,2.6L48.7,90.6C48.6,90.8,48.3,91,48,91z"></path><path class="st1" d="M61.3,10.4l-17.6,6.9c-2.7,1-4,4.1-2.9,6.7l15.1,38.4c1,2.7,4.1,4,6.7,2.9l24.3-9.5c2.7-1,4-4.1,2.9-6.7 l-12.2-31L61.3,10.4z"></path><path class="st2" d="M59.6,53.8L45.7,18.5L44.4,19c-1.7,0.7-2.6,2.6-1.9,4.3l15.1,38.4c0.5,1.3,1.7,2.1,3.1,2.1 c0.4,0,0.8-0.1,1.2-0.2l24.3-9.5c1.7-0.7,2.6-2.6,1.9-4.3l-0.5-1.3l-21.3,8.3C63.6,57.8,60.6,56.5,59.6,53.8z"></path><path d="M60.7,66.4c-0.8,0-1.6-0.2-2.4-0.5c-1.5-0.6-2.6-1.8-3.2-3.3L40.1,24.3c-0.6-1.5-0.5-3.1,0.1-4.5c0.6-1.5,1.8-2.6,3.3-3.2 L61,9.7c0.2-0.1,0.4-0.1,0.6,0L78,17.4c0.2,0.1,0.3,0.2,0.4,0.4l6.5,16.7c0.1,0.4,0,0.8-0.4,1c-0.4,0.1-0.8,0-1-0.4l-6.4-16.4 l-15.8-7.4L44,18c-1.1,0.4-2,1.3-2.5,2.4c-0.5,1.1-0.5,2.3-0.1,3.4l15.1,38.4c0.4,1.1,1.3,2,2.4,2.5c1.1,0.5,2.3,0.5,3.4,0.1 l24.3-9.5c2.3-0.9,3.4-3.5,2.5-5.8l-1.2-3.1c-0.1-0.4,0-0.8,0.4-1c0.4-0.1,0.8,0,1,0.4l1.2,3.1c1.2,3-0.3,6.5-3.4,7.7L62.8,66 C62.1,66.3,61.4,66.4,60.7,66.4z"></path><path class="st3" d="M68.8,51.4L64.6,53c-0.8,0.3-1.7-0.1-2-0.9l-1.7-4.2c-0.3-0.8,0.1-1.7,0.9-2l4.2-1.7c0.8-0.3,1.7,0.1,2,0.9 l1.7,4.2C70,50.1,69.6,51,68.8,51.4z"></path><path class="st3" d="M79.4,47.2l-4.2,1.7c-0.8,0.3-1.7-0.1-2-0.9l-1.7-4.2c-0.3-0.8,0.1-1.7,0.9-2l4.2-1.7c0.8-0.3,1.7,0.1,2,0.9 l1.7,4.2C80.6,46,80.2,46.9,79.4,47.2z"></path><path class="st3" d="M89.9,43.1l-4.2,1.7c-0.8,0.3-1.7-0.1-2-0.9l-1.7-4.2c-0.3-0.8,0.1-1.7,0.9-2l4.2-1.7c0.8-0.3,1.7,0.1,2,0.9 l1.7,4.2C91.1,41.8,90.7,42.8,89.9,43.1z"></path><path class="st3" d="M61.3,10.4l2.9,7.4c1,2.7,4.1,4,6.7,2.9l6.7-2.6L61.3,10.4z"></path><path d="M69,21.8c-0.8,0-1.6-0.2-2.4-0.5c-1.5-0.6-2.6-1.8-3.2-3.3l-2.9-7.4c-0.1-0.3,0-0.6,0.2-0.8c0.2-0.2,0.6-0.3,0.8-0.1 L78,17.4c0.3,0.1,0.4,0.4,0.4,0.7c0,0.3-0.2,0.6-0.5,0.7l-6.7,2.6C70.5,21.7,69.8,21.8,69,21.8z M62.7,11.8l2.2,5.6 c0.4,1.1,1.3,2,2.4,2.5c1.1,0.5,2.3,0.5,3.4,0.1l5.1-2L62.7,11.8z"></path><path d="M64.7,40.3c-0.1,0-0.2,0-0.3-0.1l-7.2-3.1c-0.4-0.2-0.5-0.6-0.4-1c0.2-0.4,0.6-0.5,1-0.4l6.5,2.9l6-13.8 c0.2-0.4,0.6-0.5,1-0.4c0.4,0.2,0.5,0.6,0.4,1l-6.3,14.4c-0.1,0.2-0.2,0.3-0.4,0.4C64.9,40.3,64.8,40.3,64.7,40.3z"></path><path class="st3" d="M48.3,90.4l-41-23.6l21.2-19.1c1.5-1.4,3.7-1.6,5.5-0.6l34.2,19.7c1.9,1.1,2.1,3.6,0.5,5.1L48.3,90.4z"></path><path class="st1" d="M38.8,61.2l-9.4,8.5c-0.9,0.9-0.8,2.4,0.3,3l5.6,3.2c1,0.6,2.2,0.4,3.1-0.3l9.4-8.5c0.9-0.9,0.8-2.4-0.3-3 l-5.6-3.2C40.9,60.3,39.7,60.5,38.8,61.2z"></path><path d="M48.3,91.1c-0.1,0-0.3,0-0.4-0.1L7,67.4c-0.4-0.2-0.5-0.7-0.3-1c0.2-0.4,0.7-0.5,1-0.3l40.5,23.4l20.1-18.1 c0.6-0.5,0.9-1.3,0.8-2c-0.1-0.8-0.5-1.4-1.2-1.8c-0.4-0.2-0.5-0.7-0.3-1c0.2-0.4,0.7-0.5,1-0.3c1.1,0.6,1.8,1.7,1.9,3 c0.1,1.3-0.3,2.5-1.3,3.3L48.8,90.9C48.6,91,48.5,91.1,48.3,91.1z"></path><path class="st1" d="M75.6,99.6c8.8,0,16-7.1,16-16c0-8.8-7.1-16-16-16c-8.8,0-16,7.1-16,16C59.7,92.5,66.8,99.6,75.6,99.6z"></path><path class="st2" d="M61.5,83.7c0,7.8,6.3,14.1,14.1,14.1V69.6C67.9,69.6,61.5,75.9,61.5,83.7z"></path><path d="M75.6,100.4c-9.2,0-16.7-7.5-16.7-16.7c0-9.2,7.5-16.7,16.7-16.7c9.2,0,16.7,7.5,16.7,16.7S84.8,100.4,75.6,100.4z  M75.6,68.5c-8.4,0-15.2,6.8-15.2,15.2s6.8,15.2,15.2,15.2c8.4,0,15.2-6.8,15.2-15.2S84,68.5,75.6,68.5z"></path><path d="M83,85.4c-0.3-0.3-0.8-0.3-1.1,0l-5.6,5.5V74.6c0-0.4-0.3-0.7-0.7-0.7c-0.4,0-0.7,0.3-0.7,0.7V91l-5.6-5.7 c-0.3-0.3-0.8-0.3-1.1,0c-0.3,0.3-0.3,0.8,0,1.1l6.8,6.9c0.1,0.1,0.3,0.2,0.5,0.2c0,0,0,0,0,0c0,0,0,0,0,0c0,0,0,0,0,0 c0.3,0,0.5-0.2,0.7-0.4l6.7-6.6C83.3,86.2,83.3,85.7,83,85.4z"></path><path d="M92,74.8c-0.3,0-0.5-0.1-0.6-0.4c-1.4-2.5-3.5-4.6-5.9-6.1c-0.3-0.2-0.4-0.7-0.2-1c0.2-0.3,0.7-0.4,1-0.2 c2.6,1.7,4.8,3.9,6.3,6.6c0.2,0.4,0.1,0.8-0.3,1C92.2,74.8,92.1,74.8,92,74.8z"></path><path d="M42.7,13.4l-3.8-5.7c-0.2-0.3-0.6-0.4-0.9-0.2c-0.3,0.2-0.4,0.6-0.2,0.9l2.7,4c-2.5-0.9-5.1-1.2-7.8-0.9 c-9.4,1.1-16.1,9.6-15,19c0.3,2.3,1,4.5,2.1,6.5c0.1,0.2,0.4,0.3,0.6,0.3c0.1,0,0.2,0,0.3-0.1c0.3-0.2,0.4-0.6,0.3-0.9 c-1-1.8-1.7-3.8-1.9-5.9c-1-8.6,5.2-16.4,13.8-17.4c2.6-0.3,5.3,0.1,7.7,1L36,17c-0.3,0.2-0.4,0.6-0.2,0.9c0.1,0.2,0.3,0.3,0.6,0.3 c0.1,0,0.3,0,0.4-0.1l5.7-3.8C42.8,14.1,42.9,13.7,42.7,13.4z"></path><path class="st3" d="M103.2,65.1c-0.1,0-0.1,0-0.2,0c-0.3-0.1-0.5-0.3-0.5-0.5l-1.8-7.4c-0.1-0.3,0-0.5,0.2-0.7 c0.2-0.2,0.5-0.2,0.7-0.2l7.3,2.2c0.3,0.1,0.5,0.3,0.5,0.5c0.1,0.3,0,0.5-0.2,0.7l-5.5,5.3C103.6,65.1,103.4,65.1,103.2,65.1z  M102.5,58l1.2,4.9l3.7-3.5L102.5,58z"></path><path class="st3" d="M14.3,46.8C14.3,46.8,14.3,46.8,14.3,46.8l-7.7-0.2c-0.3,0-0.5-0.2-0.6-0.4c-0.1-0.2-0.1-0.5,0-0.7l4-6.5 c0.1-0.2,0.4-0.4,0.7-0.4c0.3,0,0.5,0.2,0.6,0.4l3.6,6.7c0.1,0.2,0.1,0.5,0,0.7C14.8,46.6,14.6,46.8,14.3,46.8z M8,45.1l5.1,0.1 l-2.4-4.5L8,45.1z"></path><path d="M41.6,102.6c-2.3,0-4.1-1.8-4.1-4.1c0-2.3,1.8-4.1,4.1-4.1c2.3,0,4.1,1.8,4.1,4.1C45.7,100.8,43.8,102.6,41.6,102.6z  M41.6,95.9c-1.4,0-2.6,1.2-2.6,2.6c0,1.4,1.2,2.6,2.6,2.6c1.4,0,2.6-1.2,2.6-2.6C44.2,97.1,43,95.9,41.6,95.9z"></path><path d="M93.7,31.1c-2.3,0-4.1-1.8-4.1-4.1c0-2.3,1.8-4.1,4.1-4.1c2.3,0,4.1,1.8,4.1,4.1C97.8,29.3,96,31.1,93.7,31.1z M93.7,24.4 c-1.4,0-2.6,1.2-2.6,2.6c0,1.4,1.2,2.6,2.6,2.6c1.4,0,2.6-1.2,2.6-2.6C96.3,25.5,95.2,24.4,93.7,24.4z"></path></svg>