<svg width="552" height="45" viewBox="0 0 552 45" fill="none" xmlns="http://www.w3.org/2000/svg">
<g clip-path="url(#clip0_36_1015)">
<path d="M551.5 0.731689L548.523 44.8774H504.914C503.098 44.8774 502.507 41.2033 504.01 39.2666L533.901 0.731689H551.5Z" fill="#191C21"/>
</g>
<g clip-path="url(#clip1_36_1015)">
<path d="M260.21 44.8774H215.984C215.559 44.8774 36.121 44.6495 0.543201 44.2366L3.47717 0.731689H237.177L261.87 39.2666C263.112 41.2033 262.025 44.8774 260.21 44.8774Z" fill="#191C21"/>
</g>
<path d="M517.259 0.731689H473.033C472.561 0.731689 472.083 1.00938 471.694 1.51492L447.309 32.9438H321.978L301.832 1.51492C301.512 1.00938 301.071 0.731689 300.599 0.731689H256.373C254.558 0.731689 253.47 4.40575 254.713 6.34247L271.76 32.9438L279.405 44.8774H488.272L497.527 32.9438L518.162 6.34247C519.666 4.40575 519.074 0.731689 517.259 0.731689Z" fill="#ED9E03"/>
<defs>
<clipPath id="clip0_36_1015">
<path d="M505.927 0.731689H551.5L550.205 19.934C549.276 33.7099 537.33 44.8774 523.523 44.8774H502.95L505.927 0.731689Z" fill="white"/>
</clipPath>
<clipPath id="clip1_36_1015">
<path d="M3.47717 0.731689H265.15L262.173 44.8774H25.5C11.6929 44.8774 1.25312 33.7099 2.18217 19.934L3.47717 0.731689Z" fill="white"/>
</clipPath>
</defs>
</svg>
